<svg xmlns="http://www.w3.org/2000/svg" viewBox="0 0 800 800" style="enable-background:new 0 0 800 800" xml:space="preserve"><style>.st2{fill:#fff}</style><g id="Vrstva_1"><path style="fill:#e9573f" d="M0 0h800v800H0z"/><path class="st2" d="M400 108.3 147.3 254.1v291.7L400 691.7l252.7-145.9V254.1L400 108.3zm204.2 409.6L400 635.8 195.8 517.9V282.1L400 164.2l204.2 117.9v235.8z"/><path class="st2" d="m223 501.6 177 177 177-177-76.2-76.2-201.9.3-75.9 75.9z"/><circle class="st2" cx="400" cy="329" r="71.1"/><path d="M400 46.3c47.8 0 94.1 9.3 137.7 27.8 42.1 17.8 79.9 43.3 112.4 75.8s58 70.3 75.8 112.4c18.4 43.6 27.8 89.9 27.8 137.7s-9.3 94.1-27.8 137.7c-17.8 42.1-43.3 79.9-75.8 112.4s-70.3 58-112.4 75.8c-43.6 18.4-89.9 27.8-137.7 27.8s-94.1-9.3-137.7-27.8c-42.1-17.8-79.9-43.3-112.4-75.8s-58-70.3-75.8-112.4C55.6 494.1 46.3 447.8 46.3 400s9.3-94.1 27.8-137.7c17.8-42.1 43.3-79.9 75.8-112.4s70.3-58 112.4-75.8c43.6-18.5 89.9-27.8 137.7-27.8m0-45C179.8 1.3 1.3 179.8 1.3 400S179.8 798.7 400 798.7 798.7 620.2 798.7 400 620.2 1.3 400 1.3z" style="fill:#d7523b"/></g></svg>