<svg xmlns="http://www.w3.org/2000/svg" id="svg2" preserveAspectRatio="xMinYMin meet" viewBox="0 0 3200 1800">
  <style>
    #ship { -webkit-animation: rock 5s infinite; animation: rock 5s infinite; transform-origin: 50% 50%; } @-webkit-keyframes rock { 50% { -webkit-transform: rotate(-3deg) translateX(3px); -webkit-animation-timing-function: ease-in-out; } } @-ms-keyframes rock { 50% { transform: rotate(-3deg) translateX(3px); animation-timing-function: ease-in-out; } } @keyframes rock { 50% { transform: rotate(-3deg) translateX(3px); animation-timing-function: ease-in-out; } }
  </style>
  <defs id="defs4">
    <clipPath id="a">
      <path id="path7" d="M0 1440h2560V0H0v1440z"/>
    </clipPath>
    <clipPath id="b">
      <path id="path10" d="M1325.45 983.88h213.82V484h-213.82v499.9z"/>
    </clipPath>
    <clipPath id="c">
      <path id="path13" d="M1215.47 983.88h213.7v-209.4h-213.7v209.4z"/>
    </clipPath>
    <clipPath id="d">
      <path id="path16" d="M1139 1373.85h166.3V1130.8H1139v243.05z"/>
    </clipPath>
    <clipPath id="e">
      <path id="path19" d="M1237.97 1334.94h63.54v-198.6H1238v198.6z"/>
    </clipPath>
    <clipPath id="f">
      <path id="path22" d="M633.3 869.7h144.37V674.5H633.3v195.2z"/>
    </clipPath>
    <clipPath id="g">
      <path id="path25" d="M1886.36 515.76h89.95v-182.5h-89.9v182.5z"/>
    </clipPath>
    <clipPath id="h">
      <path id="path28" d="M2141.36 1195.76h115.35v-182.7h-115.3v182.7z"/>
    </clipPath>
    <clipPath id="i">
      <path id="path31" d="M1303 367.54h59V308.5h-59v59.04z"/>
    </clipPath>
    <clipPath id="j">
      <path id="path34" d="M995.7 558.74h17.24v-58.48H995.7v58.48z"/>
    </clipPath>
    <clipPath id="k">
      <path id="path37" d="M1620.5 556.28h29.67v-88.02h-29.67v88.02z"/>
    </clipPath>
    <clipPath id="l">
      <path id="path40" d="M1278.37 613.37h98.7v-99.23h-98.7v99.23z"/>
    </clipPath>
    <clipPath id="m">
      <path id="path43" d="M956.37 785.37h98.7v-99.23h-98.7v99.23z"/>
    </clipPath>
    <clipPath id="n">
      <path id="path46" d="M952.34 759.94h106.76v-39.1H952.34v39.1z"/>
    </clipPath>
    <clipPath id="o">
      <path id="path49" d="M999 697.45h3v-7.9h-3v7.9z"/>
    </clipPath>
    <clipPath id="p">
      <path id="path52" d="M1009 697.45h3v-7.9h-3v7.9z"/>
    </clipPath>
    <clipPath id="q">
      <path id="path55" d="M1004 707.45h3v-7.9h-3v7.9z"/>
    </clipPath>
    <clipPath id="r">
      <path id="path58" d="M1591.84 766.1h60.24v-60.45h-60.24v60.46z"/>
    </clipPath>
    <clipPath id="s">
      <path id="path61" d="M1103.18 1394.7h413.9V975.56h-413.9v419.14z"/>
    </clipPath>
    <clipPath id="t">
      <path id="path64" d="M1376 1373.85h317.5v-199.02H1376v199.02z"/>
    </clipPath>
  </defs>
  <g id="g66" clip-path="url(#a)" transform="matrix(1.3 0 0 -1.3 -62 1972.8)">
    <path id="path68" fill="#00b79d" d="M582 242c-64.8 0-117.5 52.7-117.5 117.5S517.2 477 582 477h175c28.95 0 52.5 23.55 52.5 52.5S785.95 582 757 582H282c-64.8 0-117.5 52.7-117.5 117.5S217.2 817 282 817h475c28.95 0 52.5 23.55 52.5 52.5S785.95 922 757 922H582c-64.8 0-117.5 52.7-117.5 117.5S517.2 1157 582 1157h1693c64.8 0 117.5-52.7 117.5-117.5S2339.8 922 2275 922h-476c-28.95 0-52.5-23.55-52.5-52.5s23.55-52.5 52.5-52.5h176c64.8 0 117.5-52.7 117.5-117.5S2039.8 582 1975 582h-176c-28.95 0-52.5-23.55-52.5-52.5s23.55-52.5 52.5-52.5h476c64.8 0 117.5-52.7 117.5-117.5S2339.8 242 2275 242H582z"/>
    <path id="path70" fill="#00b79d" d="M2275 1159H582c-66.27 0-120-53.73-120-120 0-66.27 53.73-120 120-120h175c27.6 0 50-22.4 50-50s-22.4-50-50-50H282c-66.27 0-120-53.73-120-120 0-66.27 53.73-120 120-120h475c27.6 0 50-22.4 50-50s-22.4-50-50-50H582c-66.27 0-120-53.73-120-120 0-66.27 53.73-120 120-120h1693c66.27 0 120 53.73 120 120 0 66.27-53.73 120-120 120h-476c-27.6 0-50 22.4-50 50s22.4 50 50 50h176c66.27 0 120 53.73 120 120 0 66.27-53.73 120-120 120h-176c-27.6 0-50 22.4-50 50s22.4 50 50 50h476c66.27 0 120 53.73 120 120 0 66.27-53.73 120-120 120m0-5c30.72 0 59.6-11.7 81.32-33.43 21.72-21.72 33.68-50.48 33.68-81.2 0-30.7-11.96-59.78-33.68-81.5S2305.72 924 2275 924h-476c-30.33 0-55-24.67-55-55s24.67-55 55-55h176c30.72 0 59.6-11.7 81.32-33.43 21.72-21.72 33.68-50.48 33.68-81.2 0-30.7-11.96-59.78-33.68-81.5S2005.72 584 1975 584h-176c-30.33 0-55-24.67-55-55s24.67-55 55-55h476c30.72 0 59.6-11.7 81.32-33.43 21.72-21.72 33.68-50.48 33.68-81.2 0-30.7-11.96-59.78-33.68-81.5S2305.72 244 2275 244H582c-30.72 0-59.6 12.2-81.32 33.93-21.72 21.72-33.68 50.73-33.68 81.44 0 30.72 11.96 59.4 33.68 81.13C522.4 462.23 551.28 474 582 474h175c30.33 0 55 24.67 55 55s-24.67 55-55 55H282c-30.72 0-59.6 12.2-81.32 33.93-21.72 21.72-33.68 50.73-33.68 81.45 0 30.7 11.96 59.4 33.68 81.13C222.4 802.3 251.28 814 282 814h475c30.33 0 55 24.67 55 55s-24.67 55-55 55H582c-30.72 0-59.6 12.2-81.32 33.93-21.72 21.72-33.68 50.73-33.68 81.45 0 30.7 11.96 59.4 33.68 81.12 21.72 21.73 50.6 33.5 81.32 33.5h1693"/>
    <path id="path72" fill="#84767c" d="M1438.6 809c-19.6 35.05-2.63 107.53-44.3 123-40.36 15-30.02 63.17-58.02 67-29.4 4.02-53.64-64-89.14-96.5-36.5-33.42-34.7-112.25-50.12-138.8-47.5-81.74-78.33-56.7-78.33-238.7 0-74 419.5-78 419.5 1 0 115-23.7 147-99.7 283"/>
    <path id="path74" fill="#694455" d="M1230.95 777c.1-14.54-1.78-29.26-4.45-43.52-5.13-27.44-14.58-55.7-33.3-76.98-16.65-18.92-39.73-28.37-64.76-28.5-6.45-.03-6.45-10.03 0-10 17.12.1 33.94 3.9 48.85 12.47 13.1 7.57 23.9 18.7 32.4 31.15 15.8 23.08 23.8 51.25 28 78.64 1.8 12.1 3.2 24.48 3.2 36.74-.1 6.45-10.1 6.45-10 0m62.5-147c-1-13.63 3.3-28.27 9.6-40.2 15.5-29.73 47.9-42.67 79.6-46.23 6.9-.78 13.9-1.05 20.8-1.07 6.4-.02 6.4 9.98 0 10-33.5.12-71.2 8.08-89.8 38.77-7.2 11.83-11.1 25.66-10.3 38.7v.03c.4 6.44-9.6 6.4-10 0m-159.7-133.28c6.8-6.65 17.2-11.48 26.8-8.88 9.4 2.56 14.7 11.7 18 20.17 7.3 18.7 7.5 40.6 7.6 60.3 0 6.5-10 6.5-10 0-.1-18.1-.6-37.1-6.2-54.5-1.3-4-3.5-8.7-5.8-11.6-2.2-2.7-4.1-3.9-6.4-4.6-3.7-1.1-7.6.1-11.6 2.3-.9.5-1.7 1-2.5 1.6l-1.1.8c-1.3 1 .6-.5-.3.2-.6.5-1.2 1-1.8 1.6-4.6 4.5-11.7-2.6-7-7.1m147.3 410.1c1.7-15.7 7.3-31.5 15.1-45.2 15.6-27.7 43.1-43.5 74.9-43.7 6.4 0 6.4 10 0 10-15.6.1-30.4 4-43.3 12.8-10.2 7-18 16.9-23.9 27.6-4.7 8.6-8.1 17.8-10.6 27.3-.8 3-1.5 6-2 9-.2.9-.3 1.8-.5 2.6-.1 1.1.2-1.5 0-.1-.7 6.4-10.7 6.4-10 0"/>
    <path id="path76" fill="#694455" d="M1330.95 827c1.14-12.47 6.75-24.9 13.47-35.28 16.9-26.1 45.3-41.32 74.96-48.3 16.87-3.97 34.33-5.37 51.62-5.42 6.45-.02 6.45 9.98 0 10-37.26.1-77.9 7.1-105.7 33.98-12.4 11.98-21.08 27.03-24.12 43.6-.1.6-.48 3.2-.15.76l-.08.66c-.58 6.37-10.6 6.42-10 0m-160.48-238.74c.47-15.8 12.36-30 28.66-30.55 6.45-.2 6.43 9.8 0 10-10.76.4-18.35 10.4-18.66 20.6-.2 6.5-10.2 6.5-10 0m-10 40c.47-15.8 12.36-30 28.66-30.5 6.45-.2 6.43 9.8 0 10-10.76.4-18.35 10.4-18.66 20.6-.2 6.5-10.2 6.5-10 0m286 60c.47-15.8 12.36-30 28.66-30.5 6.45-.2 6.43 9.8 0 10-10.76.4-18.35 10.4-18.66 20.6-.2 6.5-10.2 6.5-10 0"/>
    <path id="path78" fill="#694455" d="M1423.47 717.26c.47-15.8 12.36-30 28.66-30.55 6.45-.2 6.43 9.8 0 10-10.76.4-18.35 10.4-18.66 20.6-.2 6.5-10.2 6.5-10 0m-35-21c.47-15.8 12.36-30 28.66-30.5 6.45-.2 6.43 9.8 0 10-10.76.4-18.35 10.4-18.66 20.6-.2 6.5-10.2 6.5-10 0m-50 199c.47-15.8 12.36-30 28.66-30.5 6.45-.2 6.43 9.8 0 10-10.76.4-18.35 10.4-18.66 20.6-.2 6.5-10.2 6.5-10 0m-106-15c.47-15.8 12.36-30 28.66-30.5 6.45-.2 6.43 9.8 0 10-10.76.4-18.35 10.4-18.66 20.6-.2 6.5-10.2 6.5-10 0m40-90c.47-15.8 12.36-30 28.66-30.5 6.45-.2 6.43 9.8 0 10-10.76.4-18.35 10.4-18.66 20.6-.2 6.5-10.2 6.5-10 0"/>
    <path id="path80" fill="#694455" d="M1412.65 668.93c4.92-27.3 19.13-52.05 45.86-62.5 20.9-8.12 45.2-5.02 65.2 3.96 5.9 2.6.8 11.2-5 8.6-17.2-7.8-37.5-9.7-55.6-3.6-24.4 8.3-36.3 32.2-40.6 56.1-1.1 6.3-10.8 3.6-9.6-2.7m30-100c4.3-23.8 12.2-51.9 34.2-65.3 16.6-10.1 36.7-6.2 53.4 1.3 5.9 2.6.8 11.2-5 8.6-14-6.3-30.2-9.3-44-.9-19.1 11.6-25.2 38.5-28.8 58.8-1.1 6.3-10.7 3.6-9.6-2.7m-162.2 237.7c0 2.7-2.2 5-5 5s-5-2.3-5-5 2.3-5 5-5 5 2.2 5 5m22-157c0 2.7-2.2 5-5 5s-5-2.3-5-5 2.3-5 5-5 5 2.2 5 5m-30 80c0 2.7-2.2 5-5 5s-5-2.3-5-5 2.3-5 5-5 5 2.2 5 5m20 0c0 2.7-2.2 5-5 5s-5-2.3-5-5 2.3-5 5-5 5 2.2 5 5m-10-15c0 2.7-2.2 5-5 5s-5-2.3-5-5 2.3-5 5-5 5 2.2 5 5m115-1c0 2.7-2.2 5-5 5s-5-2.3-5-5 2.3-5 5-5 5 2.2 5 5"/>
    <g id="g82" clip-path="url(#b)" opacity=".3">
      <path id="path84" fill="#694455" d="M1537.8 530.1c-34.12-42.28-212.35-46.1-212.35-46.1l.3 498.33c7.52 0 27.72 1.55 27.72 1.55 7.94-55.38 54.5-56.6 63.66-72.6 11.56-20.2 12.03-92.28 12.03-92.28 131.17-200 108.64-288.9 108.64-288.9"/>
    </g>
    <path id="path86" fill="#50142e" d="M1333.78 989.17c-11.4 0-26.8-23.1-40.38-43.5-12.06-18.1-24.54-36.84-39.5-50.55-20.65-18.9-28.2-57-34.26-87.62-4-20.17-7.45-37.6-13.97-48.83-12.68-21.8-24.1-36.1-34.16-48.7-13.9-17.5-24-30.13-31.2-54.8-8-27.43-11.5-67.58-11.5-130.17 0-11.5 22.6-24.08 59.1-32.78 37.7-9 90.1-14.22 143.9-14.22 53.8 0 103.5 5.02 139.9 14.04 35.6 8.8 56.8 21.5 56.8 33.93 0 103.08-18.7 136.48-80.9 247.07-5.4 9.74-11.3 20.07-17.4 31.07-8.5 15.3-10.8 35.8-13 55.6-3.2 28.6-6.2 55.6-26 63-25.6 9.5-34.2 30.7-40.5 46.1-5.6 13.8-8.6 19.5-15.3 20.4-.4.1-.7.1-1.1.1m-2.4-531.3c-56 0-108.8 5.3-148.4 14.8-49.4 11.8-74.4 29.4-74.4 52.2 0 64.6 3.8 106.5 12.4 135.8 8.3 28.5 20.6 43.9 34.9 61.7 9.6 12.1 20.5 25.8 32.5 46.3 4.9 8.4 8.2 25 11.7 42.7 6.7 33.5 14.9 75.2 40.4 98.5 13.2 12.1 25 29.8 36.4 46.9 18.7 28.2 34.9 52.5 57 52.5 1.3 0 2.6-.1 3.9-.3 18.8-2.5 25.4-18.5 31.2-32.6 6-14.6 11.6-28.4 29-34.9 31.4-11.6 35.4-47.7 38.9-79.5 2-17.8 4.1-36.2 10.6-48 6.2-10.9 12-21.2 17.4-31 62.5-111.1 83.6-148.5 83.6-256.8 0-23.5-24.2-41.5-72-53.3-37.9-9.4-89.3-14.6-144.7-14.6"/>
    <path id="path88" fill="#00b79d" d="M1550.28 538.33c0-73.66-67.06-150.33-221-150.33-153.92 0-222.6 82-222.6 148.67 0 0 68.68-52.67 222.6-52.67 153.94 0 221 54.33 221 54.33"/>
    <path id="path90" fill="#45968c" d="M1438.6 248.17c-1.42-2.54-2.65-5.27-3.72-8.17h-223.5c-4.48 22.2-19.04 42.32-25.36 53.47-12.2 21.53-67.12 52.2-45.02 52.2 12 0 21.33 5 6.67 13.33-15.43 8.76-27.43 22.67-19.23 22.67 11.33 0 30.78 4.84 14.56 12.66-19.36 9.34-29.9 33.17-32.33 57.67-.45 4.43 6-2.54 24.33 6 0 0-34.38 10.17-34.38 19.17 0 7.17 18.07-6.84 32.7 2.83 0 0-24.03 11.33-24.03 20.52 0 10.68-.6 22.2-.6 34.7 0 0 31.5-21.4 82.3-34.33 35-9 87.8-17.4 137.4-16.9 66.2.7 114.2 8.7 162.4 24.6 31.2 10.3 57.1 27.6 57.1 27.6 0-12.7-.2-24.4-1.4-35.4-.2-1.7-3.7-3.4-3.8-5-.1-2.2 7.3-3 7.3-5 0-6.8-41.6-16.9-41.6-16.9 20.7-6.1 41.2 4.4 40.7 1.4-1.3-7.6-13.8-12.6-12.8-19.9 1.7-12.7-4.1-26.4-7.1-36.7-3.2-10.7-32.8-12.7-32.8-12.7 2.8-9.1 19.8-3.7 28.4-10.7 5.6-4.5-45.8-7.7-45.8-7.7 10.3-13.7 23.6-13.7 39.3-13.7 6.8 0-10.3-7.6-15-9.2-8.1-2.8-5.6-15.3-11.3-23.4-17.3-24.4-35.8-61.3-53.8-93.5"/>
    <path id="path130" fill="#45968c" d="M1076.33 377.93c0 4.87 7.32.83 16.34.83s16.33 4.04 16.33-.83c0-4.88-7.3-11.83-16.33-11.83-9.02 0-16.34 6.95-16.34 11.83M477.9 614.33c0 3.2 4.82.54 10.77.54 5.94 0 10.76 2.67 10.76-.55 0-3.2-4.82-7.8-10.76-7.8-5.95 0-10.77 4.6-10.77 7.8m1056.43-246.4c0 4.88 7.32.84 16.34.84s16.33 4.04 16.33-.83c0-4.88-7.3-11.83-16.33-11.83-9.02 0-16.34 6.95-16.34 11.83m26 120.6c0 3.64 5.45.63 12.16.63 6.7 0 22.1 3 22.1-.62 0-3.63-15.5-8.8-22.2-8.8-6.7 0-12.2 5.17-12.2 8.8m-463.9-22.6c0 3-4.5.5-10 .5s-18.2 2.5-18.2-.5c0-2.96 12.6-7.2 18.1-7.2 5.5 0 9.9 4.24 9.9 7.2m-605 178.02c0 2.97-4.5.5-10 .5s-18.2 2.47-18.2-.5c0-2.98 12.7-7.23 18.2-7.23s9.9 4.25 9.9 7.23m280.8-17c0 2.97 4.5.5 10 .5s18.1 2.47 18.1-.5c0-2.98-12.7-7.23-18.2-7.23s-10 4.25-10 7.23"/>
    <g id="g132" clip-path="url(#c)" opacity=".5">
      <path id="path134" fill="#50142e" d="M1421.53 895.26c0-17.84 7.63-50.42 7.63-50.42-18.98-41.52-60.87-70.37-109.5-70.37-44.5 0-83.36 24.15-104.18 60.06 0 0 13.22 61.83 45.65 83.05 29.6 19.35 23.02 66.3 67.35 66.3 38.27 0 19.1-8.92 38.65-27.96 14.4-14.03 54.4-32.47 54.4-60.66"/>
    </g>
    <path id="path152" fill="#84767c" d="M773.12 674.48H498s20.95 84.47 64.7 89.02C574.33 764.7 581.67 865 626 865c29 0 41-52.04 72.3-52.04 0 0 35.86-51.38 50.7-65.96 29-28.5 24.12-72.52 24.12-72.52"/>
    <path id="path154" fill="#45968c" d="M778.25 674.48H498c0-15.6 5.6-27.7 5.6-27.7 3.36-5.43 23.85-2.14 23.85-2.14-4.64-8.37-11.57-10.56-23.37-10.56-9.33 0 9.85-17.5 19.86-19.7 0 0-1.7-6.57-8.06-6.57-6.18 0 1.47-10 16.18-14.1 15.64-4.4 29.5-7.1 36.08-7.8 1.65-.2 3.4-2.1 5-5.8h163.22c14.1 14.1 2.16 22 8.66 22 14.4 0 27.6 13.7 20.98 13.7-8.3 0-15.07 11.1-15.07 11.1 9.02 0 18.8 8.3 21.1 13.6 1.15 2.6-12.6-4.5-20.27 6.5 0 0 21.7 1.4 22.94 8.1.96 5.2 3.55 13.3 3.55 19.7"/>
    <path id="path156" fill="#694455" d="M715.33 726.5c-14.88.08-30.38 2.03-43.23 10.07-11.64 7.28-16.95 19.72-17.1 33.1-.04 3.86-6.04 3.87-6 0 .17-15 6.02-28.13 18.26-37.06 13.53-9.8 31.82-12 48.07-12.1 3.87 0 3.87 6 0 6m-96 40c-10.76.2-20.06 5.5-20.33 17.2-.1 3.9-6.1 3.9-6 0 .35-15 12.22-22.9 26.33-23.1 3.87 0 3.87 6 0 6"/>
    <path id="path158" fill="#694455" d="M664.75 735.25c-.2-10.77-5.5-20.06-17.17-20.33-3.86-.1-3.87-6.1 0-6 15 .35 22.9 12.2 23.17 26.33.07 3.87-5.93 3.87-6 0m-56.42 1.25c-6.5.2-10.18 6.14-10.33 12.17-.1 3.86-6.1 3.87-6 0 .23-9.4 6.48-17.85 16.33-18.17 3.87-.12 3.86 5.88 0 6m87-40c-6.5.2-10.18 6.14-10.33 12.17-.1 3.86-6.1 3.87-6 0 .23-9.4 6.48-17.85 16.33-18.17 3.87-.12 3.86 5.88 0 6"/>
    <path id="path160" fill="#694455" d="M622.33 721.5c-6.5.2-10.18 6.14-10.33 12.17-.1 3.86-6.1 3.87-6 0 .23-9.4 6.48-17.85 16.33-18.17 3.87-.12 3.86 5.88 0 6m-50.03 49c21.65.4 35.7 18.4 36.03 39.17.07 3.87-5.93 3.86-6 0-.28-17.45-11.68-32.83-30.04-33.17-3.9-.07-3.9-6.07 0-6m-47.6-35.25c.1-10.46 3.9-20.1 11.8-27.15 9.5-8.55 22.9-11.06 35.4-11.18 3.8-.04 3.8 5.96 0 6-20.4.2-41 9.43-41.3 32.33-.1 3.87-6.1 3.87-6 0m63.5-35.95c0-1.67-1.4-3-3-3s-3 1.33-3 3c0 1.65 1.3 3 3 3s3-1.35 3-3m67 86c0-1.67-1.4-3-3-3s-3 1.33-3 3c0 1.65 1.3 3 3 3s3-1.35 3-3m-39 52c0-1.67-1.4-3-3-3s-3 1.33-3 3c0 1.65 1.3 3 3 3s3-1.35 3-3m0-10c0-1.67-1.4-3-3-3s-3 1.33-3 3c0 1.65 1.3 3 3 3s3-1.35 3-3m8 5c0-1.67-1.4-3-3-3s-3 1.33-3 3c0 1.65 1.3 3 3 3s3-1.35 3-3m62-55c0-1.67-1.4-3-3-3s-3 1.33-3 3c0 1.65 1.3 3 3 3s3-1.35 3-3m0-10c0-1.67-1.4-3-3-3s-3 1.33-3 3c0 1.65 1.3 3 3 3s3-1.35 3-3m8 5c0-1.67-1.4-3-3-3s-3 1.33-3 3c0 1.65 1.3 3 3 3s3-1.35 3-3"/>
    <g id="g162" clip-path="url(#f)" opacity=".3">
      <path id="path164" fill="#694455" d="M777.67 674.7l-144.38-.22V869.7l19-15 16.3-26.8 29.6-14.94 56.3-73.7 23-64.57z"/>
    </g>
    <path id="path166" fill="none" stroke="#50142e" stroke-width="10" stroke-miterlimit="10" d="M503 674.48c0 46.93 27.74 76.43 51.13 84.02 21.4 6.95 19.9 38.5 28.02 55.37C595.25 841.07 597.62 865 626 865c40.62 0 27.12-38 56.12-44.74 30.53-7.1 23.22-29 40-45.8 16.78-16.77 51-40.8 51-99.98"/>
    <path id="path168" fill="#45968c" d="M1784.03 295.35c0 2.02 3.03.34 6.78.34 3.8 0 6.8 1.6 6.8-.4 0-2.1-3-4.9-6.8-4.9-3.7 0-6.7 2.9-6.7 4.9m7.3 21.2c0 1.8-2.8.3-6.3.3-3.4 0-11.4 1.5-11.4-.3s8-4.6 11.5-4.6 6.3 2.6 6.3 4.5m190.2-17c0 1.9 2.8.3 6.3.3s11.5 1.5 11.5-.4-8-4.6-11.4-4.6c-3.4 0-6.2 2.6-6.2 4.5"/>
    <path id="path170" fill="#84767c" d="M1980.86 333.25H1803s13.2 53.2 40.75 56.08c7.33.76-8.7 126.43 42.6 126.43 41.98 0 28.38-64.8 40.54-64.8l19.8-8.6s18.8-51.64 23.4-54.6c4.5-2.93 10.6-54.5 10.6-54.5"/>
    <path id="path172" fill="#45968c" d="M1981.3 333.25h-180.13c0-10.08 1.83-16.73 1.83-16.73 2.18-3.5 8.02-1.06 8.02-1.06-3-5.4-4.88-6.82-12.5-6.82-6.03 0 6.36-11.3 12.82-12.7 0 0-1.1-4.26-5.2-4.26-4 0 .94-6.46 10.45-9.14 10-2.85 2.9-4.6 7.1-5.05 1-.2 21.4-35.2 22.5-37.5h107.6c13.4 25.3 2.9 43.9 7.1 43.9 9.3 0 14.8 12.8 10.5 12.8-5.4 0-4.6 5.8-4.6 5.8 5.8 0 16 5.3 17.5 8.7.7 1.7-8.2-3-13.1 4.1 0 0 8.2 2.2 9 6.5.6 3.3.9 7.1.9 11.2"/>
    <path id="path174" fill="#694455" d="M1975.4 368.08c-13.4.02-26.95.7-40.04 3.82-10.96 2.6-25.12 8.1-25.42 21.32-.1 3.86-6.1 3.87-6 0 .33-14.57 12.93-22.05 25.46-25.93 14.7-4.6 30.72-5.2 46-5.3 3.88 0 3.88 6 0 6m-99.04 24.2c-6.72.1-11.54 5-11.7 11.7-.1 3.8-6.1 3.9-6 0 .23-10.1 7.7-17.5 17.7-17.7 3.87-.1 3.86 5.9 0 6m26.8 80.5c3.87 0 3.87 6 0 6s-3.87-6 0-6m0-10c3.87 0 3.87 6 0 6s-3.87-6 0-6m-9 5c3.87 0 3.87 6 0 6s-3.87-6 0-6m-30-95c3.87 0 3.87 6 0 6s-3.87-6 0-6m0-10c3.87 0 3.87 6 0 6s-3.87-6 0-6m-9 5c3.87 0 3.87 6 0 6s-3.87-6 0-6m5.54 99.4c-.12-3.5-3.4-5.3-6.56-5.4-3.87-.1-3.88-6.1 0-6 6.53.1 12.33 4.6 12.55 11.4.1 3.8-5.9 3.8-6 0"/>
    <path id="path176" fill="#694455" d="M1870.14 476.1c-.1-3.5-3.38-5.33-6.55-5.4-3.9-.1-3.9-6.1 0-6 6.5.15 12.3 4.57 12.5 11.4.1 3.86-5.9 3.85-6 0m-25.9-83.47c23.3.32 26.2 27.94 26.3 45.8 0 3.86-6 3.85-6 0-.1-14-1.1-39.53-20.3-39.8-3.9-.05-3.9-6.05 0-6m47.2 52.04c.6-20.94 28.3-30.1 45.7-30.3 3.8-.04 3.8 5.96 0 6-13.8.17-39.3 7.17-39.8 24.3-.2 3.86-6.2 3.87-6 0m-76.1-70.62c0-7.57 1.9-15.37 6.8-21.33 6.9-8.4 17.5-11 27.9-11.15 3.8-.05 3.8 5.95 0 6-8.9.13-18.2 2.1-23.8 9.53-3.7 4.83-5 11-5 16.95-.1 3.87-6.1 3.87-6 0"/>
    <g id="g178" clip-path="url(#g)" opacity=".3">
      <path id="path180" fill="#694455" d="M1976.3 333.25h-89.94v182.5l15.14-4.75 25.4-60.03 19.88-8.6 23.47-54.6 6.06-54.52z"/>
    </g>
    <path id="path182" fill="none" stroke="#50142e" stroke-width="10" stroke-miterlimit="10" d="M1806.14 333.25c0 29.56 16.72 52.93 32.2 52.93 16.66 0-3.98 129.58 48.02 129.58 39.48 0 22.65-70.67 52.62-70.67 19.75 0 14.63-38.3 25.2-48.9 10.58-10.6 12.13-25.7 12.13-63"/>
    <path id="path184" fill="#45968c" d="M2024.03 975.35c0 2.02 3.03.34 6.78.34 3.8 0 6.8 1.6 6.8-.4 0-2.1-3-4.9-6.8-4.9-3.7 0-6.7 2.9-6.7 4.9m7.3 21.2c0 1.8-2.8.3-6.3.3-3.4 0-11.4 1.5-11.4-.3s8-4.6 11.5-4.6 6.3 2.6 6.3 4.5m190.2-17c0 1.9 2.8.3 6.3.3s11.5 1.5 11.5-.4-8-4.6-11.4-4.6c-3.4 0-6.2 2.6-6.2 4.5"/>
    <path id="path186" fill="#84767c" d="M2256.3 1013.25h-260.16s-1.25 72.54 26.3 75.4c7.34.77 18.56 107.1 103.92 107.1 41.97 0 21.14-70.66 49.62-70.66 14.46 0 13.23 50.7 27.7 50.7 30.32 0 35.54-88.4 38.98-96.2 2.2-5 16.6-15.7 13.65-66.5"/>
    <path id="path188" fill="#45968c" d="M2261.25 1013.25H1991c0-14.35 4.85-24.07 4.85-24.07 3.1-5 14.28-4.7 21-4.7 9.02 0-5.1-9.5-17.38-6.5-8.34 2.02 9.4-16.36 18.24-18.1 2.4-.47-1.5-6.06-7.3-6.06-5.7 0 1.4-9.2 14.9-13 14.4-4.07 9.1-19.45 13.9-21.82l192.6.03c0 11.25-6.9 23.7-.9 23.7 13.3 0 21.1 18.27 15 18.27-7.6 0-9 9.13-6.5 8.3 7.3-2.43 22.8 4.28 24.9 12.48.7 2.53-11.8-5.53-18.6 5.9-1.7 2.9 13.8 1.14 14.9 7.3.9 4.8.9 12.38.9 18.27"/>
    <path id="path190" fill="#694455" d="M2255.4 1028.08c-13.4.02-26.95.7-40.04 3.82-10.96 2.6-25.12 8.1-25.42 21.32-.1 3.86-6.1 3.87-6 0 .33-14.57 12.93-22.05 25.46-25.93 14.7-4.6 30.72-5.2 46-5.3 3.88 0 3.88 6 0 6m-159.04 54.2c-6.72.1-11.55 5-11.7 11.7-.1 3.8-6.1 3.9-6 0 .23-10.1 7.7-17.5 17.7-17.7 3.87-.1 3.86 5.9 0 6m5.8 80.5c3.87 0 3.87 6 0 6s-3.87-6 0-6m0-10c3.87 0 3.87 6 0 6s-3.87-6 0-6m-9 5c3.87 0 3.87 6 0 6s-3.87-6 0-6m121-95c3.87 0 3.87 6 0 6s-3.87-6 0-6m-140-2c3.87 0 3.87 6 0 6s-3.87-6 0-6m140-8c3.87 0 3.87 6 0 6s-3.87-6 0-6m-9 5c3.87 0 3.87 6 0 6s-3.87-6 0-6m-4.56 39.4c.2-6.8 6-11.3 12.54-11.4 3.87-.1 3.86 5.9 0 6-3.17.1-6.44 1.9-6.55 5.4-.2 3.8-6.2 3.8-6 0"/>
    <path id="path192" fill="#694455" d="M2191.14 1106.1c.22-6.83 6.02-11.25 12.55-11.4 3.8-.1 3.8 5.9 0 6-3.2.07-6.5 1.9-6.6 5.4-.2 3.85-6.2 3.86-6 0m-130.9-23.47c8.7.08 17.4 2.3 22.7 9.7 7.2 10.06 7.5 24.2 7.6 36.1 0 3.86-6 3.85-6 0-.1-10.5-.2-22.5-5.9-31.73-4-6.46-11.4-8-18.5-8.07-3.9-.03-3.9-6.03 0-6m11.2-27.96c.1-10.76 3.6-20.7 13.7-25.86 9.6-4.9 21.6-4.4 32.1-4.4 3.8 0 3.8 6 0 6-8.7 0-17.7-.2-26.1 2.5-10.1 3.2-13.6 12.1-13.7 21.9-.1 3.9-6.1 3.9-6 0m55 80c0-8.2 1-16.8 6.9-23 6.1-6.5 16.5-7.1 24.9-7.2 3.9 0 3.9 6 0 6-6.7.1-14.7.3-20.1 4.9-5.4 4.6-5.7 12.9-5.8 19.4-.1 3.9-6.1 3.9-6 0"/>
    <path id="path194" fill="#694455" d="M2147.5 1104.67c.06-8.2 1.03-16.86 6.9-23.07 6.15-6.52 16.53-7.17 24.88-7.23 3.87-.03 3.87 5.97 0 6-6.72.05-14.66.28-20.04 4.9-5.37 4.6-5.7 12.9-5.74 19.4-.03 3.87-6.03 3.87-6 0m-147.88-84.24c7.57.07 15.37 1.95 21.33 6.84 8.4 6.88 11 17.48 11.15 27.92.05 3.8-5.95 3.8-6 0-.13-8.9-2.1-18.2-9.53-23.8-4.83-3.7-11-5-16.95-5-3.87 0-3.87-6 0-6"/>
    <g id="g196" clip-path="url(#h)" opacity=".3">
      <path id="path198" fill="#694455" d="M2256.7 1013.25c0-.4-115.34 0-115.34 0v182.5l26.35-68.25 13.5-1.17s7.8 49.5 22.5 49.5c32.3 0 39-96.14 39-96.14s14.1-6.5 14.1-66.5"/>
    </g>
    <path id="path200" fill="none" stroke="#50142e" stroke-width="10" stroke-miterlimit="10" d="M1996.14 1013.25c0 29.56 6.72 72.93 22.2 72.93 16.66 0 14.66 109.58 108.02 109.58 39.48 0 19.65-70.67 49.62-70.67 15.02 0 7.7 50.7 27.7 50.7 36.14 0 33.9-93 40.5-99.6 10.58-10.6 12.13-25.7 12.13-63"/>
    <path id="path202" fill="#d8cacf" d="M1362.02 367.5H1303s-.68 59.04 8 59.04c16.65 0 51.02-59.04 51.02-59.04"/>
    <g id="g204" clip-path="url(#i)" opacity=".5">
      <path id="path206" fill="#d8cacf" d="M1362.02 367.54H1303s.52-5.3.52-10.37c0-4.16 1.48-6.52 5.73-7.67 4.14-1.12-5.86-4.83-5.8-6.3.16-3.37 4.24-6.55 7.88-10.2 3.1-3.08-6.2-5.33-6.2-9.7 0-2.14 5.2-2.14 5.52-3.93.98-5.36-5.32-10.87.34-10.87 16.6 0 51 59.04 51 59.04"/>
    </g>
    <path id="path208" fill="#d8cacf" d="M1012.94 529.67c-4.47-4.47-15.3 29.07-15.3 29.07s-1.7 29.5 6.97 29.5c8.4 0 10.9-56.07 8.4-58.57"/>
    <g id="g210" clip-path="url(#j)" opacity=".7">
      <path id="path212" fill="#d8cacf" d="M1012.94 529.67c-5.7-3.06-15.3 29.07-15.3 29.07s.8-9.16.9-18.47c.07-6.73-3.2-4.3-2.8-11 .26-4.08 2.1-4.6 3.26-9.52.86-3.64.9-11.8 1.98-14.46 1.22-3.1 2.5-5.1 3.63-5.1 8.4 0 8.4 29.4 8.4 29.4"/>
    </g>
    <path id="path214" fill="#d8cacf" d="M1650.17 556.78c-3.2-9.94-29.52-29.52-29.52-29.52s-.66 59.04 8 59.04c16.67 0 21.52-29.52 21.52-29.52"/>
    <g id="g216" clip-path="url(#k)" opacity=".7">
      <path id="path218" fill="#d8cacf" d="M1650.17 556.28c-8.5-14.1-29.52-28.98-29.52-28.98s0-4.47 3.68-4.47c1.26 0 .88-2.24-3.33-5-1.2-.77.87-3.63 1.75-4.08 1.05-.54.24-3.25-2.1-6.17-1.22-1.5 5.64-3.16 7.43-2.16 2.8 1.56-.9-4.1-5.58-6.1-2.05-.87-1.23-9.5 3.8-10.07 1.45-.17-1.63-1.42-1.22-4.22.47-3.15 5.17-7.28 4.04-9-2.34-3.6-2.37-7.77-.47-7.77 16.67 0 21.52 88.02 21.52 88.02"/>
    </g>
    <path id="path220" fill="#45968c" d="M1361.33 365.6c0-.76-11.05-15.6-27.4-12.4-15.93 3.13-41.43.64-41.43 1.4 0 .78 18.17 5.73 41.42 3.4 11.77-1.18 27.4 8.38 27.4 7.6"/>
    <path id="path222" fill="#00b79d" d="M1662.13 571.7c.6-.5 4.85-18.5-8.12-28.98-12.6-10.2-27.1-31.33-27.6-30.84-.6.5 7.3 17.6 24 33.9 8.5 8.27 11.2 26.4 11.8 25.9"/>
    <path id="path224" fill="#00b79d" d="M1672.13 571.7c.6-.5 4.85-18.5-8.12-28.98-12.6-10.2-27.1-31.33-27.6-30.84-.6.5 7.3 17.6 24 33.9 8.5 8.27 11.2 26.4 11.8 25.9"/>
    <path id="path226" fill="#00b79d" d="M1677.13 568.7c.6-.5 4.85-18.5-8.12-28.98-12.6-10.2-27.1-31.33-27.6-30.84-.6.5 7.3 17.6 24 33.9 8.5 8.27 11.2 26.4 11.8 25.9m-640-96.5c-.7-.3-18.6 4.35-21.8 20.7-3.1 15.9-15 38.6-14.3 38.9.8.3 12.2-14.68 18.8-37.1 3.4-11.34 18.1-22.23 17.4-22.52"/>
    <path id="path228" fill="#00b79d" d="M1039.48 455.33c-.72-.3-18.62 4.36-21.82 20.72-3.1 15.92-15.03 38.6-14.32 38.9.7.28 12.15-14.68 18.76-37.1 3.34-11.34 18.1-22.23 17.38-22.52"/>
    <path id="path230" fill="#45968c" d="M1402.33 350.6c0-.76-11.05-15.6-27.4-12.4-15.93 3.13-41.43.64-41.43 1.4 0 .78 18.17 5.73 41.42 3.4 11.77-1.18 27.4 8.38 27.4 7.6m-45.37 8.6c-.3-10.93-10.95-16-19.03-14-15.75 3.9-22.92.13-22.92.9s10.67 4.23 19.92 1.9c11.47-2.9 22.05 11.98 22.03 11.2"/>
    <path id="path232" fill="#fff" d="M1426.28 567.02c0-55.58-45.05-100.63-100.63-100.63-55.57 0-100.62 45-100.62 100.6 0 55.5 45.05 100.6 100.62 100.6 55.58 0 100.63-45.1 100.63-100.6"/>
    <path id="path234" fill="#fff" d="M1329.8 450.6c-2.18-2.18-5.72-2.18-7.9 0l-15.82 21.4c-2.18 2.2-2.18 5.73 0 7.9l15.8 15.82c2.2 2.18 5.74 2.18 7.92 0l15.8-15.8c2.2-2.2 2.2-5.73 0-7.92l-15.8-21.4z"/>
    <path id="path236" fill="#d8cacf" d="M1351.5 581.4c-2 0-3.9.78-5.3 2.2-1.42 1.4-2.2 3.3-2.2 5.3s.78 3.88 2.2 5.3l8.35 8.35c-2.24 3.78-1.87 8.74 1.2 11.8 1.85 1.85 4.26 2.87 6.8 2.87 2.42 0 4.7-.96 6.45-2.7 1.25-1.24 2.08-2.76 2.46-4.45 1.7-.4 3.24-1.24 4.48-2.48 3.82-3.9 3.97-10.2.33-13.8-1.75-1.8-4.17-2.7-6.8-2.7-1.53 0-2.98.3-4.22.9l-8.45-8.5c-1.4-1.4-3.3-2.2-5.3-2.2"/>
    <path id="path238" fill="#702845" d="M1362.54 619.72c-3.2 0-6.24-1.28-8.56-3.6-3.48-3.48-4.28-8.65-2.48-13.08l-7.07-7.08c-3.9-3.9-3.9-10.24 0-14.14 1.88-1.88 4.4-2.92 7.07-2.92 2.68 0 5.2 1.04 7.07 2.92l7.3 7.3c1.13-.34 2.35-.52 3.6-.52 3.3 0 6.34 1.23 8.57 3.45 4.6 4.6 4.45 12.53-.33 17.3-1.2 1.22-2.6 2.14-4.2 2.72-.5 1.57-1.5 3-2.7 4.22-2.2 2.2-5.1 3.4-8.2 3.4m0-5c1.7 0 3.4-.6 4.7-1.9 1.4-1.4 2-2.9 2-4.9h.1c1.8 0 3.6-.8 4.9-2.1 2.8-2.8 3.1-7.6.4-10.3-1.3-1.4-3.2-2-5-2-1.7 0-3.4.5-4.5 1.6l-9.9-9.9c-1-1-2.2-1.5-3.5-1.5-1.3 0-2.5.5-3.5 1.4-1.9 1.9-1.9 5.1 0 7l9.9 9.9c-2.8 2.8-3.1 7.5-.3 10.2 1.5 1.4 3.3 2.1 5.1 2.1"/>
    <path id="path240" fill="#d74b38" d="M1321.16 599.68c-8.5-8.5-5.73-16.7-10.78-21.75-5.05-5.05-13.74-2.77-22.46-11.5-11.58-11.57-8.75-27.52 2.83-39.1 11.6-11.6 28.25-13.72 39.83-2.13 9.1 9.08 5.73 16.7 10.78 21.75 5.05 5.05 10.67-.3 21.75 10.78 11.6 11.58 9.5 28.24-2.1 39.83-11.6 11.58-28.2 13.7-39.8 2.12"/>
    <path id="path242" fill="#ea9d78" d="M1313.9 550.77c7.88-7.9 9.4-19.2 3.34-25.24-6.04-6.04-17.34-4.54-25.23 3.36-7.9 7.9-9.4 19.1-3.3 25.2 6.1 6 17.4 4.5 25.3-3.4"/>
    <path id="path244" fill="#702845" d="M1339.6 548.72c2.6 2.6 5.37 3.05 8.06 3.5 3.58.57 7.64 1.23 13.68 7.27 10.06 10 9.2 24.9-2.12 36.3-11.3 11.3-26.24 12.1-36.3 2.1-4.3-4.3-5.37-8.5-6.4-12.5-.87-3.4-1.7-6.7-4.37-9.3-2.65-2.7-5.92-3.6-9.38-4.6-4.23-1.2-8.6-2.5-13.08-7-11.4-11.3-6.8-26.1 2.8-35.6 11.3-11.3 26.2-12.2 36.3-2.1 4.7 4.7 5.6 8.8 6.6 12.7.7 3.1 1.5 6.3 4.1 9m25.2 7.2c-7.2-7.2-12.5-8.1-16.4-8.7-2.4-.4-3.9-.7-5.4-2.1-1.7-1.7-2.2-3.9-2.9-6.6-1-4.2-2.3-9.5-8-15.2-12-12-30.2-11.1-43.4 2.1-13.4 13.4-14.6 30.9-2.8 42.7 5.4 5.4 10.8 6.9 15.2 8.2 3.1.8 5.5 1.5 7.2 3.3 1.7 1.7 2.3 4 3.1 7 1.1 4.2 2.4 9.4 7.7 14.7 11.9 11.9 30.2 11 43.3-2.2 13.2-13.2 14.1-31.4 2.1-43.4"/>
    <path id="path246" fill="#d8cacf" d="M1288.4 509.88c-2.7 0-5.33 1.08-7.2 2.95-1.26 1.25-2.1 2.8-2.5 4.5-1.7.36-3.2 1.2-4.45 2.44-3.67 3.67-3.6 9.5.18 13.26 1.7 1.7 4.03 2.65 6.55 2.65 1.85 0 3.67-.52 5.25-1.46l8.35 8.36c1.4 1.4 3.3 2.2 5.3 2.2s3.9-.8 5.3-2.2c2.93-2.93 2.93-7.7 0-10.6l-8.43-8.45c.6-1.26.93-2.72.92-4.26 0-2.62-.97-5.02-2.72-6.77-1.7-1.7-4-2.62-6.54-2.62"/>
    <path id="path248" fill="#702845" d="M1299.88 547.27c-2.67 0-5.18-1.04-7.07-2.93l-7-7.1c-1.5.62-3.1.94-4.7.94-3.2 0-6.1-1.2-8.3-3.38-2.2-2.25-3.5-5.18-3.6-8.27 0-3.2 1.2-6.24 3.5-8.53 1.2-1.22 2.7-2.13 4.2-2.7.6-1.58 1.5-3.02 2.7-4.23 2.4-2.35 5.6-3.7 9-3.7 3.2 0 6.2 1.2 8.3 3.36 2.2 2.22 3.5 5.25 3.5 8.54 0 1.26-.2 2.5-.5 3.64l7.3 7.3c3.9 3.9 3.9 10.3 0 14.2-1.9 1.9-4.4 3-7 3m0-5c1.3 0 2.6-.5 3.6-1.4 2-1.9 2-5.1 0-7l-9.9-9.9c2.1-2.1 2.4-6.8-.3-9.5-1.3-1.3-3-1.9-4.8-1.9-2 0-4 1-5.4 2.5-1.4 1.4-2 3.2-2 5.2h-.1c-1.8 0-3.5.4-4.8 1.8-2.7 2.7-2.5 6.9.2 9.6 1.3 1.3 3 1.9 4.8 1.9 2 0 4-.8 5.5-2.3l9.9 9.9c1 1 2.3 1.5 3.6 1.5m44.6 27.5l2.9 2.8c1.4 1.4-.7 3.5-2.1 2.1l-2.8-2.8c-1.3-1.3.8-3.5 2.2-2.1m7.1-7l2.9 2.8c1.4 1.4-.7 3.5-2.1 2.2l-2.8-2.8c-1.4-1.4.8-3.5 2.1-2.1m3.5 10.6l2.8 2.9c1.4 1.4-.7 3.5-2.1 2.1l-2.8-2.8c-1.3-1.4.8-3.5 2.1-2.1"/>
    <g id="g250" clip-path="url(#l)" opacity=".3">
      <path id="path252" fill="#702845" d="M1368.07 604.05c-2.06-2.06-2.06-5.4 0-7.45 2.06-2.06 5.4-2.06 7.45 0s2.05 5.4 0 7.45c-2.06 2.05-5.4 2.05-7.45 0m2.6 3.63c.13 1.5-.4 3-1.52 4.15-2.05 2.05-5.4 2.05-7.44 0-3.7-3.76.6-8.4.9-8.15 4.4 4.4 8.1 4 8.1 4m-84.8-77.88s-3.6 2.6-6.2 0c-1.4-1.42-2-3.98 0-6.03.8-.8 1.9-1.3 2.9-1.48 0 0-.4 3.4 3.4 7.5m48.8 60.1c-6.5-6.6-4.3-12.6-10.5-18.8-6.2-6.2-12.2-4-18.8-10.6-4.5-4.6-6.9-10.5-6.9-16.3 0-1.7 5-1.6 6.3-2.9l-17.8-17.8c-2.1-2.2-2.1-5.7 0-7.8 2.1-2.1 5.8-2.3 7.9-.1 2.1 2.1 2.3 5.3.3 7.5l7.9 7.9c.5-.6.9-1.1 1.4-1.6 8.3-8.3 22.2-7.9 31 .9 6.6 6.5-2.5 3.2 9 20.4 7.8-2.9 13.9 2.3 20.4 8.9 8.9 8.8 9.3 22.7 1 31s-22.2 7.8-31-1"/>
    </g>
    <path id="path254" fill="#d8cacf" d="M1029.5 753.4c-2 0-3.9.78-5.3 2.2-2.93 2.9-2.93 7.67 0 10.6l8.35 8.35c-2.24 3.78-1.87 8.73 1.2 11.8 1.85 1.85 4.26 2.87 6.8 2.87 2.42 0 4.7-.96 6.45-2.7 1.25-1.24 2.08-2.76 2.46-4.45 1.7-.4 3.24-1.24 4.48-2.48 1.76-1.8 2.83-4.3 2.95-6.8.1-2.7-.9-5.2-2.7-7-1.8-1.8-4.2-2.7-6.8-2.7-1.6 0-3 .3-4.2.9l-8.5-8.5c-1.4-1.4-3.3-2.2-5.3-2.2"/>
    <path id="path256" fill="#702845" d="M1040.54 791.72c-3.2 0-6.24-1.28-8.56-3.6-3.48-3.48-4.28-8.65-2.48-13.08l-7.07-7.08c-3.9-3.9-3.9-10.24 0-14.14 1.88-1.88 4.4-2.92 7.07-2.92 2.68 0 5.2 1.04 7.07 2.92l7.3 7.3c1.13-.34 2.35-.52 3.6-.52 3.3 0 6.34 1.23 8.57 3.45 4.6 4.6 4.45 12.53-.33 17.3-1.2 1.22-2.6 2.14-4.2 2.72-.5 1.57-1.5 3-2.7 4.22-2.2 2.2-5.1 3.4-8.2 3.4m0-5c1.7 0 3.4-.6 4.7-1.9 1.4-1.4 2-2.9 2-4.9h.1c1.8 0 3.6-.8 4.9-2.1 2.8-2.8 3.1-7.6.4-10.3-1.3-1.4-3.2-2-5-2-1.7 0-3.4.5-4.5 1.6l-9.9-9.9c-1-1-2.2-1.5-3.5-1.5-1.3 0-2.5.5-3.5 1.4-1.9 1.9-1.9 5.1 0 7l9.9 9.9c-2.8 2.8-3.1 7.5-.3 10.2 1.5 1.4 3.3 2.1 5.1 2.1"/>
    <path id="path258" fill="#d74b38" d="M999.16 771.68c-8.5-8.5-5.73-16.7-10.78-21.75-5.05-5.05-13.74-2.77-22.46-11.5-11.58-11.57-8.75-27.52 2.83-39.1 11.58-11.6 28.25-13.72 39.83-2.13 9.08 9.08 5.73 16.7 10.78 21.75 5.05 5.05 10.67-.3 21.75 10.78 11.6 11.58 9.5 28.24-2.1 39.83-11.6 11.58-28.2 13.7-39.8 2.12"/>
    <path id="path260" fill="#ea9d78" d="M991.9 722.77c7.88-7.9 9.4-19.2 3.34-25.24-6.04-6.04-17.34-4.54-25.23 3.36-7.9 7.9-9.4 19.1-3.3 25.2 6.1 6 17.4 4.5 25.3-3.4"/>
    <path id="path262" fill="#702845" d="M1017.6 720.72c2.6 2.6 5.37 3.05 8.06 3.5 3.58.57 7.64 1.23 13.68 7.27 10.06 10 9.2 24.9-2.12 36.3-11.3 11.3-26.24 12.1-36.3 2.1-4.3-4.3-5.37-8.5-6.4-12.5-.87-3.4-1.7-6.7-4.37-9.3-2.65-2.7-5.92-3.6-9.38-4.6-4.23-1.2-8.6-2.5-13.08-7-11.4-11.3-6.8-26.1 2.8-35.6 11.3-11.3 26.2-12.2 36.3-2.1 4.7 4.7 5.6 8.8 6.6 12.7.7 3.1 1.5 6.3 4.1 9m25.2 7.2c-7.2-7.2-12.5-8.1-16.4-8.7-2.4-.4-3.9-.7-5.4-2.1-1.7-1.7-2.2-3.9-2.9-6.6-1-4.2-2.3-9.5-8-15.2-12-12-30.2-11.1-43.4 2.1-13.4 13.4-14.6 30.9-2.8 42.7 5.4 5.4 10.8 6.9 15.2 8.2 3.1.8 5.5 1.5 7.2 3.3 1.7 1.7 2.3 4 3.1 7 1.1 4.2 2.4 9.4 7.7 14.7 11.9 11.9 30.2 11 43.3-2.2 13.2-13.2 14.1-31.4 2.1-43.4"/>
    <path id="path264" fill="#d8cacf" d="M966.4 681.88c-2.7 0-5.33 1.08-7.2 2.95-1.26 1.25-2.1 2.8-2.5 4.5-1.7.36-3.2 1.2-4.45 2.44-3.67 3.67-3.6 9.5.18 13.26 1.7 1.7 4.03 2.65 6.55 2.65 1.85 0 3.67-.52 5.25-1.46l8.35 8.36c1.4 1.4 3.3 2.2 5.3 2.2s3.9-.8 5.3-2.2c2.93-2.93 2.93-7.7 0-10.6l-8.44-8.45c.6-1.26.94-2.72.93-4.26 0-2.62-.97-5.02-2.72-6.77-1.7-1.7-4-2.62-6.54-2.62z"/>
    <path id="path266" fill="#702845" d="M977.88 719.27c-2.67 0-5.18-1.04-7.07-2.93l-7-7.1c-1.5.62-3.1.94-4.7.94-3.2 0-6.1-1.2-8.3-3.38-4.7-4.76-4.8-12.14-.1-16.8 1.2-1.22 2.7-2.13 4.2-2.7.6-1.58 1.5-3.02 2.7-4.23 2.4-2.35 5.6-3.7 9-3.7 3.2 0 6.2 1.2 8.3 3.36 3.2 3.16 4.2 8.06 3 12.17l7.3 7.3c3.9 3.9 3.9 10.25 0 14.14-1.9 1.9-4.4 2.93-7.1 2.93m0-5c1.3 0 2.6-.5 3.6-1.46 2-1.9 2-5.1 0-7l-9.9-9.9c2.1-2.1 2.4-6.8-.3-9.5-1.3-1.3-3-1.9-4.8-1.9-2 0-4 1-5.4 2.5-1.4 1.4-2 3.2-2 5.2h-.1c-1.8 0-3.5.4-4.8 1.8-2.7 2.8-2.5 6.9.2 9.6 1.3 1.3 3 1.9 4.8 1.9 2 0 4-.8 5.5-2.3l9.9 9.9c1 1 2.3 1.5 3.5 1.5m44.6 27.5l2.8 2.8c1.4 1.4-.7 3.5-2.1 2.2l-2.8-2.8c-1.3-1.3.8-3.5 2.2-2.1m7-7.1l2.9 2.8c1.4 1.4-.7 3.5-2.1 2.2l-2.8-2.8c-1.4-1.4.7-3.5 2.1-2.1m3.5 10.6l2.8 2.9c1.4 1.4-.7 3.5-2.1 2.1l-2.8-2.8c-1.4-1.3.8-3.5 2.1-2.1"/>
    <g id="g268" clip-path="url(#m)" opacity=".3">
      <path id="path270" fill="#702845" d="M1046.07 776.05c-2.06-2.06-2.06-5.4 0-7.45 2.06-2.06 5.4-2.06 7.45 0s2.05 5.4 0 7.45c-2.06 2.05-5.4 2.05-7.45 0m2.6 3.63c.13 1.5-.4 3-1.52 4.15-2.05 2.05-5.4 2.05-7.44 0-3.7-3.76.6-8.4.9-8.15 4.4 4.4 8.1 4 8.1 4m-84.8-77.88s-3.6 2.6-6.2 0c-1.4-1.42-2-3.98 0-6.03.8-.8 1.9-1.3 2.9-1.48 0 0-.4 3.4 3.4 7.5m48.8 60.1c-6.5-6.6-4.3-12.6-10.5-18.8-6.2-6.2-12.2-4-18.8-10.6-4.5-4.6-6.9-10.5-6.9-16.3 0-1.7 5-1.6 6.3-2.9L965 695.5c-2.16-2.15-2.17-5.64 0-7.8s5.72-2.24 7.9-.1c2.1 2.1 2.26 5.3.23 7.56l7.9 7.9c.45-.54.9-1.08 1.4-1.6 8.3-8.3 22.18-7.85 31 .98 6.6 6.57-2.6 3.24 8.94 20.4 7.8-2.86 13.85 2.37 20.42 8.95 8.8 8.8 9.2 22.7.9 31-8.3 8.3-22.2 7.8-31-1"/>
    </g>
    <path id="path272" fill="#fff" d="M1104.28 737.02c0 55.57-45.05 100.62-100.63 100.62-55.57 0-100.62-45.05-100.62-100.62 0-50 36.44-91.45 84.2-99.3l12.66-17.12c2.1-2.18 5.7-2.18 7.9 0l12.7 17.2c47.5 8.02 83.7 49.4 83.7 99.22"/>
    <path id="path274" fill="#00b79d" d="M1018.1 706.2c-1.8-7.44-.9-13.2-.9-20.2s-24.13-7-24.13 0c0 13-.97 17.3-1.4 20.2-2.94 20.3-10.58 25.82-10.58 25.82 1.5 10.8 9.1 15.3 15.9 12.27 5.7-2.6 8.1-12.4 12-12.4 5.7 0 9.5 10.3 13.7 10.3 6.5 0 9.6-8.2 6.6-10.3-6.9-4.7-9.1-16.7-11.3-25.9"/>
    <path id="path276" fill="#038e77" d="M1059.83 747.82c0 1.04-.4 2.08-1.2 2.87.8.8 1.2 1.8 1.2 2.8.4.1.8.3 1.13.6.97.9.97 2.5 0 3.5-.36.3-.8.6-1.27.7.1.5.1 1.1 0 1.7.9.3 1.6 1.2 1.6 2.3 0 1.4-1.1 2.5-2.5 2.5 0 1.9-1.4 3.5-3.1 4-.1.6-.3 1.2-.8 1.6-.3.2-.6.4-.9.5-.4.6-.9 1.1-1.5 1.5.2.4.4.9.4 1.4 0 1.3-1.1 2.5-2.5 2.5-.5 0-.9-.1-1.3-.4-.8.7-1.8 1.1-2.9 1.1 0 1.1-.5 2.1-1.2 2.9.2.3.3.7.3 1.2 0 1.3-1.1 2.4-2.5 2.4-.5 0-1-.2-1.4-.4-.7 1.2-2.1 2-3.6 2-.6 0-1.2-.1-1.7-.4-.2 1.1-1.2 2-2.4 2-.6 0-1.2-.3-1.7-.7-.1 1.3-1.2 2.3-2.5 2.3s-2.4-1-2.5-2.3c-.5.4-1 .6-1.7.6-1.2 0-2.2-.9-2.4-2.1-.5.2-1.1.4-1.7.4-.3 0-.5 0-.8-.1-.2.4-.4.7-.7 1 .2.4.3.8.3 1.3 0 1.4-1.1 2.5-2.5 2.5-.5 0-1-.2-1.4-.4-.8 1.2-2.1 2-3.6 2-.6 0-1.2-.1-1.7-.4-.2 1.1-1.2 2-2.5 2-.6 0-1.2-.3-1.7-.7-.1 1.3-1.2 2.3-2.5 2.3s-2.4-1-2.5-2.3c-.4.4-1 .7-1.7.7-1.2 0-2.2-.9-2.4-2-.5.2-1.1.3-1.7.3-1.5 0-2.9-.9-3.6-2.1-.4.2-.9.4-1.4.4-1.3 0-2.4-1.2-2.4-2.5 0-.5.1-.9.3-1.3-.3-.3-.5-.6-.7-1h-.8c-.6 0-1.2-.1-1.7-.3-.2 1.1-1.2 2-2.5 2-.7 0-1.3-.3-1.7-.7-.1 1.3-1.2 2.3-2.5 2.3-1.4 0-2.4-1-2.5-2.3-.5.4-1.1.6-1.7.6-1.2 0-2.2-.9-2.4-2-.6.2-1.1.3-1.7.3-1.6 0-2.9-.8-3.6-2-.4.2-.9.4-1.4.4-1.4 0-2.5-1.1-2.5-2.5 0-.5.1-.9.3-1.2-.7-.7-1.2-1.8-1.2-2.9-1.1 0-2.1-.4-2.9-1.2-.3.2-.8.3-1.2.3-1.4 0-2.5-1.1-2.5-2.5 0-.5.1-1 .4-1.4-.9-.5-1.6-1.4-1.9-2.5-.2-.3-.3-.7-.4-1.1-2.2-.1-3.9-1.9-3.9-4.1-1.4 0-2.5-1.1-2.5-2.5s1-2.5 2.4-2.5c-.1-.5-.1-1.1.1-1.6-.5-.1-.9-.3-1.3-.7-1-1-1-2.6 0-3.5.3-.4.7-.6 1.1-.7 0-1.1.4-2.1 1.2-2.9-.8-.8-1.2-1.9-1.2-2.9-.4-.1-.8-.3-1.1-.6-1-1-1-2.6 0-3.5.3-.4.8-.6 1.3-.7-.4-1.4 0-3 1-4-1.6-1.7-1.6-4.3 0-5.9-1-1-1-2.5 0-3.5.9-1 2.5-1 3.5 0v.1c.7-.5 1.4-.7 2.2-.7-.2-.8 0-1.7.6-2.3.6-.6 1.5-.9 2.3-.7.1-.4.3-.8.6-1.1.6-.6 1.5-.8 2.2-.6-.2-.8.1-1.7.7-2.3.9-1 2.5-1 3.5 0 .2.2.4.5.5.8.2-.3.4-.6.6-.8 1.6-1.6 4.2-1.6 5.9 0 .9 1 1.3 2.3 1.1 3.5.8.1 1.6.5 2.3 1.1 1.2 1.2 1.5 3 .8 4.5.8-.1 1.5.1 2.1.7.6.6.8 1.5.6 2.2.8-.2 1.6 0 2.2.7.4.3.6.8.7 1.3 1.4-.4 2.9-.1 4 1 .7.7 1.1 1.6 1.2 2.5.2-.1.4-.1.6-.1 1.4 0 2.5 1.1 2.5 2.5.5-.2 1-.3 1.6-.3.9 0 1.7.3 2.4.8.7-1 1.9-1.7 3.3-1.7.8 0 1.5.3 2.2.6.2-1.1 1.2-2 2.4-2s2.1.8 2.4 1.8c.6-.3 1.2-.5 1.9-.5 1.4 0 2.6.7 3.3 1.7.7-.5 1.6-.8 2.5-.8.7 0 1.3.1 1.9.4v-.2c0-1.4 1.1-2.5 2.4-2.5.5 0 .8.1 1.2.3.1-1 .5-1.9 1.2-2.7 1.1-1.1 2.7-1.4 4-1 .1-.4.4-.9.7-1.3.6-.6 1.5-.8 2.3-.7-.1-.8.1-1.6.7-2.2.6-.6 1.4-.8 2.1-.7-.6-1.5-.4-3.3.9-4.5.6-.7 1.4-1 2.3-1.2-.2-1.2.2-2.6 1.1-3.5 1.6-1.6 4.2-1.6 5.8 0 .3.3.5.5.6.8.1-.3.3-.5.5-.8.9-.9 2.5-.9 3.5 0 .6.7.8 1.5.6 2.3.8-.2 1.7.1 2.3.7.3.3.5.7.6 1.1.8-.2 1.7 0 2.3.7.6.7.9 1.5.7 2.3.8 0 1.6.3 2.2.7h.1c1-1 2.5-1 3.5 0s1 2.5 0 3.5c1.6 1.6 1.6 4.2 0 5.8 1.1 1.1 1.4 2.6 1.1 4 .4.1.9.3 1.3.7 1 1 1 2.6 0 3.5-.3.4-.7.6-1.1.7"/>
    <g id="g278" clip-path="url(#n)" opacity=".2">
      <path id="path280" fill="#702845" d="M1053.83 731.9h-.02c.1 0 .1.02.1.02v-.03m-1.4 7.7h.1m-62.3-.6l-1.1-1c.7.8.9 1.5.9 1.6 1.6.9 5 2.4 7 4 .3-.9.8-1.6 1.6-2-3.7.6-6.3-1.1-8.3-2.7m67.9-7.1c2 .7.7 1.2.6 1.2.2.2-3.3.1-3.3.5 0 .3 0 .6-.2.8.9.1 1.5.8 1.5 1.7 0 .8-.5 1.5-1.3 1.7l.1.2c0 .3-.1.6-.2.8.9.1 1.5.8 1.5 1.7 0 .7-.4 1.2-1 1.5.2.3.3.6.3 1 0 1-.8 1.8-1.7 1.8-.9 0-1.7-.8-1.7-1.8l.1-.2c-.7-.2-1.3-.9-1.3-1.7 0-.3.1-.6.2-.9h-.4c-.8 0-1.5-.6-1.7-1.4-.5.5-1.3.8-2.1.8-1.6 0-2.9-1.2-3.2-2.7-.3.4-.8.6-1.3.6-.1 0-.3-.1-.4-.1.1.3.2.6.2.9 0 1-.8 1.8-1.8 1.8-.2 0-.4 0-.6-.1v.3c0 1.1-.5 2-1.3 2.6.4.3.6.8.6 1.3 0 .1 0 .1-.1.2.8.2 1.3.9 1.3 1.7 0 1-.8 1.8-1.8 1.8-.3 0-.6-.1-.8-.2-.4 1.3-1.6 2.3-3.1 2.3-1.2 0-2.2-.7-2.7-1.6-.1.8-.8 1.4-1.7 1.4-.6 0-1.1-.3-1.4-.7-.2.6-.8 1.1-1.5 1.3.2.3.4.7.4 1.1 0 1-.7 1.9-1.7 2.1.2.2.3.5.3.8 0 1-.8 1.8-1.8 1.8-.8 0-1.6-.7-1.7-1.5-.4.2-.9.4-1.5.4-1.5 0-2.9-1.2-3.1-2.7-.2.1-.4.1-.7.1-1.8 0-3.2-1.4-3.2-3.2 0-.3.1-.5.1-.8-.6.9-1.5 1.5-2.7 1.5-.6 0-1.1-.2-1.6-.5-.2.7-1 1.3-1.8 1.3s-1.5-.5-1.8-1.3c-.2.7-.8 1.2-1.5 1.4.2.4.4.7.4 1.2 0 1.2-.9 2.2-2.1 2.2-1.2 0-2.2-.9-2.2-2.1-.4.5-1 .8-1.7.8-.4.9-1.1 1.6-2 1.9v.4c0 1-.9 1.9-1.9 1.9-.7 0-1.4-.5-1.7-1.1-.5.2-1 .3-1.5.3-.3 0-.6-.1-.9-.1-.3.6-.9 1.1-1.7 1.1h-.1v.1c0 1-.8 1.8-1.8 1.8s-1.8-.8-1.8-1.8c0-.5.2-.9.5-1.2l-.6.1c-1.9 0-3.4-1.6-3.4-3.4 0-.2 0-.4.1-.6-.3.3-.7.4-1.2.4-.2 0-.4 0-.6-.1-.5.8-1.3 1.4-2.4 1.4-1.5 0-2.7-1.2-2.7-2.7 0-.2 0-.4.1-.5-1.4-.1-2.6-1.3-2.6-2.8 0-.8.4-1.6.9-2.1-.4-.3-.8-.7-.9-1.2-.2.1-.5.1-.8.1-1 0-1.8-.8-1.8-1.8v-.3c-.2.1-.5.2-.7.2h-.2c-.3.7-.9 1.3-1.8 1.3s-1.5-.6-1.7-1.4c-.5.5-1.2.7-1.9.7-.3 1.1-1.4 1.9-2.6 1.9-1.5 0-2.7-1.3-2.7-2.8 0-.5.1-1 .3-1.4-.5-.3-.8-.7-1-1.2-.3.4-.8.7-1.4.7-1 0-1.8-.8-1.8-1.8 0-.6.3-1.1.7-1.5-.8-.2-1.4-.9-1.4-1.7 0-.7.4-1.3 1-1.6-.6-.3-1-.9-1-1.6 0-.4-1.6-.8-1.5-1-.5-.4-.1-1.5-.1-2.2 0-1 1.7-1.2 2.7-1.2.7 0 1.2.3 1.5.8.9-1.7 2.4-3.2 3.8-3.9 1.4-.7 3.2-.8 3.2-.8.3-5.1 2.8-2.3 4.5-2.4 1.6-.1 4.2-2.1 5.5-1.5 1.4.6 1.5 3.9 2.1 4.2 2.3 1.1 4.5 4.2 3.1 5.7l5 4.2c1.2.2 2.1.5 2.8.8l-5.6-4.3c3.4-2.2 4.5-6.1 5-6.2 2.9-.5 5 .1 6.5 2.6 0 0 1-2.9 2.7-.6 0-2.5 1.8-2.8 3.4-4.4 2.3-2.4 7.6-3.3 10.6.8.3.4 3.4 7.9 3.4 7.9-5.3-1.6-7.7 2.4-8.7 4.6.1.1-1 3.4-4.3 4.6h.3c.8 0 1.6.3 2.1.8.5-1.3 1.6-2.1 3-2.1 1.2 0 2.2.6 2.8 1.5.3-.2.7-.3 1.1-.3.7 0 1.4.3 2 .7h.6c.9 0 1.8.4 2.4 1 .4-.3.9-.4 1.5-.4.4 0 .9.1 1.3.3.2-1.6 1.5-2.9 3.2-2.9.5 0 1 .1 1.4.3-.1-.3-.2-.7-.2-1l.1-.4c-.5.6-.7.9-.7.9-4.1-1.3-7.4-7.2-7.4-7.2 0-5.3 5.3-4.3 5.3-4.3.8-3.3 4-3.3 5.8-2.6l5.2 6.1c-2.3 1.7-4 3.1-5.3 4.3.1-.1.2-.1.3-.1.5 0 1 .1 1.4.3.4-1.3 1.6-2.3 3.1-2.3h.1c.3-1.3 1.3-2.3 2.6-2.5-.4-.6-.7-1.3-.7-2 0-1.6 1.1-2.9 2.7-3.2.5-3.4 3.4-6.8 6.5-5.5 2.2.9 3.7.9 5.3.4.9-.3 4.1 4.3 7.5 6.6.8.5 1.2 1 1.4 1.5.3-.2.6-.4 1-.4 1 0 2.7.2 2.7 1.2v1.5z"/>
    </g>
    <path id="path282" fill="#2b6565" d="M1031.42 733.28c.63 0 1.25-.28 1.63-.78.44-.58.57-1.35.28-2.02-.35-.8-.18-1.72.44-2.33.4-.4.86-.55 1.18-.6.52-.07 1-.36 1.3-.78.32-.43.46-.97.38-1.5-.1-.67.1-1.34.6-1.82.8-.8 2.2-.8 3.02 0 .1.12.22.26.32.42.4.65 1.1 1.03 1.87.97.75-.05 1.4-.53 1.7-1.23l.1-.1c.24-.2.45-.2.68 0 .17.2.15.4.13.5-.13.7.08 1.4.55 1.8.47.5 1.15.7 1.8.6.13 0 .3 0 .45.2.02.1.07.1.1.2.3 1.1 1.33 1.7 2.38 1.5.12 0 .28 0 .44.2.17.2.14.4.13.5-.14.6 0 1.2.38 1.7.37.5.93.8 1.53.8.5.1.9.2 1.2.4.8.6 1.9.4 2.6-.3h.1c.3-.1.4-.1.7.1.2.2.2.5 0 .7-.3.4-.6.9-.6 1.4 0 .5.2 1 .6 1.4.4.4.6.9.6 1.5s-.2 1.1-.6 1.5c-.8.8-.8 2.1 0 2.8.5.5.8 1.3.6 2.1-.1.6-.1 1.1.2 1.6.3.5.8.8 1.3.9.1.1.2.1.3.2.1.1.2.2.2.3 0 .1 0 .2-.1.4 0 0 0 .1-.2.1-.8.2-1.5 1-1.5 1.9 0 .6-.2 1.1-.6 1.5-.3.4-.6.9-.6 1.4 0 .6.2 1.1.6 1.4.4.4.6 1 .6 1.5 0 .9.6 1.7 1.5 1.9.2.1.2.1.2.2.1.1.2.3.2.4 0 .1 0 .2-.1.3l-.2.2c-.5.1-1 .4-1.3.9-.3.5-.4 1.1-.2 1.6.1.3.1.6 0 .9-.1 1 .4 1.9 1.3 2.2.1.1.3.2.3.5s-.2.5-.5.5c-.5 0-1 .2-1.4.6-.3.4-.5.9-.5 1.4 0 1-.7 1.8-1.6 2.1-.8.2-1.5 1-1.5 1.9 0 .1 0 .2-.1.3l-.2.1c-.4.2-.8.5-1 .9-.2.3-.4.6-.8.8-.5.2-.8.7-.9 1.2-.1.5 0 1.1.3 1.6 0 .1.1.2.1.3 0 .3-.2.5-.5.5h-.2c-.8-.5-1.8-.3-2.4.3-.4.4-1 .6-1.5.6-1.1 0-2 .9-2 2 0 .6-.2 1.1-.6 1.5-.7.6-.8 1.6-.3 2.4v.2c0 .4-.4.6-.7.4-.5-.3-1.1-.4-1.6-.3-.5.1-1 .5-1.3 1-.5.9-1.7 1.4-2.7.9-.5-.3-1.2-.2-1.7 0-.6.3-.9.8-1.1 1.4 0 .3-.4.6-.7.3-.6-.5-1.4-.6-2.1-.4-.7.3-1.2 1-1.2 1.8 0 .3-.2.5-.4.5s-.4-.2-.4-.4c0-.7-.5-1.4-1.2-1.7-.7-.3-1.5-.1-2.1.4-.3.3-.7 0-.7-.3-.1-.6-.5-1.1-1-1.4-.5-.3-1.2-.3-1.7-.1-.4.2-.9.3-1.3.2-.9-.2-1.8.3-2.2 1.1-.1.2-.2.3-.3.5-.6.6-.7 1.6-.3 2.4.1.1.1.2.1.2 0 .4-.4.6-.7.4-.5-.3-1-.4-1.6-.3-.6.1-1 .5-1.2.9-.6.9-1.8 1.4-2.7.9-.6-.2-1.2-.2-1.8.1-.5.3-.9.8-1 1.4-.1.3-.5.6-.8.3-.6-.5-1.4-.7-2.1-.4-.7.3-1.2 1-1.2 1.7 0 .3-.2.5-.5.5s-.5-.2-.5-.5c-.1-.7-.6-1.4-1.3-1.7-.7-.3-1.5-.1-2.1.4-.3.3-.7 0-.8-.3-.1-.6-.5-1.1-1-1.4-.6-.3-1.2-.3-1.8-.1-1 .5-2.2.1-2.7-.8-.2-.5-.7-.8-1.2-.9-.5-.1-1.1 0-1.6.3-.3.2-.7-.1-.7-.4 0-.1 0-.1.1-.3.5-.8.4-1.8-.3-2.4l-.3-.6c-.4-.7-1.3-1.2-2.2-1-.4.1-.8 0-1.3-.1-.5-.3-1.2-.3-1.7 0s-.9.8-1 1.4c-.1.3-.5.6-.8.3-.6-.5-1.4-.7-2.1-.4-.7.3-1.2 1-1.2 1.7 0 .3-.2.5-.5.5s-.5-.2-.5-.4c0-.8-.5-1.5-1.2-1.7-.7-.3-1.5-.2-2.1.4-.3.2-.7 0-.7-.3-.1-.6-.5-1.1-1-1.4-.6-.3-1.2-.3-1.8-.1-1 .5-2.2.1-2.7-.9-.2-.5-.7-.8-1.2-1-.5-.2-1.1-.1-1.6.2-.3.2-.7 0-.7-.4 0 0 0-.1.1-.2.4-.8.3-1.7-.3-2.4-.4-.4-.6-.9-.6-1.5 0-1.1-.9-2-2-2-.6 0-1.1-.2-1.5-.6-.7-.6-1.6-.7-2.4-.3-.1.1-.2.1-.3.1-.3 0-.5-.2-.5-.5 0-.1 0-.2.1-.2.3-.5.4-1 .3-1.6-.2-.5-.5-1-1-1.3-.5-.3-.8-.7-1-1.3 0-.2-.1-.4-.2-.5 0-.1-.1-.1-.1-.2-.1-1-.9-1.8-1.8-1.8-1.1-.1-2-1-2-2.1s-.9-2-2-2c-.2 0-.5-.2-.5-.5s.2-.5.5-.5c.6 0 1.1-.3 1.5-.7.4-.4.5-1 .5-1.6 0-.3 0-.6.1-.8.1-.5.1-1.1-.2-1.6-.3-.5-.7-.8-1.3-.9-.1 0-.1-.1-.2-.1-.1-.1-.1-.2-.1-.3 0-.1 0-.2.1-.4l.2-.1c.9-.2 1.5-1 1.5-1.9 0-.6.2-1.1.6-1.5.4-.4.6-.9.6-1.4 0-.5-.2-1-.6-1.4-.4-.4-.6-.9-.6-1.5 0-.9-.6-1.7-1.5-1.9-.1-.1-.2-.1-.2-.1-.1-.1-.1-.3-.1-.3 0-.1 0-.2.1-.4l.2-.1c.6-.1 1-.4 1.3-.9.3-.5.4-1 .3-1.6-.2-.7 0-1.5.6-2 .8-.8.8-2.1 0-2.8-.4-.4-.6-.9-.6-1.5s.3-1.1.7-1.5c.8-.8.8-2.1 0-2.9-.2-.1-.2-.5 0-.6.2-.2.4-.2.6 0l.1.1c.7.8 1.7.9 2.6.3.3-.2.7-.3 1.1-.3.6 0 1.2-.3 1.6-.7.4-.5.5-1.1.4-1.7 0-.1 0-.3.1-.5.2-.1.3-.1.5-.1 1 .3 2.1-.4 2.4-1.4l.1-.2c.2-.1.3-.1.5-.1.6.2 1.3-.1 1.8-.5.5-.5.7-1.2.5-1.8 0-.1 0-.3.2-.5s.5-.2.7 0c0 .1.1.1.1.2.3.7.9 1.2 1.7 1.2.8 0 1.5-.4 1.9-1 .1-.2.2-.3.3-.4.8-.8 2.2-.8 3 0 .5.5.7 1.1.6 1.8-.1.5.1 1.1.4 1.5.3.4.8.7 1.3.8.3 0 .8.2 1.2.6.6.6.8 1.5.5 2.3-.3.6-.2 1.4.28 2 .4.6 1.15.9 1.86.7.2 0 .3 0 .4.1.2.2.2.4.2.4-.1.7.1 1.4.5 1.8.5.5 1.2.7 1.8.6.2 0 .3 0 .5.1.1.1.1.2.2.3.1.5.4 1 .9 1.3.5.3 1 .4 1.6.2.7-.2 1.5 0 2.1.6.4.4.5.9.6 1.3 0 .6.4 1.1.8 1.4.4.3 1.1.5 1.6.3h.1c.3 0 .5.2.5.4v.1c0 .68.3 1.3.9 1.68.5.4 1.2.4 1.9.2.2-.1.5-.2.8-.2.6 0 1 .3 1.2.4.4.4.95.5 1.5.4.5 0 1-.3 1.3-.8.64-.9 1.9-1.1 2.8-.5.5.4 1.2.4 1.8.2.6-.2 1-.7 1.2-1.4.06-.2.2-.35.5-.35.2 0 .4.2.4.38.1.6.6 1.1 1.1 1.3.5.27 1.2.2 1.7-.1.9-.5 2.1-.2 2.7.67.3.45.8.7 1.3.8.5.1 1-.04 1.5-.4.2-.2.7-.4 1.2-.4.3 0 .7.1 1 .26.6.3 1.4.3 2-.1.6-.4.9-1.1.9-1.8v-.1c0-.2.2-.4.5-.4 0 0 .1 0 .2.1.6.3 1.3.3 1.9 0 .6-.3.9-.97 1-1.6 0-.6.2-1.07.6-1.4.5-.57 1.3-.8 2-.6.6.2 1.1.1 1.6-.2.5-.3.8-.8.9-1.3.1-.1.1-.2.2-.3.2-.1.3-.1.5-.1.6.1 1.3-.1 1.8-.5.4-.5.7-1.15.5-1.8 0-.1-.1-.3.1-.45.1-.1.2-.1.3-.1h.3m7.3-14.5c-1.6 0-3.2.66-4.3 1.8-1 .97-1.6 2.2-1.8 3.5-.6.3-1.2.7-1.7 1.2-1.2 1.2-1.8 2.8-1.8 4.4-.4.2-.8.5-1.2.86-.5.5-.9 1.2-1.1 1.8-.6.2-1.3.6-1.8 1.1l-.4.6c-1.6 0-3.1.6-4.2 1.8-.6.5-1 1.1-1.3 1.8-1.5.1-2.8.9-3.6 2.2-.8-.1-1.7 0-2.5.3-1.3-1-3.1-1.5-4.8-1.2-.8-.8-2-1.4-3.2-1.4-1.2 0-2.4.6-3.3 1.5-1.7-.4-3.6 0-5 1.1-.7-.3-1.5-.4-2.3-.4-.6-1.1-1.7-1.9-2.9-2.2-.4-.7-.8-1.3-1.3-1.82-1.2-1.1-2.6-1.73-4.2-1.8-.2-.2-.3-.34-.5-.5-.5-.5-1.2-.9-1.8-1.1-.2-.6-.6-1.3-1.1-1.8-.3-.3-.7-.6-1.2-.8 0-1.6-.6-3.2-1.8-4.4-.5-.5-1.1-.9-1.7-1.2-.2-1.3-.8-2.6-1.7-3.5-1.2-1.2-2.7-1.8-4.3-1.8-1.3 0-2.5.4-3.5 1.1-.7-.44-1.5-.7-2.3-.7-1.2 0-2.3.5-3.2 1.3-.5.5-.9 1.2-1.1 1.8-.7.2-1.3.6-1.8 1.1-.2.2-.3.4-.5.5-1 .2-1.8.6-2.5 1.3-.6.6-1 1.3-1.2 2.1h-.1c-.6-.3-1.3-.5-2-.5-1.2 0-2.3.5-3.2 1.36-1.3 1.3-1.7 3.2-1 4.9-.6.9-.8 1.9-.8 3 0 1 .2 2 .7 2.9-.5.8-.7 1.8-.7 2.8-.2.1-.4.3-.6.4-.9.9-1.33 2-1.33 3.2 0 1.2.5 2.35 1.3 3.2l.7.6c.1.5.3 1.05.6 1.5-.3.5-.5 1-.6 1.5-.2.2-.5.4-.7.6-.8.8-1.3 1.95-1.3 3.15 0 1.1.4 2.2 1.13 3-1 .8-1.6 2.1-1.6 3.5 0 1.8 1.2 3.4 2.7 4.1.6 2 2.2 3.6 4.2 4.2l.1.2c.3.9.8 1.6 1.4 2.3v.7c0 2.5 2 4.5 4.5 4.5.3 0 .6-.1.9-.1.4.3.9.5 1.5.7.1.5.3 1 .6 1.4-.1.3-.1.6-.1.9 0 2.4 2 4.5 4.5 4.5.2 0 .4 0 .7-.1 1.3 1.2 3.1 1.9 4.9 1.7.9 1.2 2.5 1.9 4.1 1.6.8 1 2.1 1.7 3.5 1.7s2.6-.7 3.5-1.7c1.4.2 2.9-.4 3.9-1.4 0 2.4 2 4.4 4.5 4.4.2 0 .5-.1.7-.1 1.3 1.2 3.1 1.88 4.9 1.7.9 1.2 2.5 1.9 4.1 1.6.8 1 2.1 1.7 3.5 1.7s2.7-.7 3.5-1.7c1.6.2 3.2-.5 4.1-1.7 1.8.2 3.6-.42 4.9-1.7.2.1.4.1.7.1 2.4 0 4.4-2 4.5-4.5.9 1.1 2.4 1.6 3.9 1.4.8 1.1 2.1 1.7 3.5 1.7s2.64-.6 3.5-1.7c1.6.3 3.2-.4 4.1-1.6 1.8.2 3.65-.5 4.9-1.7.3 0 .5.1.7.1 2.5 0 4.5-2 4.5-4.5 0-.3 0-.6-.1-.9.3-.4.5-.9.7-1.5.5-.1 1-.3 1.5-.6.3.1.6.1.9.1 2.5 0 4.5-2 4.5-4.5 0-.2 0-.5-.1-.7.2-.2.36-.4.5-.6.36-.2.7-.4.95-.7.4-.5.8-1 1-1.6 1.5-.8 2.7-2.2 3.1-3.9 1.6-.7 2.7-2.3 2.7-4.1 0-1.2-.5-2.3-1.3-3.1l.2-.3c.8-.9 1.3-2 1.3-3.2 0-1.2-.5-2.3-1.3-3.2-.2-.2-.48-.4-.7-.56-.1-.5-.3-1-.6-1.5.3-.5.5-1 .6-1.5.22-.1.5-.3.7-.5.8-.9 1.3-2 1.3-3.2 0-1.2-.5-2.4-1.3-3.2l-.58-.5c0-1-.3-2-.7-2.8.5-.9.7-1.9.7-3 0-1-.2-2.1-.8-3 .7-1.6.3-3.5-1-4.8-.8-.8-1.9-1.3-3.1-1.3-.7 0-1.4.2-2 .5l-.1-.02c-.2-.8-.6-1.5-1.2-2.1-.7-.7-1.6-1.1-2.5-1.3l-.4-.5c-.55-.5-1.2-.9-1.85-1.1-.2-.7-.6-1.3-1.1-1.8-.8-.9-2-1.3-3.2-1.3-.8 0-1.6.2-2.3.6-1-.72-2.2-1.12-3.5-1.12"/>
    <path id="path284" fill="none" stroke="#2b6565" stroke-width="4" stroke-miterlimit="10" d="M981.12 731.42S993.07 726 993.07 686c0-6 24.12-6 24.12 0 0 40 11.9 45.3 11.9 45.3m-38 8.32s4.8-3.56 7.4-10.55m20.6 10.55s-8.8-7.47-11-18.28" stroke-linecap="round" stroke-linejoin="round"/>
    <path id="path286" fill="none" stroke="#2b6565" stroke-width="4" stroke-miterlimit="10" d="M1000.8 740.95s2.4-2.6 4.43-6.08c1.7-2.9 4.9-5.15 10.23.9m-26.7 49.76c-2.62.13-3.1-2.13-3.1-2.13-3.32.86-3.86-2.68-3.86-2.68-2.82.75-3-2.15-3-2.15s-3.52-.16-2.58-4.02c0 0-2.15-2.18.6-4.03 0 0-3.18 1.07-3.5-2.58 0 0-3.65 1.83-4.08-2.57 0 0-3.14-.5-1.93-4.43 0 0-1.1-3.14 1.3-4.27m76.4-8.37c2.4 1.12 1.3 4.26 1.3 4.26 1.2 3.95-1.9 4.43-1.9 4.43-.4 4.4-4.1 2.5-4.1 2.5-.3 3.6-3.5 2.6-3.5 2.6 2.8 1.8.6 4 .6 4 1 3.8-2.6 4-2.6 4s-.2 2.9-3 2.1c0 0-.5 3.5-3.8 2.7 0 0-.8 3.1-4.1 1.6 0 0-4.2 2.9-6.5-1.1 0 0-3.3 1.3-5.1-1.6 0 0-4 0-3.8-3.7 0 0-2.4-2.5 0-4.8 0 0-3.1-2.6.2-5.6.2-.2 0 0 0 0" stroke-linecap="round" stroke-linejoin="round"/>
    <g id="g288" clip-path="url(#o)" opacity=".3">
      <path id="path290" fill="#2b6565" d="M1000 691v5"/>
      <path id="path292" fill="#702845" d="M1002 691v5c0 1.94-3 1.94-3 0v-5c0-1.94 3-1.94 3 0"/>
    </g>
    <g id="g294" clip-path="url(#p)" opacity=".3">
      <path id="path296" fill="#2b6565" d="M1010 691v5"/>
      <path id="path298" fill="#702845" d="M1012 691v5c0 1.94-3 1.94-3 0v-5c0-1.94 3-1.94 3 0"/>
    </g>
    <g id="g300" clip-path="url(#q)" opacity=".3">
      <path id="path302" fill="#2b6565" d="M1005 701v5"/>
      <path id="path304" fill="#702845" d="M1007 701v5c0 1.94-3 1.94-3 0v-5c0-1.94 3-1.94 3 0"/>
    </g>
    <path id="path306" fill="#fff" d="M1734.28 737.02c0-55.58-45.05-100.63-100.63-100.63-55.57 0-100.62 45-100.62 100.6 0 55.5 45.05 100.6 100.62 100.6 55.58 0 100.63-45.1 100.63-100.6"/>
    <path id="path308" fill="#fff" d="M1637.8 620.6c-2.18-2.18-5.72-2.18-7.9 0l-15.82 21.4c-2.18 2.2-2.18 5.73 0 7.9l15.8 15.82c2.2 2.18 5.74 2.18 7.92 0l15.8-15.8c2.2-2.2 2.2-5.73 0-7.92l-15.8-21.4z"/>
    <path id="path310" fill="#ff7bac" d="M1632.16 688.15c-13.46 0-46.58 31.36-47.87 59.97-.1.58-.1 1.12-.1 1.67 0 13.8 11.2 25 25.1 25 8.3 0 16.1-4.1 20.8-11.1l2-3.1 2 3c4.7 6.9 12.4 11 20.8 11 13.8 0 25-11.3 25-25.1 0-.6-.1-1.1-.1-1.7-1.3-28.7-34.4-60-47.9-60"/>
    <path id="path312" fill="#bc5584" d="M1655.02 777.36c-9.5 0-17.9-4.8-22.86-12.14-4.96 7.33-13.34 12.14-22.85 12.14-15.2 0-27.5-12.34-27.5-27.57 0-.6.1-1.2.1-1.8 1.4-29.7 35.5-62.4 50.4-62.4 14.9 0 49.1 32.6 50.4 62.3.1.6.1 1.2.1 1.8 0 15.2-12.3 27.5-27.6 27.5m0-5c12.5 0 22.6-10.1 22.6-22.6V748c-.5-12.1-7.4-26.4-18.8-39.2-7.9-8.9-19.9-18.4-26.5-18.4-6.6 0-18.6 9.43-26.5 18.33-11.4 12.84-18.3 27.14-18.8 39.22v1.53c0 12.42 10.2 22.54 22.6 22.54 7.5 0 14.5-3.7 18.7-9.92l4.2-6.1 4.2 6.1c4.2 6.25 11.2 9.96 18.7 9.96"/>
    <g id="g314" clip-path="url(#r)" opacity=".5">
      <path id="path316" fill="#fff" d="M1650.5 765.55c-2.5 1.7-7.08-.62-10.2-5.2-3.15-4.6-3.67-9.7-1.17-11.4 2.5-1.7 7.07.62 10.2 5.2 3.15 4.6 3.66 9.7 1.16 11.4m-53.1-16.73c2.1.8 4.4 2.68 6.2 5.33 3.1 4.6 3.6 9.7 1.1 11.4-2.5 1.7-7.1-.62-10.2-5.2-2-2.93-3-6.08-2.7-8.4 0-.16-.1-.32-.1-.5.1-18.67 10.3-32.12 22.9-44.98 2.5-2.52 6.4 1.36 3.9 3.88-11.1 11.2-20.3 22.67-21.3 38.47"/>
    </g>
    <g id="ship">
      <path id="path92" fill="#f5c98d" d="M1087.95 1027.95c22.4-4.3 45.63-5.2 68.35-6.1 36.47-1.45 73.02-1.14 109.48.57 41.26 1.95 82.5 5.85 123.25 12.73 37.68 6.37 75.3 15.35 110.53 30.4 15.12 6.48 29.75 14.3 42.95 24.14 3.1 2.2.1 7.4-3 5.1-27.7-20.7-61.3-32.7-94.4-41.6-39.6-10.7-80.4-16.8-121.2-20.8-39.7-3.9-79.6-5.6-119.5-5.7-30.3-.1-60.7.8-90.8 3.6-7.9.7-15.9 1.6-23.8 3.1-3.8.7-5.4-5.1-1.6-5.8"/>
      <path id="path94" fill="#edab7f" d="M1211.33 1030.84c-.16-1.4.15.3.3.73.45 1.34 1.38 2.6 2.27 3.7 4.9 5.98 12.67 9.3 19.74 11.78 3.63 1.27 2.07 7.07-1.6 5.78-9.53-3.35-25.4-9.98-26.7-22-.44-3.83 5.57-3.8 6 0"/>
      <path id="path96" fill="#f5c98d" d="M1539.1 1090.57c0-40.68-124.5-100.07-236.98-109.83-152.78-13.26-192.4 3.27-192.4 3.27-19.96 8.4-20.97 32.1-20.97 51.6 0 0 16.6 16.1 116.68 16.1 205.56 0 333.68 60.8 333.68 39"/>
      <path id="path98" fill="#edab7f" d="M1532.03 1088.3c-19.48-17-117.33-52.6-230.08-58.43-213.2-11.05-213.2 5.66-213.2 5.66s16.6 16.05 116.68 16.05c184.97 0 268.9 32.88 306.23 40 14.1 2.7 20.37-3.27 20.37-3.27"/>
      <path id="path100" fill="#edab7f" d="M1149.45 976.35c2.07 11.84 11.47 21.32 22.94 24.23 4.6 1.2 9.4.46 14.1 1.4 4.3.87 8.4 3.23 12 5.54 8.2 5.2 16.3 12.54 20.9 21.22.9 1.7-1.7 3.22-2.6 1.52-5.2-9.7-14.7-17.6-24.3-22.72-8.7-4.64-18.8-2.35-27.8-6.4-9.3-4.15-16.6-14-18.4-24-.4-1.88 2.5-2.7 2.9-.8"/>
      <path id="path102" fill="#edab7f" d="M1139.1 979.05c2.08 10.17 8.96 19.6 17.8 24.83 6.84 4.06 15.33 4.8 22.6 8 7.98 3.48 15.75 8.56 20.8 15.76 1.1 1.6-1.5 3.1-2.6 1.5-5.85-8.34-15.78-13.5-25.18-16.85-7.47-2.7-14.8-3.6-21.26-8.6-7.34-5.8-13.16-14.6-15.04-23.9-.38-1.9 2.5-2.7 2.9-.8m-.4 21c6.04 7.8 13.25 10.8 22.55 13.2 8.4 2.2 16.7 6.4 22.8 12.7 1.34 1.4-.78 3.5-2.13 2.1-6.97-7.2-16.25-10.8-25.78-13-8-1.9-14.58-6.6-19.55-13-1.1-1.5 1-3.7 2.2-2.1"/>
      <path id="path104" fill="#edab7f" d="M1120.13 981.93c5.55 21.28 23.85 36.8 43.52 45.02 1.76.73 1 3.64-.8 2.9-20.64-8.63-39.78-24.76-45.6-47.12-.5-1.87 2.4-2.67 2.88-.8"/>
      <path id="path106" fill="#edab7f" d="M1111.5 986.3c5.3 17.04 17.67 33.67 34.26 40.8 1.77.76.24 3.35-1.52 2.6-17.27-7.44-30.12-24.9-35.64-42.6-.58-1.85 2.3-2.64 2.9-.8m238.95 57.75c-6.63 3.34-13.16-5.15-16.52-9.68-4.7-6.35-10.32-15.84-9.63-24.1.7-8.47 12.72-5 16.97-1.56 8.1 6.6 6.4 19.4 13.8 26.4 1.4 1.4-.73 3.5-2.13 2.2-5-4.7-6.35-12-8.67-18.2-1.4-3.7-3.4-7.3-6.93-9.4-2.37-1.4-9.14-3.2-10.02.6-1.43 6.2 4.04 14.7 7.1 19.6 2.14 3.4 9.15 14.4 14.5 11.7 1.74-.8 3.26 1.7 1.53 2.6m-242.1-38.4c3.8 7.2 7.45 13 14.7 17.1 1.66 1 .15 3.6-1.54 2.6-7.6-4.3-11.7-10.4-15.7-18.1-.9-1.7 1.7-3.2 2.6-1.5m-8.8-1.8c.2 8.4 4.7 13.4 10.3 19.1 1.4 1.4-.7 3.5-2.1 2.1-6.1-6.3-10.9-11.9-11.1-21.1 0-1.9 3-1.9 3 0m94-25.7c2.3 1.6 21 16.2 14 18.5-4.3 1.4-10.2-1.8-14-3.4-6.5-2.9-12.8-7.1-17-13-1.1-1.6 1.5-3.1 2.6-1.5 5.5 7.8 16.2 13.4 25.4 15.1 2.4.5 1.5.2.5-1.3-1.4-2.2-3.5-4-5.4-5.7-2.3-2.1-4.9-4.2-7.5-6-1.5-1.1 0-3.7 1.5-2.6m92 56c-2.4-2.3-18.1-17.4-11.2-20.1 3.6-1.5 10.2 3.2 13 4.9 6.2 3.8 12.2 8.9 15.5 15.5.9 1.7-1.7 3.3-2.6 1.5-4.4-8.5-14.2-16-23.4-18.8-.5-.1-1.1-.3-1.6-.2l.5-.6c.1.7.3 1.4.7 2 1.1 2.4 2.9 4.5 4.5 6.4 2.2 2.6 4.5 5 6.9 7.3 1.4 1.4-.7 3.5-2.1 2.2m153.1 20.4c-1.2-4.8-.9-9.9.1-14.7.6-2.7 2.9-11.6 7.2-9.2 3.8 2.2 5 9.3 5.6 13.1 1.1 7.8-.9 15.6-5.1 22.3-1 1.6-3.6.1-2.6-1.5 5.5-8.7 6.9-20.2 1.9-29.5-1.2-2.3-1.2-1.5-2.3.5-1.6 3-2.3 6.6-2.5 10-.2 2.7 0 5.5.6 8.2.4 1.9-2.4 2.7-2.9.8m-142.6-46.9c-5.1-1.4-10.1-3-15-4.9-2.8-1.1-11.9-4.1-11.5-8.4.5-4.7 7.8-2.3 10.4-1.5 6.9 2.2 14 6.4 17.8 12.7 1 1.7-1.6 3.2-2.6 1.6-3.1-5.1-8.5-8.4-14-10.6-2.1-.8-4.4-1.5-6.6-1.8-2.8-.3-1.7.5.2 1.8 6.3 4.3 14.8 6.5 22.1 8.5 1.9.5 1.1 3.4-.8 2.9m105.3-7.8c1.3 4.9 2.2 9.9 2.9 15 .6 5 2.3 14-1.6 18.1-4.2 4.5-7.5-.9-8.6-4.8-2.6-9.2-2.3-19.1-3.8-28.5-.3-1.9 2.6-2.7 2.9-.8 1.1 7.1 1.5 14.2 2.5 21.3.4 3 .9 6 1.8 8.9 1 3.2 3 2.9 3.9-.1 1.7-5.4.3-12.1-.6-17.5-.6-3.6-1.3-7.3-2.2-10.8-.5-1.8 2.4-2.6 2.9-.8m-237.8-23c1.3 3.1 5.8 7.6 9.1 10.1 8 6.1 18.1 8.9 27.3 12.9 16.1 7.1 32.4 17.5 37.4 35.5.5 1.9-2.4 2.7-2.9.8-5.5-20-25.7-29.6-43.4-36.8-11-4.5-25.3-9.7-30.4-21.7-.8-1.8 2.1-2.5 2.9-.8m41.3-.9c7.1 5.4 17.8 15 15.4 25l-.7-1.7c12.9 7.6 23.8 21 26.4 36 .3 1.9-2.6 2.7-2.9.8-2.5-14.2-12.7-27-25.1-34.2-.6-.4-.9-1.1-.7-1.7 2-8.4-8.1-17.2-14.1-21.7-1.5-1.2-.1-3.8 1.5-2.6m16.1 1.7c6 4.1 13.3 11.4 11.3 19.6l-1.1-1.9c6.4.9 10.9 5.3 14.7 10.2 5.7 7.3 9.6 15.6 12.6 24.3.6 1.8-2.3 2.6-2.9.8-3.9-11.2-11.6-30.5-25.2-32.4-.8-.1-1.2-1.1-1-1.9 1.6-6.8-5.2-13-10-16.2-1.6-1.1-.1-3.7 1.5-2.6"/>
      <path id="path108" fill="#edab7f" d="M1249.26 978.16c5.66 2.88 9.32 5.94 11.7 11.8 3.1 7.62 10.55 12.3 17.65 15.77 12.5 6.08 29.1 11.13 32.4 26.57.4 1.88-2.5 2.7-2.9.8-3.3-15.52-21.6-19.87-33.8-26.22-5.7-3-11.4-7.35-14.7-13-1.1-1.87-1.7-3.96-2.6-5.87-1.8-3.5-5.7-5.5-9.1-7.2-1.7-.9-.2-3.4 1.5-2.6"/>
      <path id="path110" fill="#edab7f" d="M1258.9 978c14.28 5.36 27.98 10.26 40.75 18.8 13.1 8.74 21.12 19.73 21.35 35.9.03 1.93-2.97 1.93-3 0-.1-7.16-1.56-13.77-5.37-19.9-4.1-6.58-10.8-11.03-17.17-15.2-11.6-7.6-24.46-11.87-37.36-16.7-1.8-.68-1.02-3.58.8-2.9m-26.68-1.57c6.12 3.34 12.64 9.24 12.78 16.82l-1.1-1.45c10.98 4.6 16.45 13.67 20.52 24.42.7 1.8-2.2 2.6-2.9.8-3.63-9.6-8.53-18.2-18.42-22.32-.64-.27-1.1-.7-1.1-1.45-.12-6.48-6.17-11.43-11.3-14.23-1.7-.93-.18-3.52 1.52-2.6m72.08 5.16c3.22 4.2 10.24 8.9 15.5 11.63 7.97 4.2 17.48 3.9 25.54 8 5.94 3.1 9.9 7.6 11.47 14 2.3 8.9 5 17.2 12.5 23 1.6 1.2.1 3.8-1.5 2.6-6.3-4.9-10.1-11.3-12.4-18.9-.8-2.9-1.4-6-2.3-9-1.6-5.1-8-8.7-12.7-10.6-8-3.3-16.9-3.2-24.5-7.7-4.9-2.9-10.5-6.7-14.1-11.3-1.1-1.5 1.5-3 2.6-1.5m35.6 2.1c5.7 1.5 11.3 3 16.8 4.7 7.2 2.3 13.2 6.3 19.1 10.8 6.7 5.2 9.9 12 10.2 20.3.1 3.8.3 7.4 1.4 11 1.9 5.8 6.7 10.1 11.3 13.7 1.5 1.2-.6 3.3-2.1 2.2-6.7-5.2-12.2-11.7-13.2-20.4-.4-3.8-.1-7.6-.7-11.3-.8-4.7-3.5-8.5-7-11.7-10.3-9.5-23.1-12.9-36.3-16.3-1.9-.5-1.1-3.4.8-2.9"/>
      <path id="path112" fill="#edab7f" d="M1378.94 993.7c11.76 2.97 24.03 5.36 32.83 14.3 4.85 4.95 5.13 11.3 4.02 17.77-.7 3.85-1.8 7.14-4.1 10.3-.9 1.25-1.9 2.43-2.7 3.75-2.1 3.33 1.1 6.72 3.2 9.06 1.3 1.43-.8 3.56-2.1 2.12-4.9-5.42-6.2-9.73-1.7-15.66 4.6-6.05 6.9-16.28 2.7-23.14-6.5-10.53-22.2-12.84-33.2-15.6-1.9-.5-1.1-3.38.8-2.9"/>
      <path id="path114" fill="#edab7f" d="M1400.94 995.7c11.1 2.8 22.37 5.1 31.23 12.75 5.03 4.34 6.73 9.98 6.06 16.46-.45 4.3-1.64 8.6-3.2 12.6-1.94 5.1-2.45 8.9-.33 14.1.72 1.8-2.18 2.6-2.9.8-3.3-8.2.02-13.3 2.2-21.2 2.13-7.8 2.25-14.7-3.95-20.5-7.97-7.4-19.68-9.4-29.9-12-1.88-.5-1.08-3.3.8-2.9m43.35 19.4c11.7 11.3 18.45 28.8 13.15 44.6-.62 1.9-3.5 1.1-2.9-.8 4.98-14.8-1.43-31.1-12.36-41.6-1.4-1.3.7-3.4 2.1-2.1"/>
      <path id="path116" fill="#edab7f" d="M1452.3 1015.03c11.7 11.24 18.45 28.77 13.15 44.55-.62 1.83-3.5 1.04-2.9-.8 4.98-14.8-1.43-31.1-12.36-41.63-1.4-1.34.7-3.46 2.1-2.12m24.2 13.17c15.9 6.96 9.3 28.7 3.4 39.9-.9 1.7-3.5.18-2.6-1.52 5.2-9.8 11.9-29.56-2.3-35.8-1.8-.76-.3-3.34 1.5-2.58"/>
      <path id="path118" fill="#edab7f" d="M1484.58 1031.2c15.95 6.96 9.37 28.7 3.38 39.9-.9 1.7-3.5.18-2.6-1.52 5.26-9.8 11.97-29.56-2.3-35.8-1.76-.76-.23-3.34 1.52-2.58m28.66 20.74c9.68 6.96 9.58 21.48 7.2 31.77-.43 1.9-3.32 1.1-2.9-.7 2.08-8.9 2.26-22.6-5.82-28.4-1.55-1.1-.06-3.7 1.52-2.6m-11.8-4.4c-.67 3.5-.97 7.4-.45 10.9.4 2.9 4 5.3 5.9 7.2 4 4.1 5.3 8.6 2.7 13.9-.9 1.8-3.5.2-2.6-1.5 3.6-7.3-3.9-10.5-7.5-15.6-3-4.3-2-10.6-1.1-15.5.4-1.9 3.2-1.1 2.9.8m-24.3-4.2c.8 8.1-1.2 17.4-7.5 23-1.5 1.3-3.6-.8-2.2-2.1 5.7-5 7.3-13.4 6.6-20.8-.2-1.9 2.8-1.9 3 0m-88.3-49.7c5.6 1.5 11.2 3 16.8 4.7 7.6 2.4 14.3 6.8 20.2 12.2 6.3 5.9 6.6 13.4 3.2 20.9-1.6 3.5-4.4 6.4-6.9 9.1-1.3 1.4-2.8 2.9-2.9 4.8-.2 3 4.5 6 6.3 7.4 1.5 1.2 0 3.8-1.5 2.6-4.9-3.6-10.5-8.4-6-14.5 5.2-7.1 14-14.2 8.8-24.1-3.7-7.1-13.7-12.6-21.1-15.1-5.9-1.9-11.8-3.5-17.8-5-1.9-.5-1.1-3.3.8-2.9m-3.6 53c-7.2-2.7-12.2-8.4-15.6-15.1-3.5-6.8-3-14.6-6.9-21.4-6.2-10.8-16.9-14.5-26.7-20.8-1.6-1-.1-3.6 1.5-2.6 8.9 5.7 18.1 9.2 24.9 17.8 4.1 5.1 6.8 11.5 7.5 18 1 9 7.4 18.1 15.9 21.3 1.8.7 1 3.6-.8 2.9m-249.3-51c0-.8-.7-1.5-1.5-1.5s-1.5.7-1.5 1.5.7 1.5 1.5 1.5 1.5-.6 1.5-1.5m130 26c0-.8-.7-1.5-1.5-1.5s-1.5.7-1.5 1.5.7 1.5 1.5 1.5 1.5-.6 1.5-1.5"/>
      <path id="path120" fill="#50142e" d="M1112.36 990.4c.75-.28 21.53-7.9 84.66-7.9 30.17 0 65.33 1.72 104.5 5.12 51.6 4.48 110.8 20.44 158.34 42.7 41.93 19.62 69.7 42.05 72.17 58-.44.02-.97.05-1.6.05-8.84 0-26.05-3.9-49.86-9.27-56.97-12.88-152.34-34.43-275.14-34.43-75.78 0-102.4-9.42-109.75-13 .2-17.92 2.3-35.18 16.68-41.27m84.66-21.72c-67.72 0-89 8.6-89.87 8.96-25.23 10.6-25.15 40.2-25.15 57.9v2.92l2.03 2.04c3.1 3 23.54 18 121.44 18 121.26 0 215.66 21.32 272.08 34.07 25.6 5.8 42.5 9.6 52.88 9.6 14.08 0 15.6-8.1 15.6-11.6 0-12-7.96-24.85-23.65-38.2-13.7-11.68-33.3-23.63-56.66-34.57-48.93-22.9-109.87-39.33-163-43.94-39.57-3.44-75.13-5.18-105.7-5.18"/>
      <path id="path122" fill="#edab7f" d="M1344.34 1047.13h-10.36c-4.56 0-8.3 4.13-8.3 9.18v333.4c0 5.1 0 16.8 13.48 16.8 13.5 0 13.46-11.7 13.46-16.8v-333.4c0-5-3.73-9.1-8.28-9.1"/>
      <path id="path124" fill="none" stroke="#50142e" stroke-width="10" stroke-miterlimit="10" d="M1344.34 1047.13h-10.36c-4.56 0-8.3 4.13-8.3 9.18v333.4c0 5.1 0 16.8 13.48 16.8 13.5 0 13.46-11.7 13.46-16.8v-333.4c0-5-3.73-9.1-8.28-9.1z"/>
      <path id="path126" fill="#edab7f" d="M1385.82 1049.94s-6.78-5.13-17.27-6.62c-18.93-2.67-49.37-4.9-74.55-7.15-12.5-1.12-24.18-4.87-31.6-3.5l-3.48 13.36c49.75 2.36 86.07 8.03 129.68 14.38l-2.78-10.4z"/>
      <path id="path128" fill="#edab7f" d="M1342.66 1050.2h-12v22.05h12v-22.06z"/>
      <path id="path136" fill="#f2f2f2" d="M1108.77 1157.26c3.85-16.36 51.28-41.2 197.42-21.14 0 0-30.3 43.5-30.3 112.25 0 68.42 30.3 130.6 30.3 130.6-144.2-75.35-216.1-142.74-197.5-221.7"/>
      <g id="g138" clip-path="url(#d)" opacity=".2">
        <path id="path140" fill="#702845" d="M1305.3 1135.23c.63-1.54-166.3-19.33-166.3 29.46 0 41.2 14.83 103.2 164.43 209.1 0 0-28.3-72.8-28.3-133.1 0-71.4 24.2-90.9 30.17-105.5"/>
      </g>
      <path id="path142" fill="#694455" d="M1296.17 1368.2c-69.24-36.98-117.5-70.62-147.34-102.64-33.34-35.8-48.57-73.82-34.62-109.17 5.5-13.9 22.9-24.2 94.7-24.2 25.9 0 55.9 2.2 89.1 6.5-8.3 14.3-27.3 53.3-27.3 108.7 0 51.7 16.8 99.3 25.6 120.7m-87.3-244.9c-72.1 0-97.8 9.1-105.3 32-12.7 39.2 3.3 78.1 38.8 116.2 32.6 34.9 83.8 70 161 110.4l12 6.2-5.9-12.1c-.3-.6-29.9-62.1-29.9-128.7 0-66.4 29.2-109.3 29.5-109.7l4.1-6-7.1-1c-36.3-5-69-7.6-97-7.6"/>
      <path id="path144" fill="#f2f2f2" d="M1305.7 1137.55s-18.42 42.36-19.23 98.3c-.73 50.15 16.18 105.65 16.18 105.65-45.28-46.6-151.36-189 3.05-203.95"/>
      <g id="g146" clip-path="url(#e)" opacity=".2">
        <path id="path148" fill="#50142e" d="M1301.5 1136.33c-37.56 116.45-2.87 198.6-2.87 198.6-39.7-71.95-66.43-116.06-59.6-145.93 9.3-40.5 62.48-52.67 62.48-52.67"/>
      </g>
      <path id="path150" fill="#694455" d="M1250.57 1265.05c-19.37-34.4-25.66-63.3-18.2-83.64 7.66-20.8 30.02-33.8 66.52-38.6-5.3 14.4-16.3 49.5-16.9 93-.5 33.5 6.6 68.8 11.6 89.4-11.9-13.6-29-35.1-43.1-60.1m54.7-131.9c-44.5 4.3-71.8 19.5-81.3 45.2-8.5 23.2-2.2 53.8 18.8 91.1s48.6 67 56.6 75.2l12.7 13.2-5.4-17.5c-.2-.5-16.7-55.4-16-104.3.8-54.2 18.6-96.1 18.8-96.5l3-6.9-7.5.8z"/>
      <path id="path318" fill="#f5c98d" d="M1271.18 1049.8l-28.5-17.37-64.93-5.4L1116 1034l-3.58 52.78s6.27 17.67 69.9 17.67c39.3 0 68.35.96 80.66-12.17 13.26-14.16 8.2-42.47 8.2-42.47"/>
      <path id="path320" fill="none" stroke="#edab7f" stroke-width="3" stroke-miterlimit="10" d="M1212.7 1040.4c1.83 2.92 1.38 6.16-1.14 6.68-2.52.52-6.64-1.3-7.34-4.68-.7-3.4-11.22-13.37-8.7-13.9 2.52-.5 13.7 6.4 17.17 11.9zm12.04 20.82c-3-5.36-1-12.3 1.5-12.8 2.53-.52 4.52 2.13 5.22 5.52.7 3.4 6.03 15.13 3.5 15.65-2.5.5-7.06-2.8-10.22-8.4z"/>
      <path id="path322" fill="#edab7f" d="M1140.13 1030.93c1.6 4.95 7.77 6.35 11.4 9.43 4.04 3.4 4.43 8.13 6.12 12.9 4.2 11.86 12.8 20.95 24.36 25.84 1.8.75.3 3.34-1.5 2.6-11.3-4.8-19.6-13.4-24.5-24.62-1.2-2.84-2.2-5.8-3-8.77-1-3.6-2.7-5.4-5.9-7.4-3.9-2.4-8.2-4.4-9.7-9.1-.6-1.8 2.3-2.6 2.9-.8m11.9-.3c3.4 5.4 9.5 8.3 14.6 11.7 4.6 3 7.8 6.3 10.1 11.3 1.9 4.2 3 8.6 4.2 13 1.4 4.8 5.2 7.2 9.3 9.5 1.7.9.2 3.5-1.5 2.6-3.8-2.1-7.5-4.4-9.5-8.3-1.9-3.6-2.3-8-3.7-11.9-2.6-7.6-6.9-11.4-13.6-15.6-4.6-2.9-9.4-5.9-12.4-10.6-1-1.7 1.6-3.2 2.6-1.5"/>
      <path id="path324" fill="#edab7f" d="M1146.13 1026.93c1.64 5.04 8.43 6.92 12.22 10.1 1.54 1.32 2.5 3.07 3.1 4.96 1.25 3.9 2.67 7.5 4.77 11 8 13.5 22.46 24.3 37.43 28.8 1.85.5 1.06 3.4-.8 2.9-15.17-4.5-28.52-14.9-37.6-27.7-2-2.9-3.74-6-5-9.2-1.5-3.8-1.94-7.3-5.4-9.9-4.3-3.2-9.8-4.8-11.6-10.4-.6-1.9 2.3-2.7 2.88-.8m35.52 0c11.7 3.4 17.95 15.3 23.1 25.4 5 9.8 10.24 25.9 21.9 29.6 1.84.5 1.05 3.4-.8 2.9-10.75-3.4-16.07-15.7-20.7-25-5.44-10.9-11.42-26.2-24.3-30-1.85-.6-1.06-3.5.8-2.9m22-1.1c11.2 3.5 20.6 11.1 16.05 23.8-1.2 3.3-3.3 5.9-2.47 9.7.67 3 3.38 5.4 5.5 7.5 5.2 5 10.6 9.6 14.8 15.6 1.13 1.6-1.47 3.1-2.58 1.5-4.04-5.8-9.25-10.3-14.35-15.1-3.25-3.1-6.08-6.4-6.62-11-.64-5.5 4.18-10.2 4.06-15.8-.17-7.7-9.1-11.5-15.2-13.4-1.83-.6-1.04-3.5.8-2.9"/>
      <path id="path326" fill="#edab7f" d="M1212.65 1025.9c22.97 8.67 37.26 36.26 29.55 59.9-.6 1.83-3.5 1.04-2.9-.8 7.18-21.98-5.94-48.1-27.45-56.22-1.8-.68-1-3.58.8-2.9"/>
      <path id="path328" fill="#edab7f" d="M1226.86 1029.4c23.84 9.08 28.6 38.57 21.34 60.4-.6 1.82-3.5 1.04-2.9-.8 6.68-20.08 3.05-48.22-19.24-56.72-1.8-.68-1-3.58.8-2.9"/>
      <path id="path330" fill="#edab7f" d="M1229.84 1028.05c21.46 5.2 32.14 24.95 29.46 46.14-.24 1.8-3.24 1.9-3 0 2.5-19.9-6.98-38.4-27.26-43.3-1.88-.5-1.08-3.4.8-2.9"/>
      <path id="path332" fill="#edab7f" d="M1248 1033.98c11.5 4.27 17.38 16.5 19.94 27.8 1.13 4.98 1.83 10.4-.7 15.05-3.13 5.7-9.97 7.28-10.9 14.48-.24 1.9-3.25 2-3 0 .54-4.2 2.3-7.2 5.4-10.1 4.5-4.1 7.63-6.8 7.1-13.5-.9-11.6-6.98-26.4-18.65-30.7-1.8-.6-1.1-3.5.8-2.9m-76-6.9c11.2 8.4 21.5 18.3 25.7 31.9 2.5 7.9 2.1 16 10.5 20.1 1.7.9.2 3.5-1.5 2.6-7.5-3.6-9-10-10.7-17.5-3.4-14.9-13.6-25.5-25.6-34.5-1.6-1.1-.1-3.7 1.5-2.6"/>
      <path id="path334" fill="#edab7f" d="M1161.03 1027.97c8.1 7.08 17.76 14.4 23.33 23.83 3.37 5.7 5.16 12.1 8.74 17.78 1.03 1.64-1.56 3.14-2.6 1.5-3.42-5.43-5.37-11.27-8.27-16.92-4.93-9.63-15.4-17.15-23.32-24.06-1.4-1.28.7-3.4 2.2-2.13m-29.7 6.98c2.8 5.07 4.1 10.3 4.9 16 .3 2.06.6 4.16 1.5 6.07.8 1.78 4.2 2.65 5.8 3.7 3.2 2.13 5.8 5.25 8.4 8.06 4.1 4.36 8.5 7.92 13.9 10.32 1.8.78.3 3.36-1.5 2.6-4.9-2.18-9-5.23-12.8-9.02-3.4-3.4-6.3-7.28-10.3-9.94-3.2-2.14-5.5-2.36-6.8-6.35-.8-2.4-.9-5-1.3-7.5-.7-4.5-2-8.6-4.1-12.5-.9-1.7 1.7-3.2 2.6-1.5"/>
      <path id="path336" fill="#edab7f" d="M1126.05 1046.38c2.33 5.35-.1 14.78 6.34 17.38 7.6 3.08 11.3 11.18 18.1 15.34 1.6 1 .1 3.6-1.5 2.6-7.4-4.55-11.6-12.24-19.7-16-6.1-2.8-3.8-12.9-5.9-17.8-.8-1.76 1.8-3.3 2.6-1.52"/>
      <path id="path338" fill="#edab7f" d="M1116.4 1046.38c3.3 6.82 4.34 14.44 8.43 20.97 2.3 3.67 6.7 4.2 10 6.75 3.7 2.86 5.7 7.5 9.68 10 1.7 1.03.2 3.63-1.5 2.6-3.8-2.43-6.1-6.53-9.3-9.67-3.3-3.24-7.7-3.34-10.6-7.1-5-6.47-5.7-14.88-9.2-22.04-.8-1.8 1.8-3.3 2.6-1.6"/>
      <path id="path340" fill="#eca27c" d="M1231.33 1080.67c-29.52-5-100-2-110.67 1.64-5.33 1.9-3.33 13 9.42 16.5 18.4 5 32.92 5.9 76 5.9 52.42 0 53.4-12 53.4-12-3.54-7.8-20.16-10.5-28.15-11.8"/>
      <path id="path342" fill="none" stroke="#50142e" stroke-width="10" stroke-miterlimit="10" d="M1271.18 1048.8c0 33.78-3.4 43.65-13.6 48.82-14.03 7.1-55.32 7.24-75.26 6.83-22-.45-55.42-1.1-66.32-14.17-8.05-9.66 0-56.28 0-56.28s64.55-13.73 126.67-1.57c13.83 2.7 28.5 16.38 28.5 16.38z"/>
      <path id="path344" fill="none" stroke="#edab7f" stroke-width="3" stroke-miterlimit="10" d="M1140.97 1050.2c-1.22-3.25-2.77-6.88-.2-6.88s7.23 2.8 7.23 6.27c0 3.4 5.32 9.5 2.75 9.5-2.57 0-7.5-3-9.78-9z"/>
      <path id="path346" fill="#b95233" d="M1228.8 1082.25h-143.13l64.56 23.75h143.13l-64.56-23.75z"/>
      <path id="path348" fill="none" stroke="#50142e" stroke-width="10" stroke-miterlimit="10" d="M1228.8 1082.25h-143.13l64.56 23.75h143.13l-64.56-23.75z" stroke-linecap="round" stroke-linejoin="round"/>
      <g id="g350" clip-path="url(#s)" opacity=".3">
        <path id="path352" fill="#50142e" d="M1327.67 1066.27c-2.2 167.73 1.1 279.84 1.1 321.84 0 9.2 11.85 8.3 11.85.5 0 0-1.46-310.2 9-326.7 13.94.6 118.7 25.2 37.93-8.3-4-1.6-26.62-11.5-47.92-20.6l-2.63-12.4c73 0 157.5 34.1 180.1 45.9 0 0-57.43-68.9-194.78-82.4-100.1-9.8-224.32-20.5-218.98 29.1l14.56-1s2.38 16.2 6.85 20.8c0 0-4 32.5-2.48 46 0 0 6.84 7 12.2 8.1 24.42 5.4 70.03 15.8 130.8 16.5 13.1.2-12.36-11.3-2.3-11.9 10.87-.6-7.97-10.9-7.97-10.9s6.13-6.6 7.98-37.1c0 0 8.24 11.2 13.65 10.7l48.98 5.2 2.1 7.1z"/>
      </g>
      <path id="path354" fill="#edab7f" d="M1539.03 1086.43c-3.33 0-6.34 2.1-7.5 5.2l-.7 1.88c-1.54 4.2.56 8.8 4.7 10.3l195.24 72.7c.9.4 1.83.5 2.8.5 3.3 0 6.33-2 7.5-5.2l.7-1.8c.73-2 .66-4.2-.23-6.1-.9-1.9-2.48-3.4-4.48-4.2l-195.24-72.7c-.9-.3-1.84-.5-2.8-.5"/>
      <path id="path356" fill="#50142e" d="M1733.56 1182c-1.56 0-3.08-.26-4.54-.8l-195.24-72.7c-6.72-2.52-10.14-10.02-7.64-16.74l.7-1.88c1.9-5.05.73-2.4 6.14-2.4 1.55 0 9.13-5.77 10.6-5.23l195.22 72.7c3.26 1.22 5.84 3.63 7.3 6.8 1.43 3.15 1.56 6.68.34 9.93l-.7 1.88c-1.88 5.05-6.78 8.45-12.18 8.45m0-10c1.2 0 2.37-.7 2.8-1.9l.7-1.8c.6-1.5-.2-3.3-1.75-3.8l-195.2-72.7c-.3-.1-.7-.2-1-.2-1.2 0-2.3.8-2.8 2l-.7 1.9c-.5 1.6.3 3.3 1.8 3.9l195.3 72.7c.4.1.7.2 1.1.2"/>
      <path id="path358" fill="#edab7f" d="M1509.53 1075.38l-22.12-4.2-75.5-6.6c28.4 7 91.5 22.17 103.4 26.5 19 6.88 25.5 9.43 31.3 11.47l-6.4-10.93-30.5-16.24z"/>
      <path id="path360" fill="#50142e" d="M1544.22 1103.34l-39.44-11.06-8.93 4.4s12.93 3.17 19.76 5.5c12.1 4.1 36 12.9 36 12.9l-7.3-11.74z"/>
      <path id="path362" fill="#f2f2f2" d="M1371.93 1380.82S1432 1122.32 1696 1186c0 0-126.5 20-324.07 194.82"/>
      <g id="g364" clip-path="url(#t)" opacity=".2">
        <path id="path366" fill="#50142e" d="M1693.5 1185.5c-179.5-16.7-317.5 188.35-317.5 188.35 84.5-266.48 317.5-188.35 317.5-188.35"/>
      </g>
      <path id="path368" fill="#694455" d="M1381.65 1365.68c6.38-19 19.6-52 42.95-84.7 20.8-29.1 45.44-52.22 73.26-68.82 34.7-20.7 74.56-31.16 118.45-31.16h.1c18.4 0 37.6 1.8 57.5 5.45-15.1 4.55-38.1 12.68-67.9 26.9-49.4 23.6-127.7 68.94-224.2 152.33M1616.3 1171c-45.8 0-87.44 10.97-123.77 32.68-29.02 17.36-54.7 41.5-76.3 71.8-36.64 51.45-48.7 102.1-49.2 104.22l-3.53 15.25 11.72-10.38c101.33-89.66 183.38-137.54 234.36-161.9 55.2-26.4 86.87-31.68 87.2-31.73l24.62-3.95-24.25-5.8c-28.14-6.8-55.35-10.2-80.85-10.2"/>
    </g>
  </g>
</svg>
