<svg xmlns="http://www.w3.org/2000/svg" width="24" height="24" viewBox="0 0 24 24"><path fill="#fff" d="M17.594 4.062c-.328-.548-.773-1.036-1.32-1.442-.079-.164-.167-.333-.274-.503-.838-1.346-2.295-2.117-4-2.117-1.658 0-3.093.759-3.936 2.083-.102.16-.189.319-.264.475-.585.418-1.056.928-1.4 1.505-2.069.141-3.709 1.829-3.709 3.935v11.968c0 2.2 1.79 4.034 3.989 4.034h10.64c2.199 0 3.988-1.834 3.988-4.034v-11.968c.001-2.108-1.642-3.797-3.714-3.936m-7.597.301s.164-1.704 2.003-1.704c1.928 0 2.042 1.728 2.042 1.728.904.394 1.551 1.081 1.551 2.058h-7.184c0-1 .664-1.693 1.588-2.082m8.651 15.603c0 .733-.596 1.374-1.328 1.374h-10.64c-.733 0-1.329-.641-1.329-1.374v-11.968c0-.402.18-.749.462-.98.262 1.194 1.323 2.088 2.596 2.088h7.183c1.271 0 2.334-.894 2.596-2.088.281.232.461.579.461.98v11.968z"/></svg>