<svg xmlns="http://www.w3.org/2000/svg" width="1200" height="500">
  <path fill="#fff" d="M1190.9 416.43c-.4 0-.83.05-1.2.15l-43.52-60.38c.47-.67.72-1.5.72-2.36 0-2.32-1.8-4.18-4.06-4.38l-21.64-71.3c1.2-.77 1.96-2.1 1.96-3.66 0-2.42-1.96-4.37-4.38-4.37-1.3 0-2.47.56-3.3 1.5l-72.43-47.25c.16-.4.2-.93.2-1.4 0-2.4-1.95-4.37-4.37-4.37-.3 0-.62.1-.87.1l-38.2-60.6c.5-.7.8-1.6.8-2.5 0-2.4-1.9-4.3-4.3-4.3-1.5 0-2.9.8-3.7 2.1L911.2 126c.14-.4.2-.9.2-1.4 0-2.4-1.96-4.37-4.38-4.37-1.44 0-2.72.72-3.55 1.8l-63-46.77c.2-.52.3-1.08.3-1.65 0-2.4-1.95-4.3-4.37-4.3-1.96 0-3.55 1.3-4.17 3L749 64.6c-.37-2.07-2.17-3.67-4.34-3.67-1.54 0-2.88.82-3.7 2l-84.18-26.1v-.42c0-2.4-1.95-4.3-4.38-4.3-2.42 0-4.38 2-4.38 4.4v.3l-85.4 14.5c-.66-1.6-2.2-2.7-4-2.7-1.97 0-3.67 1.4-4.18 3.1L470 48.3c-.6-1.7-2.2-2.88-4.12-2.88-2.43 0-4.4 1.96-4.4 4.38 0 .2 0 .47.07.67l-62.4 35.65c-.8-.93-2-1.55-3.33-1.55-2.43 0-4.38 1.96-4.38 4.38v.26l-94.84 18.2c-.77-1.3-2.16-2.2-3.8-2.2-2.43 0-4.4 2-4.4 4.4 0 .6.16 1.3.37 1.8l-51.52 56.1c-.78-.6-1.7-.9-2.73-.9-2.42 0-4.38 2-4.38 4.4 0 .6.1 1.2.3 1.7l-77.84 36c-.7-1.1-2.1-1.9-3.6-1.9-2.4 0-4.32 2-4.32 4.4 0 1.6.82 2.9 2 3.7l-23.95 67.8c-.3 0-.66-.1-.97-.1-2.4 0-4.37 2-4.37 4.4 0 .8.2 1.7.7 2.4l-64.6 52.5c-.8-1-2-1.7-3.4-1.7-2.4 0-4.4 2-4.4 4.4 0 2.2 1.6 4.1 3.8 4.4l-.4 74.9c-2 .5-3.4 2.2-3.4 4.3 0 1.3.5 2.5 1.4 3.3L5 499h1182.55l4.17-74.02c1.86-.52 3.25-2.22 3.25-4.23.3-2.37-1.65-4.32-4.07-4.32zm-2.58.87c-1.08.82-1.8 2.06-1.8 3.5 0 .52.1.98.26 1.45l-61.72 35.4c-.46-.73-1.13-1.36-1.96-1.7l19.9-97.8c.76-.1 1.48-.4 2.05-.8l43.27 59.95zm-201.42 7.36c-1.54 0-2.83-1.28-2.83-2.83 0-1.54 1.3-2.83 2.83-2.83 1.55 0 2.84 1.3 2.84 2.83 0 1.55-1.3 2.84-2.84 2.84zm-4.38-3.2l-124.2 16.2c-.15-1.15-.77-2.12-1.64-2.8l46.1-95.04c.52.2 1.08.36 1.7.36.77 0 1.55-.2 2.16-.56l76.3 80.3c-.2.47-.36 1-.42 1.55zM757.56 398l69.4-80c.66.57 1.54.98 2.47 1.03l22.66 115.35c-1 .46-1.8 1.3-2.2 2.32l-92.2-36c0-.32.1-.63.1-1 0-.6-.1-1.17-.3-1.7zm-552.9 33.95L103 447.8c-.2-.57-.46-1.1-.88-1.55l78.92-87.16c.67.4 1.44.6 2.27.6.4 0 .8-.1 1.3-.2l22 68.5c-1.1.8-1.7 2-1.7 3.5v.3zm-152.06-7.7l15.66-40.6c.5.2 1.08.37 1.7.37h.4l25.6 61.82c-.4.36-.76.77-1.02 1.23l-40.43-17.6c.2-.42.2-.9.2-1.4.1-1.65-.8-3.04-2.1-3.8zm14.32-41.52L51.1 423.7c-.05 0-.1 0-.2-.06l.4-74.85.22-.1 15.35 27.7c-.83.7-1.3 1.9-1.3 3.1 0 1.2.53 2.3 1.35 3.1zm59.45-96.12l41.4-13.1-52.8 45.6c-.24-.2-.55-.4-.86-.6l8.2-27.2c2.3-.1 4.1-2 4.1-4.3v-.2zm163.1-78.4c.14.4.3.7.55 1l-51.66 39.1c-.78-1.1-2.06-1.8-3.56-1.8s-2.83.8-3.6 1.9l-77.8-35.8.17-.5 135.9-3.8zm7.82-97.5L407.1 123v.3L335.8 150c-.77-1.2-2.1-1.96-3.66-1.96-.87 0-1.7.26-2.37.72l-33.6-36.16c.5-.57.85-1.3 1-2zm102.6-19.5l79.9 19.3v.2l-64.4 10c-.7-1.5-2.2-2.5-3.9-2.5-.5 0-1 .1-1.4.2l-11.8-25.7c.6-.3 1.2-.9 1.6-1.6zm84.2 16.2c1.5 0 2.8 1.3 2.8 2.9 0 1.6-1.3 2.9-2.9 2.9s-2.8-1.2-2.8-2.8c0-1.5 1.3-2.8 2.8-2.8zm72-50.9c.7.6 1.7 1 2.6 1 1.5 0 2.8-.7 3.6-1.9L606 77.3c-.1.36-.14.7-.14 1.08 0 .16 0 .3.04.47l-38.9 9.9c-.6-1.7-2.2-2.94-4.1-2.94-2.4 0-4.3 1.9-4.3 4.3 0 .2 0 .4.06.6l-70.38 18-.05-.1 67.94-52.1zm94.4-16.1c.2.1.4.3.7.3l-18.7 70.8h-.1c-.9 0-1.7.3-2.4.7l-17.3-30.3c1.1-.7 1.8-2.1 1.8-3.6 0-.8-.3-1.6-.7-2.3l36.5-35.6zm-13.9 76.8l90.3-10.2-67.6 29.9c-.8-1.2-2.2-2.1-3.7-2.1s-2.8.8-3.5 1.8l-16.9-17.3c.6-.5 1.1-1.2 1.4-2zm106.2-47.9l-10.3 31.9h-.1c-2.4 0-4.2 1.8-4.4 4l-91.2 10.4L741 67.7c.48.67 1.1 1.23 1.8 1.6zm5-.8l70.1 58.2-.2.2-81-20.9v-.4c0-1.8-1.2-3.4-2.8-4l10.2-31.8h.4c1.4 0 2.5-.5 3.2-1.3zm88.6 9.6c.4 0 .9-.1 1.4-.2l28.9 49c-.6.7-1.1 1.5-1.2 2.4l-39.9-1.1c-.5-1.2-1.3-2.1-2.5-2.6l13-47.5h.2zm37.8 52.2l28.7-3.7c.6 1.5 2.2 2.6 3.9 2.6 1 0 1.8-.3 2.6-.9l47.8 30.3-83.3-27.2c.2-.3.2-.7.3-1zm92.2 31.2l25.5-4.1c.6 1.6 2.2 2.8 4 2.8h.3l11.5 63.2-.6.3-41.9-59.2c.7-.7 1.1-1.8 1.2-2.9zm47.3 66.7l21.1-3.1c.2.4.4.8.7 1.1l-128.7 106c-.4-.3-.9-.5-1.4-.6l16.3-86.7h.1c2.2 0 4.1-1.7 4.4-3.9l79.4-11.7c.8 1.4 2.3 2.3 3.9 2.3 2 0 3.8-1.5 4.2-3.5zM1138 354.8l-147.9 64.4c-.38-.4-.84-.8-1.36-1l69.8-122.3c.44.1.85.2 1.3.2 1.1 0 2.1-.4 2.9-1.1l76.03 56.4c-.56.7-.87 1.6-.87 2.6 0 .3 0 .6.1.86zm-78.17-60.3c-1.54 0-2.83-1.3-2.83-2.8s1.3-2.8 2.9-2.8 2.9 1.3 2.9 2.86c0 1.5-1.3 2.8-2.82 2.8zm-2.6.7L987.3 417.7h-.56c-1.14 0-2.2.5-3 1.2l-76.1-80c.64-.8 1.05-1.76 1.05-2.8 0-.25 0-.46-.1-.7l147.5-41.4c.3.5.7.95 1.2 1.3zM854 434h-.36l-22.62-115.1c1.3-.37 2.37-1.35 2.9-2.6l66.3 19.05-.07.46c0 1.3.52 2.4 1.4 3.2l-46.15 95.2c-.5-.1-1-.2-1.4-.2zM710.48 286.1c.05-.26.05-.52.05-.78v-.1l168.35-50.6c.26.53.57.94.98 1.35l-49.04 74.44c-.3-.1-.67-.1-1.03-.1-1.7 0-3.1 1-3.9 2.4l-115.4-26.6zm-36.52 33.84c-.05-.57-.2-1.08-.46-1.6l30.23-29.36c.72.46 1.55.72 2.42.72 1.6 0 3-.88 3.76-2.1l113.6 26.06-149.5 6.28zm26.37 34.82l-75.26 34.77c-.26-.46-.57-.92-.98-1.28l44-63.73c.4.16.9.26 1.4.26 1.1 0 2.1-.4 2.8-1.13l28.8 27.3c-.7.77-1.2 1.8-1.2 2.94.1.2.1.5.2.8zm-77.52 32.6c-.5-.2-1-.3-1.6-.3-2.4 0-4.4 1.96-4.4 4.38v.2l-203.6-11.47 252.6-57.6c.3.47.6.88 1.1 1.2l-44 63.6zm1.2 4.08c0 1.55-1.3 2.83-2.8 2.83s-2.8-1.28-2.8-2.83 1.3-2.83 2.9-2.83 2.9 1.3 2.9 2.9zm-219.9-10.92l-93.5 16.12-.1-.4 109.2-79.7c.6.4 1.2.72 1.8.87l-13.3 58.4c-2.2.2-4 2.1-4 4.4v.4zm-97.6 13.24c-1.1 0-2.1.46-2.9 1.13l-94.7-72.5c.3-.5.5-1.1.5-1.7l208.8-6.9c.1.5.3 1 .6 1.4L309.5 395c-.8-.78-1.87-1.24-3.05-1.24zm2.9 4.38c0 1.54-1.3 2.83-2.8 2.83s-2.8-1.3-2.8-2.83c0-1.55 1.3-2.84 2.9-2.84s2.9 1.3 2.9 2.84zm-123-45.94l16.8-27.93c.6.25 1.3.46 1.9.46 1.2 0 2.1-.4 2.9-1.08l94.3 72.17-114.4-40.4v-.04c0-1.24-.5-2.37-1.4-3.2zm-1.3-.84c-.5-.2-1.1-.36-1.7-.36-.5 0-1 .1-1.5.3l-24-27.6c.3-.46.5-.98.6-1.54l42.4-1.1c.2.9.6 1.7 1.1 2.33l-17 27.9zm1.2 4.02c0 1.55-1.3 2.83-2.8 2.83s-2.8-1.2-2.8-2.8 1.3-2.8 2.9-2.8 2.8 1.3 2.8 2.9zm-17-81.03c.6.26 1.2.4 1.9.4 2.2 0 4-1.64 4.3-3.75l55-17.5L119 317.83l50.38-43.48zm63-20.14c.3.3.7.5 1 .7l-27.5 61.2h-.6c-2.1 0-3.9 1.6-4.3 3.6l-42.4 1.1c-.3-2-2.1-3.6-4.3-3.6-2.2 0-4 1.7-4.3 3.8l-33 .9-.1-.7 115.7-66.7zm59.2-44c.7.5 1.5.7 2.4.7 1 0 1.8-.3 2.6-.8l80.5 64.2-.1.4-61.6-10.5v-.4c0-2.4-2-4.4-4.4-4.4-2 0-3.7 1.5-4.2 3.4l-67.1-11.5v-.3c0-.4 0-.7-.1-1.1l52.2-39.4zm38.9-53.9c.7.3 1.3.5 2.1.5 1.7 0 3.2-.9 3.9-2.4L375 167c-.06.3-.1.6-.1.9 0 .3.04.6.1.9l-77.27 35.9c-.1-.2-.26-.5-.46-.7l33-47.6zm-.7-3.8c0-1.5 1.3-2.8 2.9-2.8 1.6 0 2.9 1.3 2.9 2.9 0 1.6-1.3 2.9-2.8 2.9s-2.8-1.3-2.8-2.8zm80-26c.5.3 1 .4 1.5.5l6.8 62.5c-.8.5-1.4 1.2-1.8 2.1l-32.6-22c.2-.4.3-1 .3-1.5 0-1.2-.5-2.3-1.3-3.1l27.3-38.4zm6.3-2.1l55.4 16.2v.3c0 .9.3 1.7.7 2.4L423 190.2c-.77-.63-1.8-1.1-2.88-1.1h-.7l-6.77-62c1.5-.3 2.7-1.3 3.3-2.7zm68.6-9.6c1 0 1.9-.4 2.7-.9l38.1 29.5c-.2.3-.4.7-.5 1l-44.6-4c-.2-1.6-1.1-2.9-2.5-3.6l6.6-22.1c.2.1.3.1.4.1zm4.4-4.3l70.6-18c.3.5.6.9 1 1.3l-30 48.2c-.6-.3-1.2-.4-1.8-.4-.9 0-1.7.2-2.4.7L488 112.7c.5-.7.7-1.5.7-2.3zm142 9.5l-20.1 81.8.8-118.9h.4l17.6 30.8c-.5.7-.8 1.7-.8 2.6-.1 1.7.9 3.1 2.3 3.8zm3.5.3l17.5 17.9c-.1.4-.1.7-.1 1.1 0 1.1.4 2 .9 2.7L612 203.5l-.16-.1 20.4-83.1.5.03c.5 0 1-.1 1.47-.28zM729 108c.76 1.3 2.15 2.1 3.75 2.1.47 0 .88 0 1.3-.2l37.45 57.68c-.6.4-1.15 1.04-1.46 1.7l-110-28.72c.18-.44.2-.9.2-1.37 0-.3-.02-.6-.1-.9l68.7-30.4zm3.75-5.1c1.55 0 2.8 1.3 2.8 2.84s-1.3 2.8-2.8 2.8c-1.53 0-2.82-1.27-2.82-2.82s1.3-2.8 2.86-2.8zm3.9 4.8l80.95 20.76c-.07.3-.1.7-.1 1 0 .67.13 1.28.4 1.85l-41 36.7c-.8-.8-1.96-1.4-3.2-1.4-.35 0-.7.1-1.07.2l-37.47-57.7c.52-.4.93-1 1.24-1.5zm89.4 21.8l39.75 1.13c.2 1.1.84 2.07 1.7 2.68L850.15 175c-.2-.06-.46-.06-.67-.06-.6 0-1.17.1-1.74.36l-23.2-42.8c.9-.77 1.4-1.8 1.4-3zm27.8 49.97l104.3-16.72c.3.87.88 1.6 1.6 2.1l-36.4 71.56c-.4-.1-.82-.2-1.28-.2-1.2 0-2.27.5-3.1 1.3L853 181.7c.45-.62.7-1.45.76-2.27zm110.45-14.3l42.04 59.24c-.7.8-1.1 1.8-1.1 2.8v.6l-79 11.7c-.27-1-.8-1.8-1.6-2.4l36.4-71.6c.33.1.7.2 1.1.2.7 0 1.4-.1 2-.4zm-63.6 168.75l-66.4-19v-.1c0-1.5-.78-2.8-1.9-3.6L881.3 237c.5.2 1.1.4 1.7.4h.3l19.2 94.6c-.82.36-1.5 1.03-1.9 1.86zm-231-10.6c-1.54 0-2.82-1.3-2.82-2.8s1.3-2.8 2.84-2.8c1.5 0 2.8 1.3 2.8 2.9s-1.3 2.88-2.8 2.88zm-242.72-10.9l121.73-49.1c.8 1.2 2.2 1.9 3.6 1.9 1.2 0 2.3-.5 3.2-1.3l110.1 55.8v.5L427 312.56zm-1.8-2.5c-.77-.6-1.7-.9-2.73-.9-.8 0-1.53.2-2.2.6L383.95 279c.67-.8 1.1-1.77 1.1-2.9 0-.3-.07-.57-.12-.88l103.6-36.48.63.62-64.1 70.42zm.1 3.4c0 1.6-1.3 2.9-2.83 2.9s-2.82-1.3-2.82-2.8 1.3-2.8 2.83-2.8c1.6 0 2.9 1.3 2.9 2.86zm-114.6-45c1.3 0 2.46-.53 3.3-1.5l104.35 45.1c-.1.2-.16.5-.2.76l-208.85 6.9c-.05-.2-.1-.36-.2-.57l98.13-52.3c.9 1.1 2.1 1.7 3.5 1.7zm-2.85-4.4c0-1.52 1.28-2.8 2.83-2.8s2.9 1.3 2.9 2.82-1.3 2.83-2.8 2.83c-1.5 0-2.8-1.3-2.8-2.85zm8.4 2.2l60.1 10.3c.06 2.4 2.02 4.3 4.4 4.3.7 0 1.43-.2 2.05-.5l36 30.26L316.18 266zm-18.35-58.2l63.06-6.2c.3 2.1 2.1 3.7 4.3 3.7l13.4 67c-.4.2-.8.48-1.1.8l-80.4-64c.3-.4.5-.83.67-1.3zm80.57-35.5l.93 95.7-12.7-62.9c1.7-.63 2.92-2.23 2.92-4.13 0-1.7-.9-3.1-2.3-3.9l10.75-25 .36.1zm40.33 25.18l6.96 36.6-.3.18-43.1-63.2.1-.1 33 22.3v.08c0 1.97 1.4 3.7 3.3 4.2zm1.1-7.06c1.53 0 2.82 1.3 2.82 2.84 0 1.56-1.3 2.85-2.84 2.85-1.5 0-2.8-1.3-2.8-2.8 0-1.5 1.3-2.8 2.9-2.8zM472.7 144c.34.3.76.5 1.22.68l-4.07 31.67c-2.27.16-4.02 2.06-4.02 4.38 0 .2 0 .4.05.62l-41.94 10.6c-.1-.3-.2-.6-.36-.87l49.1-47.08zm6.9-2.26l44.44 3.97v.1c0 .9.26 1.7.67 2.3l-29.9 26.3c-.7-.6-1.8-1-2.9-1-.2 0-.3 0-.5.1l-13.5-29.1c.9-.6 1.6-1.5 1.9-2.5zm53.1 4.9l40.3 5.5c.03.94.4 1.8.96 2.53l-64.24 60.07c-.2-.16-.46-.26-.72-.4l19.38-64.25h.1c2.06 0 3.8-1.5 4.23-3.5zm46.46 9.22l27.15 47.96c-.8.82-1.4 1.9-1.4 3.2l.1.7-93.4 9.85c-.1-.67-.4-1.3-.7-1.8l64.3-60.12c.7.4 1.5.62 2.3.62.7 0 1.3-.15 1.9-.4zm74.6-12.93c.56.3 1.23.46 1.9.46 1.34 0 2.58-.7 3.35-1.6l110.3 28.7v.4c0 .4.1.9.2 1.3l-157.2 63.3c-.3-.6-.7-1.2-1.2-1.6l42.8-91zm119.87 25.2c1.54 0 2.83 1.28 2.83 2.82 0 1.55-1.3 2.83-2.83 2.83-1.55 0-2.84-1.3-2.84-2.84 0-1.54 1.3-2.83 2.8-2.83zm44.87-35.76l.16.15-32.4 63c-.26-.05-.52-.05-.77-.05-.6 0-1 .1-1.4.26l-7.7-21.38c1-.82 1.5-2 1.5-3.35 0-.56-.1-1.12-.3-1.64l40.8-36.98zm-109.9 149.3c-.73-.47-1.55-.73-2.43-.73-.72 0-1.44.2-2.06.52l-20.7-34.76c1.2-.8 1.9-2.17 1.9-3.67 0-.36 0-.67-.1-.98l96.6-40.03.1.05-73.2 79.52zm-30.5-38.6c0-1.53 1.3-2.82 2.83-2.82 1.56 0 2.85 1.3 2.85 2.83 0 1.55-1.3 2.83-2.84 2.83-1.53 0-2.82-1.2-2.82-2.8zm-1.44-.86l-62.9-4.5 162.9-35.1-92.07 38.2c-.8-1.2-2.1-1.9-3.7-1.9-2.1 0-3.9 1.5-4.3 3.5zm-120.7 16.3c-.72-1.3-2.16-2.2-3.8-2.2-1.7 0-3.2 1-3.93 2.5l-9.88-4.1c.1-.3.16-.7.16-1.2v-.2l61.8-12.5-44.3 17.9zm-6.64 2.1c0-1.5 1.28-2.8 2.83-2.8 1.54 0 2.83 1.3 2.83 2.9s-1.3 2.9-2.83 2.9c-1.55 0-2.83-1.3-2.83-2.8zm-19-9.3L496.1 237c.1-.37.16-.73.16-1.1 0-2.42-1.96-4.4-4.38-4.4-1.6 0-2.94.8-3.7 2.1l-19.02-7.9c.15-.3.2-.68.26-1.04l33.9-4.53c.66 1.56 2.2 2.64 4 2.64.53 0 1.04-.1 1.5-.26l22.1 28c-.25.2-.4.5-.6.8zM380.62 279c-1.56 0-2.85-1.3-2.85-2.83s1.3-2.83 2.84-2.83c1.6 0 2.9 1.3 2.9 2.83s-1.3 2.8-2.8 2.8zm3.64-5.2l40.4-32.4c.76.67 1.74 1.03 2.83 1.03 2.1 0 3.8-1.5 4.2-3.44l56-1.6-103.4 36.3-.1-.1zm39.88-80.2l42.3-10.67c.5 1 1.38 1.7 2.4 2.07l-4.52 34.8c-1.2.2-2.17.92-2.84 1.9l-38.22-25.8c.46-.63.77-1.45.88-2.33zm46.1-15.56c1.55 0 2.83 1.28 2.83 2.83s-1.28 2.83-2.83 2.83c-1.54 0-2.83-1.3-2.83-2.85s1.3-2.82 2.9-2.82zm4.38 3.24l13.14-2.1c.3.88.82 1.65 1.6 2.16l-22.98 38.63c-.16-.04-.3-.1-.52-.1l4.54-34.56c2.16-.1 4-1.8 4.22-4zm17.26-6.32c1.54 0 2.83 1.3 2.83 2.85s-1.3 2.9-2.8 2.9c-1.5 0-2.8-1.3-2.8-2.8s1.3-2.8 2.9-2.8zm33.9-25.64c.3.26.66.46 1.07.6L507.5 214h-.2c-.44 0-.9.04-1.32.2l-11.5-33.03c1.1-.82 1.75-2.06 1.75-3.5 0-.78-.2-1.44-.5-2.06l30.02-26.4zm78.2 89v.1l-65.9 13.35c-.66-1.54-2.2-2.62-4-2.62-.73 0-1.4.2-1.97.5l-21.9-27.84c.5-.3.8-.8 1-1.2l92.8 17.7zm4.68-26.83l-.93 21.7c-1.9.2-3.4 1.7-3.75 3.5l-91.8-17.5 93.35-9.9c.72 1 1.8 1.8 3.14 2zm2.47 26c0 1.6-1.28 2.8-2.82 2.8-1.5 0-2.8-1.3-2.8-2.9s1.3-2.8 2.9-2.8 2.9 1.3 2.9 2.8zm-100.96-19.1c0 1.5-1.28 2.8-2.83 2.8-1.53 0-2.82-1.3-2.82-2.9 0-1.6 1.3-2.9 2.83-2.9 1.56 0 2.84 1.3 2.84 2.8zm-7.2 0v.2l-33.6 4.5c-.2-1.1-.82-2-1.64-2.6L490.7 182c.36.1.78.17 1.2.17.4 0 .8-.04 1.22-.15l11.53 33c-1.03.78-1.7 2-1.7 3.4zm-15.47 17.4l-55.6 1.5 29.55-10.8c.8 1.1 2.12 1.9 3.67 1.9 1.3 0 2.43-.6 3.2-1.4l19.28 8c0 .1-.1.4-.1.6zm-22.4-14.6c1.56 0 2.84 1.3 2.84 2.8s-1.28 2.8-2.83 2.8-2.8-1.3-2.8-2.9 1.3-2.9 2.9-2.9zM422 196.9l38.84 26.17c-.06.3-.1.62-.1.98s.04.67.1.98l-29.52 10.9c-.72-1.4-2.22-2.33-3.87-2.33h-.35l-6.8-36.05c.62-.05 1.2-.26 1.7-.57zm2.68 41.06c0-1.55 1.3-2.83 2.84-2.83 1.54 0 2.83 1.3 2.83 2.9 0 1.54-1.3 2.83-2.83 2.83-1.55 0-2.84-1.3-2.84-2.83zm64.4-2.06c0-1.55 1.28-2.83 2.83-2.83s2.9 1.28 2.9 2.83c0 1.54-1.3 2.83-2.8 2.83s-2.8-1.3-2.8-2.8zm45.07 14.68c1.54 0 2.83 1.3 2.83 2.83s-1.3 2.8-2.83 2.8c-1.55 0-2.84-1.3-2.84-2.8s1.3-2.8 2.9-2.8zm70.93-10.2c.83.88 1.96 1.44 3.25 1.44 1.8 0 3.4-1.16 4.03-2.7l60.63 4.4-114.4 15.6 46.4-18.8zm168.6-65c.52 0 1-.1 1.45-.27l7.63 21.3c-.98.8-1.6 2-1.6 3.4v.2L617 235.4l153.26-61.7c.77.97 2 1.64 3.4 1.64zm9.02 24.46c0-1.52 1.3-2.8 2.83-2.8s2.85 1.28 2.85 2.83-1.3 2.84-2.84 2.84-2.82-1.3-2.82-2.9zm-173 33.46c-.16-.05-.26-.1-.4-.1l.9-21.84c2.02-.4 3.52-2.16 3.52-4.27 0-1-.32-1.9-.84-2.6l36.22-55.2-39.4 83.9zm-.36-29.05c1.55 0 2.84 1.3 2.84 2.83 0 1.55-1.3 2.83-2.83 2.83-1.54 0-2.83-1.3-2.83-2.9 0-1.5 1.3-2.8 2.84-2.8zm-78.03-58.47c0 1.55-1.3 2.83-2.8 2.83-1.5 0-2.8-1.3-2.8-2.9s1.3-2.8 2.9-2.8 2.9 1.3 2.9 2.8zm-54.9-.88l13.5 28.95c-1.3.7-2.2 2.1-2.3 3.7l-13 2.1c-.4-1.5-1.5-2.6-3-3.03l4.1-31.6.9-.16zM381 171.8l43.16 63.24c-.67.77-1.1 1.75-1.1 2.83 0 .77.22 1.5.58 2.1L383.2 272.5c-.67-.53-1.5-.84-2.42-.9l-.93-99.5c.43 0 .84-.1 1.15-.3zm-13 29.03c0 1.54-1.3 2.83-2.83 2.83-1.54 0-2.83-1.3-2.83-2.83 0-1.55 1.3-2.83 2.83-2.83 1.55 0 2.84 1.3 2.84 2.84zm122.66 39.2c.4.1.82.2 1.24.2 1.5 0 2.83-.76 3.6-1.9l34.3 14.32c-.04.26-.04.47-.04.72 0 2.43 1.96 4.38 4.38 4.38 1.44 0 2.73-.72 3.55-1.8l10.1 4.22v.42c0 .4 0 .7.1 1.1l-121.8 49.2v-.1l64.5-70.8zm175.25 78L556.2 262.4c.2-.47.3-.93.36-1.44l120.3-16.44c.4 1.14 1.24 2.06 2.3 2.53l-9.46 68.92h-.05c-1.55 0-2.94.83-3.7 2.06zm6.7-.94c-.4-.4-.8-.6-1.3-.9l9.4-68.8h.3c.4 0 .7-.1 1.1-.1l20.9 35.1c-.6.7-1 1.8-1 2.9 0 1 .3 1.8.8 2.6l-30.1 29.2zm30.8-31.8c0-1.6 1.3-2.9 2.9-2.9s2.9 1.3 2.9 2.8-1.3 2.8-2.8 2.8-2.8-1.3-2.8-2.9zm6.4-2.6l73.2-79.5c.8.6 1.7.9 2.7.9 1.5 0 2.9-.8 3.7-2l89.4 29.7c0 .2-.1.5-.1.8v.3l-168.4 50.7-.5-.9zm169.4-52.2l-89.4-29.7c.1-.3.1-.7.1-1v-.6l55.7-17.9c.7 1.3 2.2 2.2 3.9 2.2.5 0 .9-.1 1.3-.2l29.4 46c-.3.3-.6.6-.9 1.1zm38.7 8.7l-30.6-6.5c0-2.4-2-4.3-4.3-4.3-.5 0-1 .1-1.4.2l-29-45.4 65.7 55.4c-.1.1-.1.3-.2.5zm-34.9-9.3c1.6 0 2.9 1.3 2.9 2.8 0 1.5-1.3 2.8-2.8 2.8s-2.8-1.3-2.8-2.8c0-1.6 1.3-2.9 2.9-2.9zm21 101.6l-19.2-94.7c1.1-.6 1.9-1.4 2.3-2.6l30.7 6.5c.1 1.7 1.2 3.2 2.8 3.8l-16.4 86.9zm15.2-91c0-1.6 1.3-2.9 2.9-2.9 1.6 0 2.9 1.3 2.9 2.8 0 1.5-1.3 2.8-2.8 2.8-1.5 0-2.8-1.3-2.8-2.9zM849.4 182c-1.5 0-2.8-1.3-2.8-2.84 0-1.54 1.3-2.83 2.84-2.83 1.56 0 2.85 1.3 2.85 2.8 0 1.5-1.3 2.8-2.9 2.8zm-26.1-48.8l23.1 42.8c-.83.8-1.35 1.93-1.35 3.16 0 .2 0 .4.06.62l-55.7 17.88c-.3-.73-.9-1.3-1.6-1.7L820 133.2c.5.2 1.03.3 1.6.3.56.1 1.13 0 1.65-.25zm-167.6 8.62c-1.5 0-2.8-1.3-2.8-2.84 0-1.53 1.3-2.82 2.85-2.82s2.9 1.3 2.9 2.8c0 1.5-1.3 2.8-2.8 2.8zm-46.1-59.3l-.7 120.13c-.4 0-.8.1-1.2.3l-27.15-48c.8-.8 1.3-1.9 1.3-3.1 0-1.4-.5-2.5-1.5-3.3l29.2-66.1h.2zm-29.4 69.34c0 1.55-1.3 2.83-2.8 2.83-1.54 0-2.82-1.3-2.82-2.9 0-1.5 1.28-2.8 2.83-2.8s2.9 1.3 2.9 2.8zm-7-1.3l-40.4-5.5c-.16-.93-.57-1.8-1.24-2.4l29.98-48.44c.48.15.94.26 1.4.26h.2l12.94 53.26c-1.34.34-2.42 1.42-2.83 2.8zM563 92.9c-1.55 0-2.84-1.3-2.84-2.84 0-1.56 1.3-2.85 2.9-2.85 1.6 0 2.9 1.3 2.9 2.9 0 1.6-1.3 2.9-2.82 2.9zm-84.8 47.7c0 1.53-1.2 2.82-2.8 2.82-1.5 0-2.8-1.3-2.8-2.83 0-1.6 1.3-2.9 2.84-2.9 1.55 0 2.84 1.3 2.84 2.8zm-96.3 27.3c0 1.54-1.3 2.83-2.8 2.83-1.53 0-2.82-1.22-2.82-2.8 0-1.5 1.3-2.8 2.84-2.8 1.55 0 2.84 1.3 2.84 2.83zm-5.3 3.6l-10.9 25h-.58c-2.1 0-3.86 1.5-4.27 3.5l-62.63 6.13 77.1-35.85c.35.47.76.88 1.23 1.24zm-70.4 92.7c.05.3.1.57.2.82l-98.23 52.4c-.3-.37-.67-.62-1.08-.88l27.6-61.35h.1c1.7 0 3.2-1.1 3.9-2.6l67.4 11.5zm-98.44 56.15c0 1.55-1.3 2.84-2.83 2.84-1.55 0-2.84-1.3-2.84-2.9s1.2-2.9 2.8-2.9c1.5 0 2.8 1.3 2.8 2.8zm27.04-66.7c-1.54 0-2.83-1.3-2.83-2.84 0-1.5 1.3-2.8 2.83-2.8s2.84 1.3 2.84 2.9-1.3 2.9-2.84 2.9zm-78.04 67.73c0 1.55-1.3 2.83-2.83 2.83-1.55 0-2.84-1.2-2.84-2.8s1.2-2.8 2.8-2.8c1.5 0 2.8 1.3 2.8 2.9zm-5.56 3.4c.77.62 1.7.98 2.73.98s1.95-.36 2.68-.93l23.8 27.25c-.8.77-1.4 1.8-1.4 3L73.8 377.42l-.25-.42 77.63-52.22zm257.2 52.5c1.55 0 2.84 1.28 2.84 2.83s-1.3 2.9-2.84 2.9c-1.54 0-2.83-1.3-2.83-2.8s1.3-2.8 2.83-2.8zm1.2-1.4l13.33-58.4c1.9-.27 3.4-1.77 3.7-3.62l237.13 7.57-251.18 57.3c-.47-1.35-1.6-2.44-3-2.85zm417.35-61.2c0-1.54 1.3-2.83 2.84-2.83 1.5 0 2.8 1.3 2.8 2.84 0 1.5-1.3 2.8-2.9 2.8-1.6 0-2.9-1.3-2.9-2.9zm74.7 21.12c0-1.54 1.3-2.83 2.83-2.83 1.55 0 2.83 1.3 2.83 2.83 0 1.55-1.2 2.84-2.8 2.84-1.5 0-2.8-1.3-2.8-2.84zm107.92-105.86c-1.55 0-2.83-1.28-2.83-2.83 0-1.5 1.28-2.8 2.83-2.8s2.83 1.3 2.83 2.9c0 1.6-1.28 2.9-2.83 2.9zM962.17 164c-1.54 0-2.82-1.28-2.82-2.83 0-1.54 1.28-2.83 2.83-2.83 1.54 0 2.83 1.3 2.83 2.83 0 1.55-1.2 2.84-2.8 2.84zm-4.37-2.88l-104.27 16.74c-.36-1.03-1.08-1.95-2-2.47l17.25-41.5c.36.1.78.1 1.2.1 1.33 0 2.56-.6 3.4-1.6l84.57 27.6c-.1.3-.15.6-.15.9zm-87.83-28.54c-1.55 0-2.84-1.28-2.84-2.83s1.3-2.83 2.84-2.83c1.54 0 2.83 1.28 2.83 2.83 0 1.54-1.3 2.83-2.83 2.83zm-45.6-3.35c0 1.55-1.28 2.84-2.82 2.84-1.55 0-2.84-1.3-2.84-2.84 0-1.54 1.3-2.83 2.9-2.83 1.6 0 2.9 1.3 2.9 2.83zM632.5 118.68c-1.56 0-2.84-1.3-2.84-2.84 0-1.54 1.28-2.83 2.83-2.83 1.5 0 2.8 1.3 2.8 2.9s-1.3 2.9-2.9 2.9zm-19.33-40.44c0 1.54-1.3 2.83-2.83 2.83-1.55 0-2.83-1.3-2.83-2.83 0-1.55 1.3-2.84 2.9-2.84 1.6 0 2.9 1.3 2.9 2.84zm-5.2 3.65l-29.05 65.8c-.42-.2-.88-.3-1.3-.3L564.7 94.1c1.54-.67 2.68-2.16 2.68-3.96l39.1-9.95c.3.7.82 1.2 1.5 1.7zm-125.7 32.2l-6.54 22h-.36c-1.8 0-3.35 1-4.02 2.6l-55.48-16.2v-.1c0-.2 0-.3-.05-.5l64.34-10c.47.9 1.24 1.6 2.1 2zm-70.77 5.5c1.54 0 2.83 1.3 2.83 2.8 0 1.5-1.3 2.8-2.83 2.8-1.55 0-2.84-1.3-2.84-2.9s1.3-2.8 2.84-2.8zm-30.7 44.1c-.52-.2-1.14-.4-1.76-.4-1.6 0-2.93.8-3.7 2.1l-38.84-12.6.03-.5c0-.4-.05-.7-.1-1.1l71.24-26.8.47.6-27.36 38.5zm-85.73-50.4l33.6 36.2c-.57.7-.88 1.6-.88 2.6 0 1.1.4 2.1 1.1 2.9l-33 47.5c-.4-.3-1-.6-1.5-.7l-1.4-88c.6 0 1.4-.2 2-.5zm-1.54 90.1c1.54 0 2.83 1.3 2.83 2.8s-1.3 2.8-2.83 2.8c-1.55 0-2.83-1.3-2.83-2.9s1.28-2.9 2.83-2.9zM152.7 213.8l77.82 35.86c-.1.35-.15.7-.15 1.1 0 .3.05.65.1 1l-55.33 17.6c-.47-1.98-2.17-3.4-4.28-3.4-.3 0-.68.03-1 .1L151.06 215c.6-.25 1.15-.66 1.56-1.2zm18.2 53.68c1.5 0 2.8 1.3 2.8 2.85s-1.3 2.84-2.83 2.84c-1.55 0-2.84-1.3-2.84-2.85 0-1.54 1.28-2.83 2.83-2.83zM115 322.4c0 1.55-1.27 2.84-2.82 2.84s-2.84-1.3-2.84-2.84 1.3-2.8 2.83-2.8c1.54 0 2.82 1.3 2.82 2.82zm-4.83 3.86c.6.3 1.28.52 2 .52 2.1 0 3.92-1.56 4.28-3.57l33.17-.8c.1.4.26.8.52 1.3l-77.52 52.2 37.55-49.5zM72.8 379.6c0 1.54-1.3 2.83-2.84 2.83-1.55 0-2.83-1.3-2.83-2.84 0-1.6 1.28-2.9 2.83-2.9s2.83 1.3 2.83 2.8zm26 66.7c1.55 0 2.84 1.3 2.84 2.84 0 1.54-1.3 2.83-2.83 2.83s-2.8-1.3-2.8-2.83c0-1.55 1.3-2.84 2.9-2.84zm2.07-1.03c-.62-.36-1.34-.5-2.06-.5-.5 0-.9.1-1.4.24L72 383.5c1.44-.7 2.47-2.2 2.47-3.9 0-.2 0-.4-.05-.6l104.82-22.3c.16.5.4 1 .78 1.47l-79.1 87.14zm108.18-16.48c1.54 0 2.83 1.2 2.83 2.8s-1.3 2.8-2.83 2.8c-1.55 0-2.84-1.3-2.84-2.9s1.3-2.9 2.9-2.9zm0-1.6c-.42 0-.83 0-1.24.1l-21.9-68.6c.7-.5 1.2-1.2 1.5-2l114.7 40.5v.7c0 .2 0 .4.1.6l-89.1 31c-.7-1.5-2.2-2.6-3.9-2.6zm93.55-27c.77 1.3 2.16 2.2 3.8 2.2 1.55 0 2.9-.8 3.67-2l88.86 37.6-185.5-6.6v-.3l89.17-30.9zm8.08-1.2c.05-.3.1-.6.1-.9l93.66-16.2c.46.9 1.24 1.7 2.2 2.1l-3.95 50.4c-1.4.1-2.6.9-3.3 2.1L310.6 399zm92.57 36.9c1.55 0 2.84 1.3 2.84 2.8 0 1.5-1.3 2.8-2.9 2.8-1.6 0-2.9-1.3-2.9-2.9s1.3-2.9 2.8-2.9zm.98-1.5l3.97-50.1h.2c1.86 0 3.46-1.2 4.07-2.9L614.3 393l-206.93 44.25c-.5-1.35-1.7-2.38-3.14-2.74zm213.37-40.6c.77 1.1 2.1 1.8 3.56 1.8 1.6 0 2.98-.9 3.76-2.2l120.4 6.8-327.02 36.1 199.3-42.6zm7.88-1.8c.05-.3.05-.5.05-.7v-.5l75.42-34.8c.77 1.2 2.17 2.1 3.7 2.1 1.2 0 2.33-.5 3.1-1.3l42.4 40.1c-.47.6-.77 1.3-.88 2.1l-123.8-7zm76.3-38.3c0-1.6 1.28-2.9 2.83-2.9s2.9 1.3 2.9 2.8-1.3 2.8-2.8 2.8-2.8-1.3-2.8-2.8zm6.8 1.8c.25-.6.4-1.2.4-1.8 0-2.5-1.95-4.4-4.37-4.4-.7 0-1.4.2-2 .5l-29.1-27.6c.2-.3.3-.6.4-.9l151.6-6.4c.1.6.3 1.2.6 1.7l-69.2 79.8c-.8-.8-1.9-1.3-3.1-1.3-.8 0-1.6.2-2.3.6l-42.6-40.3zm44.97 41.2c1.54 0 2.83 1.3 2.83 2.8s-1.3 2.8-2.83 2.8c-1.55 0-2.84-1.3-2.84-2.9s1.3-2.9 2.9-2.9zm97.62 41.5c0-1.6 1.28-2.9 2.83-2.9s2.83 1.3 2.83 2.8-1.3 2.8-2.83 2.8c-1.55 0-2.83-1.3-2.83-2.9zm139.86-17.9l147.74-64.3c.6.9 1.54 1.6 2.68 1.9l-19.84 97.5h-.2c-1.9 0-3.6 1.3-4.1 3.1l-126-36.1c.1-.3.1-.5.1-.8 0-.6-.1-1.1-.2-1.5zm130.32 36.7c1.55 0 2.84 1.3 2.84 2.8 0 1.5-1.3 2.8-2.9 2.8-1.6 0-2.9-1.3-2.9-2.9 0-1.6 1.3-2.9 2.8-2.9zm23.96-103.3c0 1.5-1.2 2.8-2.8 2.8-1.5 0-2.8-1.3-2.8-2.9s1.3-2.9 2.9-2.9c1.6 0 2.9 1.3 2.9 2.8zm-26.5-82.2c1.6 0 2.9 1.3 2.9 2.8s-1.3 2.8-2.8 2.8-2.8-1.3-2.8-2.9 1.3-2.8 2.9-2.8zm0 7.2c.4 0 .7-.1 1-.1l21.5 70.9c-.4.1-.7.3-1.1.5l-76.2-56.5c.4-.6.6-1.3.6-2.1v-.1l50.9-14.3c.8 1 2.1 1.7 3.5 1.7zm-4-5.9c-.2.4-.3 1-.3 1.5 0 .4.1.8.2 1.2l-50.5 14.1c-.6-1.6-2.2-2.8-4-2.8-2.4 0-4.4 1.9-4.4 4.3 0 .2 0 .4.1.7l-147.5 41.4-.2-.4L1037 226.7c.6.36 1.3.5 2 .5 1.4 0 2.6-.6 3.4-1.64l72.48 47.3zm-72.9-50c0 1.5-1.3 2.8-2.8 2.8-1.5 0-2.8-1.3-2.8-2.9s1.3-2.9 2.9-2.9 2.8 1.3 2.8 2.8zm-7.2 0v.3l-20.7 3.1c-.3-2.1-2.1-3.7-4.3-3.7l-11.6-63.2.6-.3 38 60.1c-1.1.7-2 2.1-2 3.7zm-38.4-70.4c1.6 0 2.9 1.3 2.9 2.8s-1.3 2.8-2.8 2.8-2.8-1.3-2.8-2.8c0-1.6 1.3-2.9 2.9-2.9zm-4.2 1.9c0 .3-.1.6-.1.9v.1l-25.5 4.1c-.6-1.7-2.2-2.9-4.1-2.9-1 0-2 .3-2.8 1l-47.2-29.8 79.7 26.6zm-84.8-32.8c1.6 0 2.9 1.3 2.9 2.8s-1.3 2.8-2.8 2.8-2.8-1.3-2.8-2.8 1.3-2.9 2.9-2.9zm-4.2 1.7c-.1.3-.1.7-.1 1.1v.3l-28.5 3.6c-.5-1.9-2.2-3.2-4.2-3.2-.7 0-1.3.2-1.9.4l-29-48.7.5-.4 63.2 46.9zm-66.3-52.7c1.6 0 2.9 1.3 2.9 2.8s-1.3 2.8-2.8 2.8-2.8-1.3-2.8-2.8 1.3-2.9 2.9-2.9zm-1.8 6.9l-13 47.2h-.2c-.9 0-1.7.2-2.3.7L749 67c.12-.3.23-.62.3-1l83 7.6c0 1.73 1 3.2 2.5 3.84zm-90-15.1c1.6 0 2.9 1.3 2.9 2.8s-1.3 2.8-2.8 2.8c-1.5 0-2.8-1.3-2.8-2.9 0-1.6 1.3-2.9 2.9-2.9zm-88.3-24.1l84 26c0 .3-.1.6-.1.9 0 .3.1.6.1.8l-104.2 48c-.4-1-1.3-1.9-2.3-2.3l18.7-70.9c1.6-.1 3.1-1.1 3.7-2.6zm-3.9-4.7c1.5 0 2.8 1.3 2.8 2.8 0 1.5-1.3 2.8-2.8 2.8-1.6 0-2.8-1.3-2.8-2.9s1.3-2.8 2.9-2.8zm-4 4.7c.2.4.4.7.7 1.1L613 74.8c-.72-.58-1.65-.9-2.63-.9-1.5 0-2.84.78-3.6 1.92l-43.65-21.74c.05-.3.1-.67.1-.98v-.2l85.36-14.53zM558.9 50c1.6 0 2.9 1.3 2.9 2.84s-1.3 2.82-2.85 2.82c-1.53 0-2.82-1.3-2.82-2.8 0-1.54 1.3-2.83 2.8-2.83zm-88.3-.1l84 3.3c.08.73.28 1.4.6 2l-67.64 52c-.8-.9-1.94-1.45-3.23-1.45-.2 0-.4 0-.6.05l-15.3-52.13c1.4-.76 2.27-2.16 2.3-3.75zm-4.34-2.9c1.54 0 2.83 1.3 2.83 2.84s-1.3 2.83-2.9 2.83-2.9-1.3-2.9-2.85 1.2-2.84 2.8-2.84zm-3.8 5c.76 1.35 2.15 2.2 3.8 2.2.2 0 .4 0 .6-.03l15.3 52.07c-1 .6-1.74 1.5-2.1 2.6l-79.6-19.2c.06-.2.06-.4.06-.6 0-.5-.1-1-.3-1.5l62.2-35.5zM396.1 86.2c1.55 0 2.83 1.3 2.83 2.83 0 1.55-1.3 2.84-2.85 2.84-1.54 0-2.83-1.3-2.83-2.9 0-1.6 1.3-2.9 2.9-2.9zm-4.02 4.6c.67 1.53 2.22 2.6 4.02 2.6.22 0 .53-.04.8-.1l11.9 25.77c-.76.5-1.27 1.3-1.5 2.2l-110-12.3L392 90.8zm-99 16c1.54 0 2.83 1.3 2.83 2.84 0 1.55-1.3 2.83-2.8 2.83-1.5 0-2.8-1.3-2.8-2.9 0-1.6 1.3-2.9 2.9-2.9zm-1.6 6.9l1.5 88.46c-1.25.15-2.33.87-3 1.85l-51.2-31c.3-.6.46-1.3.46-2 0-.8-.24-1.6-.6-2.2l51.35-56c.4.4.9.7 1.5 1zm-56.62 54.4c1.55 0 2.84 1.3 2.84 2.84 0 1.55-1.3 2.83-2.88 2.83s-2.83-1.3-2.83-2.9c0-1.6 1.3-2.9 2.8-2.9zm-3.2 5.83c.83.88 1.97 1.4 3.2 1.4 1.14 0 2.17-.42 2.94-1.14l51.5 31.3c-.1.4-.18.7-.18 1.1v.2l-135.53 3.8-.1-.4 78.1-36.2zm-82.3 34.36c1.54 0 2.82 1.3 2.82 2.9s-1.28 2.9-2.83 2.9-2.85-1.3-2.85-2.9 1.3-2.9 2.8-2.9zm-.94 7.2c.3.1.6.1.96.1h.4l18.85 51.2c-1.2.8-2 2.1-2 3.7 0 .6.1 1.2.35 1.7l-40.9 13c-.36-.8-.88-1.5-1.6-1.9l23.95-67.8zM122 284.1c1.53 0 2.82 1.3 2.82 2.8 0 1.53-1.3 2.82-2.83 2.82-1.6 0-2.9-1.3-2.9-2.84 0-1.55 1.3-2.84 2.8-2.84zm-2.6 6.3c.37.25.84.5 1.3.66l-8.1 27h-.35c-2.42 0-4.38 1.95-4.38 4.37 0 .4.06.7.1.9L54.8 343.1l64.6-52.7zm-64.64 54.3l53.73-20 .4.62-37.9 50c-.4-.1-.7-.16-1.1-.16-.6 0-1.3.16-1.8.4l-15.2-27.5c1.1-.77 1.7-2 1.8-3.4zm-7.2-.1c0-1.56 1.28-2.85 2.82-2.85 1.55 0 2.84 1.3 2.84 2.83 0 1.55-1.3 2.84-2.84 2.84-1.54 0-2.83-1.3-2.83-2.85zm2.82 80.6c1.55 0 2.84 1.3 2.84 2.84 0 1.55-1.3 2.84-2.84 2.84-1.54 0-2.83-1.3-2.83-2.83 0-1.54 1.3-2.83 2.83-2.83zm-1.6 6.9c.52.2 1.04.3 1.6.3 1.34 0 2.58-.66 3.4-1.6l40.75 17.63c-.05.2-.05.4-.05.65 0 .45.05.86.2 1.22L8.93 496.2l39.87-64.1zM9.75 497.5l85.56-45.74c.9 1.03 2.1 1.75 3.5 1.75s2.8-.7 3.5-1.7l115.1 45.8H9.8zm93.3-47.13c.1-.3.15-.67.15-1.03l101.88-15.86c.62 1.33 1.9 2.3 3.4 2.52l11.9 61.04-117.35-46.67zm119 47.14l-12-61.6c.76-.2 1.48-.5 2.05-1.1l127.53 62.8h-117.6v.1zm-9.05-64l.17-.4 185.76 6.6c.1.6.36 1.2.72 1.7l-56.82 56.1-129.83-64zm131.9 64.1l55.88-55.1c.72.5 1.55.8 2.47.8 1.7 0 3.15-.9 3.87-2.3l210.08 56.6H344.9zm62.68-58.1v-.1l342-37.7c.2.5.52.9.82 1.2l-127.54 94.7-215.28-58zm217.8 58.1l126.42-93.8c.5.3 1.13.4 1.75.4.46 0 .92-.1 1.34-.2l28.4 93.7h-158zm130.9-94.4c.36-.3.67-.6.92-1l92.42 36.1v.2c0 1 .3 1.9.82 2.6l-65.57 56-28.6-93.8zm30.3 94.5l65-55.6c.72.5 1.54.8 2.42.8 1.4 0 2.63-.6 3.45-1.7l170.2 56.5H786.57v.1zm71.6-57.8c.04-.1.1-.3.1-.4l124.4-16.2c.52 1.9 2.22 3.2 4.22 3.2h.67l43.07 70.8L858.17 440zm130.9-14c.66-.3 1.22-.9 1.58-1.6l126.32 36.2c0 .5.1 1 .3 1.4l-84.53 35.8-43.68-71.7zm47.12 71.9l81.86-34.6c.82.9 1.96 1.5 3.24 1.5 1.14 0 2.16-.4 2.94-1.1l59.96 34.3h-148zm150.22-.5l-61.2-35c.3-.6.5-1.2.5-2 0-.3-.04-.6-.1-.8l61.88-35.5c.72.9 1.75 1.5 2.94 1.6l-4.02 71.8zm4.48-73.3c-1.55 0-2.84-1.3-2.84-2.8s1.3-2.9 2.84-2.9c1.54 0 2.83 1.3 2.83 2.9s-1.3 2.9-2.83 2.9z"/>
</svg>
