<?xml version="1.0" encoding="utf-8"?>
<!-- Generator: Adobe Illustrator 16.0.0, SVG Export Plug-In . SVG Version: 6.00 Build 0)  -->
<!DOCTYPE svg PUBLIC "-//W3C//DTD SVG 1.1//EN" "http://www.w3.org/Graphics/SVG/1.1/DTD/svg11.dtd">
<svg version="1.1" id="Layer_1" xmlns="http://www.w3.org/2000/svg" xmlns:xlink="http://www.w3.org/1999/xlink" x="0px" y="0px"
	 width="1200px" height="500px" viewBox="0 0 1200 500" enable-background="new 0 0 1200 500" xml:space="preserve">
<g id="Layer_2">
	<path fill="#FFFFFF" d="M1190.897,416.425c-0.411,0-0.824,0.051-1.184,0.154l-43.529-60.375c0.463-0.67,0.721-1.494,0.721-2.369
		c0-2.318-1.803-4.174-4.069-4.379l-21.636-71.295c1.185-0.771,1.957-2.111,1.957-3.656c0-2.422-1.957-4.379-4.378-4.379
		c-1.288,0-2.473,0.566-3.298,1.494l-72.428-47.24c0.154-0.411,0.207-0.927,0.207-1.391c0-2.421-1.958-4.379-4.38-4.379
		c-0.31,0-0.618,0.051-0.875,0.104l-38.274-60.632c0.515-0.721,0.823-1.598,0.823-2.575c0-2.421-1.957-4.379-4.378-4.379
		c-1.547,0-2.937,0.824-3.71,2.061l-81.288-27.2c0.154-0.411,0.207-0.876,0.207-1.391c0-2.421-1.959-4.378-4.38-4.378
		c-1.441,0-2.729,0.72-3.555,1.804L840.45,75.249c0.206-0.516,0.309-1.082,0.309-1.648c0-2.421-1.958-4.379-4.379-4.379
		c-1.957,0-3.554,1.288-4.171,2.988l-83.248-7.624c-0.36-2.061-2.162-3.658-4.327-3.658c-1.545,0-2.885,0.825-3.708,2.009
		l-84.174-26.117c0-0.103,0-0.258,0-0.411c0-2.421-1.957-4.379-4.379-4.379c-2.421,0-4.379,1.958-4.379,4.379
		c0,0.103,0,0.206,0,0.309l-85.358,14.476c-0.669-1.598-2.215-2.679-4.018-2.679c-1.958,0-3.657,1.34-4.173,3.091l-84.43-3.298
		c-0.619-1.7-2.216-2.884-4.122-2.884c-2.421,0-4.379,1.957-4.379,4.378c0,0.207,0,0.464,0.052,0.67l-62.383,35.647
		c-0.824-0.927-2.008-1.546-3.348-1.546c-2.421,0-4.379,1.958-4.379,4.379c0,0.104,0,0.155,0,0.259l-94.836,18.184
		c-0.773-1.339-2.164-2.216-3.812-2.216c-2.421,0-4.379,1.958-4.379,4.379c0,0.619,0.155,1.236,0.361,1.804l-51.514,56.098
		c-0.773-0.618-1.7-0.928-2.73-0.928c-2.421,0-4.378,1.958-4.378,4.379c0,0.566,0.103,1.134,0.309,1.649l-77.837,36.06
		c-0.773-1.134-2.112-1.905-3.606-1.905c-2.42,0-4.378,1.957-4.378,4.378c0,1.545,0.824,2.885,2.009,3.657l-23.954,67.792
		c-0.309-0.053-0.669-0.104-0.979-0.104c-2.422,0-4.379,1.959-4.379,4.379c0,0.875,0.258,1.699,0.721,2.422L53.526,341.78
		c-0.824-0.979-2.009-1.648-3.399-1.648c-2.422,0-4.379,1.957-4.379,4.379c0,2.215,1.648,4.068,3.812,4.328l-0.412,74.848
		c-1.957,0.465-3.399,2.164-3.399,4.275c0,1.287,0.566,2.475,1.442,3.246L5,498.999h1182.551l4.172-74.023
		c1.854-0.516,3.245-2.217,3.245-4.227C1195.277,418.382,1193.319,416.425,1190.897,416.425z M1188.321,417.298
		c-1.08,0.826-1.803,2.062-1.803,3.504c0,0.516,0.104,0.979,0.259,1.443l-61.713,35.391c-0.465-0.721-1.134-1.342-1.959-1.701
		l19.886-97.773c0.772-0.102,1.493-0.412,2.06-0.824L1188.321,417.298z M986.904,424.665c-1.546,0-2.834-1.287-2.834-2.832
		c0-1.547,1.288-2.834,2.834-2.834c1.544,0,2.833,1.287,2.833,2.834C989.737,423.378,988.448,424.665,986.904,424.665z
		 M982.524,421.472l-124.198,16.176c-0.156-1.133-0.773-2.111-1.649-2.781l46.104-95.043c0.516,0.207,1.083,0.359,1.701,0.359
		c0.772,0,1.544-0.205,2.163-0.566l76.292,80.309C982.731,420.39,982.576,420.905,982.524,421.472z M757.564,397.981l69.389-80
		c0.67,0.566,1.547,0.979,2.474,1.029l22.666,115.34c-0.979,0.463-1.753,1.287-2.165,2.318l-92.157-36.008
		c0.053-0.311,0.104-0.619,0.104-0.98C757.925,399.063,757.823,398.497,757.564,397.981z M204.667,431.929L102.98,447.794
		c-0.207-0.566-0.464-1.08-0.876-1.545l78.918-87.16c0.67,0.412,1.442,0.67,2.267,0.67c0.413,0,0.825-0.053,1.237-0.154
		l21.944,68.514c-1.082,0.824-1.751,2.059-1.751,3.502C204.667,431.724,204.667,431.827,204.667,431.929z M52.599,424.255
		l15.661-40.594c0.515,0.207,1.082,0.359,1.7,0.359c0.155,0,0.309,0,0.412,0l25.603,61.816c-0.412,0.361-0.772,0.773-1.031,1.238
		l-40.438-17.619c0.155-0.41,0.206-0.877,0.206-1.391C54.763,426.417,53.887,425.026,52.599,424.255z M66.92,382.733l-15.815,40.953
		c-0.051,0-0.103,0-0.206-0.051l0.412-74.85c0.052,0,0.155-0.051,0.206-0.051l15.351,27.766c-0.823,0.773-1.287,1.906-1.287,3.09
		C65.581,380.829,66.096,381.96,66.92,382.733z M126.367,286.608l41.417-13.188l0,0l-52.802,45.59
		c-0.256-0.205-0.566-0.412-0.875-0.566l8.139-27.25c2.318-0.104,4.122-2.01,4.122-4.379
		C126.367,286.763,126.367,286.714,126.367,286.608z M289.459,208.154c0.154,0.36,0.309,0.67,0.566,0.979l-51.668,39.099
		c-0.772-1.081-2.06-1.802-3.554-1.802c-1.494,0-2.833,0.771-3.606,1.905l-77.786-35.802c0.052-0.207,0.103-0.361,0.155-0.567
		L289.459,208.154z M297.29,110.586l109.827,12.312c0,0.104,0,0.207,0.052,0.31l-71.347,26.788
		c-0.772-1.187-2.112-1.958-3.657-1.958c-0.876,0-1.7,0.257-2.37,0.721l-33.535-36.162
		C296.775,112.03,297.135,111.308,297.29,110.586z M399.904,91.167l79.899,19.265c0,0.052,0,0.104,0,0.154l-64.393,9.994
		c-0.721-1.442-2.215-2.422-3.915-2.422c-0.464,0-0.927,0.053-1.339,0.206l-11.848-25.603
		C398.977,92.402,399.493,91.835,399.904,91.167z M484.129,107.341c1.546,0,2.834,1.288,2.834,2.834
		c0,1.545-1.288,2.832-2.834,2.832c-1.544,0-2.832-1.287-2.832-2.832C481.297,108.629,482.584,107.341,484.129,107.341z
		 M556.146,56.446c0.72,0.566,1.7,0.928,2.678,0.928c1.494,0,2.833-0.773,3.658-1.958l43.631,21.739
		c-0.103,0.36-0.153,0.721-0.153,1.081c0,0.155,0,0.31,0.051,0.464l-38.944,9.891c-0.618-1.7-2.215-2.937-4.122-2.937
		c-2.421,0-4.379,1.958-4.379,4.379c0,0.258,0,0.464,0.052,0.671l-70.368,17.978c0-0.052-0.051-0.052-0.051-0.104L556.146,56.446z
		 M650.519,40.374c0.257,0.103,0.463,0.257,0.721,0.309l-18.646,70.78c-0.053,0-0.053,0-0.104,0c-0.875,0-1.648,0.258-2.319,0.67
		l-17.308-30.291c1.135-0.771,1.854-2.112,1.854-3.605c0-0.875-0.257-1.648-0.67-2.318L650.519,40.374z M636.662,117.129
		l90.302-10.252l-67.585,29.879c-0.772-1.236-2.163-2.113-3.708-2.113c-1.444,0-2.73,0.723-3.504,1.753l-16.845-17.258
		C635.939,118.623,636.403,117.953,636.662,117.129z M742.831,69.272l-10.302,31.888c-0.052,0-0.052,0-0.104,0
		c-2.317,0-4.171,1.804-4.378,4.018l-91.23,10.354v-0.051L741.03,67.675C741.493,68.345,742.11,68.913,742.831,69.272z
		 M747.88,68.449l70.109,58.211c-0.051,0.051-0.104,0.103-0.153,0.153l-81.134-20.811c0-0.155,0-0.309,0-0.465
		c0-1.854-1.135-3.398-2.782-4.068l10.25-31.784c0.154,0,0.31,0.051,0.464,0.051C746.026,69.736,747.106,69.221,747.88,68.449z
		 M836.483,77.979c0.464,0,0.928-0.104,1.392-0.207l28.951,48.938c-0.62,0.618-1.031,1.442-1.187,2.319l-39.923-1.134
		c-0.412-1.186-1.288-2.164-2.42-2.68l12.98-47.237C836.329,77.979,836.433,77.979,836.483,77.979z M874.346,130.11l28.745-3.708
		c0.67,1.494,2.216,2.575,3.967,2.575c0.979,0,1.854-0.31,2.576-0.876l47.804,30.291l-83.349-27.251
		C874.243,130.832,874.295,130.471,874.346,130.11z M966.556,161.277l25.551-4.121c0.67,1.597,2.216,2.73,4.07,2.73
		c0.103,0,0.206,0,0.309,0l11.487,63.154c-0.206,0.104-0.411,0.155-0.566,0.31l-41.984-59.188
		C966.092,163.388,966.505,162.358,966.556,161.277z M1013.846,227.987l21.121-3.143c0.205,0.412,0.411,0.773,0.721,1.082
		L906.954,332.198c-0.412-0.309-0.928-0.514-1.39-0.617l16.329-86.699c0.052,0,0.103,0,0.155,0c2.265,0,4.12-1.7,4.378-3.915
		l79.382-11.744c0.723,1.391,2.217,2.317,3.864,2.317C1011.681,231.49,1013.433,229.996,1013.846,227.987z M1138.2,354.71
		l-147.896,64.342c-0.36-0.463-0.824-0.824-1.34-1.084l69.801-122.291c0.413,0.104,0.825,0.205,1.289,0.205
		c1.082,0,2.111-0.412,2.884-1.082l76.034,56.408c-0.566,0.721-0.875,1.648-0.875,2.627
		C1138.097,354.144,1138.147,354.452,1138.2,354.71z M1060.054,294.337c-1.547,0-2.833-1.287-2.833-2.836
		c0-1.543,1.286-2.83,2.833-2.83c1.545,0,2.833,1.287,2.833,2.83C1062.887,293.05,1061.599,294.337,1060.054,294.337z
		 M1057.427,295.007l-69.956,122.498c-0.206,0-0.36-0.051-0.566-0.051c-1.135,0-2.215,0.465-2.988,1.184l-76.086-80.053
		c0.618-0.771,1.029-1.75,1.029-2.781c0-0.258,0-0.463-0.051-0.721l147.484-41.416
		C1056.55,294.181,1056.963,294.646,1057.427,295.007z M853.998,433.938c-0.104,0-0.257,0-0.36,0l-22.614-115.082
		c1.287-0.359,2.369-1.34,2.885-2.574l66.298,19.059c0,0.156-0.053,0.309-0.053,0.463c0,1.238,0.517,2.371,1.392,3.195
		l-46.156,95.146C854.925,433.989,854.461,433.938,853.998,433.938z M710.48,286.093c0.053-0.256,0.053-0.514,0.053-0.771
		c0-0.053,0-0.053,0-0.104l168.346-50.586c0.259,0.517,0.566,0.928,0.979,1.34l-49.041,74.438c-0.311-0.104-0.67-0.104-1.03-0.104
		c-1.647,0-3.092,0.928-3.863,2.318L710.48,286.093z M673.958,319.938c-0.053-0.564-0.206-1.082-0.463-1.598l30.236-29.363
		c0.723,0.465,1.547,0.723,2.423,0.723c1.597,0,2.986-0.877,3.76-2.113l113.588,26.068L673.958,319.938z M700.333,354.763
		l-75.262,34.771c-0.258-0.465-0.567-0.928-0.979-1.289l44.045-63.723c0.463,0.156,0.927,0.26,1.391,0.26
		c1.134,0,2.113-0.412,2.885-1.135l28.848,27.303c-0.721,0.773-1.134,1.803-1.134,2.936
		C700.229,354.144,700.28,354.452,700.333,354.763z M622.805,387.368c-0.516-0.203-1.082-0.307-1.648-0.307
		c-2.421,0-4.378,1.957-4.378,4.377c0,0.105,0,0.156,0,0.209l-203.583-11.49l252.573-57.592c0.257,0.463,0.618,0.877,1.03,1.186
		L622.805,387.368z M623.99,391.438c0,1.547-1.289,2.834-2.834,2.834s-2.835-1.287-2.835-2.834c0-1.545,1.29-2.832,2.835-2.832
		S623.99,389.894,623.99,391.438z M404.026,380.519l-93.498,16.123c-0.051-0.154-0.103-0.256-0.155-0.412l109.209-79.689
		c0.516,0.408,1.133,0.719,1.803,0.873l-13.342,58.314c-2.268,0.207-4.018,2.061-4.018,4.379
		C404.026,380.263,404.026,380.364,404.026,380.519z M306.407,393.757c-1.134,0-2.164,0.465-2.937,1.135l-94.682-72.48
		c0.258-0.516,0.464-1.031,0.515-1.648l208.734-6.902c0.103,0.514,0.309,1.029,0.567,1.441l-109.158,79.693
		C308.622,394.222,307.592,393.757,306.407,393.757z M309.24,398.138c0,1.543-1.288,2.832-2.833,2.832s-2.833-1.289-2.833-2.832
		c0-1.547,1.288-2.836,2.833-2.836S309.24,396.591,309.24,398.138z M186.277,352.187l16.742-27.922
		c0.567,0.258,1.237,0.465,1.906,0.465c1.133,0,2.112-0.412,2.885-1.082l94.271,72.172l-114.413-40.389c0,0,0,0,0-0.051
		C187.667,354.144,187.153,353.011,186.277,352.187z M184.99,351.36c-0.516-0.203-1.134-0.359-1.701-0.359
		c-0.567,0-1.082,0.104-1.545,0.311l-24.058-27.613c0.31-0.463,0.464-0.977,0.567-1.543l42.396-1.084
		c0.155,0.877,0.567,1.699,1.134,2.318L184.99,351.36z M186.123,355.38c0,1.545-1.288,2.832-2.833,2.832
		c-1.545,0-2.833-1.287-2.833-2.832s1.288-2.834,2.833-2.834C184.834,352.546,186.123,353.835,186.123,355.38z M169.072,274.349
		c0.566,0.258,1.185,0.412,1.854,0.412c2.215,0,4.018-1.648,4.327-3.76l54.965-17.516l-111.527,64.342L169.072,274.349z
		 M232.073,254.208c0.309,0.258,0.67,0.463,1.031,0.617l-27.509,61.197c-0.206-0.051-0.463-0.051-0.67-0.051
		c-2.111,0-3.915,1.545-4.275,3.555l-42.396,1.082c-0.36-2.061-2.164-3.607-4.327-3.607c-2.215,0-4.069,1.701-4.327,3.812
		l-33.072,0.877c-0.052-0.258-0.103-0.463-0.154-0.723L232.073,254.208z M291.211,210.214c0.67,0.413,1.494,0.67,2.318,0.67
		c0.927,0,1.804-0.31,2.524-0.824l80.516,64.185c-0.052,0.104-0.103,0.26-0.155,0.361l-61.558-10.51c0-0.154,0-0.256,0-0.41
		c0-2.422-1.958-4.379-4.378-4.379c-2.061,0-3.761,1.441-4.225,3.348l-67.122-11.486c0-0.104,0-0.258,0-0.361
		c0-0.412-0.051-0.773-0.155-1.133L291.211,210.214z M330.104,156.279c0.618,0.31,1.288,0.516,2.061,0.516
		c1.699,0,3.194-0.979,3.915-2.42l38.687,12.619c-0.051,0.259-0.103,0.567-0.103,0.825c0,0.309,0.052,0.618,0.103,0.875
		l-77.219,35.957c-0.103-0.258-0.257-0.516-0.463-0.772L330.104,156.279z M329.33,152.417c0-1.547,1.289-2.834,2.834-2.834
		c1.545,0,2.833,1.287,2.833,2.834c0,1.545-1.289,2.832-2.833,2.832C330.619,155.249,329.33,153.961,329.33,152.417z
		 M409.332,126.35c0.413,0.257,0.927,0.412,1.443,0.515l6.799,62.487c-0.824,0.464-1.443,1.184-1.854,2.06l-32.608-21.996
		c0.205-0.464,0.308-1.029,0.308-1.546c0-1.236-0.515-2.37-1.338-3.142L409.332,126.35z M415.565,124.186l55.428,16.176
		c0,0.103,0,0.154,0,0.257c0,0.876,0.258,1.649,0.67,2.318l-49.041,46.929c-0.773-0.67-1.804-1.081-2.885-1.081
		c-0.257,0-0.463,0-0.722,0.052l-6.748-61.972C413.762,126.556,414.999,125.525,415.565,124.186z M484.129,114.554
		c0.979,0,1.907-0.361,2.627-0.928l38.069,29.517c-0.206,0.31-0.36,0.619-0.515,0.979l-44.611-3.968
		c-0.155-1.597-1.133-2.936-2.473-3.604l6.542-22.1C483.923,114.554,484.026,114.554,484.129,114.554z M488.508,110.226
		l70.626-17.979c0.257,0.464,0.618,0.877,1.03,1.237l-29.878,48.268c-0.567-0.258-1.185-0.412-1.854-0.412
		c-0.927,0-1.751,0.258-2.472,0.772l-38.172-29.568C488.25,111.823,488.508,111.049,488.508,110.226z M630.48,119.704
		l-20.091,81.805l0.722-118.944c0.104,0,0.206-0.052,0.36-0.052l17.565,30.754c-0.566,0.721-0.875,1.648-0.875,2.626
		C628.109,117.542,629.09,118.983,630.48,119.704z M633.932,119.962l17.514,17.927c-0.103,0.361-0.153,0.721-0.153,1.133
		c0,1.03,0.36,1.957,0.928,2.68l-40.49,61.661c-0.051-0.051-0.104-0.051-0.154-0.103l20.399-83.092c0.154,0,0.36,0.052,0.513,0.052
		C633.004,120.22,633.468,120.117,633.932,119.962z M728.665,107.804c0.773,1.288,2.164,2.113,3.76,2.113
		c0.465,0,0.876-0.052,1.288-0.206l37.45,57.644c-0.617,0.412-1.131,1.031-1.44,1.699l-109.88-28.642
		c0.154-0.463,0.206-0.927,0.206-1.391c0-0.309-0.052-0.566-0.104-0.824L728.665,107.804z M732.425,102.706
		c1.546,0,2.834,1.287,2.834,2.832c0,1.547-1.288,2.834-2.834,2.834c-1.545,0-2.833-1.287-2.833-2.834
		C729.592,103.993,730.88,102.706,732.425,102.706z M736.341,107.496l80.928,20.761c-0.05,0.31-0.103,0.67-0.103,0.978
		c0,0.67,0.155,1.288,0.413,1.854l-40.749,36.885c-0.823-0.876-1.957-1.391-3.192-1.391c-0.36,0-0.722,0.051-1.082,0.154
		l-37.451-57.695C735.62,108.578,736.032,108.062,736.341,107.496z M825.924,129.441l39.769,1.133
		c0.206,1.082,0.824,2.061,1.7,2.679l-17.36,41.624c-0.206-0.051-0.463-0.051-0.67-0.051c-0.617,0-1.186,0.102-1.752,0.36
		l-23.13-42.758C825.356,131.656,825.872,130.625,825.924,129.441z M853.741,179.409l104.314-16.741
		c0.31,0.875,0.875,1.598,1.597,2.112l-36.368,71.552c-0.411-0.103-0.824-0.206-1.288-0.206c-1.185,0-2.267,0.464-3.091,1.288
		l-65.938-55.738C853.431,181.058,853.689,180.234,853.741,179.409z M964.187,165.088l42.034,59.241
		c-0.618,0.772-1.029,1.751-1.029,2.781c0,0.206,0,0.412,0.052,0.567l-79.022,11.692c-0.257-0.979-0.823-1.802-1.597-2.369
		l36.42-71.604c0.36,0.102,0.721,0.154,1.133,0.154C962.897,165.552,963.567,165.398,964.187,165.088z M900.567,333.847
		l-66.401-19.059c0-0.053,0-0.053,0-0.104c0-1.494-0.773-2.834-1.908-3.607l48.94-74.231c0.515,0.206,1.081,0.361,1.699,0.361
		c0.103,0,0.206,0,0.309,0l19.267,94.784C901.648,332.353,900.979,333.022,900.567,333.847z M669.579,323.185
		c-1.546,0-2.833-1.289-2.833-2.834s1.287-2.834,2.833-2.834c1.545,0,2.833,1.289,2.833,2.834S671.124,323.185,669.579,323.185z
		 M426.846,312.313l121.727-49.193c0.773,1.133,2.113,1.854,3.555,1.854c1.236,0,2.317-0.516,3.142-1.287l110.034,55.789
		c-0.052,0.154-0.052,0.309-0.052,0.463L426.846,312.313z M425.043,309.739c-0.773-0.619-1.701-0.98-2.73-0.98
		c-0.824,0-1.545,0.207-2.215,0.621l-36.214-30.445c0.67-0.773,1.083-1.752,1.083-2.885c0-0.311-0.052-0.568-0.103-0.877
		l103.645-36.471c0.206,0.205,0.413,0.412,0.619,0.618L425.043,309.739z M425.146,313.138c0,1.547-1.287,2.834-2.833,2.834
		c-1.545,0-2.833-1.287-2.833-2.834c0-1.545,1.288-2.832,2.833-2.832C423.859,310.306,425.146,311.593,425.146,313.138z
		 M310.528,268.065c1.288,0,2.473-0.566,3.297-1.494l104.366,45.072c-0.103,0.207-0.154,0.465-0.205,0.723l-208.837,6.902
		c-0.052-0.205-0.103-0.361-0.207-0.566l98.134-52.338C307.901,267.396,309.137,268.065,310.528,268.065z M307.695,263.687
		c0-1.547,1.288-2.834,2.833-2.834c1.545,0,2.833,1.287,2.833,2.834c0,1.545-1.288,2.832-2.833,2.832
		C308.983,266.519,307.695,265.231,307.695,263.687z M316.091,265.901l60.118,10.301c0.051,2.371,2.008,4.277,4.378,4.277
		c0.721,0,1.442-0.207,2.06-0.516l36.008,30.238L316.091,265.901z M297.753,207.69l63.053-6.182c0.308,2.061,2.111,3.71,4.275,3.71
		l13.445,66.968c-0.413,0.205-0.723,0.463-1.03,0.771l-80.362-63.98C297.392,208.567,297.599,208.154,297.753,207.69z
		 M378.32,172.198l0.927,95.711l-12.672-62.95c1.701-0.617,2.936-2.215,2.936-4.12c0-1.7-0.927-3.144-2.318-3.863l10.767-24.881
		C378.063,172.146,378.165,172.146,378.32,172.198z M418.655,197.335l6.955,36.627c-0.103,0.052-0.154,0.103-0.257,0.154
		l-43.118-63.208c0.051-0.051,0.051-0.102,0.103-0.102l33.021,22.304v0.053C415.359,195.121,416.75,196.873,418.655,197.335z
		 M419.737,190.279c1.545,0,2.833,1.288,2.833,2.832c0,1.546-1.288,2.834-2.833,2.834c-1.546,0-2.833-1.288-2.833-2.834
		C416.904,191.567,418.191,190.279,419.737,190.279z M472.694,144.02c0.36,0.308,0.773,0.514,1.236,0.669l-4.07,31.681
		c-2.266,0.155-4.019,2.061-4.019,4.379c0,0.206,0,0.412,0.052,0.617l-41.933,10.613c-0.102-0.31-0.205-0.619-0.36-0.876
		L472.694,144.02z M479.596,141.752l44.457,3.968v0.051c0,0.824,0.257,1.647,0.669,2.317l-29.981,26.324
		c-0.772-0.67-1.802-1.082-2.884-1.082c-0.206,0-0.361,0-0.567,0.052l-13.549-29.105
		C478.617,143.659,479.287,142.783,479.596,141.752z M532.707,146.647l40.284,5.512c0.051,0.928,0.412,1.803,0.979,2.522
		l-64.237,60.066c-0.207-0.154-0.463-0.258-0.721-0.412l19.369-64.237c0.051,0,0.051,0,0.103,0
		C530.544,150.098,532.295,148.605,532.707,146.647z M579.172,155.868l27.148,47.959c-0.823,0.824-1.391,1.906-1.391,3.193
		c0,0.259,0.051,0.516,0.051,0.722l-93.394,9.839c-0.103-0.67-0.412-1.287-0.773-1.803l64.29-60.116
		c0.67,0.412,1.442,0.617,2.215,0.617C578.039,156.279,578.605,156.125,579.172,155.868z M653.764,142.937
		c0.567,0.31,1.237,0.464,1.907,0.464c1.338,0,2.575-0.618,3.348-1.597l110.24,28.744c0,0.156,0,0.259,0,0.412
		c0,0.464,0.104,0.928,0.206,1.34l-157.222,63.259c-0.308-0.618-0.72-1.185-1.235-1.597L653.764,142.937z M773.638,168.127
		c1.545,0,2.834,1.288,2.834,2.833c0,1.546-1.289,2.834-2.834,2.834c-1.547,0-2.835-1.288-2.835-2.834
		C770.803,169.416,772.091,168.127,773.638,168.127z M818.506,132.377c0.05,0.051,0.103,0.104,0.153,0.154l-32.401,63.001
		c-0.259-0.051-0.516-0.051-0.773-0.051c-0.515,0-0.979,0.103-1.39,0.257l-7.623-21.379c0.977-0.823,1.544-2.009,1.544-3.349
		c0-0.566-0.104-1.133-0.31-1.647L818.506,132.377z M708.576,281.663c-0.723-0.463-1.547-0.721-2.422-0.721
		c-0.722,0-1.442,0.205-2.061,0.516l-20.761-34.772c1.187-0.773,1.907-2.111,1.907-3.605c0-0.361-0.053-0.67-0.104-0.979
		l96.588-40.026c0,0,0,0.053,0.053,0.053L708.576,281.663z M678.079,243.081c0-1.546,1.288-2.834,2.833-2.834
		c1.546,0,2.833,1.288,2.833,2.834c0,1.545-1.287,2.832-2.833,2.832C679.367,245.913,678.079,244.625,678.079,243.081z
		 M676.637,242.205l-62.899-4.585l162.887-35.132l-92.055,38.172c-0.772-1.186-2.111-1.959-3.657-1.959
		C678.801,238.702,677.049,240.196,676.637,242.205z M555.939,258.481c-0.72-1.338-2.162-2.266-3.811-2.266
		c-1.701,0-3.194,0.979-3.916,2.473l-9.891-4.121c0.104-0.359,0.155-0.771,0.155-1.186c0-0.102,0-0.154,0-0.256l61.764-12.518
		L555.939,258.481z M549.295,260.595c0-1.547,1.288-2.834,2.833-2.834c1.546,0,2.833,1.287,2.833,2.834
		c0,1.545-1.288,2.832-2.833,2.832C550.583,263.427,549.295,262.14,549.295,260.595z M530.286,251.22l-34.205-14.27
		c0.103-0.36,0.154-0.721,0.154-1.082c0-2.42-1.958-4.378-4.379-4.378c-1.596,0-2.936,0.824-3.709,2.111l-19.008-7.933
		c0.155-0.309,0.207-0.67,0.258-1.031l33.896-4.532c0.67,1.545,2.215,2.627,4.018,2.627c0.515,0,1.031-0.103,1.494-0.258
		l22.099,27.972C530.647,250.651,530.491,250.911,530.286,251.22z M380.587,278.882c-1.546,0-2.834-1.287-2.834-2.832
		s1.288-2.834,2.834-2.834c1.545,0,2.833,1.289,2.833,2.834S382.133,278.882,380.587,278.882z M384.244,273.679l40.387-32.401
		c0.773,0.67,1.752,1.029,2.834,1.029c2.111,0,3.863-1.493,4.275-3.451l55.996-1.546c0,0,0,0.052,0.051,0.052l-103.44,36.37
		C384.296,273.731,384.296,273.679,384.244,273.679z M424.116,193.473l42.292-10.664c0.516,0.979,1.391,1.7,2.421,2.061
		l-4.532,34.823c-1.185,0.206-2.164,0.927-2.834,1.906l-38.223-25.809C423.704,195.172,424.013,194.348,424.116,193.473z
		 M470.221,177.916c1.545,0,2.833,1.288,2.833,2.833s-1.288,2.834-2.833,2.834c-1.545,0-2.833-1.289-2.833-2.834
		S468.676,177.916,470.221,177.916z M474.599,181.161l13.137-2.112c0.308,0.876,0.824,1.648,1.595,2.164l-22.974,38.636
		c-0.155-0.053-0.31-0.104-0.516-0.104l4.534-34.566C472.54,185.076,474.394,183.324,474.599,181.161z M491.856,174.826
		c1.546,0,2.834,1.287,2.834,2.832c0,1.546-1.288,2.834-2.834,2.834c-1.544,0-2.832-1.288-2.832-2.834
		C489.024,176.113,490.312,174.826,491.856,174.826z M525.753,149.17c0.309,0.258,0.669,0.464,1.081,0.619l-19.369,64.186
		c-0.051,0-0.103,0-0.154,0c-0.463,0-0.927,0.051-1.34,0.205l-11.488-33.02c1.083-0.824,1.751-2.061,1.751-3.503
		c0-0.773-0.206-1.441-0.515-2.062L525.753,149.17z M603.949,238.186c0,0.053,0,0.053,0,0.104l-65.885,13.342
		c-0.669-1.547-2.215-2.627-4.018-2.627c-0.721,0-1.391,0.153-1.958,0.463l-21.945-27.817c0.413-0.36,0.722-0.772,0.979-1.235
		L603.949,238.186z M608.639,211.348l-0.928,21.738c-1.905,0.258-3.399,1.701-3.762,3.556l-91.796-17.517l93.344-9.838
		C606.217,210.369,607.299,211.142,608.639,211.348z M611.111,237.414c0,1.546-1.289,2.833-2.833,2.833
		c-1.546,0-2.834-1.287-2.834-2.833s1.288-2.833,2.834-2.833C609.822,234.581,611.111,235.868,611.111,237.414z M510.144,218.354
		c0,1.545-1.288,2.832-2.833,2.832c-1.546,0-2.834-1.287-2.834-2.832c0-1.547,1.288-2.834,2.834-2.834
		C508.856,215.52,510.144,216.807,510.144,218.354z M502.933,218.354c0,0.104,0,0.154,0,0.257l-33.587,4.482
		c-0.207-1.03-0.824-1.958-1.649-2.575l22.976-38.636c0.36,0.104,0.772,0.154,1.184,0.154c0.413,0,0.825-0.051,1.237-0.154
		l11.539,33.071C503.603,215.727,502.933,216.963,502.933,218.354z M487.478,235.765l-55.584,1.545l29.518-10.817
		c0.773,1.186,2.112,1.957,3.658,1.957c1.288,0,2.421-0.565,3.193-1.391l19.267,8.036
		C487.53,235.25,487.478,235.507,487.478,235.765z M465.07,221.186c1.545,0,2.833,1.289,2.833,2.834s-1.288,2.834-2.833,2.834
		c-1.546,0-2.833-1.289-2.833-2.834S463.524,221.186,465.07,221.186z M421.952,196.873l38.841,26.168
		c-0.051,0.31-0.102,0.619-0.102,0.979s0.051,0.67,0.102,0.979l-29.517,10.817c-0.721-1.391-2.214-2.317-3.864-2.317
		c-0.102,0-0.257,0-0.36,0l-6.8-36.06C420.871,197.387,421.437,197.182,421.952,196.873z M424.631,237.929
		c0-1.547,1.288-2.834,2.834-2.834c1.545,0,2.834,1.287,2.834,2.834c0,1.545-1.289,2.832-2.834,2.832
		C425.918,240.761,424.631,239.474,424.631,237.929z M489.024,235.868c0-1.544,1.288-2.833,2.832-2.833
		c1.546,0,2.834,1.289,2.834,2.833c0,1.546-1.288,2.834-2.834,2.834C490.312,238.702,489.024,237.414,489.024,235.868z
		 M534.097,250.55c1.546,0,2.833,1.287,2.833,2.832c0,1.547-1.287,2.834-2.833,2.834c-1.544,0-2.833-1.287-2.833-2.834
		C531.265,251.837,532.553,250.55,534.097,250.55z M605.033,240.35c0.824,0.876,1.957,1.441,3.245,1.441
		c1.803,0,3.4-1.132,4.017-2.678l60.634,4.378l-114.362,15.609L605.033,240.35z M773.638,175.339c0.513,0,0.977-0.103,1.441-0.257
		l7.624,21.326c-0.979,0.824-1.596,2.009-1.596,3.4c0,0.051,0,0.103,0,0.154l-164.123,35.39l153.252-61.661
		C771.009,174.669,772.246,175.339,773.638,175.339z M782.65,199.809c0-1.546,1.288-2.833,2.834-2.833s2.833,1.287,2.833,2.833
		c0,1.545-1.287,2.833-2.833,2.833S782.65,201.354,782.65,199.809z M609.668,233.241c-0.154-0.051-0.257-0.104-0.413-0.104
		l0.929-21.842c2.009-0.411,3.503-2.163,3.503-4.275c0-0.978-0.31-1.854-0.824-2.575l36.215-55.17L609.668,233.241z
		 M609.308,204.188c1.546,0,2.834,1.287,2.834,2.832c0,1.547-1.288,2.834-2.834,2.834c-1.545,0-2.834-1.287-2.834-2.834
		C606.474,205.475,607.763,204.188,609.308,204.188z M531.265,145.72c0,1.545-1.288,2.832-2.833,2.832
		c-1.545,0-2.832-1.287-2.832-2.832c0-1.547,1.287-2.835,2.832-2.835C529.977,142.885,531.265,144.173,531.265,145.72z
		 M476.351,144.843l13.446,28.951c-1.34,0.721-2.267,2.112-2.319,3.709l-13.033,2.111c-0.411-1.494-1.544-2.627-3.039-3.038
		l4.069-31.579C475.785,144.947,476.042,144.894,476.351,144.843z M380.948,171.785l43.168,63.26
		c-0.67,0.771-1.082,1.751-1.082,2.833c0,0.772,0.206,1.493,0.566,2.112l-40.438,32.505c-0.669-0.516-1.494-0.824-2.421-0.875
		l-0.927-99.525C380.226,172.095,380.638,171.992,380.948,171.785z M367.966,200.839c0,1.545-1.287,2.832-2.833,2.832
		c-1.545,0-2.833-1.287-2.833-2.832c0-1.546,1.288-2.834,2.833-2.834C366.679,198.005,367.966,199.293,367.966,200.839z
		 M490.621,240.041c0.411,0.104,0.823,0.206,1.235,0.206c1.495,0,2.834-0.772,3.606-1.906l34.309,14.321
		c-0.052,0.258-0.052,0.465-0.052,0.721c0,2.422,1.958,4.379,4.378,4.379c1.443,0,2.73-0.721,3.555-1.803l10.15,4.225
		c0,0.156,0,0.256,0,0.412c0,0.412,0.051,0.773,0.154,1.135l-121.831,49.193c0,0,0,0,0-0.049L490.621,240.041z M665.87,318.032
		l-109.724-55.635c0.206-0.463,0.309-0.928,0.36-1.441l120.284-16.434c0.413,1.134,1.237,2.062,2.319,2.525l-9.479,68.924h-0.052
		C668.033,315.972,666.643,316.796,665.87,318.032z M672.515,317.104c-0.41-0.359-0.824-0.617-1.338-0.822l9.427-68.823
		c0.103,0,0.205,0,0.309,0c0.36,0,0.67-0.053,1.03-0.104l20.967,35.081c-0.67,0.773-1.082,1.803-1.082,2.885
		c0,0.979,0.31,1.855,0.824,2.574L672.515,317.104z M703.32,285.321c0-1.545,1.288-2.834,2.834-2.834
		c1.545,0,2.833,1.289,2.833,2.834s-1.288,2.832-2.833,2.832C704.608,288.153,703.32,286.866,703.32,285.321z M709.708,282.745
		l73.149-79.485c0.721,0.566,1.648,0.928,2.679,0.928c1.494,0,2.833-0.773,3.657-1.958l89.429,29.724
		c-0.051,0.257-0.104,0.566-0.104,0.823c0,0.154,0,0.258,0,0.36l-168.244,50.536C710.069,283.364,709.914,283.054,709.708,282.745z
		 M879.138,230.51l-89.377-29.672c0.051-0.309,0.103-0.668,0.103-0.979c0-0.206,0-0.412-0.052-0.617l55.688-17.877
		c0.721,1.34,2.163,2.268,3.863,2.268c0.464,0,0.875-0.051,1.287-0.206l29.415,46.002
		C879.704,229.739,879.396,230.099,879.138,230.51z M917.823,239.217l-30.599-6.491c-0.052-2.37-2.009-4.327-4.379-4.327
		c-0.516,0-0.979,0.103-1.441,0.257l-29.003-45.383l65.628,55.429C917.927,238.856,917.875,239.01,917.823,239.217z
		 M882.846,229.944c1.546,0,2.833,1.288,2.833,2.833c0,1.547-1.287,2.834-2.833,2.834s-2.833-1.287-2.833-2.834
		C880.013,231.232,881.3,229.944,882.846,229.944z M903.966,331.478h-0.051l-19.265-94.682c1.08-0.516,1.904-1.391,2.317-2.524
		l30.649,6.49c0.104,1.701,1.186,3.194,2.73,3.813L903.966,331.478z M919.163,240.504c0-1.545,1.287-2.833,2.833-2.833
		c1.545,0,2.834,1.288,2.834,2.833c0,1.546-1.289,2.834-2.834,2.834C920.45,243.338,919.163,242.05,919.163,240.504z
		 M849.362,182.037c-1.546,0-2.833-1.288-2.833-2.833c0-1.546,1.287-2.834,2.833-2.834c1.545,0,2.834,1.288,2.834,2.834
		C852.196,180.749,850.907,182.037,849.362,182.037z M823.245,133.252l23.13,42.757c-0.825,0.771-1.341,1.906-1.341,3.143
		c0,0.206,0,0.412,0.053,0.617l-55.688,17.876c-0.36-0.721-0.927-1.287-1.647-1.7L820,133.202c0.513,0.206,1.029,0.309,1.597,0.309
		C822.163,133.613,822.729,133.51,823.245,133.252z M655.671,141.855c-1.547,0-2.834-1.287-2.834-2.833
		c0-1.545,1.287-2.832,2.834-2.832c1.545,0,2.833,1.287,2.833,2.832C658.504,140.568,657.216,141.855,655.671,141.855z
		 M609.565,82.564l-0.721,120.13c-0.412,0.051-0.824,0.154-1.236,0.309l-27.148-48.011c0.773-0.773,1.289-1.905,1.289-3.092
		c0-1.338-0.567-2.472-1.494-3.295l29.156-66.093C609.411,82.512,609.462,82.512,609.565,82.564z M580.203,151.9
		c0,1.547-1.289,2.834-2.834,2.834c-1.545,0-2.833-1.287-2.833-2.834c0-1.545,1.288-2.832,2.833-2.832
		C578.915,149.068,580.203,150.355,580.203,151.9z M573.196,150.613l-40.438-5.513c-0.155-0.927-0.567-1.802-1.236-2.42
		l29.981-48.424c0.463,0.156,0.927,0.259,1.391,0.259c0.051,0,0.102,0,0.206,0l12.93,53.265
		C574.69,148.141,573.609,149.222,573.196,150.613z M562.945,92.917c-1.545,0-2.833-1.287-2.833-2.834
		c0-1.544,1.288-2.833,2.833-2.833c1.546,0,2.833,1.289,2.833,2.833C565.779,91.63,564.491,92.917,562.945,92.917z M478.206,140.568
		c0,1.545-1.288,2.833-2.833,2.833c-1.545,0-2.833-1.288-2.833-2.833c0-1.546,1.288-2.834,2.833-2.834
		C476.918,137.734,478.206,139.022,478.206,140.568z M381.875,167.87c0,1.546-1.288,2.835-2.833,2.835
		c-1.545,0-2.833-1.289-2.833-2.835c0-1.544,1.288-2.834,2.833-2.834C380.587,165.036,381.875,166.326,381.875,167.87z
		 M376.517,171.475l-10.868,25.037c-0.207,0-0.36-0.052-0.567-0.052c-2.112,0-3.864,1.493-4.275,3.503l-62.641,6.13l77.116-35.853
		C375.642,170.705,376.054,171.115,376.517,171.475z M306.201,264.2c0.051,0.311,0.103,0.568,0.206,0.824l-98.236,52.389
		c-0.31-0.359-0.67-0.617-1.082-0.873l27.611-61.354c0.052,0,0.103,0,0.154,0c1.752,0,3.247-1.031,3.967-2.525L306.201,264.2z
		 M207.759,320.351c0,1.545-1.289,2.834-2.834,2.834c-1.545,0-2.833-1.289-2.833-2.834s1.288-2.834,2.833-2.834
		C206.47,317.517,207.759,318.806,207.759,320.351z M234.803,253.64c-1.545,0-2.833-1.287-2.833-2.832
		c0-1.546,1.288-2.833,2.833-2.833s2.833,1.287,2.833,2.833C237.637,252.353,236.349,253.64,234.803,253.64z M156.759,321.38
		c0,1.545-1.287,2.834-2.833,2.834c-1.545,0-2.833-1.289-2.833-2.834s1.288-2.832,2.833-2.832
		C155.472,318.548,156.759,319.835,156.759,321.38z M151.196,324.782c0.772,0.617,1.7,0.979,2.73,0.979
		c1.03,0,1.958-0.361,2.679-0.928l23.799,27.25c-0.824,0.771-1.391,1.803-1.442,2.988l-105.14,22.357
		c-0.103-0.154-0.154-0.258-0.257-0.414L151.196,324.782z M408.404,377.274c1.546,0,2.833,1.287,2.833,2.832
		s-1.288,2.834-2.833,2.834c-1.545,0-2.833-1.289-2.833-2.834S406.859,377.274,408.404,377.274z M409.59,375.882l13.341-58.416
		c1.906-0.258,3.4-1.752,3.71-3.605l237.117,7.572l-251.18,57.283C412.113,377.376,410.98,376.294,409.59,375.882z M826.953,314.685
		c0-1.547,1.288-2.834,2.834-2.834c1.545,0,2.832,1.287,2.832,2.834c0,1.545-1.287,2.832-2.832,2.832
		C828.241,317.517,826.953,316.229,826.953,314.685z M901.648,335.804c0-1.545,1.287-2.832,2.834-2.832
		c1.544,0,2.832,1.287,2.832,2.832c0,1.547-1.288,2.834-2.832,2.834C902.936,338.638,901.648,337.351,901.648,335.804z
		 M1009.57,229.944c-1.546,0-2.834-1.288-2.834-2.833c0-1.546,1.288-2.833,2.834-2.833s2.833,1.287,2.833,2.833
		C1012.403,228.656,1011.116,229.944,1009.57,229.944z M962.177,164.007c-1.544,0-2.832-1.289-2.832-2.834
		c0-1.546,1.288-2.834,2.832-2.834c1.546,0,2.833,1.288,2.833,2.834C965.01,162.718,963.723,164.007,962.177,164.007z
		 M957.799,161.122l-104.265,16.742c-0.361-1.03-1.08-1.957-2.008-2.474l17.257-41.415c0.36,0.102,0.772,0.153,1.185,0.153
		c1.339,0,2.575-0.618,3.398-1.597l84.587,27.663C957.851,160.503,957.799,160.813,957.799,161.122z M869.968,132.583
		c-1.546,0-2.834-1.288-2.834-2.832c0-1.547,1.288-2.834,2.834-2.834c1.545,0,2.834,1.287,2.834,2.834
		C872.802,131.294,871.513,132.583,869.968,132.583z M824.378,129.234c0,1.547-1.287,2.834-2.833,2.834
		c-1.545,0-2.833-1.287-2.833-2.834c0-1.544,1.288-2.832,2.833-2.832C823.091,126.402,824.378,127.69,824.378,129.234z
		 M632.487,118.675c-1.543,0-2.831-1.289-2.831-2.834c0-1.546,1.288-2.834,2.831-2.834c1.547,0,2.835,1.288,2.835,2.834
		C635.322,117.386,634.034,118.675,632.487,118.675z M613.172,78.236c0,1.546-1.288,2.834-2.834,2.834
		c-1.544,0-2.833-1.288-2.833-2.834c0-1.545,1.289-2.833,2.833-2.833C611.884,75.403,613.172,76.691,613.172,78.236z
		 M607.968,81.894l-29.053,65.886c-0.412-0.155-0.876-0.258-1.288-0.258l-12.93-53.42c1.546-0.67,2.68-2.164,2.68-3.966
		l39.097-9.943C606.784,80.915,607.299,81.481,607.968,81.894z M482.274,114.141l-6.542,22.049c-0.104,0-0.258,0-0.361,0
		c-1.802,0-3.348,1.08-4.018,2.627l-55.48-16.176c0-0.051,0-0.051,0-0.104c0-0.154,0-0.308-0.051-0.463l64.341-9.994
		C480.627,113.007,481.4,113.729,482.274,114.141z M411.495,119.704c1.546,0,2.834,1.289,2.834,2.834
		c0,1.546-1.288,2.834-2.834,2.834c-1.545,0-2.833-1.288-2.833-2.834C408.662,120.993,409.95,119.704,411.495,119.704z
		 M380.792,163.852c-0.514-0.207-1.134-0.36-1.751-0.36c-1.597,0-2.936,0.824-3.709,2.111l-38.841-12.672
		c0-0.154,0.052-0.309,0.052-0.515c0-0.36-0.052-0.67-0.103-1.03l71.243-26.735c0.154,0.257,0.31,0.462,0.464,0.668L380.792,163.852
		z M295.074,113.523l33.587,36.267c-0.566,0.72-0.875,1.647-0.875,2.627c0,1.133,0.412,2.164,1.133,2.936l-32.969,47.496
		c-0.412-0.31-0.927-0.515-1.442-0.618l-1.494-88.192h0.052C293.735,114.038,294.456,113.833,295.074,113.523z M293.529,203.671
		c1.545,0,2.833,1.288,2.833,2.834c0,1.545-1.288,2.833-2.833,2.833c-1.546,0-2.833-1.288-2.833-2.833
		C290.695,204.959,291.983,203.671,293.529,203.671z M152.69,213.873l77.889,35.853c-0.103,0.36-0.154,0.721-0.154,1.083
		c0,0.309,0.051,0.67,0.103,0.979l-55.326,17.617c-0.463-1.957-2.164-3.398-4.275-3.398c-0.309,0-0.67,0.051-0.979,0.104
		l-18.802-51.052C151.762,214.799,152.278,214.387,152.69,213.873z M170.926,267.55c1.545,0,2.833,1.287,2.833,2.832
		c0,1.547-1.288,2.834-2.833,2.834c-1.546,0-2.834-1.287-2.834-2.834C168.092,268.837,169.38,267.55,170.926,267.55z
		 M115.034,322.411c0,1.545-1.288,2.834-2.833,2.834c-1.545,0-2.833-1.289-2.833-2.834s1.288-2.834,2.833-2.834
		C113.746,319.577,115.034,320.866,115.034,322.411z M110.191,326.274c0.618,0.309,1.288,0.516,2.009,0.516
		c2.112,0,3.916-1.545,4.275-3.555l33.176-0.875c0.103,0.41,0.257,0.824,0.515,1.234l-77.529,52.236L110.191,326.274z
		 M72.792,379.591c0,1.547-1.288,2.834-2.833,2.834c-1.545,0-2.833-1.287-2.833-2.834c0-1.545,1.288-2.832,2.833-2.832
		C71.505,376.759,72.792,378.046,72.792,379.591z M98.807,446.3c1.545,0,2.833,1.289,2.833,2.836c0,1.545-1.288,2.834-2.833,2.834
		c-1.546,0-2.833-1.289-2.833-2.834C95.974,447.589,97.261,446.3,98.807,446.3z M100.867,445.272
		c-0.618-0.363-1.339-0.516-2.061-0.516c-0.515,0-0.979,0.104-1.442,0.256l-25.447-61.506c1.442-0.721,2.472-2.215,2.472-3.916
		c0-0.205,0-0.412-0.051-0.619l104.831-22.303c0.154,0.514,0.412,0.979,0.772,1.439L100.867,445.272z M209.046,428.786
		c1.545,0,2.833,1.289,2.833,2.834s-1.288,2.834-2.833,2.834c-1.546,0-2.833-1.289-2.833-2.834S207.5,428.786,209.046,428.786z
		 M209.046,427.241c-0.412,0-0.824,0.051-1.237,0.154l-21.944-68.512c0.67-0.518,1.185-1.184,1.494-1.959l114.721,40.49
		c-0.052,0.205-0.052,0.465-0.052,0.723c0,0.256,0,0.463,0.052,0.67l-89.067,30.959
		C212.292,428.272,210.797,427.241,209.046,427.241z M302.596,400.3c0.772,1.34,2.163,2.215,3.812,2.215
		c1.545,0,2.884-0.771,3.658-2.008l88.861,37.553l0,0l-185.502-6.541c0-0.104,0-0.207,0-0.258L302.596,400.3z M310.682,399.114
		c0.052-0.307,0.104-0.617,0.104-0.928l93.652-16.174c0.464,0.928,1.237,1.701,2.215,2.111l-3.966,50.381
		c-1.392,0.154-2.576,0.979-3.246,2.113L310.682,399.114z M403.253,435.999c1.545,0,2.833,1.289,2.833,2.834
		c0,1.543-1.287,2.832-2.833,2.832c-1.546,0-2.833-1.289-2.833-2.832C400.42,437.288,401.708,435.999,403.253,435.999z
		 M404.231,434.556l3.966-50.121c0.052,0,0.155,0,0.207,0c1.854,0,3.451-1.186,4.07-2.836l201.83,11.439l-206.931,44.25
		C406.859,435.946,405.675,434.917,404.231,434.556z M617.603,393.964c0.771,1.135,2.11,1.855,3.554,1.855
		c1.597,0,2.987-0.877,3.761-2.166l120.388,6.801l-327.01,36.061L617.603,393.964z M625.484,392.161
		c0.05-0.258,0.05-0.465,0.05-0.723c0-0.154,0-0.309,0-0.463l75.416-34.824c0.773,1.238,2.165,2.061,3.71,2.061
		c1.185,0,2.317-0.512,3.091-1.287l42.396,40.078c-0.463,0.617-0.772,1.34-0.875,2.164L625.484,392.161z M701.774,353.835
		c0-1.547,1.288-2.834,2.834-2.834s2.834,1.287,2.834,2.834c0,1.545-1.288,2.834-2.834,2.834S701.774,355.38,701.774,353.835z
		 M708.576,355.638c0.257-0.566,0.411-1.186,0.411-1.803c0-2.422-1.958-4.379-4.379-4.379c-0.722,0-1.442,0.205-2.009,0.514
		l-29.157-27.559c0.155-0.309,0.258-0.617,0.359-0.928l151.606-6.389c0.052,0.619,0.258,1.188,0.516,1.701l-69.234,79.846
		c-0.774-0.822-1.907-1.34-3.144-1.34c-0.823,0-1.647,0.26-2.317,0.67L708.576,355.638z M753.546,396.849
		c1.546,0,2.833,1.289,2.833,2.832c0,1.547-1.287,2.834-2.833,2.834c-1.545,0-2.833-1.287-2.833-2.834
		C750.713,398.138,752.001,396.849,753.546,396.849z M851.166,438.317c0-1.545,1.288-2.834,2.832-2.834
		c1.547,0,2.834,1.289,2.834,2.834c0,1.547-1.287,2.834-2.834,2.834C852.454,441.151,851.166,439.864,851.166,438.317z
		 M991.025,420.442l147.741-64.291c0.618,0.928,1.546,1.65,2.679,1.908l-19.833,97.516c-0.104,0-0.154,0-0.258,0
		c-1.957,0-3.605,1.287-4.172,3.09L991.23,422.606c0.052-0.26,0.052-0.465,0.052-0.723
		C991.282,421.317,991.179,420.853,991.025,420.442z M1121.354,457.118c1.546,0,2.833,1.289,2.833,2.834
		c0,1.547-1.287,2.834-2.833,2.834c-1.545,0-2.833-1.287-2.833-2.834C1118.521,458.407,1119.81,457.118,1121.354,457.118z
		 M1145.309,353.835c0,1.545-1.288,2.834-2.833,2.834c-1.546,0-2.834-1.289-2.834-2.834c0-1.547,1.288-2.834,2.834-2.834
		C1144.021,351.001,1145.309,352.288,1145.309,353.835z M1118.779,271.671c1.545,0,2.833,1.287,2.833,2.834
		c0,1.545-1.288,2.832-2.833,2.832s-2.834-1.287-2.834-2.832C1115.945,272.958,1117.234,271.671,1118.779,271.671z
		 M1118.779,278.882c0.36,0,0.67-0.051,0.978-0.102l21.482,70.881c-0.414,0.104-0.773,0.309-1.134,0.516l-76.24-56.562
		c0.361-0.617,0.567-1.338,0.567-2.113c0-0.049,0-0.102,0-0.102l50.843-14.27C1116.048,278.161,1117.335,278.882,1118.779,278.882z
		 M1114.71,272.958c-0.206,0.463-0.309,1.029-0.309,1.547c0,0.41,0.05,0.822,0.152,1.184l-50.481,14.166
		c-0.671-1.598-2.217-2.73-4.07-2.73c-2.421,0-4.379,1.957-4.379,4.377c0,0.26,0,0.465,0.053,0.723l-147.484,41.418
		c-0.052-0.102-0.155-0.258-0.207-0.361l128.888-106.375c0.618,0.31,1.288,0.463,2.009,0.463c1.392,0,2.575-0.617,3.399-1.647
		L1114.71,272.958z M1041.767,222.99c0,1.545-1.288,2.834-2.834,2.834c-1.545,0-2.833-1.289-2.833-2.834s1.288-2.833,2.833-2.833
		C1040.479,220.157,1041.767,221.445,1041.767,222.99z M1034.555,222.99c0,0.104,0,0.257,0,0.36l-20.709,3.091
		c-0.308-2.061-2.165-3.709-4.327-3.709h-0.052l-11.539-63.259c0.206-0.104,0.411-0.206,0.618-0.31l38.017,60.117
		C1035.378,220.052,1034.555,221.445,1034.555,222.99z M996.177,152.673c1.545,0,2.832,1.288,2.832,2.834
		c0,1.545-1.287,2.832-2.832,2.832c-1.547,0-2.834-1.287-2.834-2.832C993.343,153.961,994.63,152.673,996.177,152.673z
		 M991.9,154.581c-0.052,0.308-0.103,0.617-0.103,0.927c0,0.051,0,0.103,0,0.154l-25.499,4.121c-0.619-1.7-2.215-2.937-4.122-2.937
		c-1.081,0-2.008,0.36-2.782,1.029L912.26,128L991.9,154.581z M907.058,121.765c1.545,0,2.833,1.288,2.833,2.833
		c0,1.547-1.288,2.834-2.833,2.834s-2.833-1.287-2.833-2.834C904.225,123.053,905.513,121.765,907.058,121.765z M902.833,123.465
		c-0.103,0.36-0.154,0.772-0.154,1.133c0,0.104,0,0.207,0,0.31l-28.539,3.658c-0.516-1.855-2.215-3.194-4.223-3.194
		c-0.67,0-1.289,0.153-1.907,0.411l-28.848-48.784c0.155-0.153,0.309-0.256,0.464-0.411L902.833,123.465z M836.483,70.767
		c1.546,0,2.834,1.288,2.834,2.833s-1.288,2.832-2.834,2.832c-1.545,0-2.834-1.287-2.834-2.832S834.938,70.767,836.483,70.767z
		 M834.732,77.619l-12.981,47.237c-0.052,0-0.154,0-0.206,0c-0.876,0-1.701,0.257-2.369,0.722l-70.368-58.417
		c0.154-0.31,0.257-0.618,0.31-0.979l83.039,7.572C832.156,75.505,833.238,76.948,834.732,77.619z M744.788,62.525
		c1.547,0,2.834,1.287,2.834,2.832c0,1.546-1.287,2.834-2.834,2.834c-1.544,0-2.832-1.288-2.832-2.834
		C741.956,63.812,743.244,62.525,744.788,62.525z M656.546,38.365l83.968,26.065c-0.052,0.31-0.104,0.619-0.104,0.927
		c0,0.31,0.052,0.619,0.104,0.877l-104.059,47.753c-0.464-0.979-1.287-1.804-2.317-2.215l18.699-70.883
		C654.435,40.786,655.877,39.807,656.546,38.365z M652.58,33.677c1.544,0,2.833,1.287,2.833,2.833c0,1.545-1.289,2.832-2.833,2.832
		c-1.546,0-2.834-1.287-2.834-2.832C649.746,34.964,651.034,33.677,652.58,33.677z M648.614,38.365
		c0.204,0.411,0.41,0.771,0.721,1.082l-36.318,35.338c-0.722-0.567-1.647-0.875-2.627-0.875c-1.494,0-2.833,0.771-3.605,1.905
		l-43.633-21.739c0.051-0.309,0.104-0.67,0.104-0.978c0-0.053,0-0.104,0-0.207L648.614,38.365z M558.824,50.161
		c1.546,0,2.833,1.288,2.833,2.834c0,1.545-1.288,2.834-2.833,2.834c-1.545,0-2.833-1.289-2.833-2.834
		C555.991,51.449,557.279,50.161,558.824,50.161z M470.479,50.007l83.967,3.297c0.052,0.721,0.259,1.391,0.619,2.009l-67.689,51.978
		c-0.825-0.877-1.959-1.443-3.247-1.443c-0.206,0-0.412,0-0.618,0.053l-15.299-52.133C469.552,52.995,470.426,51.604,470.479,50.007
		z M466.1,47.07c1.545,0,2.833,1.289,2.833,2.834s-1.288,2.834-2.833,2.834c-1.546,0-2.834-1.289-2.834-2.834
		S464.554,47.07,466.1,47.07z M462.287,52.067c0.773,1.339,2.164,2.215,3.813,2.215c0.205,0,0.412,0,0.618-0.051l15.3,52.08
		c-0.98,0.566-1.751,1.442-2.112,2.575l-79.589-19.214c0.051-0.206,0.051-0.412,0.051-0.618c0-0.515-0.102-1.03-0.257-1.494
		L462.287,52.067z M396.041,86.221c1.545,0,2.833,1.288,2.833,2.833c0,1.546-1.288,2.833-2.833,2.833
		c-1.546,0-2.833-1.287-2.833-2.833C393.208,87.509,394.495,86.221,396.041,86.221z M392.023,90.805
		c0.67,1.546,2.215,2.627,4.018,2.627c0.258,0,0.567-0.051,0.824-0.104l11.899,25.758c-0.72,0.566-1.235,1.34-1.494,2.267
		L297.34,108.99l0,0L392.023,90.805z M293.013,106.827c1.546,0,2.833,1.288,2.833,2.832c0,1.547-1.288,2.834-2.833,2.834
		c-1.545,0-2.833-1.287-2.833-2.834C290.18,108.115,291.468,106.827,293.013,106.827z M291.417,113.729l1.494,88.449
		c-1.237,0.153-2.318,0.876-2.987,1.854l-51.205-31.063c0.309-0.618,0.464-1.287,0.464-2.009c0-0.823-0.258-1.597-0.619-2.267
		l51.36-55.943C290.335,113.163,290.851,113.523,291.417,113.729z M234.803,168.127c1.545,0,2.833,1.288,2.833,2.833
		c0,1.546-1.288,2.834-2.833,2.834s-2.833-1.288-2.833-2.834C231.97,169.416,233.258,168.127,234.803,168.127z M231.609,173.949
		c0.824,0.877,1.958,1.391,3.194,1.391c1.133,0,2.163-0.412,2.937-1.134l51.514,31.27c-0.104,0.36-0.155,0.67-0.155,1.03
		c0,0.052,0,0.104,0,0.154l-135.533,3.812c0-0.103-0.052-0.257-0.052-0.36L231.609,173.949z M149.291,208.308
		c1.545,0,2.833,1.288,2.833,2.834s-1.288,2.833-2.833,2.833c-1.545,0-2.833-1.287-2.833-2.833S147.745,208.308,149.291,208.308z
		 M148.363,215.417c0.31,0.053,0.618,0.104,0.928,0.104c0.154,0,0.258,0,0.412,0l18.854,51.206
		c-1.184,0.773-2.009,2.111-2.009,3.656c0,0.619,0.103,1.186,0.361,1.701l-40.902,13.031c-0.361-0.771-0.876-1.441-1.597-1.904
		L148.363,215.417z M121.988,284.034c1.545,0,2.833,1.287,2.833,2.832c0,1.547-1.288,2.834-2.833,2.834
		c-1.546,0-2.833-1.287-2.833-2.834C119.155,285.321,120.442,284.034,121.988,284.034z M119.412,290.37
		c0.361,0.258,0.825,0.514,1.289,0.668l-8.088,26.994c-0.103,0-0.257,0-0.361,0c-2.42,0-4.378,1.957-4.378,4.379
		c0,0.311,0.051,0.617,0.103,0.877l-53.163,19.779L119.412,290.37z M54.763,344.665l53.729-19.986
		c0.154,0.205,0.31,0.41,0.464,0.617l-37.914,50.021c-0.361-0.104-0.721-0.156-1.082-0.156c-0.618,0-1.236,0.156-1.803,0.412
		l-15.197-27.508C54.041,347.292,54.711,346.056,54.763,344.665z M47.55,344.562c0-1.545,1.288-2.832,2.833-2.832
		c1.546,0,2.833,1.287,2.833,2.832c0,1.547-1.287,2.834-2.833,2.834C48.838,347.396,47.55,346.108,47.55,344.562z M50.384,425.181
		c1.546,0,2.833,1.287,2.833,2.834c0,1.545-1.287,2.832-2.833,2.832c-1.545,0-2.833-1.287-2.833-2.832
		C47.55,426.468,48.838,425.181,50.384,425.181z M48.787,432.085c0.515,0.205,1.03,0.309,1.597,0.309c1.339,0,2.576-0.619,3.4-1.596
		l40.747,17.668c-0.051,0.205-0.051,0.412-0.051,0.619c0,0.461,0.051,0.873,0.207,1.234L8.916,496.167L48.787,432.085z
		 M9.739,497.507l85.564-45.744c0.825,1.029,2.061,1.75,3.503,1.75s2.731-0.721,3.503-1.75l115.082,45.795H9.739V497.507z
		 M103.031,450.372c0.102-0.311,0.154-0.67,0.154-1.031l101.895-15.865c0.619,1.338,1.906,2.316,3.4,2.523l11.9,61.043
		L103.031,450.372z M222.028,497.507l-12.002-61.662c0.771-0.207,1.494-0.566,2.06-1.133l127.548,62.742H222.028V497.507z
		 M213.013,433.476c0.052-0.154,0.104-0.258,0.155-0.414l185.758,6.543c0.103,0.619,0.36,1.186,0.721,1.699l-56.819,56.049
		L213.013,433.476z M344.888,497.507l55.893-55.121c0.721,0.518,1.546,0.773,2.473,0.773c1.699,0,3.142-0.928,3.863-2.318
		l210.074,56.666H344.888z M407.58,439.399c0-0.053,0-0.102,0-0.102l342-37.709c0.207,0.463,0.515,0.873,0.824,1.184
		l-127.548,94.682L407.58,439.399z M625.381,497.507L751.795,403.7c0.516,0.258,1.134,0.359,1.751,0.359
		c0.464,0,0.928-0.102,1.34-0.205l28.487,93.703H625.381V497.507z M756.276,403.081c0.36-0.309,0.67-0.619,0.927-1.029
		l92.417,36.111c0,0.051,0,0.102,0,0.102c0,0.98,0.308,1.855,0.823,2.576l-65.576,56.047L756.276,403.081z M786.566,497.507
		l65.011-55.584c0.721,0.463,1.546,0.723,2.421,0.723c1.391,0,2.627-0.67,3.452-1.701l170.201,56.51H786.566V497.507z
		 M858.17,439.657c0.053-0.156,0.104-0.311,0.104-0.412l124.404-16.176c0.517,1.855,2.217,3.193,4.226,3.193
		c0.257,0,0.464,0,0.67-0.051l43.064,70.727L858.17,439.657z M989.067,425.646c0.67-0.361,1.236-0.928,1.598-1.598l126.311,36.162
		c0,0.465,0.104,0.928,0.31,1.34l-84.534,35.803L989.067,425.646z M1036.202,497.507l81.855-34.67
		c0.824,0.877,1.958,1.494,3.245,1.494c1.134,0,2.163-0.412,2.937-1.133l59.962,34.309H1036.202z M1186.417,496.991l-61.199-35.029
		c0.311-0.619,0.516-1.287,0.516-2.01c0-0.309-0.051-0.617-0.103-0.877l61.868-35.49c0.72,0.875,1.75,1.441,2.937,1.596
		L1186.417,496.991z M1190.897,423.636c-1.544,0-2.832-1.289-2.832-2.834s1.288-2.834,2.832-2.834c1.546,0,2.833,1.289,2.833,2.834
		S1192.443,423.636,1190.897,423.636z"/>
</g>
</svg>
