<svg xmlns="http://www.w3.org/2000/svg" width="1200" height="500" viewBox="0 0 1200 500"><path fill="#fff" d="M1190.897 416.425c-.411 0-.824.051-1.184.154l-43.529-60.375c.463-.67.721-1.494.721-2.369 0-2.318-1.803-4.174-4.069-4.379l-21.636-71.295c1.185-.771 1.957-2.111 1.957-3.656 0-2.422-1.957-4.379-4.378-4.379-1.288 0-2.473.566-3.298 1.494l-72.428-47.24c.154-.411.207-.927.207-1.391 0-2.421-1.958-4.379-4.38-4.379-.31 0-.618.051-.875.104l-38.274-60.632c.515-.721.823-1.598.823-2.575 0-2.421-1.957-4.379-4.378-4.379-1.547 0-2.937.824-3.71 2.061l-81.288-27.2c.154-.411.207-.876.207-1.391 0-2.421-1.959-4.378-4.38-4.378-1.441 0-2.729.72-3.555 1.804l-63-46.775c.206-.516.309-1.082.309-1.648 0-2.421-1.958-4.379-4.379-4.379-1.957 0-3.554 1.288-4.171 2.988l-83.248-7.624c-.36-2.061-2.162-3.658-4.327-3.658-1.545 0-2.885.825-3.708 2.009l-84.174-26.117v-.411c0-2.421-1.957-4.379-4.379-4.379-2.421 0-4.379 1.958-4.379 4.379v.309l-85.358 14.476c-.669-1.598-2.215-2.679-4.018-2.679-1.958 0-3.657 1.34-4.173 3.091l-84.43-3.298c-.619-1.7-2.216-2.884-4.122-2.884-2.421 0-4.379 1.957-4.379 4.378 0 .207 0 .464.052.67l-62.383 35.647c-.824-.927-2.008-1.546-3.348-1.546-2.421 0-4.379 1.958-4.379 4.379v.259l-94.836 18.184c-.773-1.339-2.164-2.216-3.812-2.216-2.421 0-4.379 1.958-4.379 4.379 0 .619.155 1.236.361 1.804l-51.514 56.098c-.773-.618-1.7-.928-2.73-.928-2.421 0-4.378 1.958-4.378 4.379 0 .566.103 1.134.309 1.649l-77.837 36.06c-.773-1.134-2.112-1.905-3.606-1.905-2.42 0-4.378 1.957-4.378 4.378 0 1.545.824 2.885 2.009 3.657l-23.954 67.792c-.309-.053-.669-.104-.979-.104-2.422 0-4.379 1.959-4.379 4.379 0 .875.258 1.699.721 2.422l-64.548 52.541c-.824-.979-2.009-1.648-3.399-1.648-2.422 0-4.379 1.957-4.379 4.379 0 2.215 1.648 4.068 3.812 4.328l-.412 74.848c-1.957.465-3.399 2.164-3.399 4.275 0 1.287.566 2.475 1.442 3.246l-42.191 67.791h1182.551l4.172-74.023c1.854-.516 3.245-2.217 3.245-4.227.309-2.367-1.649-4.324-4.071-4.324zm-2.576.873c-1.08.826-1.803 2.062-1.803 3.504 0 .516.104.979.259 1.443l-61.713 35.391c-.465-.721-1.134-1.342-1.959-1.701l19.886-97.773c.772-.102 1.493-.412 2.06-.824l43.27 59.96zm-201.417 7.367c-1.546 0-2.834-1.287-2.834-2.832 0-1.547 1.288-2.834 2.834-2.834 1.544 0 2.833 1.287 2.833 2.834 0 1.545-1.289 2.832-2.833 2.832zm-4.38-3.193l-124.198 16.176c-.156-1.133-.773-2.111-1.649-2.781l46.104-95.043c.516.207 1.083.359 1.701.359.772 0 1.544-.205 2.163-.566l76.292 80.309c-.206.464-.361.979-.413 1.546zm-224.96-23.491l69.389-80c.67.566 1.547.979 2.474 1.029l22.666 115.34c-.979.463-1.753 1.287-2.165 2.318l-92.157-36.008c.053-.311.104-.619.104-.98.05-.617-.052-1.183-.311-1.699zm-552.897 33.948l-101.687 15.865c-.207-.566-.464-1.08-.876-1.545l78.918-87.16c.67.412 1.442.67 2.267.67.413 0 .825-.053 1.237-.154l21.944 68.514c-1.082.824-1.751 2.059-1.751 3.502-.052.103-.052.206-.052.308zm-152.068-7.674l15.661-40.594c.515.207 1.082.359 1.7.359h.412l25.603 61.816c-.412.361-.772.773-1.031 1.238l-40.438-17.619c.155-.41.206-.877.206-1.391.051-1.647-.825-3.038-2.113-3.809zm14.321-41.522l-15.815 40.953c-.051 0-.103 0-.206-.051l.412-74.85.206-.051 15.351 27.766c-.823.773-1.287 1.906-1.287 3.09 0 1.239.515 2.37 1.339 3.143zm59.447-96.125l41.417-13.188-52.802 45.59c-.256-.205-.566-.412-.875-.566l8.139-27.25c2.318-.104 4.122-2.01 4.122-4.379l-.001-.207zm163.092-78.454c.154.36.309.67.566.979l-51.668 39.099c-.772-1.081-2.06-1.802-3.554-1.802-1.494 0-2.833.771-3.606 1.905l-77.786-35.802.155-.567 135.893-3.812zm7.831-97.568l109.827 12.312c0 .104 0 .207.052.31l-71.347 26.788c-.772-1.187-2.112-1.958-3.657-1.958-.876 0-1.7.257-2.37.721l-33.535-36.162c.515-.567.875-1.289 1.03-2.011zm102.614-19.419l79.899 19.265v.154l-64.393 9.994c-.721-1.442-2.215-2.422-3.915-2.422-.464 0-.927.053-1.339.206l-11.848-25.603c.669-.359 1.185-.926 1.596-1.594zm84.225 16.174c1.546 0 2.834 1.288 2.834 2.834 0 1.545-1.288 2.832-2.834 2.832-1.544 0-2.832-1.287-2.832-2.832 0-1.546 1.287-2.834 2.832-2.834zm72.017-50.895c.72.566 1.7.928 2.678.928 1.494 0 2.833-.773 3.658-1.958l43.631 21.739c-.103.36-.153.721-.153 1.081 0 .155 0 .31.051.464l-38.944 9.891c-.618-1.7-2.215-2.937-4.122-2.937-2.421 0-4.379 1.958-4.379 4.379 0 .258 0 .464.052.671l-70.368 17.978-.051-.104 67.947-52.132zm94.373-16.072c.257.103.463.257.721.309l-18.646 70.78h-.104c-.875 0-1.648.258-2.319.67l-17.308-30.291c1.135-.771 1.854-2.112 1.854-3.605 0-.875-.257-1.648-.67-2.318l36.472-35.545zm-13.857 76.755l90.302-10.252-67.585 29.879c-.772-1.236-2.163-2.113-3.708-2.113-1.444 0-2.73.723-3.504 1.753l-16.845-17.258c.617-.515 1.081-1.185 1.34-2.009zm106.169-47.857l-10.302 31.888h-.104c-2.317 0-4.171 1.804-4.378 4.018l-91.23 10.354v-.051l104.213-47.806c.463.67 1.08 1.238 1.801 1.597zm5.049-.823l70.109 58.211-.153.153-81.134-20.811v-.465c0-1.854-1.135-3.398-2.782-4.068l10.25-31.784.464.051c1.392 0 2.472-.515 3.246-1.287zm88.603 9.53c.464 0 .928-.104 1.392-.207l28.951 48.938c-.62.618-1.031 1.442-1.187 2.319l-39.923-1.134c-.412-1.186-1.288-2.164-2.42-2.68l12.98-47.237.207.001zm37.863 52.131l28.745-3.708c.67 1.494 2.216 2.575 3.967 2.575.979 0 1.854-.31 2.576-.876l47.804 30.291-83.349-27.251c.154-.309.206-.67.257-1.031zm92.21 31.167l25.551-4.121c.67 1.597 2.216 2.73 4.07 2.73h.309l11.487 63.154c-.206.104-.411.155-.566.31l-41.984-59.188c.669-.774 1.082-1.804 1.133-2.885zm47.29 66.71l21.121-3.143c.205.412.411.773.721 1.082l-128.734 106.272c-.412-.309-.928-.514-1.39-.617l16.329-86.699h.155c2.265 0 4.12-1.7 4.378-3.915l79.382-11.744c.723 1.391 2.217 2.317 3.864 2.317 2.009-.05 3.761-1.544 4.174-3.553zm124.354 126.723l-147.896 64.342c-.36-.463-.824-.824-1.34-1.084l69.801-122.291c.413.104.825.205 1.289.205 1.082 0 2.111-.412 2.884-1.082l76.034 56.408c-.566.721-.875 1.648-.875 2.627 0 .309.05.617.103.875zm-78.146-60.373c-1.547 0-2.833-1.287-2.833-2.836 0-1.543 1.286-2.83 2.833-2.83 1.545 0 2.833 1.287 2.833 2.83 0 1.549-1.288 2.836-2.833 2.836zm-2.627.67l-69.956 122.498-.566-.051c-1.135 0-2.215.465-2.988 1.184l-76.086-80.053c.618-.771 1.029-1.75 1.029-2.781 0-.258 0-.463-.051-.721l147.484-41.416c.257.514.67.979 1.134 1.34zm-203.429 138.931h-.36l-22.614-115.082c1.287-.359 2.369-1.34 2.885-2.574l66.298 19.059-.053.463c0 1.238.517 2.371 1.392 3.195l-46.156 95.146c-.465-.156-.929-.207-1.392-.207zm-143.518-147.845c.053-.256.053-.514.053-.771v-.104l168.346-50.586c.259.517.566.928.979 1.34l-49.041 74.438c-.311-.104-.67-.104-1.03-.104-1.647 0-3.092.928-3.863 2.318l-115.444-26.531zm-36.522 33.845c-.053-.564-.206-1.082-.463-1.598l30.236-29.363c.723.465 1.547.723 2.423.723 1.597 0 2.986-.877 3.76-2.113l113.588 26.068-149.544 6.283zm26.375 34.825l-75.262 34.771c-.258-.465-.567-.928-.979-1.289l44.045-63.723c.463.156.927.26 1.391.26 1.134 0 2.113-.412 2.885-1.135l28.848 27.303c-.721.773-1.134 1.803-1.134 2.936.102.258.153.566.206.877zm-77.528 32.605c-.516-.203-1.082-.307-1.648-.307-2.421 0-4.378 1.957-4.378 4.377v.209l-203.583-11.49 252.573-57.592c.257.463.618.877 1.03 1.186l-43.994 63.617zm1.185 4.07c0 1.547-1.289 2.834-2.834 2.834s-2.835-1.287-2.835-2.834c0-1.545 1.29-2.832 2.835-2.832s2.834 1.288 2.834 2.832zm-219.964-10.919l-93.498 16.123-.155-.412 109.209-79.689c.516.408 1.133.719 1.803.873l-13.342 58.314c-2.268.207-4.018 2.061-4.018 4.379l.001.412zm-97.619 13.238c-1.134 0-2.164.465-2.937 1.135l-94.682-72.48c.258-.516.464-1.031.515-1.648l208.734-6.902c.103.514.309 1.029.567 1.441l-109.158 79.693c-.824-.774-1.854-1.239-3.039-1.239zm2.833 4.381c0 1.543-1.288 2.832-2.833 2.832s-2.833-1.289-2.833-2.832c0-1.547 1.288-2.836 2.833-2.836s2.833 1.289 2.833 2.836zm-122.963-45.951l16.742-27.922c.567.258 1.237.465 1.906.465 1.133 0 2.112-.412 2.885-1.082l94.271 72.172-114.413-40.389v-.051c-.001-1.236-.515-2.369-1.391-3.193zm-1.287-.827c-.516-.203-1.134-.359-1.701-.359-.567 0-1.082.104-1.545.311l-24.058-27.613c.31-.463.464-.977.567-1.543l42.396-1.084c.155.877.567 1.699 1.134 2.318l-16.793 27.97zm1.133 4.02c0 1.545-1.288 2.832-2.833 2.832-1.545 0-2.833-1.287-2.833-2.832s1.288-2.834 2.833-2.834c1.544 0 2.833 1.289 2.833 2.834zm-17.051-81.031c.566.258 1.185.412 1.854.412 2.215 0 4.018-1.648 4.327-3.76l54.965-17.516-111.527 64.342 50.381-43.478zm63.001-20.141c.309.258.67.463 1.031.617l-27.509 61.197c-.206-.051-.463-.051-.67-.051-2.111 0-3.915 1.545-4.275 3.555l-42.396 1.082c-.36-2.061-2.164-3.607-4.327-3.607-2.215 0-4.069 1.701-4.327 3.812l-33.072.877-.154-.723 115.699-66.759zm59.138-43.994c.67.413 1.494.67 2.318.67.927 0 1.804-.31 2.524-.824l80.516 64.185-.155.361-61.558-10.51v-.41c0-2.422-1.958-4.379-4.378-4.379-2.061 0-3.761 1.441-4.225 3.348l-67.122-11.486v-.361c0-.412-.051-.773-.155-1.133l52.235-39.461zm38.893-53.935c.618.31 1.288.516 2.061.516 1.699 0 3.194-.979 3.915-2.42l38.687 12.619c-.051.259-.103.567-.103.825 0 .309.052.618.103.875l-77.219 35.957c-.103-.258-.257-.516-.463-.772l33.019-47.6zm-.774-3.862c0-1.547 1.289-2.834 2.834-2.834 1.545 0 2.833 1.287 2.833 2.834 0 1.545-1.289 2.832-2.833 2.832-1.545 0-2.834-1.288-2.834-2.832zm80.002-26.067c.413.257.927.412 1.443.515l6.799 62.487c-.824.464-1.443 1.184-1.854 2.06l-32.608-21.996c.205-.464.308-1.029.308-1.546 0-1.236-.515-2.37-1.338-3.142l27.25-38.378zm6.233-2.164l55.428 16.176v.257c0 .876.258 1.649.67 2.318l-49.041 46.929c-.773-.67-1.804-1.081-2.885-1.081-.257 0-.463 0-.722.052l-6.748-61.972c1.495-.309 2.732-1.34 3.298-2.679zm68.564-9.632c.979 0 1.907-.361 2.627-.928l38.069 29.517c-.206.31-.36.619-.515.979l-44.611-3.968c-.155-1.597-1.133-2.936-2.473-3.604l6.542-22.1c.155.104.258.104.361.104zm4.379-4.328l70.626-17.979c.257.464.618.877 1.03 1.237l-29.878 48.268c-.567-.258-1.185-.412-1.854-.412-.927 0-1.751.258-2.472.772l-38.172-29.568c.462-.721.72-1.495.72-2.318zm141.972 9.478l-20.091 81.805.722-118.944.36-.052 17.565 30.754c-.566.721-.875 1.648-.875 2.626-.052 1.649.929 3.09 2.319 3.811zm3.452.258l17.514 17.927c-.103.361-.153.721-.153 1.133 0 1.03.36 1.957.928 2.68l-40.49 61.661-.154-.103 20.399-83.092.513.052c.515 0 .979-.103 1.443-.258zm94.733-12.158c.773 1.288 2.164 2.113 3.76 2.113.465 0 .876-.052 1.288-.206l37.45 57.644c-.617.412-1.131 1.031-1.44 1.699l-109.88-28.642c.154-.463.206-.927.206-1.391 0-.309-.052-.566-.104-.824l68.72-30.393zm3.76-5.098c1.546 0 2.834 1.287 2.834 2.832 0 1.547-1.288 2.834-2.834 2.834-1.545 0-2.833-1.287-2.833-2.834 0-1.545 1.288-2.832 2.833-2.832zm3.916 4.79l80.928 20.761c-.05.31-.103.67-.103.978 0 .67.155 1.288.413 1.854l-40.749 36.885c-.823-.876-1.957-1.391-3.192-1.391-.36 0-.722.051-1.082.154l-37.451-57.695c.515-.464.927-.98 1.236-1.546zm89.583 21.945l39.769 1.133c.206 1.082.824 2.061 1.7 2.679l-17.36 41.624c-.206-.051-.463-.051-.67-.051-.617 0-1.186.102-1.752.36l-23.13-42.758c.875-.772 1.391-1.803 1.443-2.987zm27.817 49.968l104.314-16.741c.31.875.875 1.598 1.597 2.112l-36.368 71.552c-.411-.103-.824-.206-1.288-.206-1.185 0-2.267.464-3.091 1.288l-65.938-55.738c.464-.618.722-1.442.774-2.267zm110.446-14.321l42.034 59.241c-.618.772-1.029 1.751-1.029 2.781 0 .206 0 .412.052.567l-79.022 11.692c-.257-.979-.823-1.802-1.597-2.369l36.42-71.604c.36.102.721.154 1.133.154.719.002 1.389-.152 2.009-.462zm-63.62 168.759l-66.401-19.059v-.104c0-1.494-.773-2.834-1.908-3.607l48.94-74.231c.515.206 1.081.361 1.699.361h.309l19.267 94.784c-.825.362-1.494 1.031-1.906 1.856zm-230.988-10.662c-1.546 0-2.833-1.289-2.833-2.834s1.287-2.834 2.833-2.834c1.545 0 2.833 1.289 2.833 2.834s-1.288 2.834-2.833 2.834zm-242.733-10.872l121.727-49.193c.773 1.133 2.113 1.854 3.555 1.854 1.236 0 2.317-.516 3.142-1.287l110.034 55.789c-.052.154-.052.309-.052.463l-238.406-7.626zm-1.803-2.574c-.773-.619-1.701-.98-2.73-.98-.824 0-1.545.207-2.215.621l-36.214-30.445c.67-.773 1.083-1.752 1.083-2.885 0-.311-.052-.568-.103-.877l103.645-36.471.619.618-64.085 70.419zm.103 3.399c0 1.547-1.287 2.834-2.833 2.834-1.545 0-2.833-1.287-2.833-2.834 0-1.545 1.288-2.832 2.833-2.832 1.546 0 2.833 1.287 2.833 2.832zm-114.618-45.073c1.288 0 2.473-.566 3.297-1.494l104.366 45.072c-.103.207-.154.465-.205.723l-208.837 6.902c-.052-.205-.103-.361-.207-.566l98.134-52.338c.825 1.032 2.061 1.701 3.452 1.701zm-2.833-4.378c0-1.547 1.288-2.834 2.833-2.834 1.545 0 2.833 1.287 2.833 2.834 0 1.545-1.288 2.832-2.833 2.832-1.545 0-2.833-1.288-2.833-2.832zm8.396 2.214l60.118 10.301c.051 2.371 2.008 4.277 4.378 4.277.721 0 1.442-.207 2.06-.516l36.008 30.238-102.564-44.3zm-18.338-58.211l63.053-6.182c.308 2.061 2.111 3.71 4.275 3.71l13.445 66.968c-.413.205-.723.463-1.03.771l-80.362-63.98c.258-.41.465-.823.619-1.287zm80.567-35.492l.927 95.711-12.672-62.95c1.701-.617 2.936-2.215 2.936-4.12 0-1.7-.927-3.144-2.318-3.863l10.767-24.881.36.103zm40.335 25.137l6.955 36.627-.257.154-43.118-63.208.103-.102 33.021 22.304v.053c0 1.958 1.391 3.71 3.296 4.172zm1.082-7.056c1.545 0 2.833 1.288 2.833 2.832 0 1.546-1.288 2.834-2.833 2.834-1.546 0-2.833-1.288-2.833-2.834 0-1.544 1.287-2.832 2.833-2.832zm52.957-46.259c.36.308.773.514 1.236.669l-4.07 31.681c-2.266.155-4.019 2.061-4.019 4.379 0 .206 0 .412.052.617l-41.933 10.613c-.102-.31-.205-.619-.36-.876l49.094-47.083zm6.902-2.268l44.457 3.968v.051c0 .824.257 1.647.669 2.317l-29.981 26.324c-.772-.67-1.802-1.082-2.884-1.082-.206 0-.361 0-.567.052l-13.549-29.105c.876-.618 1.546-1.494 1.855-2.525zm53.111 4.895l40.284 5.512c.051.928.412 1.803.979 2.522l-64.237 60.066c-.207-.154-.463-.258-.721-.412l19.369-64.237h.103c2.06 0 3.811-1.493 4.223-3.451zm46.465 9.221l27.148 47.959c-.823.824-1.391 1.906-1.391 3.193l.051.722-93.394 9.839c-.103-.67-.412-1.287-.773-1.803l64.29-60.116c.67.412 1.442.617 2.215.617.721 0 1.287-.154 1.854-.411zm74.592-12.931c.567.31 1.237.464 1.907.464 1.338 0 2.575-.618 3.348-1.597l110.24 28.744v.412c0 .464.104.928.206 1.34l-157.222 63.259c-.308-.618-.72-1.185-1.235-1.597l42.756-91.025zm119.874 25.19c1.545 0 2.834 1.288 2.834 2.833 0 1.546-1.289 2.834-2.834 2.834-1.547 0-2.835-1.288-2.835-2.834 0-1.544 1.288-2.833 2.835-2.833zm44.868-35.75l.153.154-32.401 63.001c-.259-.051-.516-.051-.773-.051-.515 0-.979.103-1.39.257l-7.623-21.379c.977-.823 1.544-2.009 1.544-3.349 0-.566-.104-1.133-.31-1.647l40.8-36.986zm-109.93 149.286c-.723-.463-1.547-.721-2.422-.721-.722 0-1.442.205-2.061.516l-20.761-34.772c1.187-.773 1.907-2.111 1.907-3.605 0-.361-.053-.67-.104-.979l96.588-40.026.053.053-73.2 79.534zm-30.497-38.582c0-1.546 1.288-2.834 2.833-2.834 1.546 0 2.833 1.288 2.833 2.834 0 1.545-1.287 2.832-2.833 2.832-1.545 0-2.833-1.288-2.833-2.832zm-1.442-.876l-62.899-4.585 162.887-35.132-92.055 38.172c-.772-1.186-2.111-1.959-3.657-1.959-2.112.001-3.864 1.495-4.276 3.504zm-120.698 16.276c-.72-1.338-2.162-2.266-3.811-2.266-1.701 0-3.194.979-3.916 2.473l-9.891-4.121c.104-.359.155-.771.155-1.186v-.256l61.764-12.518-44.301 17.874zm-6.644 2.114c0-1.547 1.288-2.834 2.833-2.834 1.546 0 2.833 1.287 2.833 2.834 0 1.545-1.288 2.832-2.833 2.832-1.545 0-2.833-1.287-2.833-2.832zm-19.009-9.375l-34.205-14.27c.103-.36.154-.721.154-1.082 0-2.42-1.958-4.378-4.379-4.378-1.596 0-2.936.824-3.709 2.111l-19.008-7.933c.155-.309.207-.67.258-1.031l33.896-4.532c.67 1.545 2.215 2.627 4.018 2.627.515 0 1.031-.103 1.494-.258l22.099 27.972c-.257.205-.413.465-.618.774zm-149.699 27.662c-1.546 0-2.834-1.287-2.834-2.832s1.288-2.834 2.834-2.834c1.545 0 2.833 1.289 2.833 2.834s-1.287 2.832-2.833 2.832zm3.657-5.203l40.387-32.401c.773.67 1.752 1.029 2.834 1.029 2.111 0 3.863-1.493 4.275-3.451l55.996-1.546.051.052-103.44 36.37-.103-.053zm39.872-80.206l42.292-10.664c.516.979 1.391 1.7 2.421 2.061l-4.532 34.823c-1.185.206-2.164.927-2.834 1.906l-38.223-25.809c.464-.618.773-1.442.876-2.317zm46.105-15.557c1.545 0 2.833 1.288 2.833 2.833s-1.288 2.834-2.833 2.834c-1.545 0-2.833-1.289-2.833-2.834s1.288-2.833 2.833-2.833zm4.378 3.245l13.137-2.112c.308.876.824 1.648 1.595 2.164l-22.974 38.636c-.155-.053-.31-.104-.516-.104l4.534-34.566c2.165-.103 4.019-1.855 4.224-4.018zm17.257-6.335c1.546 0 2.834 1.287 2.834 2.832 0 1.546-1.288 2.834-2.834 2.834-1.544 0-2.832-1.288-2.832-2.834 0-1.545 1.288-2.832 2.832-2.832zm33.897-25.656c.309.258.669.464 1.081.619l-19.369 64.186h-.154c-.463 0-.927.051-1.34.205l-11.488-33.02c1.083-.824 1.751-2.061 1.751-3.503 0-.773-.206-1.441-.515-2.062l30.034-26.425zm78.196 89.016v.104l-65.885 13.342c-.669-1.547-2.215-2.627-4.018-2.627-.721 0-1.391.153-1.958.463l-21.945-27.817c.413-.36.722-.772.979-1.235l92.827 17.77zm4.69-26.838l-.928 21.738c-1.905.258-3.399 1.701-3.762 3.556l-91.796-17.517 93.344-9.838c.72 1.082 1.802 1.855 3.142 2.061zm2.472 26.066c0 1.546-1.289 2.833-2.833 2.833-1.546 0-2.834-1.287-2.834-2.833s1.288-2.833 2.834-2.833c1.544 0 2.833 1.287 2.833 2.833zm-100.967-19.06c0 1.545-1.288 2.832-2.833 2.832-1.546 0-2.834-1.287-2.834-2.832 0-1.547 1.288-2.834 2.834-2.834 1.545 0 2.833 1.287 2.833 2.834zm-7.211 0v.257l-33.587 4.482c-.207-1.03-.824-1.958-1.649-2.575l22.976-38.636c.36.104.772.154 1.184.154.413 0 .825-.051 1.237-.154l11.539 33.071c-1.03.774-1.7 2.01-1.7 3.401zm-15.455 17.411l-55.584 1.545 29.518-10.817c.773 1.186 2.112 1.957 3.658 1.957 1.288 0 2.421-.565 3.193-1.391l19.267 8.036c0 .155-.052.412-.052.67zm-22.408-14.579c1.545 0 2.833 1.289 2.833 2.834s-1.288 2.834-2.833 2.834c-1.546 0-2.833-1.289-2.833-2.834s1.287-2.834 2.833-2.834zm-43.118-24.313l38.841 26.168c-.051.31-.102.619-.102.979s.051.67.102.979l-29.517 10.817c-.721-1.391-2.214-2.317-3.864-2.317h-.36l-6.8-36.06c.619-.052 1.185-.257 1.7-.566zm2.679 41.056c0-1.547 1.288-2.834 2.834-2.834 1.545 0 2.834 1.287 2.834 2.834 0 1.545-1.289 2.832-2.834 2.832-1.547 0-2.834-1.287-2.834-2.832zm64.393-2.061c0-1.544 1.288-2.833 2.832-2.833 1.546 0 2.834 1.289 2.834 2.833 0 1.546-1.288 2.834-2.834 2.834-1.544 0-2.832-1.288-2.832-2.834zm45.073 14.682c1.546 0 2.833 1.287 2.833 2.832 0 1.547-1.287 2.834-2.833 2.834-1.544 0-2.833-1.287-2.833-2.834.001-1.545 1.289-2.832 2.833-2.832zm70.936-10.2c.824.876 1.957 1.441 3.245 1.441 1.803 0 3.4-1.132 4.017-2.678l60.634 4.378-114.362 15.609 46.466-18.75zm168.605-65.011c.513 0 .977-.103 1.441-.257l7.624 21.326c-.979.824-1.596 2.009-1.596 3.4v.154l-164.123 35.39 153.252-61.661c.773.978 2.01 1.648 3.402 1.648zm9.012 24.47c0-1.546 1.288-2.833 2.834-2.833s2.833 1.287 2.833 2.833c0 1.545-1.287 2.833-2.833 2.833s-2.834-1.288-2.834-2.833zm-172.982 33.432c-.154-.051-.257-.104-.413-.104l.929-21.842c2.009-.411 3.503-2.163 3.503-4.275 0-.978-.31-1.854-.824-2.575l36.215-55.17-39.41 83.966zm-.36-29.053c1.546 0 2.834 1.287 2.834 2.832 0 1.547-1.288 2.834-2.834 2.834-1.545 0-2.834-1.287-2.834-2.834 0-1.545 1.289-2.832 2.834-2.832zm-78.043-58.468c0 1.545-1.288 2.832-2.833 2.832-1.545 0-2.832-1.287-2.832-2.832 0-1.547 1.287-2.835 2.832-2.835s2.833 1.288 2.833 2.835zm-54.914-.877l13.446 28.951c-1.34.721-2.267 2.112-2.319 3.709l-13.033 2.111c-.411-1.494-1.544-2.627-3.039-3.038l4.069-31.579.876-.154zm-95.403 26.942l43.168 63.26c-.67.771-1.082 1.751-1.082 2.833 0 .772.206 1.493.566 2.112l-40.438 32.505c-.669-.516-1.494-.824-2.421-.875l-.927-99.525c.412 0 .824-.103 1.134-.31zm-12.982 29.054c0 1.545-1.287 2.832-2.833 2.832-1.545 0-2.833-1.287-2.833-2.832 0-1.546 1.288-2.834 2.833-2.834 1.546 0 2.833 1.288 2.833 2.834zm122.655 39.202c.411.104.823.206 1.235.206 1.495 0 2.834-.772 3.606-1.906l34.309 14.321c-.052.258-.052.465-.052.721 0 2.422 1.958 4.379 4.378 4.379 1.443 0 2.73-.721 3.555-1.803l10.15 4.225v.412c0 .412.051.773.154 1.135l-121.831 49.193v-.049l64.496-70.834zm175.249 77.991l-109.724-55.635c.206-.463.309-.928.36-1.441l120.284-16.434c.413 1.134 1.237 2.062 2.319 2.525l-9.479 68.924h-.052c-1.545.001-2.935.825-3.708 2.061zm6.645-.928c-.41-.359-.824-.617-1.338-.822l9.427-68.823h.309c.36 0 .67-.053 1.03-.104l20.967 35.081c-.67.773-1.082 1.803-1.082 2.885 0 .979.31 1.855.824 2.574l-30.137 29.209zm30.805-31.783c0-1.545 1.288-2.834 2.834-2.834 1.545 0 2.833 1.289 2.833 2.834s-1.288 2.832-2.833 2.832c-1.546 0-2.834-1.287-2.834-2.832zm6.388-2.576l73.149-79.485c.721.566 1.648.928 2.679.928 1.494 0 2.833-.773 3.657-1.958l89.429 29.724c-.051.257-.104.566-.104.823v.36l-168.244 50.536-.566-.928zm169.43-52.235l-89.377-29.672c.051-.309.103-.668.103-.979 0-.206 0-.412-.052-.617l55.688-17.877c.721 1.34 2.163 2.268 3.863 2.268.464 0 .875-.051 1.287-.206l29.415 46.002c-.361.31-.669.67-.927 1.081zm38.685 8.707l-30.599-6.491c-.052-2.37-2.009-4.327-4.379-4.327-.516 0-.979.103-1.441.257l-29.003-45.383 65.628 55.429c-.102.154-.154.308-.206.515zm-34.977-9.273c1.546 0 2.833 1.288 2.833 2.833 0 1.547-1.287 2.834-2.833 2.834s-2.833-1.287-2.833-2.834c0-1.545 1.287-2.833 2.833-2.833zm21.12 101.534h-.051l-19.265-94.682c1.08-.516 1.904-1.391 2.317-2.524l30.649 6.49c.104 1.701 1.186 3.194 2.73 3.813l-16.38 86.903zm15.197-90.974c0-1.545 1.287-2.833 2.833-2.833 1.545 0 2.834 1.288 2.834 2.833 0 1.546-1.289 2.834-2.834 2.834-1.546 0-2.833-1.288-2.833-2.834zm-69.801-58.467c-1.546 0-2.833-1.288-2.833-2.833 0-1.546 1.287-2.834 2.833-2.834 1.545 0 2.834 1.288 2.834 2.834 0 1.545-1.289 2.833-2.834 2.833zm-26.117-48.785l23.13 42.757c-.825.771-1.341 1.906-1.341 3.143 0 .206 0 .412.053.617l-55.688 17.876c-.36-.721-.927-1.287-1.647-1.7l32.248-62.743c.513.206 1.029.309 1.597.309.566.102 1.132-.001 1.648-.259zm-167.574 8.603c-1.547 0-2.834-1.287-2.834-2.833 0-1.545 1.287-2.832 2.834-2.832 1.545 0 2.833 1.287 2.833 2.832 0 1.546-1.288 2.833-2.833 2.833zm-46.106-59.291l-.721 120.13c-.412.051-.824.154-1.236.309l-27.148-48.011c.773-.773 1.289-1.905 1.289-3.092 0-1.338-.567-2.472-1.494-3.295l29.156-66.093.154.052zm-29.362 69.336c0 1.547-1.289 2.834-2.834 2.834-1.545 0-2.833-1.287-2.833-2.834 0-1.545 1.288-2.832 2.833-2.832 1.546 0 2.834 1.287 2.834 2.832zm-7.007-1.287l-40.438-5.513c-.155-.927-.567-1.802-1.236-2.42l29.981-48.424c.463.156.927.259 1.391.259h.206l12.93 53.265c-1.34.361-2.421 1.442-2.834 2.833zm-10.251-57.696c-1.545 0-2.833-1.287-2.833-2.834 0-1.544 1.288-2.833 2.833-2.833 1.546 0 2.833 1.289 2.833 2.833.001 1.547-1.287 2.834-2.833 2.834zm-84.739 47.651c0 1.545-1.288 2.833-2.833 2.833-1.545 0-2.833-1.288-2.833-2.833 0-1.546 1.288-2.834 2.833-2.834 1.545 0 2.833 1.288 2.833 2.834zm-96.331 27.302c0 1.546-1.288 2.835-2.833 2.835-1.545 0-2.833-1.289-2.833-2.835 0-1.544 1.288-2.834 2.833-2.834 1.545 0 2.833 1.29 2.833 2.834zm-5.358 3.605l-10.868 25.037-.567-.052c-2.112 0-3.864 1.493-4.275 3.503l-62.641 6.13 77.116-35.853c.36.465.772.875 1.235 1.235zm-70.316 92.725c.051.311.103.568.206.824l-98.236 52.389c-.31-.359-.67-.617-1.082-.873l27.611-61.354h.154c1.752 0 3.247-1.031 3.967-2.525l67.38 11.539zm-98.442 56.151c0 1.545-1.289 2.834-2.834 2.834-1.545 0-2.833-1.289-2.833-2.834s1.288-2.834 2.833-2.834c1.545 0 2.834 1.289 2.834 2.834zm27.044-66.711c-1.545 0-2.833-1.287-2.833-2.832 0-1.546 1.288-2.833 2.833-2.833s2.833 1.287 2.833 2.833c.001 1.545-1.287 2.832-2.833 2.832zm-78.044 67.74c0 1.545-1.287 2.834-2.833 2.834-1.545 0-2.833-1.289-2.833-2.834s1.288-2.832 2.833-2.832c1.546 0 2.833 1.287 2.833 2.832zm-5.563 3.402c.772.617 1.7.979 2.73.979s1.958-.361 2.679-.928l23.799 27.25c-.824.771-1.391 1.803-1.442 2.988l-105.14 22.357-.257-.414 77.631-52.232zm257.208 52.492c1.546 0 2.833 1.287 2.833 2.832s-1.288 2.834-2.833 2.834c-1.545 0-2.833-1.289-2.833-2.834s1.288-2.832 2.833-2.832zm1.186-1.392l13.341-58.416c1.906-.258 3.4-1.752 3.71-3.605l237.117 7.572-251.18 57.283c-.465-1.34-1.598-2.422-2.988-2.834zm417.363-61.197c0-1.547 1.288-2.834 2.834-2.834 1.545 0 2.832 1.287 2.832 2.834 0 1.545-1.287 2.832-2.832 2.832-1.546 0-2.834-1.288-2.834-2.832zm74.695 21.119c0-1.545 1.287-2.832 2.834-2.832 1.544 0 2.832 1.287 2.832 2.832 0 1.547-1.288 2.834-2.832 2.834-1.546 0-2.834-1.287-2.834-2.834zm107.922-105.86c-1.546 0-2.834-1.288-2.834-2.833 0-1.546 1.288-2.833 2.834-2.833s2.833 1.287 2.833 2.833c0 1.545-1.287 2.833-2.833 2.833zm-47.393-65.937c-1.544 0-2.832-1.289-2.832-2.834 0-1.546 1.288-2.834 2.832-2.834 1.546 0 2.833 1.288 2.833 2.834 0 1.545-1.287 2.834-2.833 2.834zm-4.378-2.885l-104.265 16.742c-.361-1.03-1.08-1.957-2.008-2.474l17.257-41.415c.36.102.772.153 1.185.153 1.339 0 2.575-.618 3.398-1.597l84.587 27.663c-.102.309-.154.619-.154.928zm-87.831-28.539c-1.546 0-2.834-1.288-2.834-2.832 0-1.547 1.288-2.834 2.834-2.834 1.545 0 2.834 1.287 2.834 2.834 0 1.543-1.289 2.832-2.834 2.832zm-45.59-3.349c0 1.547-1.287 2.834-2.833 2.834-1.545 0-2.833-1.287-2.833-2.834 0-1.544 1.288-2.832 2.833-2.832 1.546 0 2.833 1.288 2.833 2.832zm-191.891-10.559c-1.543 0-2.831-1.289-2.831-2.834 0-1.546 1.288-2.834 2.831-2.834 1.547 0 2.835 1.288 2.835 2.834 0 1.545-1.288 2.834-2.835 2.834zm-19.315-40.439c0 1.546-1.288 2.834-2.834 2.834-1.544 0-2.833-1.288-2.833-2.834 0-1.545 1.289-2.833 2.833-2.833 1.546 0 2.834 1.288 2.834 2.833zm-5.204 3.658l-29.053 65.886c-.412-.155-.876-.258-1.288-.258l-12.93-53.42c1.546-.67 2.68-2.164 2.68-3.966l39.097-9.943c.31.722.825 1.288 1.494 1.701zm-125.694 32.247l-6.542 22.049h-.361c-1.802 0-3.348 1.08-4.018 2.627l-55.48-16.176v-.104c0-.154 0-.308-.051-.463l64.341-9.994c.464.927 1.237 1.649 2.111 2.061zm-70.779 5.563c1.546 0 2.834 1.289 2.834 2.834 0 1.546-1.288 2.834-2.834 2.834-1.545 0-2.833-1.288-2.833-2.834 0-1.545 1.288-2.834 2.833-2.834zm-30.703 44.148c-.514-.207-1.134-.36-1.751-.36-1.597 0-2.936.824-3.709 2.111l-38.841-12.672.052-.515c0-.36-.052-.67-.103-1.03l71.243-26.735c.154.257.31.462.464.668l-27.355 38.533zm-85.718-50.329l33.587 36.267c-.566.72-.875 1.647-.875 2.627 0 1.133.412 2.164 1.133 2.936l-32.969 47.496c-.412-.31-.927-.515-1.442-.618l-1.494-88.192h.052c.669-.001 1.39-.206 2.008-.516zm-1.545 90.148c1.545 0 2.833 1.288 2.833 2.834 0 1.545-1.288 2.833-2.833 2.833-1.546 0-2.833-1.288-2.833-2.833-.001-1.546 1.287-2.834 2.833-2.834zm-140.839 10.202l77.889 35.853c-.103.36-.154.721-.154 1.083 0 .309.051.67.103.979l-55.326 17.617c-.463-1.957-2.164-3.398-4.275-3.398-.309 0-.67.051-.979.104l-18.802-51.052c.616-.26 1.132-.672 1.544-1.186zm18.236 53.677c1.545 0 2.833 1.287 2.833 2.832 0 1.547-1.288 2.834-2.833 2.834-1.546 0-2.834-1.287-2.834-2.834 0-1.545 1.288-2.832 2.834-2.832zm-55.892 54.861c0 1.545-1.288 2.834-2.833 2.834-1.545 0-2.833-1.289-2.833-2.834s1.288-2.834 2.833-2.834c1.545 0 2.833 1.289 2.833 2.834zm-4.843 3.863c.618.309 1.288.516 2.009.516 2.112 0 3.916-1.545 4.275-3.555l33.176-.875c.103.41.257.824.515 1.234l-77.529 52.236 37.554-49.556zm-37.399 53.317c0 1.547-1.288 2.834-2.833 2.834-1.545 0-2.833-1.287-2.833-2.834 0-1.545 1.288-2.832 2.833-2.832 1.546 0 2.833 1.287 2.833 2.832zm26.015 66.709c1.545 0 2.833 1.289 2.833 2.836 0 1.545-1.288 2.834-2.833 2.834-1.546 0-2.833-1.289-2.833-2.834 0-1.547 1.287-2.836 2.833-2.836zm2.06-1.028c-.618-.363-1.339-.516-2.061-.516-.515 0-.979.104-1.442.256l-25.447-61.506c1.442-.721 2.472-2.215 2.472-3.916 0-.205 0-.412-.051-.619l104.831-22.303c.154.514.412.979.772 1.439l-79.074 87.165zm108.179-16.486c1.545 0 2.833 1.289 2.833 2.834s-1.288 2.834-2.833 2.834c-1.546 0-2.833-1.289-2.833-2.834s1.287-2.834 2.833-2.834zm0-1.545c-.412 0-.824.051-1.237.154l-21.944-68.512c.67-.518 1.185-1.184 1.494-1.959l114.721 40.49c-.052.205-.052.465-.052.723 0 .256 0 .463.052.67l-89.067 30.959c-.721-1.494-2.216-2.525-3.967-2.525zm93.55-26.941c.772 1.34 2.163 2.215 3.812 2.215 1.545 0 2.884-.771 3.658-2.008l88.861 37.553-185.502-6.541v-.258l89.171-30.961zm8.086-1.186c.052-.307.104-.617.104-.928l93.652-16.174c.464.928 1.237 1.701 2.215 2.111l-3.966 50.381c-1.392.154-2.576.979-3.246 2.113l-88.759-37.503zm92.571 36.885c1.545 0 2.833 1.289 2.833 2.834 0 1.543-1.287 2.832-2.833 2.832-1.546 0-2.833-1.289-2.833-2.832 0-1.545 1.288-2.834 2.833-2.834zm.978-1.443l3.966-50.121h.207c1.854 0 3.451-1.186 4.07-2.836l201.83 11.439-206.931 44.25c-.514-1.342-1.698-2.371-3.142-2.732zm213.372-40.592c.771 1.135 2.11 1.855 3.554 1.855 1.597 0 2.987-.877 3.761-2.166l120.388 6.801-327.01 36.061 199.307-42.551zm7.881-1.803c.05-.258.05-.465.05-.723v-.463l75.416-34.824c.773 1.238 2.165 2.061 3.71 2.061 1.185 0 2.317-.512 3.091-1.287l42.396 40.078c-.463.617-.772 1.34-.875 2.164l-123.788-7.006zm76.29-38.326c0-1.547 1.288-2.834 2.834-2.834s2.834 1.287 2.834 2.834c0 1.545-1.288 2.834-2.834 2.834s-2.834-1.289-2.834-2.834zm6.802 1.803c.257-.566.411-1.186.411-1.803 0-2.422-1.958-4.379-4.379-4.379-.722 0-1.442.205-2.009.514l-29.157-27.559c.155-.309.258-.617.359-.928l151.606-6.389c.052.619.258 1.188.516 1.701l-69.234 79.846c-.774-.822-1.907-1.34-3.144-1.34-.823 0-1.647.26-2.317.67l-42.652-40.333zm44.97 41.211c1.546 0 2.833 1.289 2.833 2.832 0 1.547-1.287 2.834-2.833 2.834-1.545 0-2.833-1.287-2.833-2.834 0-1.543 1.288-2.832 2.833-2.832zm97.62 41.468c0-1.545 1.288-2.834 2.832-2.834 1.547 0 2.834 1.289 2.834 2.834 0 1.547-1.287 2.834-2.834 2.834-1.544 0-2.832-1.287-2.832-2.834zm139.859-17.875l147.741-64.291c.618.928 1.546 1.65 2.679 1.908l-19.833 97.516h-.258c-1.957 0-3.605 1.287-4.172 3.09l-125.952-36.059c.052-.26.052-.465.052-.723 0-.566-.103-1.03-.257-1.441zm130.329 36.676c1.546 0 2.833 1.289 2.833 2.834 0 1.547-1.287 2.834-2.833 2.834-1.545 0-2.833-1.287-2.833-2.834 0-1.545 1.289-2.834 2.833-2.834zm23.955-103.283c0 1.545-1.288 2.834-2.833 2.834-1.546 0-2.834-1.289-2.834-2.834 0-1.547 1.288-2.834 2.834-2.834 1.545 0 2.833 1.287 2.833 2.834zm-26.53-82.164c1.545 0 2.833 1.287 2.833 2.834 0 1.545-1.288 2.832-2.833 2.832s-2.834-1.287-2.834-2.832c0-1.547 1.289-2.834 2.834-2.834zm0 7.211c.36 0 .67-.051.978-.102l21.482 70.881c-.414.104-.773.309-1.134.516l-76.24-56.562c.361-.617.567-1.338.567-2.113v-.102l50.843-14.27c.773 1.031 2.06 1.752 3.504 1.752zm-4.069-5.924c-.206.463-.309 1.029-.309 1.547 0 .41.05.822.152 1.184l-50.481 14.166c-.671-1.598-2.217-2.73-4.07-2.73-2.421 0-4.379 1.957-4.379 4.377 0 .26 0 .465.053.723l-147.484 41.418-.207-.361 128.888-106.375c.618.31 1.288.463 2.009.463 1.392 0 2.575-.617 3.399-1.647l72.429 47.235zm-72.943-49.968c0 1.545-1.288 2.834-2.834 2.834-1.545 0-2.833-1.289-2.833-2.834s1.288-2.833 2.833-2.833c1.546 0 2.834 1.288 2.834 2.833zm-7.212 0v.36l-20.709 3.091c-.308-2.061-2.165-3.709-4.327-3.709h-.052l-11.539-63.259.618-.31 38.017 60.117c-1.185.772-2.008 2.165-2.008 3.71zm-38.378-70.317c1.545 0 2.832 1.288 2.832 2.834 0 1.545-1.287 2.832-2.832 2.832-1.547 0-2.834-1.287-2.834-2.832 0-1.546 1.287-2.834 2.834-2.834zm-4.277 1.908c-.052.308-.103.617-.103.927v.154l-25.499 4.121c-.619-1.7-2.215-2.937-4.122-2.937-1.081 0-2.008.36-2.782 1.029l-47.134-29.875 79.64 26.581zm-84.842-32.816c1.545 0 2.833 1.288 2.833 2.833 0 1.547-1.288 2.834-2.833 2.834s-2.833-1.287-2.833-2.834c0-1.545 1.288-2.833 2.833-2.833zm-4.225 1.7c-.103.36-.154.772-.154 1.133v.31l-28.539 3.658c-.516-1.855-2.215-3.194-4.223-3.194-.67 0-1.289.153-1.907.411l-28.848-48.784.464-.411 63.207 46.877zm-66.35-52.698c1.546 0 2.834 1.288 2.834 2.833s-1.288 2.832-2.834 2.832c-1.545 0-2.834-1.287-2.834-2.832s1.289-2.833 2.834-2.833zm-1.751 6.852l-12.981 47.237h-.206c-.876 0-1.701.257-2.369.722l-70.368-58.417c.154-.31.257-.618.31-.979l83.039 7.572c-.001 1.751 1.081 3.194 2.575 3.865zm-89.944-15.094c1.547 0 2.834 1.287 2.834 2.832 0 1.546-1.287 2.834-2.834 2.834-1.544 0-2.832-1.288-2.832-2.834 0-1.545 1.288-2.832 2.832-2.832zm-88.242-24.16l83.968 26.065c-.052.31-.104.619-.104.927 0 .31.052.619.104.877l-104.059 47.753c-.464-.979-1.287-1.804-2.317-2.215l18.699-70.883c1.598-.103 3.04-1.082 3.709-2.524zm-3.966-4.688c1.544 0 2.833 1.287 2.833 2.833 0 1.545-1.289 2.832-2.833 2.832-1.546 0-2.834-1.287-2.834-2.832 0-1.546 1.288-2.833 2.834-2.833zm-3.966 4.688c.204.411.41.771.721 1.082l-36.318 35.338c-.722-.567-1.647-.875-2.627-.875-1.494 0-2.833.771-3.605 1.905l-43.633-21.739c.051-.309.104-.67.104-.978v-.207l85.358-14.526zm-89.79 11.796c1.546 0 2.833 1.288 2.833 2.834 0 1.545-1.288 2.834-2.833 2.834-1.545 0-2.833-1.289-2.833-2.834 0-1.546 1.288-2.834 2.833-2.834zm-88.345-.154l83.967 3.297c.052.721.259 1.391.619 2.009l-67.689 51.978c-.825-.877-1.959-1.443-3.247-1.443-.206 0-.412 0-.618.053l-15.299-52.133c1.34-.773 2.214-2.164 2.267-3.761zm-4.379-2.937c1.545 0 2.833 1.289 2.833 2.834s-1.288 2.834-2.833 2.834c-1.546 0-2.834-1.289-2.834-2.834s1.288-2.834 2.834-2.834zm-3.813 4.997c.773 1.339 2.164 2.215 3.813 2.215.205 0 .412 0 .618-.051l15.3 52.08c-.98.566-1.751 1.442-2.112 2.575l-79.589-19.214c.051-.206.051-.412.051-.618 0-.515-.102-1.03-.257-1.494l62.176-35.493zm-66.246 34.154c1.545 0 2.833 1.288 2.833 2.833 0 1.546-1.288 2.833-2.833 2.833-1.546 0-2.833-1.287-2.833-2.833 0-1.545 1.287-2.833 2.833-2.833zm-4.018 4.584c.67 1.546 2.215 2.627 4.018 2.627.258 0 .567-.051.824-.104l11.899 25.758c-.72.566-1.235 1.34-1.494 2.267l-109.93-12.363 94.683-18.185zm-99.01 16.022c1.546 0 2.833 1.288 2.833 2.832 0 1.547-1.288 2.834-2.833 2.834-1.545 0-2.833-1.287-2.833-2.834 0-1.544 1.288-2.832 2.833-2.832zm-1.596 6.902l1.494 88.449c-1.237.153-2.318.876-2.987 1.854l-51.205-31.063c.309-.618.464-1.287.464-2.009 0-.823-.258-1.597-.619-2.267l51.36-55.943c.411.413.927.773 1.493.979zm-56.614 54.398c1.545 0 2.833 1.288 2.833 2.833 0 1.546-1.288 2.834-2.833 2.834s-2.833-1.288-2.833-2.834c0-1.544 1.288-2.833 2.833-2.833zm-3.194 5.822c.824.877 1.958 1.391 3.194 1.391 1.133 0 2.163-.412 2.937-1.134l51.514 31.27c-.104.36-.155.67-.155 1.03v.154l-135.533 3.812-.052-.36 78.095-36.163zm-82.318 34.359c1.545 0 2.833 1.288 2.833 2.834s-1.288 2.833-2.833 2.833c-1.545 0-2.833-1.287-2.833-2.833s1.287-2.834 2.833-2.834zm-.928 7.109c.31.053.618.104.928.104h.412l18.854 51.206c-1.184.773-2.009 2.111-2.009 3.656 0 .619.103 1.186.361 1.701l-40.902 13.031c-.361-.771-.876-1.441-1.597-1.904l23.953-67.794zm-26.375 68.617c1.545 0 2.833 1.287 2.833 2.832 0 1.547-1.288 2.834-2.833 2.834-1.546 0-2.833-1.287-2.833-2.834 0-1.545 1.287-2.832 2.833-2.832zm-2.576 6.336c.361.258.825.514 1.289.668l-8.088 26.994h-.361c-2.42 0-4.378 1.957-4.378 4.379 0 .311.051.617.103.877l-53.163 19.779 64.598-52.697zm-64.649 54.295l53.729-19.986.464.617-37.914 50.021c-.361-.104-.721-.156-1.082-.156-.618 0-1.236.156-1.803.412l-15.197-27.508c1.081-.773 1.751-2.009 1.803-3.4zm-7.213-.103c0-1.545 1.288-2.832 2.833-2.832 1.546 0 2.833 1.287 2.833 2.832 0 1.547-1.287 2.834-2.833 2.834-1.545 0-2.833-1.288-2.833-2.834zm2.834 80.619c1.546 0 2.833 1.287 2.833 2.834 0 1.545-1.287 2.832-2.833 2.832-1.545 0-2.833-1.287-2.833-2.832-.001-1.547 1.287-2.834 2.833-2.834zm-1.597 6.904c.515.205 1.03.309 1.597.309 1.339 0 2.576-.619 3.4-1.596l40.747 17.668c-.051.205-.051.412-.051.619 0 .461.051.873.207 1.234l-85.771 45.848 39.871-64.082zm-39.048 65.422l85.564-45.744c.825 1.029 2.061 1.75 3.503 1.75s2.731-.721 3.503-1.75l115.082 45.795h-207.652v-.051zm93.292-47.135c.102-.311.154-.67.154-1.031l101.895-15.865c.619 1.338 1.906 2.316 3.4 2.523l11.9 61.043-117.349-46.67zm118.997 47.135l-12.002-61.662c.771-.207 1.494-.566 2.06-1.133l127.548 62.742h-117.606v.053zm-9.015-64.031l.155-.414 185.758 6.543c.103.619.36 1.186.721 1.699l-56.819 56.049-129.815-63.877zm131.875 64.031l55.893-55.121c.721.518 1.546.773 2.473.773 1.699 0 3.142-.928 3.863-2.318l210.074 56.666h-272.303zm62.692-58.108v-.102l342-37.709c.207.463.515.873.824 1.184l-127.548 94.682-215.276-58.055zm217.801 58.108l126.414-93.807c.516.258 1.134.359 1.751.359.464 0 .928-.102 1.34-.205l28.487 93.703h-157.992v-.05zm130.895-94.426c.36-.309.67-.619.927-1.029l92.417 36.111v.102c0 .98.308 1.855.823 2.576l-65.576 56.047-28.591-93.807zm30.29 94.426l65.011-55.584c.721.463 1.546.723 2.421.723 1.391 0 2.627-.67 3.452-1.701l170.201 56.51h-241.085v.052zm71.604-57.85c.053-.156.104-.311.104-.412l124.404-16.176c.517 1.855 2.217 3.193 4.226 3.193.257 0 .464 0 .67-.051l43.064 70.727-172.468-57.281zm130.897-14.011c.67-.361 1.236-.928 1.598-1.598l126.311 36.162c0 .465.104.928.31 1.34l-84.534 35.803-43.685-71.707zm47.135 71.861l81.855-34.67c.824.877 1.958 1.494 3.245 1.494 1.134 0 2.163-.412 2.937-1.133l59.962 34.309h-147.999zm150.215-.516l-61.199-35.029c.311-.619.516-1.287.516-2.01 0-.309-.051-.617-.103-.877l61.868-35.49c.72.875 1.75 1.441 2.937 1.596l-4.019 71.81zm4.48-73.355c-1.544 0-2.832-1.289-2.832-2.834s1.288-2.834 2.832-2.834c1.546 0 2.833 1.289 2.833 2.834s-1.287 2.834-2.833 2.834z"/></svg>