<?xml version="1.0" encoding="UTF-8" standalone="no"?>
<!DOCTYPE svg PUBLIC "-//W3C//DTD SVG 1.1//EN"
 "http://www.w3.org/Graphics/SVG/1.1/DTD/svg11.dtd">
<!-- Generated by graphviz version 2.38.0 (20140413.2041)
 -->
<!-- Title: Gemcutter Pages: 1 -->
<svg width="1126pt" height="689pt"
 viewBox="0.00 0.00 1125.60 688.60" xmlns="http://www.w3.org/2000/svg" xmlns:xlink="http://www.w3.org/1999/xlink">
<g id="graph0" class="graph" transform="scale(1 1) rotate(0) translate(28.8 659.8)">
<title>Gemcutter</title>
<polygon fill="white" stroke="none" points="-28.8,28.8 -28.8,-659.8 1096.8,-659.8 1096.8,28.8 -28.8,28.8"/>
<text text-anchor="middle" x="534" y="-616.6" font-family="Arial BoldMT" font-size="13.00">RubyGems.org domain model</text>
<!-- m_Delayed::Backend::ActiveRecord::Job -->
<g id="node1" class="node"><title>m_Delayed::Backend::ActiveRecord::Job</title>
<path fill="none" stroke="black" d="M34.5,-427C34.5,-427 205.5,-427 205.5,-427 211.5,-427 217.5,-433 217.5,-439 217.5,-439 217.5,-562 217.5,-562 217.5,-568 211.5,-574 205.5,-574 205.5,-574 34.5,-574 34.5,-574 28.5,-574 22.5,-568 22.5,-562 22.5,-562 22.5,-439 22.5,-439 22.5,-433 28.5,-427 34.5,-427"/>
<text text-anchor="start" x="28" y="-561.2" font-family="Arial BoldMT" font-size="11.00">Delayed::Backend::ActiveRecord::Job</text>
<polyline fill="none" stroke="black" points="22.5,-554 217.5,-554 "/>
<text text-anchor="start" x="55" y="-540.5" font-family="ArialMT" font-size="10.00">attempts </text>
<text text-anchor="start" x="97" y="-540.5" font-family="Arail ItalicMT" font-size="10.00" fill="#999999">integer</text>
<text text-anchor="start" x="55" y="-527.5" font-family="ArialMT" font-size="10.00">failed_at </text>
<text text-anchor="start" x="96" y="-527.5" font-family="Arail ItalicMT" font-size="10.00" fill="#999999">datetime</text>
<text text-anchor="start" x="55" y="-514.5" font-family="ArialMT" font-size="10.00">handler </text>
<text text-anchor="start" x="92" y="-514.5" font-family="Arail ItalicMT" font-size="10.00" fill="#999999">text</text>
<text text-anchor="start" x="55" y="-501.5" font-family="ArialMT" font-size="10.00">last_error </text>
<text text-anchor="start" x="101" y="-501.5" font-family="Arail ItalicMT" font-size="10.00" fill="#999999">text</text>
<text text-anchor="start" x="55" y="-488.5" font-family="ArialMT" font-size="10.00">locked_at </text>
<text text-anchor="start" x="101" y="-488.5" font-family="Arail ItalicMT" font-size="10.00" fill="#999999">datetime</text>
<text text-anchor="start" x="55" y="-475.5" font-family="ArialMT" font-size="10.00">locked_by </text>
<text text-anchor="start" x="103" y="-475.5" font-family="Arail ItalicMT" font-size="10.00" fill="#999999">string</text>
<text text-anchor="start" x="55" y="-462.5" font-family="ArialMT" font-size="10.00">priority </text>
<text text-anchor="start" x="88" y="-462.5" font-family="Arail ItalicMT" font-size="10.00" fill="#999999">integer</text>
<text text-anchor="start" x="55" y="-449.5" font-family="ArialMT" font-size="10.00">queue </text>
<text text-anchor="start" x="86" y="-449.5" font-family="Arail ItalicMT" font-size="10.00" fill="#999999">string</text>
<text text-anchor="start" x="55" y="-436.5" font-family="ArialMT" font-size="10.00">run_at </text>
<text text-anchor="start" x="87" y="-436.5" font-family="Arail ItalicMT" font-size="10.00" fill="#999999">datetime</text>
</g>
<!-- m_Deletion -->
<g id="node2" class="node"><title>m_Deletion</title>
<path fill="none" stroke="black" d="M12,-204C12,-204 132,-204 132,-204 138,-204 144,-210 144,-216 144,-216 144,-261 144,-261 144,-267 138,-273 132,-273 132,-273 12,-273 12,-273 6,-273 0,-267 0,-261 0,-261 0,-216 0,-216 0,-210 6,-204 12,-204"/>
<text text-anchor="start" x="49.5" y="-260.2" font-family="Arial BoldMT" font-size="11.00">Deletion</text>
<polyline fill="none" stroke="black" points="0,-253 144,-253 "/>
<text text-anchor="start" x="7" y="-239.5" font-family="ArialMT" font-size="10.00">number </text>
<text text-anchor="start" x="44" y="-239.5" font-family="Arail ItalicMT" font-size="10.00" fill="#999999">string ∗</text>
<text text-anchor="start" x="7" y="-226.5" font-family="ArialMT" font-size="10.00">platform </text>
<text text-anchor="start" x="46" y="-226.5" font-family="Arail ItalicMT" font-size="10.00" fill="#999999">string</text>
<text text-anchor="start" x="7" y="-213.5" font-family="ArialMT" font-size="10.00">rubygem </text>
<text text-anchor="start" x="49" y="-213.5" font-family="Arail ItalicMT" font-size="10.00" fill="#999999">string ∗</text>
</g>
<!-- m_Dependency -->
<g id="node3" class="node"><title>m_Dependency</title>
<path fill="none" stroke="black" d="M705,-0.5C705,-0.5 825,-0.5 825,-0.5 831,-0.5 837,-6.5 837,-12.5 837,-12.5 837,-57.5 837,-57.5 837,-63.5 831,-69.5 825,-69.5 825,-69.5 705,-69.5 705,-69.5 699,-69.5 693,-63.5 693,-57.5 693,-57.5 693,-12.5 693,-12.5 693,-6.5 699,-0.5 705,-0.5"/>
<text text-anchor="start" x="732" y="-56.7" font-family="Arial BoldMT" font-size="11.00">Dependency</text>
<polyline fill="none" stroke="black" points="693,-49.5 837,-49.5 "/>
<text text-anchor="start" x="700" y="-36" font-family="ArialMT" font-size="10.00">requirements </text>
<text text-anchor="start" x="762" y="-36" font-family="Arail ItalicMT" font-size="10.00" fill="#999999">string ∗</text>
<text text-anchor="start" x="700" y="-23" font-family="ArialMT" font-size="10.00">scope </text>
<text text-anchor="start" x="730" y="-23" font-family="Arail ItalicMT" font-size="10.00" fill="#999999">string</text>
<text text-anchor="start" x="700" y="-10" font-family="ArialMT" font-size="10.00">unresolved_name </text>
<text text-anchor="start" x="783" y="-10" font-family="Arail ItalicMT" font-size="10.00" fill="#999999">string</text>
</g>
<!-- m_Linkset -->
<g id="node4" class="node"><title>m_Linkset</title>
<path fill="none" stroke="black" d="M936,-184.5C936,-184.5 1056,-184.5 1056,-184.5 1062,-184.5 1068,-190.5 1068,-196.5 1068,-196.5 1068,-280.5 1068,-280.5 1068,-286.5 1062,-292.5 1056,-292.5 1056,-292.5 936,-292.5 936,-292.5 930,-292.5 924,-286.5 924,-280.5 924,-280.5 924,-196.5 924,-196.5 924,-190.5 930,-184.5 936,-184.5"/>
<text text-anchor="start" x="976.5" y="-279.7" font-family="Arial BoldMT" font-size="11.00">Linkset</text>
<polyline fill="none" stroke="black" points="924,-272.5 1068,-272.5 "/>
<text text-anchor="start" x="931" y="-259.5" font-family="ArialMT" font-size="10.00">bugs </text>
<text text-anchor="start" x="956" y="-259.5" font-family="Arail ItalicMT" font-size="10.00" fill="#999999">string</text>
<text text-anchor="start" x="931" y="-246.5" font-family="ArialMT" font-size="10.00">code </text>
<text text-anchor="start" x="956" y="-246.5" font-family="Arail ItalicMT" font-size="10.00" fill="#999999">string</text>
<text text-anchor="start" x="931" y="-233.5" font-family="ArialMT" font-size="10.00">docs </text>
<text text-anchor="start" x="955" y="-233.5" font-family="Arail ItalicMT" font-size="10.00" fill="#999999">string</text>
<text text-anchor="start" x="931" y="-220.5" font-family="ArialMT" font-size="10.00">home </text>
<text text-anchor="start" x="959" y="-220.5" font-family="Arail ItalicMT" font-size="10.00" fill="#999999">string</text>
<text text-anchor="start" x="931" y="-207.5" font-family="ArialMT" font-size="10.00">mail </text>
<text text-anchor="start" x="953" y="-207.5" font-family="Arail ItalicMT" font-size="10.00" fill="#999999">string</text>
<text text-anchor="start" x="931" y="-194.5" font-family="ArialMT" font-size="10.00">wiki </text>
<text text-anchor="start" x="951" y="-194.5" font-family="Arail ItalicMT" font-size="10.00" fill="#999999">string</text>
</g>
<!-- m_Ownership -->
<g id="node5" class="node"><title>m_Ownership</title>
<path fill="none" stroke="black" d="M185,-217C185,-217 305,-217 305,-217 311,-217 317,-223 317,-229 317,-229 317,-248 317,-248 317,-254 311,-260 305,-260 305,-260 185,-260 185,-260 179,-260 173,-254 173,-248 173,-248 173,-229 173,-229 173,-223 179,-217 185,-217"/>
<text text-anchor="start" x="216.5" y="-247.2" font-family="Arial BoldMT" font-size="11.00">Ownership</text>
<polyline fill="none" stroke="black" points="173,-240 317,-240 "/>
<text text-anchor="start" x="180" y="-226.5" font-family="ArialMT" font-size="10.00">token </text>
<text text-anchor="start" x="208" y="-226.5" font-family="Arail ItalicMT" font-size="10.00" fill="#999999">string</text>
</g>
<!-- m_Rubygem -->
<g id="node6" class="node"><title>m_Rubygem</title>
<path fill="none" stroke="black" d="M531,-466C531,-466 651,-466 651,-466 657,-466 663,-472 663,-478 663,-478 663,-523 663,-523 663,-529 657,-535 651,-535 651,-535 531,-535 531,-535 525,-535 519,-529 519,-523 519,-523 519,-478 519,-478 519,-472 525,-466 531,-466"/>
<text text-anchor="start" x="565" y="-522.2" font-family="Arial BoldMT" font-size="11.00">Rubygem</text>
<polyline fill="none" stroke="black" points="519,-515 663,-515 "/>
<text text-anchor="start" x="526" y="-501.5" font-family="ArialMT" font-size="10.00">downloads </text>
<text text-anchor="start" x="577" y="-501.5" font-family="Arail ItalicMT" font-size="10.00" fill="#999999">integer</text>
<text text-anchor="start" x="526" y="-488.5" font-family="ArialMT" font-size="10.00">name </text>
<text text-anchor="start" x="554" y="-488.5" font-family="Arail ItalicMT" font-size="10.00" fill="#999999">string ∗ U</text>
<text text-anchor="start" x="526" y="-475.5" font-family="ArialMT" font-size="10.00">slug </text>
<text text-anchor="start" x="548" y="-475.5" font-family="Arail ItalicMT" font-size="10.00" fill="#999999">string</text>
</g>
<!-- m_Rubygem&#45;&gt;m_Dependency -->
<g id="edge2" class="edge"><title>m_Rubygem&#45;&gt;m_Dependency</title>
<path fill="none" stroke="black" d="M618.996,-465.858C638.27,-441.07 663.012,-405.759 678,-371 725.777,-260.2 701.367,-221.28 737,-106 739.812,-96.9025 743.287,-87.3226 746.821,-78.2691"/>
<polygon fill="black" stroke="black" points="749.797,-79.3098 750.208,-69.7833 743.946,-76.9745 749.797,-79.3098"/>
</g>
<!-- m_Rubygem&#45;&gt;m_Linkset -->
<g id="edge4" class="edge"><title>m_Rubygem&#45;&gt;m_Linkset</title>
<path fill="none" stroke="black" d="M663.066,-483.822C732.327,-465.881 836.965,-430.945 910,-371 935.725,-349.886 956.462,-319.031 971.123,-292.515"/>
</g>
<!-- m_Rubygem&#45;&gt;m_Ownership -->
<g id="edge5" class="edge"><title>m_Rubygem&#45;&gt;m_Ownership</title>
<path fill="none" stroke="black" d="M533.65,-465.797C501.359,-447.411 460.001,-424.832 422,-407 382.625,-388.523 364.706,-398.49 331,-371 296.752,-343.069 271.409,-297.825 257.416,-268.367"/>
<polygon fill="black" stroke="black" points="260.246,-266.981 253.607,-260.137 254.529,-269.628 260.246,-266.981"/>
</g>
<!-- m_Subscription -->
<g id="node7" class="node"><title>m_Subscription</title>
<path fill="none" stroke="black" d="M358,-220.5C358,-220.5 478,-220.5 478,-220.5 484,-220.5 490,-226.5 490,-232.5 490,-232.5 490,-244.5 490,-244.5 490,-250.5 484,-256.5 478,-256.5 478,-256.5 358,-256.5 358,-256.5 352,-256.5 346,-250.5 346,-244.5 346,-244.5 346,-232.5 346,-232.5 346,-226.5 352,-220.5 358,-220.5"/>
<text text-anchor="start" x="385.5" y="-235.7" font-family="Arial BoldMT" font-size="11.00">Subscription</text>
</g>
<!-- m_Rubygem&#45;&gt;m_Subscription -->
<g id="edge9" class="edge"><title>m_Rubygem&#45;&gt;m_Subscription</title>
<path fill="none" stroke="black" d="M567.955,-465.78C550.333,-439.919 525.493,-403.298 504,-371 479.348,-333.955 451.194,-290.727 434.011,-264.238"/>
<polygon fill="black" stroke="black" points="436.585,-262.418 429.046,-256.58 431.299,-265.845 436.585,-262.418"/>
</g>
<!-- m_User -->
<g id="node8" class="node"><title>m_User</title>
<path fill="none" stroke="black" d="M258.5,-407.5C258.5,-407.5 395.5,-407.5 395.5,-407.5 401.5,-407.5 407.5,-413.5 407.5,-419.5 407.5,-419.5 407.5,-581.5 407.5,-581.5 407.5,-587.5 401.5,-593.5 395.5,-593.5 395.5,-593.5 258.5,-593.5 258.5,-593.5 252.5,-593.5 246.5,-587.5 246.5,-581.5 246.5,-581.5 246.5,-419.5 246.5,-419.5 246.5,-413.5 252.5,-407.5 258.5,-407.5"/>
<text text-anchor="start" x="313" y="-580.7" font-family="Arial BoldMT" font-size="11.00">User</text>
<polyline fill="none" stroke="black" points="246.5,-573.5 407.5,-573.5 "/>
<text text-anchor="start" x="254" y="-560.5" font-family="ArialMT" font-size="10.00">api_key </text>
<text text-anchor="start" x="292" y="-560.5" font-family="Arail ItalicMT" font-size="10.00" fill="#999999">string</text>
<text text-anchor="start" x="254" y="-547.5" font-family="ArialMT" font-size="10.00">confirmation_token </text>
<text text-anchor="start" x="342" y="-547.5" font-family="Arail ItalicMT" font-size="10.00" fill="#999999">string (128)</text>
<text text-anchor="start" x="254" y="-534.5" font-family="ArialMT" font-size="10.00">email </text>
<text text-anchor="start" x="281" y="-534.5" font-family="Arail ItalicMT" font-size="10.00" fill="#999999">string ∗ U</text>
<text text-anchor="start" x="254" y="-521.5" font-family="ArialMT" font-size="10.00">email_confirmed </text>
<text text-anchor="start" x="331" y="-521.5" font-family="Arail ItalicMT" font-size="10.00" fill="#999999">boolean ∗</text>
<text text-anchor="start" x="254" y="-508.5" font-family="ArialMT" font-size="10.00">email_reset </text>
<text text-anchor="start" x="309" y="-508.5" font-family="Arail ItalicMT" font-size="10.00" fill="#999999">boolean</text>
<text text-anchor="start" x="254" y="-495.5" font-family="ArialMT" font-size="10.00">encrypted_password </text>
<text text-anchor="start" x="350" y="-495.5" font-family="Arail ItalicMT" font-size="10.00" fill="#999999">string (128)</text>
<text text-anchor="start" x="254" y="-482.5" font-family="ArialMT" font-size="10.00">handle </text>
<text text-anchor="start" x="287" y="-482.5" font-family="Arail ItalicMT" font-size="10.00" fill="#999999">string U</text>
<text text-anchor="start" x="254" y="-469.5" font-family="ArialMT" font-size="10.00">hide_email </text>
<text text-anchor="start" x="306" y="-469.5" font-family="Arail ItalicMT" font-size="10.00" fill="#999999">boolean</text>
<text text-anchor="start" x="254" y="-456.5" font-family="ArialMT" font-size="10.00">remember_token </text>
<text text-anchor="start" x="333" y="-456.5" font-family="Arail ItalicMT" font-size="10.00" fill="#999999">string (128)</text>
<text text-anchor="start" x="254" y="-443.5" font-family="ArialMT" font-size="10.00">salt </text>
<text text-anchor="start" x="273" y="-443.5" font-family="Arail ItalicMT" font-size="10.00" fill="#999999">string (128)</text>
<text text-anchor="start" x="254" y="-430.5" font-family="ArialMT" font-size="10.00">token </text>
<text text-anchor="start" x="282" y="-430.5" font-family="Arail ItalicMT" font-size="10.00" fill="#999999">string (128)</text>
<text text-anchor="start" x="254" y="-417.5" font-family="ArialMT" font-size="10.00">token_expires_at </text>
<text text-anchor="start" x="333" y="-417.5" font-family="Arail ItalicMT" font-size="10.00" fill="#999999">datetime</text>
</g>
<!-- m_Rubygem&#45;&gt;m_User -->
<g id="edge7" class="edge"><title>m_Rubygem&#45;&gt;m_User</title>
<path fill="none" stroke="black" stroke-dasharray="1,5" d="M553.05,-465.975C507.438,-431.444 461.825,-422.034 416.212,-437.743"/>
<polygon fill="black" stroke="black" points="414.996,-434.835 407.695,-440.968 417.228,-440.727 414.996,-434.835"/>
</g>
<!-- m_Rubygem&#45;&gt;m_User -->
<g id="edge8" class="edge"><title>m_Rubygem&#45;&gt;m_User</title>
<path fill="none" stroke="black" stroke-dasharray="1,5" d="M553.05,-535.025C507.438,-569.556 461.825,-578.966 416.212,-563.257"/>
<polygon fill="black" stroke="black" points="417.228,-560.273 407.695,-560.032 414.996,-566.165 417.228,-560.273"/>
</g>
<!-- m_Version -->
<g id="node9" class="node"><title>m_Version</title>
<path fill="none" stroke="black" d="M763,-106.5C763,-106.5 883,-106.5 883,-106.5 889,-106.5 895,-112.5 895,-118.5 895,-118.5 895,-358.5 895,-358.5 895,-364.5 889,-370.5 883,-370.5 883,-370.5 763,-370.5 763,-370.5 757,-370.5 751,-364.5 751,-358.5 751,-358.5 751,-118.5 751,-118.5 751,-112.5 757,-106.5 763,-106.5"/>
<text text-anchor="start" x="802" y="-357.7" font-family="Arial BoldMT" font-size="11.00">Version</text>
<polyline fill="none" stroke="black" points="751,-350.5 895,-350.5 "/>
<text text-anchor="start" x="758" y="-337.5" font-family="ArialMT" font-size="10.00">authors </text>
<text text-anchor="start" x="795" y="-337.5" font-family="Arail ItalicMT" font-size="10.00" fill="#999999">text</text>
<text text-anchor="start" x="758" y="-324.5" font-family="ArialMT" font-size="10.00">built_at </text>
<text text-anchor="start" x="794" y="-324.5" font-family="Arail ItalicMT" font-size="10.00" fill="#999999">datetime</text>
<text text-anchor="start" x="758" y="-311.5" font-family="ArialMT" font-size="10.00">description </text>
<text text-anchor="start" x="810" y="-311.5" font-family="Arail ItalicMT" font-size="10.00" fill="#999999">text</text>
<text text-anchor="start" x="758" y="-298.5" font-family="ArialMT" font-size="10.00">full_name </text>
<text text-anchor="start" x="805" y="-298.5" font-family="Arail ItalicMT" font-size="10.00" fill="#999999">string</text>
<text text-anchor="start" x="758" y="-285.5" font-family="ArialMT" font-size="10.00">indexed </text>
<text text-anchor="start" x="796" y="-285.5" font-family="Arail ItalicMT" font-size="10.00" fill="#999999">boolean</text>
<text text-anchor="start" x="758" y="-272.5" font-family="ArialMT" font-size="10.00">latest </text>
<text text-anchor="start" x="785" y="-272.5" font-family="Arail ItalicMT" font-size="10.00" fill="#999999">boolean</text>
<text text-anchor="start" x="758" y="-259.5" font-family="ArialMT" font-size="10.00">licenses </text>
<text text-anchor="start" x="797" y="-259.5" font-family="Arail ItalicMT" font-size="10.00" fill="#999999">string</text>
<text text-anchor="start" x="758" y="-246.5" font-family="ArialMT" font-size="10.00">metadata </text>
<text text-anchor="start" x="803" y="-246.5" font-family="Arail ItalicMT" font-size="10.00" fill="#999999">hstore ∗</text>
<text text-anchor="start" x="758" y="-233.5" font-family="ArialMT" font-size="10.00">number </text>
<text text-anchor="start" x="795" y="-233.5" font-family="Arail ItalicMT" font-size="10.00" fill="#999999">string</text>
<text text-anchor="start" x="758" y="-220.5" font-family="ArialMT" font-size="10.00">platform </text>
<text text-anchor="start" x="797" y="-220.5" font-family="Arail ItalicMT" font-size="10.00" fill="#999999">string</text>
<text text-anchor="start" x="758" y="-207.5" font-family="ArialMT" font-size="10.00">position </text>
<text text-anchor="start" x="796" y="-207.5" font-family="Arail ItalicMT" font-size="10.00" fill="#999999">integer</text>
<text text-anchor="start" x="758" y="-194.5" font-family="ArialMT" font-size="10.00">prerelease </text>
<text text-anchor="start" x="809" y="-194.5" font-family="Arail ItalicMT" font-size="10.00" fill="#999999">boolean</text>
<text text-anchor="start" x="758" y="-181.5" font-family="ArialMT" font-size="10.00">requirements </text>
<text text-anchor="start" x="820" y="-181.5" font-family="Arail ItalicMT" font-size="10.00" fill="#999999">text</text>
<text text-anchor="start" x="758" y="-168.5" font-family="ArialMT" font-size="10.00">ruby_version </text>
<text text-anchor="start" x="819" y="-168.5" font-family="Arail ItalicMT" font-size="10.00" fill="#999999">string</text>
<text text-anchor="start" x="758" y="-155.5" font-family="ArialMT" font-size="10.00">rubyforge_project </text>
<text text-anchor="start" x="839" y="-155.5" font-family="Arail ItalicMT" font-size="10.00" fill="#999999">string</text>
<text text-anchor="start" x="758" y="-142.5" font-family="ArialMT" font-size="10.00">sha256 </text>
<text text-anchor="start" x="794" y="-142.5" font-family="Arail ItalicMT" font-size="10.00" fill="#999999">string</text>
<text text-anchor="start" x="758" y="-129.5" font-family="ArialMT" font-size="10.00">size </text>
<text text-anchor="start" x="779" y="-129.5" font-family="Arail ItalicMT" font-size="10.00" fill="#999999">integer</text>
<text text-anchor="start" x="758" y="-116.5" font-family="ArialMT" font-size="10.00">summary </text>
<text text-anchor="start" x="802" y="-116.5" font-family="Arail ItalicMT" font-size="10.00" fill="#999999">text</text>
</g>
<!-- m_Rubygem&#45;&gt;m_Version -->
<g id="edge10" class="edge"><title>m_Rubygem&#45;&gt;m_Version</title>
<path fill="none" stroke="black" d="M631.081,-465.998C659.766,-441.137 698.535,-405.677 729,-371 734.441,-364.807 739.87,-358.304 745.22,-351.643"/>
<polygon fill="black" stroke="black" points="747.87,-353.371 750.99,-344.361 742.932,-349.459 747.87,-353.371"/>
</g>
<!-- m_WebHook -->
<g id="node11" class="node"><title>m_WebHook</title>
<path fill="none" stroke="black" d="M531,-210.5C531,-210.5 651,-210.5 651,-210.5 657,-210.5 663,-216.5 663,-222.5 663,-222.5 663,-254.5 663,-254.5 663,-260.5 657,-266.5 651,-266.5 651,-266.5 531,-266.5 531,-266.5 525,-266.5 519,-260.5 519,-254.5 519,-254.5 519,-222.5 519,-222.5 519,-216.5 525,-210.5 531,-210.5"/>
<text text-anchor="start" x="564.5" y="-253.7" font-family="Arial BoldMT" font-size="11.00">WebHook</text>
<polyline fill="none" stroke="black" points="519,-246.5 663,-246.5 "/>
<text text-anchor="start" x="526" y="-233.5" font-family="ArialMT" font-size="10.00">failure_count </text>
<text text-anchor="start" x="587" y="-233.5" font-family="Arail ItalicMT" font-size="10.00" fill="#999999">integer</text>
<text text-anchor="start" x="526" y="-220.5" font-family="ArialMT" font-size="10.00">url </text>
<text text-anchor="start" x="540" y="-220.5" font-family="Arail ItalicMT" font-size="10.00" fill="#999999">string</text>
</g>
<!-- m_Rubygem&#45;&gt;m_WebHook -->
<g id="edge11" class="edge"><title>m_Rubygem&#45;&gt;m_WebHook</title>
<path fill="none" stroke="black" d="M591,-465.776C591,-416.854 591,-326.546 591,-276.073"/>
<polygon fill="black" stroke="black" points="594.15,-275.832 591,-266.832 587.85,-275.832 594.15,-275.832"/>
</g>
<!-- m_User&#45;&gt;m_Deletion -->
<g id="edge1" class="edge"><title>m_User&#45;&gt;m_Deletion</title>
<path fill="none" stroke="black" d="M246.322,-417.777C241.592,-413.994 236.803,-410.374 232,-407 202.073,-385.975 185.444,-395.177 158,-371 129.59,-345.972 106.706,-309.427 91.7073,-281.212"/>
<polygon fill="black" stroke="black" points="94.4457,-279.65 87.4984,-273.118 88.8563,-282.557 94.4457,-279.65"/>
</g>
<!-- m_User&#45;&gt;m_Ownership -->
<g id="edge6" class="edge"><title>m_User&#45;&gt;m_Ownership</title>
<path fill="none" stroke="black" d="M297.974,-407.468C282.645,-358.864 264.869,-302.498 254.299,-268.983"/>
<polygon fill="black" stroke="black" points="257.228,-267.797 251.516,-260.162 251.219,-269.692 257.228,-267.797"/>
</g>
<!-- m_User&#45;&gt;m_Subscription -->
<g id="edge12" class="edge"><title>m_User&#45;&gt;m_Subscription</title>
<path fill="none" stroke="black" d="M359.211,-407.468C376.877,-356.994 397.472,-298.15 408.998,-265.219"/>
<polygon fill="black" stroke="black" points="411.999,-266.182 411.999,-256.647 406.052,-264.101 411.999,-266.182"/>
</g>
<!-- m_User&#45;&gt;m_WebHook -->
<g id="edge13" class="edge"><title>m_User&#45;&gt;m_WebHook</title>
<path fill="none" stroke="black" d="M407.635,-450.016C439.704,-428.122 475.638,-400.623 504,-371 531.913,-341.846 556.533,-302.653 572.394,-274.656"/>
<polygon fill="black" stroke="black" points="575.191,-276.106 576.829,-266.713 569.691,-273.035 575.191,-276.106"/>
</g>
<!-- m_Version&#45;&gt;m_Dependency -->
<g id="edge3" class="edge"><title>m_Version&#45;&gt;m_Dependency</title>
<path fill="none" stroke="black" d="M785.286,-106.475C782.427,-96.5444 779.693,-87.0466 777.21,-78.4192"/>
<polygon fill="black" stroke="black" points="780.235,-77.5395 774.718,-69.762 774.181,-79.2822 780.235,-77.5395"/>
</g>
<!-- m_VersionHistory -->
<g id="node10" class="node"><title>m_VersionHistory</title>
<path fill="none" stroke="black" d="M878,-7C878,-7 998,-7 998,-7 1004,-7 1010,-13 1010,-19 1010,-19 1010,-51 1010,-51 1010,-57 1004,-63 998,-63 998,-63 878,-63 878,-63 872,-63 866,-57 866,-51 866,-51 866,-19 866,-19 866,-13 872,-7 878,-7"/>
<text text-anchor="start" x="900" y="-50.2" font-family="Arial BoldMT" font-size="11.00">VersionHistory</text>
<polyline fill="none" stroke="black" points="866,-43 1010,-43 "/>
<text text-anchor="start" x="873" y="-30" font-family="ArialMT" font-size="10.00">count </text>
<text text-anchor="start" x="901" y="-30" font-family="Arail ItalicMT" font-size="10.00" fill="#999999">integer</text>
<text text-anchor="start" x="873" y="-17" font-family="ArialMT" font-size="10.00">day </text>
<text text-anchor="start" x="892" y="-17" font-family="Arail ItalicMT" font-size="10.00" fill="#999999">date</text>
</g>
<!-- m_Version&#45;&gt;m_VersionHistory -->
<g id="edge14" class="edge"><title>m_Version&#45;&gt;m_VersionHistory</title>
<path fill="none" stroke="black" d="M895.015,-111.318C903.319,-96.7664 911.192,-82.9724 917.876,-71.2615"/>
<polygon fill="black" stroke="black" points="920.796,-72.4992 922.521,-63.1212 915.324,-69.3764 920.796,-72.4992"/>
</g>
</g>
</svg>
