<?xml version="1.0" encoding="UTF-8" standalone="no"?>
<!DOCTYPE svg PUBLIC "-//W3C//DTD SVG 1.1//EN"
 "http://www.w3.org/Graphics/SVG/1.1/DTD/svg11.dtd">
<!-- Generated by graphviz version 2.40.1 (20161225.0304)
 -->
<!-- Title: Gemcutter Pages: 1 -->
<svg width="1207pt" height="750pt"
 viewBox="0.00 0.00 1206.60 749.60" xmlns="http://www.w3.org/2000/svg" xmlns:xlink="http://www.w3.org/1999/xlink">
<g id="graph0" class="graph" transform="scale(1 1) rotate(0) translate(28.8 720.8)">
<title>Gemcutter</title>
<polygon fill="#ffffff" stroke="transparent" points="-28.8,28.8 -28.8,-720.8 1177.8,-720.8 1177.8,28.8 -28.8,28.8"/>
<text text-anchor="middle" x="574.5" y="-677.6" font-family="Arial BoldMT" font-size="13.00" fill="#000000">RubyGems.org domain model</text>
<!-- m_Delayed::Backend::ActiveRecord::Job -->
<g id="node1" class="node">
<title>m_Delayed::Backend::ActiveRecord::Job</title>
<path fill="none" stroke="#000000" d="M40,-477C40,-477 210,-477 210,-477 216,-477 222,-483 222,-489 222,-489 222,-611 222,-611 222,-617 216,-623 210,-623 210,-623 40,-623 40,-623 34,-623 28,-617 28,-611 28,-611 28,-489 28,-489 28,-483 34,-477 40,-477"/>
<text text-anchor="start" x="32.6736" y="-609.7" font-family="Arial BoldMT" font-size="11.00" fill="#000000">Delayed::Backend::ActiveRecord::Job</text>
<polyline fill="none" stroke="#000000" points="28,-604 222,-604 "/>
<text text-anchor="start" x="60" y="-590.5" font-family="ArialMT" font-size="10.00" fill="#000000">attempts </text>
<text text-anchor="start" x="101.1279" y="-590.5" font-family="Arial ItalicMT" font-size="10.00" fill="#999999">integer</text>
<text text-anchor="start" x="60" y="-577.5" font-family="ArialMT" font-size="10.00" fill="#000000">failed_at </text>
<text text-anchor="start" x="100.5859" y="-577.5" font-family="Arial ItalicMT" font-size="10.00" fill="#999999">datetime</text>
<text text-anchor="start" x="60" y="-564.5" font-family="ArialMT" font-size="10.00" fill="#000000">handler </text>
<text text-anchor="start" x="96.1377" y="-564.5" font-family="Arial ItalicMT" font-size="10.00" fill="#999999">text</text>
<text text-anchor="start" x="60" y="-551.5" font-family="ArialMT" font-size="10.00" fill="#000000">last_error </text>
<text text-anchor="start" x="105.0146" y="-551.5" font-family="Arial ItalicMT" font-size="10.00" fill="#999999">text</text>
<text text-anchor="start" x="60" y="-538.5" font-family="ArialMT" font-size="10.00" fill="#000000">locked_at </text>
<text text-anchor="start" x="105.5859" y="-538.5" font-family="Arial ItalicMT" font-size="10.00" fill="#999999">datetime</text>
<text text-anchor="start" x="60" y="-525.5" font-family="ArialMT" font-size="10.00" fill="#000000">locked_by </text>
<text text-anchor="start" x="107.8076" y="-525.5" font-family="Arial ItalicMT" font-size="10.00" fill="#999999">string</text>
<text text-anchor="start" x="60" y="-512.5" font-family="ArialMT" font-size="10.00" fill="#000000">priority </text>
<text text-anchor="start" x="92.7832" y="-512.5" font-family="Arial ItalicMT" font-size="10.00" fill="#999999">integer</text>
<text text-anchor="start" x="60" y="-499.5" font-family="ArialMT" font-size="10.00" fill="#000000">queue </text>
<text text-anchor="start" x="90.5859" y="-499.5" font-family="Arial ItalicMT" font-size="10.00" fill="#999999">string</text>
<text text-anchor="start" x="60" y="-486.5" font-family="ArialMT" font-size="10.00" fill="#000000">run_at </text>
<text text-anchor="start" x="91.1328" y="-486.5" font-family="Arial ItalicMT" font-size="10.00" fill="#999999">datetime</text>
</g>
<!-- m_Deletion -->
<g id="node2" class="node">
<title>m_Deletion</title>
<path fill="none" stroke="#000000" d="M12,-222.5C12,-222.5 132,-222.5 132,-222.5 138,-222.5 144,-228.5 144,-234.5 144,-234.5 144,-278.5 144,-278.5 144,-284.5 138,-290.5 132,-290.5 132,-290.5 12,-290.5 12,-290.5 6,-290.5 0,-284.5 0,-278.5 0,-278.5 0,-234.5 0,-234.5 0,-228.5 6,-222.5 12,-222.5"/>
<text text-anchor="start" x="49.8208" y="-277.2" font-family="Arial BoldMT" font-size="11.00" fill="#000000">Deletion</text>
<polyline fill="none" stroke="#000000" points="0,-271.5 144,-271.5 "/>
<text text-anchor="start" x="7" y="-258" font-family="ArialMT" font-size="10.00" fill="#000000">number </text>
<text text-anchor="start" x="43.6846" y="-258" font-family="Arial ItalicMT" font-size="10.00" fill="#999999">string ∗</text>
<text text-anchor="start" x="7" y="-245" font-family="ArialMT" font-size="10.00" fill="#000000">platform </text>
<text text-anchor="start" x="45.9014" y="-245" font-family="Arial ItalicMT" font-size="10.00" fill="#999999">string</text>
<text text-anchor="start" x="7" y="-232" font-family="ArialMT" font-size="10.00" fill="#000000">rubygem </text>
<text text-anchor="start" x="48.6846" y="-232" font-family="Arial ItalicMT" font-size="10.00" fill="#999999">string ∗</text>
</g>
<!-- m_Dependency -->
<g id="node3" class="node">
<title>m_Dependency</title>
<path fill="none" stroke="#000000" d="M728,-.5C728,-.5 848,-.5 848,-.5 854,-.5 860,-6.5 860,-12.5 860,-12.5 860,-56.5 860,-56.5 860,-62.5 854,-68.5 848,-68.5 848,-68.5 728,-68.5 728,-68.5 722,-68.5 716,-62.5 716,-56.5 716,-56.5 716,-12.5 716,-12.5 716,-6.5 722,-.5 728,-.5"/>
<text text-anchor="start" x="755.1162" y="-55.2" font-family="Arial BoldMT" font-size="11.00" fill="#000000">Dependency</text>
<polyline fill="none" stroke="#000000" points="716,-49.5 860,-49.5 "/>
<text text-anchor="start" x="723" y="-36" font-family="ArialMT" font-size="10.00" fill="#000000">requirements </text>
<text text-anchor="start" x="784.1377" y="-36" font-family="Arial ItalicMT" font-size="10.00" fill="#999999">string ∗</text>
<text text-anchor="start" x="723" y="-23" font-family="ArialMT" font-size="10.00" fill="#000000">scope </text>
<text text-anchor="start" x="752.4629" y="-23" font-family="Arial ItalicMT" font-size="10.00" fill="#999999">string</text>
<text text-anchor="start" x="723" y="-10" font-family="ArialMT" font-size="10.00" fill="#000000">unresolved_name </text>
<text text-anchor="start" x="805.2754" y="-10" font-family="Arial ItalicMT" font-size="10.00" fill="#999999">string</text>
</g>
<!-- m_GemDownload -->
<g id="node4" class="node">
<title>m_GemDownload</title>
<path fill="none" stroke="#000000" d="M901,-13.5C901,-13.5 1021,-13.5 1021,-13.5 1027,-13.5 1033,-19.5 1033,-25.5 1033,-25.5 1033,-43.5 1033,-43.5 1033,-49.5 1027,-55.5 1021,-55.5 1021,-55.5 901,-55.5 901,-55.5 895,-55.5 889,-49.5 889,-43.5 889,-43.5 889,-25.5 889,-25.5 889,-19.5 895,-13.5 901,-13.5"/>
<text text-anchor="start" x="922.6216" y="-42.2" font-family="Arial BoldMT" font-size="11.00" fill="#000000">GemDownload</text>
<polyline fill="none" stroke="#000000" points="889,-36.5 1033,-36.5 "/>
<text text-anchor="start" x="896" y="-23" font-family="ArialMT" font-size="10.00" fill="#000000">count </text>
<text text-anchor="start" x="923.2412" y="-23" font-family="Arial ItalicMT" font-size="10.00" fill="#999999">integer (8)</text>
</g>
<!-- m_Linkset -->
<g id="node5" class="node">
<title>m_Linkset</title>
<path fill="none" stroke="#000000" d="M1017,-203C1017,-203 1137,-203 1137,-203 1143,-203 1149,-209 1149,-215 1149,-215 1149,-298 1149,-298 1149,-304 1143,-310 1137,-310 1137,-310 1017,-310 1017,-310 1011,-310 1005,-304 1005,-298 1005,-298 1005,-215 1005,-215 1005,-209 1011,-203 1017,-203"/>
<text text-anchor="start" x="1057.5735" y="-296.7" font-family="Arial BoldMT" font-size="11.00" fill="#000000">Linkset</text>
<polyline fill="none" stroke="#000000" points="1005,-291 1149,-291 "/>
<text text-anchor="start" x="1012" y="-278" font-family="ArialMT" font-size="10.00" fill="#000000">bugs </text>
<text text-anchor="start" x="1036.4629" y="-278" font-family="Arial ItalicMT" font-size="10.00" fill="#999999">string</text>
<text text-anchor="start" x="1012" y="-265" font-family="ArialMT" font-size="10.00" fill="#000000">code </text>
<text text-anchor="start" x="1036.4629" y="-265" font-family="Arial ItalicMT" font-size="10.00" fill="#999999">string</text>
<text text-anchor="start" x="1012" y="-252" font-family="ArialMT" font-size="10.00" fill="#000000">docs </text>
<text text-anchor="start" x="1035.9014" y="-252" font-family="Arial ItalicMT" font-size="10.00" fill="#999999">string</text>
<text text-anchor="start" x="1012" y="-239" font-family="ArialMT" font-size="10.00" fill="#000000">home </text>
<text text-anchor="start" x="1039.793" y="-239" font-family="Arial ItalicMT" font-size="10.00" fill="#999999">string</text>
<text text-anchor="start" x="1012" y="-226" font-family="ArialMT" font-size="10.00" fill="#000000">mail </text>
<text text-anchor="start" x="1033.1133" y="-226" font-family="Arial ItalicMT" font-size="10.00" fill="#999999">string</text>
<text text-anchor="start" x="1012" y="-213" font-family="ArialMT" font-size="10.00" fill="#000000">wiki </text>
<text text-anchor="start" x="1031.4434" y="-213" font-family="Arial ItalicMT" font-size="10.00" fill="#999999">string</text>
</g>
<!-- m_LogTicket -->
<g id="node6" class="node">
<title>m_LogTicket</title>
<path fill="none" stroke="#000000" d="M883,-503C883,-503 1003,-503 1003,-503 1009,-503 1015,-509 1015,-515 1015,-515 1015,-585 1015,-585 1015,-591 1009,-597 1003,-597 1003,-597 883,-597 883,-597 877,-597 871,-591 871,-585 871,-585 871,-515 871,-515 871,-509 877,-503 883,-503"/>
<text text-anchor="start" x="917.3564" y="-583.7" font-family="Arial BoldMT" font-size="11.00" fill="#000000">LogTicket</text>
<polyline fill="none" stroke="#000000" points="871,-578 1015,-578 "/>
<text text-anchor="start" x="878" y="-564.5" font-family="ArialMT" font-size="10.00" fill="#000000">backend </text>
<text text-anchor="start" x="918.5859" y="-564.5" font-family="Arial ItalicMT" font-size="10.00" fill="#999999">integer</text>
<text text-anchor="start" x="878" y="-551.5" font-family="ArialMT" font-size="10.00" fill="#000000">directory </text>
<text text-anchor="start" x="919.123" y="-551.5" font-family="Arial ItalicMT" font-size="10.00" fill="#999999">string</text>
<text text-anchor="start" x="878" y="-538.5" font-family="ArialMT" font-size="10.00" fill="#000000">key </text>
<text text-anchor="start" x="896.3398" y="-538.5" font-family="Arial ItalicMT" font-size="10.00" fill="#999999">string</text>
<text text-anchor="start" x="878" y="-525.5" font-family="ArialMT" font-size="10.00" fill="#000000">processed_count </text>
<text text-anchor="start" x="956.9404" y="-525.5" font-family="Arial ItalicMT" font-size="10.00" fill="#999999">integer</text>
<text text-anchor="start" x="878" y="-512.5" font-family="ArialMT" font-size="10.00" fill="#000000">status </text>
<text text-anchor="start" x="907.458" y="-512.5" font-family="Arial ItalicMT" font-size="10.00" fill="#999999">string</text>
</g>
<!-- m_Ownership -->
<g id="node7" class="node">
<title>m_Ownership</title>
<path fill="none" stroke="#000000" d="M185,-235.5C185,-235.5 305,-235.5 305,-235.5 311,-235.5 317,-241.5 317,-247.5 317,-247.5 317,-265.5 317,-265.5 317,-271.5 311,-277.5 305,-277.5 305,-277.5 185,-277.5 185,-277.5 179,-277.5 173,-271.5 173,-265.5 173,-265.5 173,-247.5 173,-247.5 173,-241.5 179,-235.5 185,-235.5"/>
<text text-anchor="start" x="216.7112" y="-264.2" font-family="Arial BoldMT" font-size="11.00" fill="#000000">Ownership</text>
<polyline fill="none" stroke="#000000" points="173,-258.5 317,-258.5 "/>
<text text-anchor="start" x="180" y="-245" font-family="ArialMT" font-size="10.00" fill="#000000">token </text>
<text text-anchor="start" x="207.2412" y="-245" font-family="Arial ItalicMT" font-size="10.00" fill="#999999">string</text>
</g>
<!-- m_Rubygem -->
<g id="node8" class="node">
<title>m_Rubygem</title>
<path fill="none" stroke="#000000" d="M710,-522.5C710,-522.5 830,-522.5 830,-522.5 836,-522.5 842,-528.5 842,-534.5 842,-534.5 842,-565.5 842,-565.5 842,-571.5 836,-577.5 830,-577.5 830,-577.5 710,-577.5 710,-577.5 704,-577.5 698,-571.5 698,-565.5 698,-565.5 698,-534.5 698,-534.5 698,-528.5 704,-522.5 710,-522.5"/>
<text text-anchor="start" x="744.4612" y="-564.2" font-family="Arial BoldMT" font-size="11.00" fill="#000000">Rubygem</text>
<polyline fill="none" stroke="#000000" points="698,-558.5 842,-558.5 "/>
<text text-anchor="start" x="705" y="-545.5" font-family="ArialMT" font-size="10.00" fill="#000000">name </text>
<text text-anchor="start" x="732.793" y="-545.5" font-family="Arial ItalicMT" font-size="10.00" fill="#999999">string ∗ U</text>
<text text-anchor="start" x="705" y="-532.5" font-family="ArialMT" font-size="10.00" fill="#000000">slug </text>
<text text-anchor="start" x="726.123" y="-532.5" font-family="Arial ItalicMT" font-size="10.00" fill="#999999">string</text>
</g>
<!-- m_Rubygem&#45;&gt;m_Dependency -->
<g id="edge2" class="edge">
<title>m_Rubygem&#45;&gt;m_Dependency</title>
<path fill="none" stroke="#000000" d="M761.5812,-522.3089C753.4241,-493.9266 741.6278,-448.3577 737,-408 721.6584,-274.2101 695.5175,-233.1183 737,-105 740.2392,-94.9958 745.4875,-85.2197 751.413,-76.2872"/>
<polygon fill="#000000" stroke="#000000" points="754.1674,-77.846 756.761,-68.6702 749.0113,-74.2259 754.1674,-77.846"/>
</g>
<!-- m_Rubygem&#45;&gt;m_GemDownload -->
<g id="edge4" class="edge">
<title>m_Rubygem&#45;&gt;m_GemDownload</title>
<path fill="none" stroke="#000000" d="M787.3611,-522.3228C803.0412,-499.0695 827.9155,-466.175 856,-444 885.0191,-421.0871 910.0704,-438.4805 931,-408 1008.1449,-295.651 979.1167,-117.0482 966.026,-55.872"/>
</g>
<!-- m_Rubygem&#45;&gt;m_Linkset -->
<g id="edge6" class="edge">
<title>m_Rubygem&#45;&gt;m_Linkset</title>
<path fill="none" stroke="#000000" d="M785.5661,-522.4907C800.5961,-498.3621 825.5279,-464.0824 856,-444 904.9868,-411.7157 936.1479,-443.3108 983,-408 1016.0003,-383.1288 1040.1452,-342.9977 1055.6964,-310.2859"/>
</g>
<!-- m_Rubygem&#45;&gt;m_Ownership -->
<g id="edge7" class="edge">
<title>m_Rubygem&#45;&gt;m_Ownership</title>
<path fill="none" stroke="#000000" d="M697.5851,-528.0758C576.733,-491.2763 345.6325,-419.9218 331,-408 291.5038,-375.8205 266.7498,-320.3956 254.4376,-286.2485"/>
<polygon fill="#000000" stroke="#000000" points="257.3718,-285.0961 251.4333,-277.6357 251.4233,-287.171 257.3718,-285.0961"/>
</g>
<!-- m_Subscription -->
<g id="node9" class="node">
<title>m_Subscription</title>
<path fill="none" stroke="#000000" d="M358,-238.5C358,-238.5 478,-238.5 478,-238.5 484,-238.5 490,-244.5 490,-250.5 490,-250.5 490,-262.5 490,-262.5 490,-268.5 484,-274.5 478,-274.5 478,-274.5 358,-274.5 358,-274.5 352,-274.5 346,-268.5 346,-262.5 346,-262.5 346,-250.5 346,-250.5 346,-244.5 352,-238.5 358,-238.5"/>
<text text-anchor="start" x="385.7339" y="-252.7" font-family="Arial BoldMT" font-size="11.00" fill="#000000">Subscription</text>
</g>
<!-- m_Rubygem&#45;&gt;m_Subscription -->
<g id="edge11" class="edge">
<title>m_Rubygem&#45;&gt;m_Subscription</title>
<path fill="none" stroke="#000000" d="M697.8392,-524.4923C639.9958,-501.2126 559.584,-462.1599 504,-408 466.9738,-371.9224 441.0518,-316.4813 427.9125,-283.6185"/>
<polygon fill="#000000" stroke="#000000" points="430.7501,-282.2248 424.5469,-274.9831 424.8802,-284.5127 430.7501,-282.2248"/>
</g>
<!-- m_User -->
<g id="node10" class="node">
<title>m_User</title>
<path fill="none" stroke="#000000" d="M263.5,-444.5C263.5,-444.5 398.5,-444.5 398.5,-444.5 404.5,-444.5 410.5,-450.5 410.5,-456.5 410.5,-456.5 410.5,-643.5 410.5,-643.5 410.5,-649.5 404.5,-655.5 398.5,-655.5 398.5,-655.5 263.5,-655.5 263.5,-655.5 257.5,-655.5 251.5,-649.5 251.5,-643.5 251.5,-643.5 251.5,-456.5 251.5,-456.5 251.5,-450.5 257.5,-444.5 263.5,-444.5"/>
<text text-anchor="start" x="317.3877" y="-642.2" font-family="Arial BoldMT" font-size="11.00" fill="#000000">User</text>
<polyline fill="none" stroke="#000000" points="251.5,-636.5 410.5,-636.5 "/>
<text text-anchor="start" x="259" y="-623.5" font-family="ArialMT" font-size="10.00" fill="#000000">api_key </text>
<text text-anchor="start" x="296.2461" y="-623.5" font-family="Arial ItalicMT" font-size="10.00" fill="#999999">string</text>
<text text-anchor="start" x="259" y="-610.5" font-family="ArialMT" font-size="10.00" fill="#000000">confirmation_token </text>
<text text-anchor="start" x="346.2705" y="-610.5" font-family="Arial ItalicMT" font-size="10.00" fill="#999999">string (128)</text>
<text text-anchor="start" x="259" y="-597.5" font-family="ArialMT" font-size="10.00" fill="#000000">email </text>
<text text-anchor="start" x="285.6748" y="-597.5" font-family="Arial ItalicMT" font-size="10.00" fill="#999999">string ∗ U</text>
<text text-anchor="start" x="259" y="-584.5" font-family="ArialMT" font-size="10.00" fill="#000000">email_confirmed </text>
<text text-anchor="start" x="335.1426" y="-584.5" font-family="Arial ItalicMT" font-size="10.00" fill="#999999">boolean ∗</text>
<text text-anchor="start" x="259" y="-571.5" font-family="ArialMT" font-size="10.00" fill="#000000">email_reset </text>
<text text-anchor="start" x="313.4678" y="-571.5" font-family="Arial ItalicMT" font-size="10.00" fill="#999999">boolean</text>
<text text-anchor="start" x="258.6851" y="-558.5" font-family="ArialMT" font-size="10.00" fill="#000000">encrypted_password </text>
<text text-anchor="start" x="353.7388" y="-558.5" font-family="Arial ItalicMT" font-size="10.00" fill="#999999">string (128)</text>
<text text-anchor="start" x="259" y="-545.5" font-family="ArialMT" font-size="10.00" fill="#000000">handle </text>
<text text-anchor="start" x="291.8076" y="-545.5" font-family="Arial ItalicMT" font-size="10.00" fill="#999999">string U</text>
<text text-anchor="start" x="259" y="-532.5" font-family="ArialMT" font-size="10.00" fill="#000000">hide_email </text>
<text text-anchor="start" x="310.1426" y="-532.5" font-family="Arial ItalicMT" font-size="10.00" fill="#999999">boolean</text>
<text text-anchor="start" x="259" y="-519.5" font-family="ArialMT" font-size="10.00" fill="#000000">remember_token </text>
<text text-anchor="start" x="337.3691" y="-519.5" font-family="Arial ItalicMT" font-size="10.00" fill="#999999">string (128)</text>
<text text-anchor="start" x="259" y="-506.5" font-family="ArialMT" font-size="10.00" fill="#000000">salt </text>
<text text-anchor="start" x="277.3398" y="-506.5" font-family="Arial ItalicMT" font-size="10.00" fill="#999999">string (128)</text>
<text text-anchor="start" x="259" y="-493.5" font-family="ArialMT" font-size="10.00" fill="#000000">token </text>
<text text-anchor="start" x="286.2412" y="-493.5" font-family="Arial ItalicMT" font-size="10.00" fill="#999999">string (128)</text>
<text text-anchor="start" x="259" y="-480.5" font-family="ArialMT" font-size="10.00" fill="#000000">token_expires_at </text>
<text text-anchor="start" x="337.9404" y="-480.5" font-family="Arial ItalicMT" font-size="10.00" fill="#999999">datetime</text>
<text text-anchor="start" x="259" y="-467.5" font-family="ArialMT" font-size="10.00" fill="#000000">twitter_username </text>
<text text-anchor="start" x="338.4775" y="-467.5" font-family="Arial ItalicMT" font-size="10.00" fill="#999999">string</text>
<text text-anchor="start" x="259" y="-454.5" font-family="ArialMT" font-size="10.00" fill="#000000">unconfirmed_email </text>
<text text-anchor="start" x="346.2656" y="-454.5" font-family="Arial ItalicMT" font-size="10.00" fill="#999999">string</text>
</g>
<!-- m_Version -->
<g id="node11" class="node">
<title>m_Version</title>
<path fill="none" stroke="#000000" d="M763.5,-105.5C763.5,-105.5 904.5,-105.5 904.5,-105.5 910.5,-105.5 916.5,-111.5 916.5,-117.5 916.5,-117.5 916.5,-395.5 916.5,-395.5 916.5,-401.5 910.5,-407.5 904.5,-407.5 904.5,-407.5 763.5,-407.5 763.5,-407.5 757.5,-407.5 751.5,-401.5 751.5,-395.5 751.5,-395.5 751.5,-117.5 751.5,-117.5 751.5,-111.5 757.5,-105.5 763.5,-105.5"/>
<text text-anchor="start" x="813.6523" y="-394.2" font-family="Arial BoldMT" font-size="11.00" fill="#000000">Version</text>
<polyline fill="none" stroke="#000000" points="751.5,-388.5 916.5,-388.5 "/>
<text text-anchor="start" x="759" y="-375" font-family="ArialMT" font-size="10.00" fill="#000000">authors </text>
<text text-anchor="start" x="795.1328" y="-375" font-family="Arial ItalicMT" font-size="10.00" fill="#999999">string</text>
<text text-anchor="start" x="759" y="-362" font-family="ArialMT" font-size="10.00" fill="#000000">built_at </text>
<text text-anchor="start" x="794.0244" y="-362" font-family="Arial ItalicMT" font-size="10.00" fill="#999999">datetime</text>
<text text-anchor="start" x="759" y="-349" font-family="ArialMT" font-size="10.00" fill="#000000">description </text>
<text text-anchor="start" x="810.1377" y="-349" font-family="Arial ItalicMT" font-size="10.00" fill="#999999">text</text>
<text text-anchor="start" x="759" y="-336" font-family="ArialMT" font-size="10.00" fill="#000000">full_name </text>
<text text-anchor="start" x="805.1377" y="-336" font-family="Arial ItalicMT" font-size="10.00" fill="#999999">string ∗ U</text>
<text text-anchor="start" x="759" y="-323" font-family="ArialMT" font-size="10.00" fill="#000000">indexed </text>
<text text-anchor="start" x="796.8076" y="-323" font-family="Arial ItalicMT" font-size="10.00" fill="#999999">boolean</text>
<text text-anchor="start" x="759" y="-310" font-family="ArialMT" font-size="10.00" fill="#000000">info_checksum </text>
<text text-anchor="start" x="828.4775" y="-310" font-family="Arial ItalicMT" font-size="10.00" fill="#999999">string</text>
<text text-anchor="start" x="759" y="-297" font-family="ArialMT" font-size="10.00" fill="#000000">latest </text>
<text text-anchor="start" x="785.6797" y="-297" font-family="Arial ItalicMT" font-size="10.00" fill="#999999">boolean</text>
<text text-anchor="start" x="759" y="-284" font-family="ArialMT" font-size="10.00" fill="#000000">licenses </text>
<text text-anchor="start" x="797.9063" y="-284" font-family="Arial ItalicMT" font-size="10.00" fill="#999999">string</text>
<text text-anchor="start" x="759" y="-271" font-family="ArialMT" font-size="10.00" fill="#000000">metadata </text>
<text text-anchor="start" x="803.4727" y="-271" font-family="Arial ItalicMT" font-size="10.00" fill="#999999">hstore ∗</text>
<text text-anchor="start" x="759" y="-258" font-family="ArialMT" font-size="10.00" fill="#000000">number </text>
<text text-anchor="start" x="795.6846" y="-258" font-family="Arial ItalicMT" font-size="10.00" fill="#999999">string</text>
<text text-anchor="start" x="759" y="-245" font-family="ArialMT" font-size="10.00" fill="#000000">platform </text>
<text text-anchor="start" x="797.9014" y="-245" font-family="Arial ItalicMT" font-size="10.00" fill="#999999">string</text>
<text text-anchor="start" x="759" y="-232" font-family="ArialMT" font-size="10.00" fill="#000000">position </text>
<text text-anchor="start" x="796.2461" y="-232" font-family="Arial ItalicMT" font-size="10.00" fill="#999999">integer</text>
<text text-anchor="start" x="759" y="-219" font-family="ArialMT" font-size="10.00" fill="#000000">prerelease </text>
<text text-anchor="start" x="809.0293" y="-219" font-family="Arial ItalicMT" font-size="10.00" fill="#999999">boolean</text>
<text text-anchor="start" x="759" y="-206" font-family="ArialMT" font-size="10.00" fill="#000000">required_ruby_version </text>
<text text-anchor="start" x="861.2803" y="-206" font-family="Arial ItalicMT" font-size="10.00" fill="#999999">string</text>
<text text-anchor="start" x="758.9067" y="-193" font-family="ArialMT" font-size="10.00" fill="#000000">required_rubygems_version </text>
<text text-anchor="start" x="885.6401" y="-193" font-family="Arial ItalicMT" font-size="10.00" fill="#999999">string</text>
<text text-anchor="start" x="759" y="-180" font-family="ArialMT" font-size="10.00" fill="#000000">requirements </text>
<text text-anchor="start" x="820.1377" y="-180" font-family="Arial ItalicMT" font-size="10.00" fill="#999999">text</text>
<text text-anchor="start" x="759" y="-167" font-family="ArialMT" font-size="10.00" fill="#000000">sha256 </text>
<text text-anchor="start" x="794.5859" y="-167" font-family="Arial ItalicMT" font-size="10.00" fill="#999999">string</text>
<text text-anchor="start" x="759" y="-154" font-family="ArialMT" font-size="10.00" fill="#000000">size </text>
<text text-anchor="start" x="779.5615" y="-154" font-family="Arial ItalicMT" font-size="10.00" fill="#999999">integer</text>
<text text-anchor="start" x="759" y="-141" font-family="ArialMT" font-size="10.00" fill="#000000">summary </text>
<text text-anchor="start" x="802.8916" y="-141" font-family="Arial ItalicMT" font-size="10.00" fill="#999999">text</text>
<text text-anchor="start" x="759" y="-128" font-family="ArialMT" font-size="10.00" fill="#000000">yanked_at </text>
<text text-anchor="start" x="807.9258" y="-128" font-family="Arial ItalicMT" font-size="10.00" fill="#999999">datetime</text>
<text text-anchor="start" x="759" y="-115" font-family="ArialMT" font-size="10.00" fill="#000000">yanked_info_checksum </text>
<text text-anchor="start" x="866.2852" y="-115" font-family="Arial ItalicMT" font-size="10.00" fill="#999999">string</text>
</g>
<!-- m_Rubygem&#45;&gt;m_Version -->
<g id="edge12" class="edge">
<title>m_Rubygem&#45;&gt;m_Version</title>
<path fill="none" stroke="#000000" d="M776.021,-522.3882C781.529,-497.1285 790.1586,-457.554 799.0929,-416.5819"/>
<polygon fill="#000000" stroke="#000000" points="802.2235,-417.0099 801.0634,-407.5454 796.0681,-415.6676 802.2235,-417.0099"/>
</g>
<!-- m_WebHook -->
<g id="node12" class="node">
<title>m_WebHook</title>
<path fill="none" stroke="#000000" d="M531,-229C531,-229 651,-229 651,-229 657,-229 663,-235 663,-241 663,-241 663,-272 663,-272 663,-278 657,-284 651,-284 651,-284 531,-284 531,-284 525,-284 519,-278 519,-272 519,-272 519,-241 519,-241 519,-235 525,-229 531,-229"/>
<text text-anchor="start" x="564.9482" y="-270.7" font-family="Arial BoldMT" font-size="11.00" fill="#000000">WebHook</text>
<polyline fill="none" stroke="#000000" points="519,-265 663,-265 "/>
<text text-anchor="start" x="526" y="-252" font-family="ArialMT" font-size="10.00" fill="#000000">failure_count </text>
<text text-anchor="start" x="586.0391" y="-252" font-family="Arial ItalicMT" font-size="10.00" fill="#999999">integer</text>
<text text-anchor="start" x="526" y="-239" font-family="ArialMT" font-size="10.00" fill="#000000">url </text>
<text text-anchor="start" x="539.8916" y="-239" font-family="Arial ItalicMT" font-size="10.00" fill="#999999">string</text>
</g>
<!-- m_Rubygem&#45;&gt;m_WebHook -->
<g id="edge13" class="edge">
<title>m_Rubygem&#45;&gt;m_WebHook</title>
<path fill="none" stroke="#000000" d="M753.1601,-522.3882C720.5767,-468.9624 648.9384,-351.4995 612.7838,-292.2182"/>
<polygon fill="#000000" stroke="#000000" points="615.3011,-290.2958 607.9255,-284.2522 609.9224,-293.5761 615.3011,-290.2958"/>
</g>
<!-- m_User&#45;&gt;m_Deletion -->
<g id="edge1" class="edge">
<title>m_User&#45;&gt;m_Deletion</title>
<path fill="none" stroke="#000000" d="M251.2553,-456.3027C246.2661,-451.9532 241.168,-447.8176 236,-444 205.2898,-421.3139 186.1063,-433.8421 158,-408 125.2998,-377.9341 101.8135,-332.4989 87.7323,-299.2268"/>
<polygon fill="#000000" stroke="#000000" points="90.5257,-297.7378 84.1828,-290.618 84.7013,-300.1393 90.5257,-297.7378"/>
</g>
<!-- m_User&#45;&gt;m_Ownership -->
<g id="edge8" class="edge">
<title>m_User&#45;&gt;m_Ownership</title>
<path fill="none" stroke="#000000" d="M300.0735,-444.4544C283.6038,-388.2466 264.5625,-323.2627 253.7345,-286.3089"/>
<polygon fill="#000000" stroke="#000000" points="256.7188,-285.2912 251.1651,-277.5401 250.673,-287.0628 256.7188,-285.2912"/>
</g>
<!-- m_User&#45;&gt;m_Subscription -->
<g id="edge14" class="edge">
<title>m_User&#45;&gt;m_Subscription</title>
<path fill="none" stroke="#000000" d="M362.2861,-444.4544C379.3687,-386.8253 399.1859,-319.9707 409.9788,-283.5599"/>
<polygon fill="#000000" stroke="#000000" points="413.1099,-284.0805 412.6477,-274.5563 407.0697,-282.29 413.1099,-284.0805"/>
</g>
<!-- m_User&#45;&gt;m_WebHook -->
<g id="edge15" class="edge">
<title>m_User&#45;&gt;m_WebHook</title>
<path fill="none" stroke="#000000" d="M410.8613,-494.2751C442.1865,-470.0298 477.0143,-439.8839 504,-408 534.2187,-372.2963 559.6017,-324.6294 575.0087,-292.37"/>
<polygon fill="#000000" stroke="#000000" points="577.9136,-293.5949 578.8964,-284.1103 572.2134,-290.9119 577.9136,-293.5949"/>
</g>
<!-- m_Version&#45;&gt;m_Dependency -->
<g id="edge3" class="edge">
<title>m_Version&#45;&gt;m_Dependency</title>
<path fill="none" stroke="#000000" d="M802.6812,-105.3526C800.6251,-95.4297 798.6715,-86.0015 796.8997,-77.4505"/>
<polygon fill="#000000" stroke="#000000" points="799.9628,-76.708 795.0522,-68.5343 793.7938,-77.9863 799.9628,-76.708"/>
</g>
<!-- m_Version&#45;&gt;m_GemDownload -->
<g id="edge5" class="edge">
<title>m_Version&#45;&gt;m_GemDownload</title>
<path fill="none" stroke="#000000" d="M916.5816,-112.1448C929.1838,-90.1158 940.6806,-70.019 948.8191,-55.7926"/>
</g>
</g>
</svg>
