<?xml version="1.0" encoding="UTF-8" standalone="no"?>
<!DOCTYPE svg PUBLIC "-//W3C//DTD SVG 1.1//EN"
 "http://www.w3.org/Graphics/SVG/1.1/DTD/svg11.dtd">
<!-- Generated by graphviz version 2.38.0 (20140413.2041)
 -->
<!-- Title: Gemcutter Pages: 1 -->
<svg width="1207pt" height="737pt"
 viewBox="0.00 0.00 1206.60 736.60" xmlns="http://www.w3.org/2000/svg" xmlns:xlink="http://www.w3.org/1999/xlink">
<g id="graph0" class="graph" transform="scale(1 1) rotate(0) translate(28.8 707.8)">
<title>Gemcutter</title>
<polygon fill="white" stroke="none" points="-28.8,28.8 -28.8,-707.8 1177.8,-707.8 1177.8,28.8 -28.8,28.8"/>
<text text-anchor="middle" x="574.5" y="-664.6" font-family="Arial BoldMT" font-size="13.00">RubyGems.org domain model</text>
<!-- m_Delayed::Backend::ActiveRecord::Job -->
<g id="node1" class="node"><title>m_Delayed::Backend::ActiveRecord::Job</title>
<path fill="none" stroke="black" d="M41,-470.5C41,-470.5 211,-470.5 211,-470.5 217,-470.5 223,-476.5 223,-482.5 223,-482.5 223,-604.5 223,-604.5 223,-610.5 217,-616.5 211,-616.5 211,-616.5 41,-616.5 41,-616.5 35,-616.5 29,-610.5 29,-604.5 29,-604.5 29,-482.5 29,-482.5 29,-476.5 35,-470.5 41,-470.5"/>
<text text-anchor="start" x="33.6736" y="-603.2" font-family="Arial BoldMT" font-size="11.00">Delayed::Backend::ActiveRecord::Job</text>
<polyline fill="none" stroke="black" points="29,-597.5 223,-597.5 "/>
<text text-anchor="start" x="61" y="-584" font-family="ArialMT" font-size="10.00">attempts </text>
<text text-anchor="start" x="102.128" y="-584" font-family="Arial ItalicMT" font-size="10.00" fill="#999999">integer</text>
<text text-anchor="start" x="61" y="-571" font-family="ArialMT" font-size="10.00">failed_at </text>
<text text-anchor="start" x="101.586" y="-571" font-family="Arial ItalicMT" font-size="10.00" fill="#999999">datetime</text>
<text text-anchor="start" x="61" y="-558" font-family="ArialMT" font-size="10.00">handler </text>
<text text-anchor="start" x="97.1377" y="-558" font-family="Arial ItalicMT" font-size="10.00" fill="#999999">text</text>
<text text-anchor="start" x="61" y="-545" font-family="ArialMT" font-size="10.00">last_error </text>
<text text-anchor="start" x="106.015" y="-545" font-family="Arial ItalicMT" font-size="10.00" fill="#999999">text</text>
<text text-anchor="start" x="61" y="-532" font-family="ArialMT" font-size="10.00">locked_at </text>
<text text-anchor="start" x="106.586" y="-532" font-family="Arial ItalicMT" font-size="10.00" fill="#999999">datetime</text>
<text text-anchor="start" x="61" y="-519" font-family="ArialMT" font-size="10.00">locked_by </text>
<text text-anchor="start" x="108.808" y="-519" font-family="Arial ItalicMT" font-size="10.00" fill="#999999">string</text>
<text text-anchor="start" x="61" y="-506" font-family="ArialMT" font-size="10.00">priority </text>
<text text-anchor="start" x="93.7832" y="-506" font-family="Arial ItalicMT" font-size="10.00" fill="#999999">integer</text>
<text text-anchor="start" x="61" y="-493" font-family="ArialMT" font-size="10.00">queue </text>
<text text-anchor="start" x="91.5859" y="-493" font-family="Arial ItalicMT" font-size="10.00" fill="#999999">string</text>
<text text-anchor="start" x="61" y="-480" font-family="ArialMT" font-size="10.00">run_at </text>
<text text-anchor="start" x="92.1328" y="-480" font-family="Arial ItalicMT" font-size="10.00" fill="#999999">datetime</text>
</g>
<!-- m_Deletion -->
<g id="node2" class="node"><title>m_Deletion</title>
<path fill="none" stroke="black" d="M12,-222.5C12,-222.5 132,-222.5 132,-222.5 138,-222.5 144,-228.5 144,-234.5 144,-234.5 144,-278.5 144,-278.5 144,-284.5 138,-290.5 132,-290.5 132,-290.5 12,-290.5 12,-290.5 6,-290.5 0,-284.5 0,-278.5 0,-278.5 0,-234.5 0,-234.5 0,-228.5 6,-222.5 12,-222.5"/>
<text text-anchor="start" x="49.8208" y="-277.2" font-family="Arial BoldMT" font-size="11.00">Deletion</text>
<polyline fill="none" stroke="black" points="0,-271.5 144,-271.5 "/>
<text text-anchor="start" x="7" y="-258" font-family="ArialMT" font-size="10.00">number </text>
<text text-anchor="start" x="43.6846" y="-258" font-family="Arial ItalicMT" font-size="10.00" fill="#999999">string ∗</text>
<text text-anchor="start" x="7" y="-245" font-family="ArialMT" font-size="10.00">platform </text>
<text text-anchor="start" x="45.9014" y="-245" font-family="Arial ItalicMT" font-size="10.00" fill="#999999">string</text>
<text text-anchor="start" x="7" y="-232" font-family="ArialMT" font-size="10.00">rubygem </text>
<text text-anchor="start" x="48.6846" y="-232" font-family="Arial ItalicMT" font-size="10.00" fill="#999999">string ∗</text>
</g>
<!-- m_Dependency -->
<g id="node3" class="node"><title>m_Dependency</title>
<path fill="none" stroke="black" d="M728,-0.5C728,-0.5 848,-0.5 848,-0.5 854,-0.5 860,-6.5 860,-12.5 860,-12.5 860,-56.5 860,-56.5 860,-62.5 854,-68.5 848,-68.5 848,-68.5 728,-68.5 728,-68.5 722,-68.5 716,-62.5 716,-56.5 716,-56.5 716,-12.5 716,-12.5 716,-6.5 722,-0.5 728,-0.5"/>
<text text-anchor="start" x="755.116" y="-55.2" font-family="Arial BoldMT" font-size="11.00">Dependency</text>
<polyline fill="none" stroke="black" points="716,-49.5 860,-49.5 "/>
<text text-anchor="start" x="723" y="-36" font-family="ArialMT" font-size="10.00">requirements </text>
<text text-anchor="start" x="784.138" y="-36" font-family="Arial ItalicMT" font-size="10.00" fill="#999999">string ∗</text>
<text text-anchor="start" x="723" y="-23" font-family="ArialMT" font-size="10.00">scope </text>
<text text-anchor="start" x="752.463" y="-23" font-family="Arial ItalicMT" font-size="10.00" fill="#999999">string</text>
<text text-anchor="start" x="723" y="-10" font-family="ArialMT" font-size="10.00">unresolved_name </text>
<text text-anchor="start" x="805.275" y="-10" font-family="Arial ItalicMT" font-size="10.00" fill="#999999">string</text>
</g>
<!-- m_GemDownload -->
<g id="node4" class="node"><title>m_GemDownload</title>
<path fill="none" stroke="black" d="M901,-13.5C901,-13.5 1021,-13.5 1021,-13.5 1027,-13.5 1033,-19.5 1033,-25.5 1033,-25.5 1033,-43.5 1033,-43.5 1033,-49.5 1027,-55.5 1021,-55.5 1021,-55.5 901,-55.5 901,-55.5 895,-55.5 889,-49.5 889,-43.5 889,-43.5 889,-25.5 889,-25.5 889,-19.5 895,-13.5 901,-13.5"/>
<text text-anchor="start" x="922.622" y="-42.2" font-family="Arial BoldMT" font-size="11.00">GemDownload</text>
<polyline fill="none" stroke="black" points="889,-36.5 1033,-36.5 "/>
<text text-anchor="start" x="896" y="-23" font-family="ArialMT" font-size="10.00">count </text>
<text text-anchor="start" x="923.241" y="-23" font-family="Arial ItalicMT" font-size="10.00" fill="#999999">integer (8)</text>
</g>
<!-- m_Linkset -->
<g id="node5" class="node"><title>m_Linkset</title>
<path fill="none" stroke="black" d="M1017,-203C1017,-203 1137,-203 1137,-203 1143,-203 1149,-209 1149,-215 1149,-215 1149,-298 1149,-298 1149,-304 1143,-310 1137,-310 1137,-310 1017,-310 1017,-310 1011,-310 1005,-304 1005,-298 1005,-298 1005,-215 1005,-215 1005,-209 1011,-203 1017,-203"/>
<text text-anchor="start" x="1057.57" y="-296.7" font-family="Arial BoldMT" font-size="11.00">Linkset</text>
<polyline fill="none" stroke="black" points="1005,-291 1149,-291 "/>
<text text-anchor="start" x="1012" y="-278" font-family="ArialMT" font-size="10.00">bugs </text>
<text text-anchor="start" x="1036.46" y="-278" font-family="Arial ItalicMT" font-size="10.00" fill="#999999">string</text>
<text text-anchor="start" x="1012" y="-265" font-family="ArialMT" font-size="10.00">code </text>
<text text-anchor="start" x="1036.46" y="-265" font-family="Arial ItalicMT" font-size="10.00" fill="#999999">string</text>
<text text-anchor="start" x="1012" y="-252" font-family="ArialMT" font-size="10.00">docs </text>
<text text-anchor="start" x="1035.9" y="-252" font-family="Arial ItalicMT" font-size="10.00" fill="#999999">string</text>
<text text-anchor="start" x="1012" y="-239" font-family="ArialMT" font-size="10.00">home </text>
<text text-anchor="start" x="1039.79" y="-239" font-family="Arial ItalicMT" font-size="10.00" fill="#999999">string</text>
<text text-anchor="start" x="1012" y="-226" font-family="ArialMT" font-size="10.00">mail </text>
<text text-anchor="start" x="1033.11" y="-226" font-family="Arial ItalicMT" font-size="10.00" fill="#999999">string</text>
<text text-anchor="start" x="1012" y="-213" font-family="ArialMT" font-size="10.00">wiki </text>
<text text-anchor="start" x="1031.44" y="-213" font-family="Arial ItalicMT" font-size="10.00" fill="#999999">string</text>
</g>
<!-- m_LogTicket -->
<g id="node6" class="node"><title>m_LogTicket</title>
<path fill="none" stroke="black" d="M884,-496.5C884,-496.5 1004,-496.5 1004,-496.5 1010,-496.5 1016,-502.5 1016,-508.5 1016,-508.5 1016,-578.5 1016,-578.5 1016,-584.5 1010,-590.5 1004,-590.5 1004,-590.5 884,-590.5 884,-590.5 878,-590.5 872,-584.5 872,-578.5 872,-578.5 872,-508.5 872,-508.5 872,-502.5 878,-496.5 884,-496.5"/>
<text text-anchor="start" x="918.356" y="-577.2" font-family="Arial BoldMT" font-size="11.00">LogTicket</text>
<polyline fill="none" stroke="black" points="872,-571.5 1016,-571.5 "/>
<text text-anchor="start" x="879" y="-558" font-family="ArialMT" font-size="10.00">backend </text>
<text text-anchor="start" x="919.586" y="-558" font-family="Arial ItalicMT" font-size="10.00" fill="#999999">integer</text>
<text text-anchor="start" x="879" y="-545" font-family="ArialMT" font-size="10.00">directory </text>
<text text-anchor="start" x="920.123" y="-545" font-family="Arial ItalicMT" font-size="10.00" fill="#999999">string</text>
<text text-anchor="start" x="879" y="-532" font-family="ArialMT" font-size="10.00">key </text>
<text text-anchor="start" x="897.34" y="-532" font-family="Arial ItalicMT" font-size="10.00" fill="#999999">string</text>
<text text-anchor="start" x="879" y="-519" font-family="ArialMT" font-size="10.00">processed_count </text>
<text text-anchor="start" x="957.94" y="-519" font-family="Arial ItalicMT" font-size="10.00" fill="#999999">integer</text>
<text text-anchor="start" x="879" y="-506" font-family="ArialMT" font-size="10.00">status </text>
<text text-anchor="start" x="908.458" y="-506" font-family="Arial ItalicMT" font-size="10.00" fill="#999999">string</text>
</g>
<!-- m_Ownership -->
<g id="node7" class="node"><title>m_Ownership</title>
<path fill="none" stroke="black" d="M185,-235.5C185,-235.5 305,-235.5 305,-235.5 311,-235.5 317,-241.5 317,-247.5 317,-247.5 317,-265.5 317,-265.5 317,-271.5 311,-277.5 305,-277.5 305,-277.5 185,-277.5 185,-277.5 179,-277.5 173,-271.5 173,-265.5 173,-265.5 173,-247.5 173,-247.5 173,-241.5 179,-235.5 185,-235.5"/>
<text text-anchor="start" x="216.711" y="-264.2" font-family="Arial BoldMT" font-size="11.00">Ownership</text>
<polyline fill="none" stroke="black" points="173,-258.5 317,-258.5 "/>
<text text-anchor="start" x="180" y="-245" font-family="ArialMT" font-size="10.00">token </text>
<text text-anchor="start" x="207.241" y="-245" font-family="Arial ItalicMT" font-size="10.00" fill="#999999">string</text>
</g>
<!-- m_Rubygem -->
<g id="node8" class="node"><title>m_Rubygem</title>
<path fill="none" stroke="black" d="M711,-516C711,-516 831,-516 831,-516 837,-516 843,-522 843,-528 843,-528 843,-559 843,-559 843,-565 837,-571 831,-571 831,-571 711,-571 711,-571 705,-571 699,-565 699,-559 699,-559 699,-528 699,-528 699,-522 705,-516 711,-516"/>
<text text-anchor="start" x="745.461" y="-557.7" font-family="Arial BoldMT" font-size="11.00">Rubygem</text>
<polyline fill="none" stroke="black" points="699,-552 843,-552 "/>
<text text-anchor="start" x="706" y="-539" font-family="ArialMT" font-size="10.00">name </text>
<text text-anchor="start" x="733.793" y="-539" font-family="Arial ItalicMT" font-size="10.00" fill="#999999">string ∗ U</text>
<text text-anchor="start" x="706" y="-526" font-family="ArialMT" font-size="10.00">slug </text>
<text text-anchor="start" x="727.123" y="-526" font-family="Arial ItalicMT" font-size="10.00" fill="#999999">string</text>
</g>
<!-- m_Rubygem&#45;&gt;m_Dependency -->
<g id="edge2" class="edge"><title>m_Rubygem&#45;&gt;m_Dependency</title>
<path fill="none" stroke="black" d="M762.171,-515.824C753.775,-488.952 741.744,-446.122 737,-408 720.371,-274.364 695.082,-232.977 737,-105 740.279,-94.9897 745.61,-85.2304 751.616,-76.3407"/>
<polygon fill="black" stroke="black" points="754.359,-77.9203 757.035,-68.7679 749.236,-74.2545 754.359,-77.9203"/>
</g>
<!-- m_Rubygem&#45;&gt;m_GemDownload -->
<g id="edge4" class="edge"><title>m_Rubygem&#45;&gt;m_GemDownload</title>
<path fill="none" stroke="black" d="M790.064,-515.65C806.288,-494.226 831.174,-464.509 858,-444 886.739,-422.029 910.678,-437.928 931,-408 1007.72,-295.014 978.555,-115.982 965.764,-55.9109"/>
</g>
<!-- m_Rubygem&#45;&gt;m_Linkset -->
<g id="edge6" class="edge"><title>m_Rubygem&#45;&gt;m_Linkset</title>
<path fill="none" stroke="black" d="M788.206,-515.674C803.845,-493.374 828.881,-462.413 858,-444 906.864,-413.101 936.852,-442.825 983,-408 1016.07,-383.042 1040.34,-342.766 1055.93,-310.157"/>
</g>
<!-- m_Rubygem&#45;&gt;m_Ownership -->
<g id="edge7" class="edge"><title>m_Rubygem&#45;&gt;m_Ownership</title>
<path fill="none" stroke="black" d="M698.909,-521.967C577.928,-487.298 345.723,-419.765 331,-408 290.966,-376.011 266.14,-319.99 254.003,-286.061"/>
<polygon fill="black" stroke="black" points="256.971,-285.003 251.052,-277.527 251.017,-287.062 256.971,-285.003"/>
</g>
<!-- m_Subscription -->
<g id="node9" class="node"><title>m_Subscription</title>
<path fill="none" stroke="black" d="M358,-238.5C358,-238.5 478,-238.5 478,-238.5 484,-238.5 490,-244.5 490,-250.5 490,-250.5 490,-262.5 490,-262.5 490,-268.5 484,-274.5 478,-274.5 478,-274.5 358,-274.5 358,-274.5 352,-274.5 346,-268.5 346,-262.5 346,-262.5 346,-250.5 346,-250.5 346,-244.5 352,-238.5 358,-238.5"/>
<text text-anchor="start" x="385.734" y="-252.7" font-family="Arial BoldMT" font-size="11.00">Subscription</text>
</g>
<!-- m_Rubygem&#45;&gt;m_Subscription -->
<g id="edge11" class="edge"><title>m_Rubygem&#45;&gt;m_Subscription</title>
<path fill="none" stroke="black" d="M698.875,-519.332C640.801,-497.813 559.913,-461.052 504,-408 466.086,-372.027 440.034,-315.597 427.199,-283.023"/>
<polygon fill="black" stroke="black" points="430.096,-281.779 423.93,-274.504 424.214,-284.036 430.096,-281.779"/>
</g>
<!-- m_User -->
<g id="node10" class="node"><title>m_User</title>
<path fill="none" stroke="black" d="M264.5,-444.5C264.5,-444.5 399.5,-444.5 399.5,-444.5 405.5,-444.5 411.5,-450.5 411.5,-456.5 411.5,-456.5 411.5,-630.5 411.5,-630.5 411.5,-636.5 405.5,-642.5 399.5,-642.5 399.5,-642.5 264.5,-642.5 264.5,-642.5 258.5,-642.5 252.5,-636.5 252.5,-630.5 252.5,-630.5 252.5,-456.5 252.5,-456.5 252.5,-450.5 258.5,-444.5 264.5,-444.5"/>
<text text-anchor="start" x="318.388" y="-629.2" font-family="Arial BoldMT" font-size="11.00">User</text>
<polyline fill="none" stroke="black" points="252.5,-623.5 411.5,-623.5 "/>
<text text-anchor="start" x="260" y="-610" font-family="ArialMT" font-size="10.00">api_key </text>
<text text-anchor="start" x="297.246" y="-610" font-family="Arial ItalicMT" font-size="10.00" fill="#999999">string</text>
<text text-anchor="start" x="260" y="-597" font-family="ArialMT" font-size="10.00">confirmation_token </text>
<text text-anchor="start" x="347.271" y="-597" font-family="Arial ItalicMT" font-size="10.00" fill="#999999">string (128)</text>
<text text-anchor="start" x="260" y="-584" font-family="ArialMT" font-size="10.00">email </text>
<text text-anchor="start" x="286.675" y="-584" font-family="Arial ItalicMT" font-size="10.00" fill="#999999">string ∗ U</text>
<text text-anchor="start" x="260" y="-571" font-family="ArialMT" font-size="10.00">email_confirmed </text>
<text text-anchor="start" x="336.143" y="-571" font-family="Arial ItalicMT" font-size="10.00" fill="#999999">boolean ∗</text>
<text text-anchor="start" x="260" y="-558" font-family="ArialMT" font-size="10.00">email_reset </text>
<text text-anchor="start" x="314.468" y="-558" font-family="Arial ItalicMT" font-size="10.00" fill="#999999">boolean</text>
<text text-anchor="start" x="259.685" y="-545" font-family="ArialMT" font-size="10.00">encrypted_password </text>
<text text-anchor="start" x="354.739" y="-545" font-family="Arial ItalicMT" font-size="10.00" fill="#999999">string (128)</text>
<text text-anchor="start" x="260" y="-532" font-family="ArialMT" font-size="10.00">handle </text>
<text text-anchor="start" x="292.808" y="-532" font-family="Arial ItalicMT" font-size="10.00" fill="#999999">string U</text>
<text text-anchor="start" x="260" y="-519" font-family="ArialMT" font-size="10.00">hide_email </text>
<text text-anchor="start" x="311.143" y="-519" font-family="Arial ItalicMT" font-size="10.00" fill="#999999">boolean</text>
<text text-anchor="start" x="260" y="-506" font-family="ArialMT" font-size="10.00">remember_token </text>
<text text-anchor="start" x="338.369" y="-506" font-family="Arial ItalicMT" font-size="10.00" fill="#999999">string (128)</text>
<text text-anchor="start" x="260" y="-493" font-family="ArialMT" font-size="10.00">salt </text>
<text text-anchor="start" x="278.34" y="-493" font-family="Arial ItalicMT" font-size="10.00" fill="#999999">string (128)</text>
<text text-anchor="start" x="260" y="-480" font-family="ArialMT" font-size="10.00">token </text>
<text text-anchor="start" x="287.241" y="-480" font-family="Arial ItalicMT" font-size="10.00" fill="#999999">string (128)</text>
<text text-anchor="start" x="260" y="-467" font-family="ArialMT" font-size="10.00">token_expires_at </text>
<text text-anchor="start" x="338.94" y="-467" font-family="Arial ItalicMT" font-size="10.00" fill="#999999">datetime</text>
<text text-anchor="start" x="260" y="-454" font-family="ArialMT" font-size="10.00">twitter_username </text>
<text text-anchor="start" x="339.478" y="-454" font-family="Arial ItalicMT" font-size="10.00" fill="#999999">string</text>
</g>
<!-- m_Rubygem&#45;&gt;m_User -->
<g id="edge9" class="edge"><title>m_Rubygem&#45;&gt;m_User</title>
<path fill="none" stroke="black" stroke-dasharray="1,5" d="M725.742,-515.899C623.937,-460.949 522.131,-454.158 420.326,-495.526"/>
<polygon fill="black" stroke="black" points="418.82,-492.742 411.74,-499.129 421.258,-498.551 418.82,-492.742"/>
</g>
<!-- m_Rubygem&#45;&gt;m_User -->
<g id="edge10" class="edge"><title>m_Rubygem&#45;&gt;m_User</title>
<path fill="none" stroke="black" stroke-dasharray="1,5" d="M725.742,-571.101C623.937,-626.051 522.131,-632.842 420.326,-591.474"/>
<polygon fill="black" stroke="black" points="421.258,-588.449 411.74,-587.871 418.82,-594.258 421.258,-588.449"/>
</g>
<!-- m_Version -->
<g id="node11" class="node"><title>m_Version</title>
<path fill="none" stroke="black" d="M763.5,-105.5C763.5,-105.5 904.5,-105.5 904.5,-105.5 910.5,-105.5 916.5,-111.5 916.5,-117.5 916.5,-117.5 916.5,-395.5 916.5,-395.5 916.5,-401.5 910.5,-407.5 904.5,-407.5 904.5,-407.5 763.5,-407.5 763.5,-407.5 757.5,-407.5 751.5,-401.5 751.5,-395.5 751.5,-395.5 751.5,-117.5 751.5,-117.5 751.5,-111.5 757.5,-105.5 763.5,-105.5"/>
<text text-anchor="start" x="813.652" y="-394.2" font-family="Arial BoldMT" font-size="11.00">Version</text>
<polyline fill="none" stroke="black" points="751.5,-388.5 916.5,-388.5 "/>
<text text-anchor="start" x="759" y="-375" font-family="ArialMT" font-size="10.00">authors </text>
<text text-anchor="start" x="795.133" y="-375" font-family="Arial ItalicMT" font-size="10.00" fill="#999999">string</text>
<text text-anchor="start" x="759" y="-362" font-family="ArialMT" font-size="10.00">built_at </text>
<text text-anchor="start" x="794.024" y="-362" font-family="Arial ItalicMT" font-size="10.00" fill="#999999">datetime</text>
<text text-anchor="start" x="759" y="-349" font-family="ArialMT" font-size="10.00">description </text>
<text text-anchor="start" x="810.138" y="-349" font-family="Arial ItalicMT" font-size="10.00" fill="#999999">text</text>
<text text-anchor="start" x="759" y="-336" font-family="ArialMT" font-size="10.00">full_name </text>
<text text-anchor="start" x="805.138" y="-336" font-family="Arial ItalicMT" font-size="10.00" fill="#999999">string ∗ U</text>
<text text-anchor="start" x="759" y="-323" font-family="ArialMT" font-size="10.00">indexed </text>
<text text-anchor="start" x="796.808" y="-323" font-family="Arial ItalicMT" font-size="10.00" fill="#999999">boolean</text>
<text text-anchor="start" x="759" y="-310" font-family="ArialMT" font-size="10.00">info_checksum </text>
<text text-anchor="start" x="828.478" y="-310" font-family="Arial ItalicMT" font-size="10.00" fill="#999999">string</text>
<text text-anchor="start" x="759" y="-297" font-family="ArialMT" font-size="10.00">latest </text>
<text text-anchor="start" x="785.68" y="-297" font-family="Arial ItalicMT" font-size="10.00" fill="#999999">boolean</text>
<text text-anchor="start" x="759" y="-284" font-family="ArialMT" font-size="10.00">licenses </text>
<text text-anchor="start" x="797.906" y="-284" font-family="Arial ItalicMT" font-size="10.00" fill="#999999">string</text>
<text text-anchor="start" x="759" y="-271" font-family="ArialMT" font-size="10.00">metadata </text>
<text text-anchor="start" x="803.473" y="-271" font-family="Arial ItalicMT" font-size="10.00" fill="#999999">hstore ∗</text>
<text text-anchor="start" x="759" y="-258" font-family="ArialMT" font-size="10.00">number </text>
<text text-anchor="start" x="795.685" y="-258" font-family="Arial ItalicMT" font-size="10.00" fill="#999999">string</text>
<text text-anchor="start" x="759" y="-245" font-family="ArialMT" font-size="10.00">platform </text>
<text text-anchor="start" x="797.901" y="-245" font-family="Arial ItalicMT" font-size="10.00" fill="#999999">string</text>
<text text-anchor="start" x="759" y="-232" font-family="ArialMT" font-size="10.00">position </text>
<text text-anchor="start" x="796.246" y="-232" font-family="Arial ItalicMT" font-size="10.00" fill="#999999">integer</text>
<text text-anchor="start" x="759" y="-219" font-family="ArialMT" font-size="10.00">prerelease </text>
<text text-anchor="start" x="809.029" y="-219" font-family="Arial ItalicMT" font-size="10.00" fill="#999999">boolean</text>
<text text-anchor="start" x="759" y="-206" font-family="ArialMT" font-size="10.00">required_ruby_version </text>
<text text-anchor="start" x="861.28" y="-206" font-family="Arial ItalicMT" font-size="10.00" fill="#999999">string</text>
<text text-anchor="start" x="758.907" y="-193" font-family="ArialMT" font-size="10.00">required_rubygems_version </text>
<text text-anchor="start" x="885.64" y="-193" font-family="Arial ItalicMT" font-size="10.00" fill="#999999">string</text>
<text text-anchor="start" x="759" y="-180" font-family="ArialMT" font-size="10.00">requirements </text>
<text text-anchor="start" x="820.138" y="-180" font-family="Arial ItalicMT" font-size="10.00" fill="#999999">text</text>
<text text-anchor="start" x="759" y="-167" font-family="ArialMT" font-size="10.00">sha256 </text>
<text text-anchor="start" x="794.586" y="-167" font-family="Arial ItalicMT" font-size="10.00" fill="#999999">string</text>
<text text-anchor="start" x="759" y="-154" font-family="ArialMT" font-size="10.00">size </text>
<text text-anchor="start" x="779.562" y="-154" font-family="Arial ItalicMT" font-size="10.00" fill="#999999">integer</text>
<text text-anchor="start" x="759" y="-141" font-family="ArialMT" font-size="10.00">summary </text>
<text text-anchor="start" x="802.892" y="-141" font-family="Arial ItalicMT" font-size="10.00" fill="#999999">text</text>
<text text-anchor="start" x="759" y="-128" font-family="ArialMT" font-size="10.00">yanked_at </text>
<text text-anchor="start" x="807.926" y="-128" font-family="Arial ItalicMT" font-size="10.00" fill="#999999">datetime</text>
<text text-anchor="start" x="759" y="-115" font-family="ArialMT" font-size="10.00">yanked_info_checksum </text>
<text text-anchor="start" x="866.285" y="-115" font-family="Arial ItalicMT" font-size="10.00" fill="#999999">string</text>
</g>
<!-- m_Rubygem&#45;&gt;m_Version -->
<g id="edge12" class="edge"><title>m_Rubygem&#45;&gt;m_Version</title>
<path fill="none" stroke="black" d="M776.87,-515.944C782.102,-492.277 790.226,-455.524 798.722,-417.089"/>
<polygon fill="black" stroke="black" points="801.905,-417.286 800.772,-407.819 795.753,-415.926 801.905,-417.286"/>
</g>
<!-- m_WebHook -->
<g id="node12" class="node"><title>m_WebHook</title>
<path fill="none" stroke="black" d="M531,-229C531,-229 651,-229 651,-229 657,-229 663,-235 663,-241 663,-241 663,-272 663,-272 663,-278 657,-284 651,-284 651,-284 531,-284 531,-284 525,-284 519,-278 519,-272 519,-272 519,-241 519,-241 519,-235 525,-229 531,-229"/>
<text text-anchor="start" x="564.948" y="-270.7" font-family="Arial BoldMT" font-size="11.00">WebHook</text>
<polyline fill="none" stroke="black" points="519,-265 663,-265 "/>
<text text-anchor="start" x="526" y="-252" font-family="ArialMT" font-size="10.00">failure_count </text>
<text text-anchor="start" x="586.039" y="-252" font-family="Arial ItalicMT" font-size="10.00" fill="#999999">integer</text>
<text text-anchor="start" x="526" y="-239" font-family="ArialMT" font-size="10.00">url </text>
<text text-anchor="start" x="539.892" y="-239" font-family="Arial ItalicMT" font-size="10.00" fill="#999999">string</text>
</g>
<!-- m_Rubygem&#45;&gt;m_WebHook -->
<g id="edge13" class="edge"><title>m_Rubygem&#45;&gt;m_WebHook</title>
<path fill="none" stroke="black" d="M753.784,-515.758C736.362,-488.654 708.691,-445.487 685,-408 659.921,-368.317 631.393,-322.551 612.407,-292.005"/>
<polygon fill="black" stroke="black" points="614.981,-290.178 607.555,-284.196 609.629,-293.503 614.981,-290.178"/>
</g>
<!-- m_User&#45;&gt;m_Deletion -->
<g id="edge1" class="edge"><title>m_User&#45;&gt;m_Deletion</title>
<path fill="none" stroke="black" d="M252.237,-455.713C247.235,-451.573 242.14,-447.635 237,-444 205.497,-421.721 186.504,-434.006 158,-408 125.144,-378.023 101.562,-332.498 87.4955,-299.368"/>
<polygon fill="black" stroke="black" points="90.3038,-297.916 83.9528,-290.803 84.4821,-300.324 90.3038,-297.916"/>
</g>
<!-- m_User&#45;&gt;m_Ownership -->
<g id="edge8" class="edge"><title>m_User&#45;&gt;m_Ownership</title>
<path fill="none" stroke="black" d="M302.06,-444.419C285.067,-388.755 265.008,-323.044 253.77,-286.231"/>
<polygon fill="black" stroke="black" points="256.751,-285.206 251.111,-277.518 250.726,-287.045 256.751,-285.206"/>
</g>
<!-- m_User&#45;&gt;m_Subscription -->
<g id="edge14" class="edge"><title>m_User&#45;&gt;m_Subscription</title>
<path fill="none" stroke="black" d="M361.596,-444.419C378.813,-387.365 399.214,-319.756 410.146,-283.527"/>
<polygon fill="black" stroke="black" points="413.257,-284.123 412.841,-274.597 407.225,-282.303 413.257,-284.123"/>
</g>
<!-- m_User&#45;&gt;m_WebHook -->
<g id="edge15" class="edge"><title>m_User&#45;&gt;m_WebHook</title>
<path fill="none" stroke="black" d="M411.929,-489.957C442.974,-467.129 477.388,-438.61 504,-408 534.81,-372.561 560.307,-324.605 575.567,-292.438"/>
<polygon fill="black" stroke="black" points="578.454,-293.701 579.41,-284.213 572.746,-291.034 578.454,-293.701"/>
</g>
<!-- m_Version&#45;&gt;m_Dependency -->
<g id="edge3" class="edge"><title>m_Version&#45;&gt;m_Dependency</title>
<path fill="none" stroke="black" d="M802.618,-105.412C800.546,-95.5024 798.579,-86.0959 796.799,-77.5814"/>
<polygon fill="black" stroke="black" points="799.869,-76.8755 794.944,-68.7108 793.703,-78.165 799.869,-76.8755"/>
</g>
<!-- m_Version&#45;&gt;m_GemDownload -->
<g id="edge5" class="edge"><title>m_Version&#45;&gt;m_GemDownload</title>
<path fill="none" stroke="black" d="M916.582,-112.445C929.468,-90.1223 941.199,-69.8015 949.365,-55.6557"/>
</g>
</g>
</svg>
