<?xml version="1.0" encoding="UTF-8" standalone="no"?>
<!DOCTYPE svg PUBLIC "-//W3C//DTD SVG 1.1//EN"
 "http://www.w3.org/Graphics/SVG/1.1/DTD/svg11.dtd">
<!-- Generated by graphviz version 3.0.0 (20220226.1711)
 -->
<!-- Title: Gemcutter Pages: 1 -->
<svg width="3696pt" height="798pt"
 viewBox="0.00 0.00 3695.79 797.60" xmlns="http://www.w3.org/2000/svg" xmlns:xlink="http://www.w3.org/1999/xlink">
<g id="graph0" class="graph" transform="scale(1 1) rotate(0) translate(28.8 768.8)">
<title>Gemcutter</title>
<polygon fill="white" stroke="transparent" points="-28.8,28.8 -28.8,-768.8 3666.99,-768.8 3666.99,28.8 -28.8,28.8"/>
<text text-anchor="middle" x="1819.09" y="-725.6" font-family="Arial BoldMT" font-size="13.00">RubyGems.org domain model</text>
<!-- m_ApiKey -->
<g id="node1" class="node">
<title>m_ApiKey</title>
<path fill="none" stroke="black" d="M94.69,-164.5C94.69,-164.5 369.69,-164.5 369.69,-164.5 375.69,-164.5 381.69,-170.5 381.69,-176.5 381.69,-176.5 381.69,-305.5 381.69,-305.5 381.69,-311.5 375.69,-317.5 369.69,-317.5 369.69,-317.5 94.69,-317.5 94.69,-317.5 88.69,-317.5 82.69,-311.5 82.69,-305.5 82.69,-305.5 82.69,-176.5 82.69,-176.5 82.69,-170.5 88.69,-164.5 94.69,-164.5"/>
<text text-anchor="start" x="135.19" y="-238.2" font-family="Arial BoldMT" font-size="11.00">ApiKey</text>
<polyline fill="none" stroke="black" points="226.69,-164.5 226.69,-317.5 "/>
<text text-anchor="start" x="234.19" y="-304" font-family="ArialMT" font-size="10.00">access_webhooks </text>
<text text-anchor="start" x="319.19" y="-304" font-family="Arial ItalicMT" font-size="10.00" fill="#999999">boolean ∗</text>
<text text-anchor="start" x="234.19" y="-291" font-family="ArialMT" font-size="10.00">add_owner </text>
<text text-anchor="start" x="285.19" y="-291" font-family="Arial ItalicMT" font-size="10.00" fill="#999999">boolean ∗</text>
<text text-anchor="start" x="234.19" y="-278" font-family="ArialMT" font-size="10.00">hashed_key </text>
<text text-anchor="start" x="290.19" y="-278" font-family="Arial ItalicMT" font-size="10.00" fill="#999999">string ∗</text>
<text text-anchor="start" x="234.19" y="-265" font-family="ArialMT" font-size="10.00">index_rubygems </text>
<text text-anchor="start" x="309.19" y="-265" font-family="Arial ItalicMT" font-size="10.00" fill="#999999">boolean ∗</text>
<text text-anchor="start" x="234.19" y="-252" font-family="ArialMT" font-size="10.00">last_accessed_at </text>
<text text-anchor="start" x="314.19" y="-252" font-family="Arial ItalicMT" font-size="10.00" fill="#999999">datetime (6,0)</text>
<text text-anchor="start" x="234.19" y="-239" font-family="ArialMT" font-size="10.00">mfa </text>
<text text-anchor="start" x="254.19" y="-239" font-family="Arial ItalicMT" font-size="10.00" fill="#999999">boolean ∗</text>
<text text-anchor="start" x="234.19" y="-226" font-family="ArialMT" font-size="10.00">name </text>
<text text-anchor="start" x="262.19" y="-226" font-family="Arial ItalicMT" font-size="10.00" fill="#999999">string ∗</text>
<text text-anchor="start" x="234.19" y="-213" font-family="ArialMT" font-size="10.00">push_rubygem </text>
<text text-anchor="start" x="301.19" y="-213" font-family="Arial ItalicMT" font-size="10.00" fill="#999999">boolean ∗</text>
<text text-anchor="start" x="234.19" y="-200" font-family="ArialMT" font-size="10.00">remove_owner </text>
<text text-anchor="start" x="301.19" y="-200" font-family="Arial ItalicMT" font-size="10.00" fill="#999999">boolean ∗</text>
<text text-anchor="start" x="234.19" y="-187" font-family="ArialMT" font-size="10.00">show_dashboard </text>
<text text-anchor="start" x="311.19" y="-187" font-family="Arial ItalicMT" font-size="10.00" fill="#999999">boolean ∗</text>
<text text-anchor="start" x="234.19" y="-174" font-family="ArialMT" font-size="10.00">yank_rubygem </text>
<text text-anchor="start" x="301.19" y="-174" font-family="Arial ItalicMT" font-size="10.00" fill="#999999">boolean ∗</text>
</g>
<!-- m_Delayed::Backend::ActiveRecord::Job -->
<g id="node2" class="node">
<title>m_Delayed::Backend::ActiveRecord::Job</title>
<path fill="none" stroke="black" d="M1988.19,-504C1988.19,-504 2300.19,-504 2300.19,-504 2306.19,-504 2312.19,-510 2312.19,-516 2312.19,-516 2312.19,-619 2312.19,-619 2312.19,-625 2306.19,-631 2300.19,-631 2300.19,-631 1988.19,-631 1988.19,-631 1982.19,-631 1976.19,-625 1976.19,-619 1976.19,-619 1976.19,-516 1976.19,-516 1976.19,-510 1982.19,-504 1988.19,-504"/>
<text text-anchor="start" x="1981.19" y="-564.7" font-family="Arial BoldMT" font-size="11.00">Delayed::Backend::ActiveRecord::Job</text>
<polyline fill="none" stroke="black" points="2168.19,-504 2168.19,-631 "/>
<text text-anchor="start" x="2175.19" y="-617.5" font-family="ArialMT" font-size="10.00">attempts </text>
<text text-anchor="start" x="2217.19" y="-617.5" font-family="Arial ItalicMT" font-size="10.00" fill="#999999">integer</text>
<text text-anchor="start" x="2175.19" y="-604.5" font-family="ArialMT" font-size="10.00">failed_at </text>
<text text-anchor="start" x="2215.19" y="-604.5" font-family="Arial ItalicMT" font-size="10.00" fill="#999999">datetime (6,0)</text>
<text text-anchor="start" x="2175.19" y="-591.5" font-family="ArialMT" font-size="10.00">handler </text>
<text text-anchor="start" x="2210.19" y="-591.5" font-family="Arial ItalicMT" font-size="10.00" fill="#999999">text</text>
<text text-anchor="start" x="2175.19" y="-578.5" font-family="ArialMT" font-size="10.00">last_error </text>
<text text-anchor="start" x="2219.19" y="-578.5" font-family="Arial ItalicMT" font-size="10.00" fill="#999999">text</text>
<text text-anchor="start" x="2175.19" y="-565.5" font-family="ArialMT" font-size="10.00">locked_at </text>
<text text-anchor="start" x="2221.19" y="-565.5" font-family="Arial ItalicMT" font-size="10.00" fill="#999999">datetime (6,0)</text>
<text text-anchor="start" x="2175.19" y="-552.5" font-family="ArialMT" font-size="10.00">locked_by </text>
<text text-anchor="start" x="2223.19" y="-552.5" font-family="Arial ItalicMT" font-size="10.00" fill="#999999">string</text>
<text text-anchor="start" x="2175.19" y="-539.5" font-family="ArialMT" font-size="10.00">priority </text>
<text text-anchor="start" x="2208.19" y="-539.5" font-family="Arial ItalicMT" font-size="10.00" fill="#999999">integer</text>
<text text-anchor="start" x="2175.19" y="-526.5" font-family="ArialMT" font-size="10.00">queue </text>
<text text-anchor="start" x="2205.19" y="-526.5" font-family="Arial ItalicMT" font-size="10.00" fill="#999999">string</text>
<text text-anchor="start" x="2175.19" y="-513.5" font-family="ArialMT" font-size="10.00">run_at </text>
<text text-anchor="start" x="2206.19" y="-513.5" font-family="Arial ItalicMT" font-size="10.00" fill="#999999">datetime (6,0)</text>
</g>
<!-- m_Deletion -->
<g id="node3" class="node">
<title>m_Deletion</title>
<path fill="none" stroke="black" d="M423.19,-216.5C423.19,-216.5 687.19,-216.5 687.19,-216.5 693.19,-216.5 699.19,-222.5 699.19,-228.5 699.19,-228.5 699.19,-253.5 699.19,-253.5 699.19,-259.5 693.19,-265.5 687.19,-265.5 687.19,-265.5 423.19,-265.5 423.19,-265.5 417.19,-265.5 411.19,-259.5 411.19,-253.5 411.19,-253.5 411.19,-228.5 411.19,-228.5 411.19,-222.5 417.19,-216.5 423.19,-216.5"/>
<text text-anchor="start" x="461.19" y="-238.2" font-family="Arial BoldMT" font-size="11.00">Deletion</text>
<polyline fill="none" stroke="black" points="555.19,-216.5 555.19,-265.5 "/>
<text text-anchor="start" x="562.19" y="-252" font-family="ArialMT" font-size="10.00">number </text>
<text text-anchor="start" x="598.19" y="-252" font-family="Arial ItalicMT" font-size="10.00" fill="#999999">string ∗</text>
<text text-anchor="start" x="562.19" y="-239" font-family="ArialMT" font-size="10.00">platform </text>
<text text-anchor="start" x="601.19" y="-239" font-family="Arial ItalicMT" font-size="10.00" fill="#999999">string</text>
<text text-anchor="start" x="562.19" y="-226" font-family="ArialMT" font-size="10.00">rubygem </text>
<text text-anchor="start" x="603.19" y="-226" font-family="Arial ItalicMT" font-size="10.00" fill="#999999">string ∗</text>
</g>
<!-- m_Dependency -->
<g id="node4" class="node">
<title>m_Dependency</title>
<path fill="none" stroke="black" d="M1869.19,-0.5C1869.19,-0.5 2133.19,-0.5 2133.19,-0.5 2139.19,-0.5 2145.19,-6.5 2145.19,-12.5 2145.19,-12.5 2145.19,-37.5 2145.19,-37.5 2145.19,-43.5 2139.19,-49.5 2133.19,-49.5 2133.19,-49.5 1869.19,-49.5 1869.19,-49.5 1863.19,-49.5 1857.19,-43.5 1857.19,-37.5 1857.19,-37.5 1857.19,-12.5 1857.19,-12.5 1857.19,-6.5 1863.19,-0.5 1869.19,-0.5"/>
<text text-anchor="start" x="1896.69" y="-22.2" font-family="Arial BoldMT" font-size="11.00">Dependency</text>
<polyline fill="none" stroke="black" points="2001.19,-0.5 2001.19,-49.5 "/>
<text text-anchor="start" x="2008.19" y="-36" font-family="ArialMT" font-size="10.00">requirements </text>
<text text-anchor="start" x="2068.19" y="-36" font-family="Arial ItalicMT" font-size="10.00" fill="#999999">string ∗</text>
<text text-anchor="start" x="2008.19" y="-23" font-family="ArialMT" font-size="10.00">scope </text>
<text text-anchor="start" x="2038.19" y="-23" font-family="Arial ItalicMT" font-size="10.00" fill="#999999">string</text>
<text text-anchor="start" x="2008.19" y="-10" font-family="ArialMT" font-size="10.00">unresolved_name </text>
<text text-anchor="start" x="2088.19" y="-10" font-family="Arial ItalicMT" font-size="10.00" fill="#999999">string</text>
</g>
<!-- m_GemDownload -->
<g id="node5" class="node">
<title>m_GemDownload</title>
<path fill="none" stroke="black" d="M2395.19,-7C2395.19,-7 2659.19,-7 2659.19,-7 2665.19,-7 2671.19,-13 2671.19,-19 2671.19,-19 2671.19,-31 2671.19,-31 2671.19,-37 2665.19,-43 2659.19,-43 2659.19,-43 2395.19,-43 2395.19,-43 2389.19,-43 2383.19,-37 2383.19,-31 2383.19,-31 2383.19,-19 2383.19,-19 2383.19,-13 2389.19,-7 2395.19,-7"/>
<text text-anchor="start" x="2416.69" y="-22.2" font-family="Arial BoldMT" font-size="11.00">GemDownload</text>
<polyline fill="none" stroke="black" points="2527.19,-7 2527.19,-43 "/>
<text text-anchor="start" x="2534.19" y="-23" font-family="ArialMT" font-size="10.00">count </text>
<text text-anchor="start" x="2562.19" y="-23" font-family="Arial ItalicMT" font-size="10.00" fill="#999999">integer (8)</text>
</g>
<!-- m_GemTypoException -->
<g id="node6" class="node">
<title>m_GemTypoException</title>
<path fill="none" stroke="black" d="M2353.19,-549.5C2353.19,-549.5 2617.19,-549.5 2617.19,-549.5 2623.19,-549.5 2629.19,-555.5 2629.19,-561.5 2629.19,-561.5 2629.19,-573.5 2629.19,-573.5 2629.19,-579.5 2623.19,-585.5 2617.19,-585.5 2617.19,-585.5 2353.19,-585.5 2353.19,-585.5 2347.19,-585.5 2341.19,-579.5 2341.19,-573.5 2341.19,-573.5 2341.19,-561.5 2341.19,-561.5 2341.19,-555.5 2347.19,-549.5 2353.19,-549.5"/>
<text text-anchor="start" x="2363.69" y="-564.7" font-family="Arial BoldMT" font-size="11.00">GemTypoException</text>
<polyline fill="none" stroke="black" points="2485.19,-549.5 2485.19,-585.5 "/>
<text text-anchor="start" x="2492.19" y="-572.5" font-family="ArialMT" font-size="10.00">info </text>
<text text-anchor="start" x="2511.19" y="-572.5" font-family="Arial ItalicMT" font-size="10.00" fill="#999999">text</text>
<text text-anchor="start" x="2492.19" y="-559.5" font-family="ArialMT" font-size="10.00">name </text>
<text text-anchor="start" x="2520.19" y="-559.5" font-family="Arial ItalicMT" font-size="10.00" fill="#999999">string ∗ U</text>
</g>
<!-- m_Linkset -->
<g id="node7" class="node">
<title>m_Linkset</title>
<path fill="none" stroke="black" d="M2312.19,-197C2312.19,-197 2576.19,-197 2576.19,-197 2582.19,-197 2588.19,-203 2588.19,-209 2588.19,-209 2588.19,-273 2588.19,-273 2588.19,-279 2582.19,-285 2576.19,-285 2576.19,-285 2312.19,-285 2312.19,-285 2306.19,-285 2300.19,-279 2300.19,-273 2300.19,-273 2300.19,-209 2300.19,-209 2300.19,-203 2306.19,-197 2312.19,-197"/>
<text text-anchor="start" x="2353.19" y="-238.2" font-family="Arial BoldMT" font-size="11.00">Linkset</text>
<polyline fill="none" stroke="black" points="2444.19,-197 2444.19,-285 "/>
<text text-anchor="start" x="2451.19" y="-272" font-family="ArialMT" font-size="10.00">bugs </text>
<text text-anchor="start" x="2476.19" y="-272" font-family="Arial ItalicMT" font-size="10.00" fill="#999999">string</text>
<text text-anchor="start" x="2451.19" y="-259" font-family="ArialMT" font-size="10.00">code </text>
<text text-anchor="start" x="2476.19" y="-259" font-family="Arial ItalicMT" font-size="10.00" fill="#999999">string</text>
<text text-anchor="start" x="2451.19" y="-246" font-family="ArialMT" font-size="10.00">docs </text>
<text text-anchor="start" x="2476.19" y="-246" font-family="Arial ItalicMT" font-size="10.00" fill="#999999">string</text>
<text text-anchor="start" x="2451.19" y="-233" font-family="ArialMT" font-size="10.00">home </text>
<text text-anchor="start" x="2479.19" y="-233" font-family="Arial ItalicMT" font-size="10.00" fill="#999999">string</text>
<text text-anchor="start" x="2451.19" y="-220" font-family="ArialMT" font-size="10.00">mail </text>
<text text-anchor="start" x="2473.19" y="-220" font-family="Arial ItalicMT" font-size="10.00" fill="#999999">string</text>
<text text-anchor="start" x="2451.19" y="-207" font-family="ArialMT" font-size="10.00">wiki </text>
<text text-anchor="start" x="2472.19" y="-207" font-family="Arial ItalicMT" font-size="10.00" fill="#999999">string</text>
</g>
<!-- m_LogTicket -->
<g id="node8" class="node">
<title>m_LogTicket</title>
<path fill="none" stroke="black" d="M2670.19,-530C2670.19,-530 2934.19,-530 2934.19,-530 2940.19,-530 2946.19,-536 2946.19,-542 2946.19,-542 2946.19,-593 2946.19,-593 2946.19,-599 2940.19,-605 2934.19,-605 2934.19,-605 2670.19,-605 2670.19,-605 2664.19,-605 2658.19,-599 2658.19,-593 2658.19,-593 2658.19,-542 2658.19,-542 2658.19,-536 2664.19,-530 2670.19,-530"/>
<text text-anchor="start" x="2704.69" y="-564.7" font-family="Arial BoldMT" font-size="11.00">LogTicket</text>
<polyline fill="none" stroke="black" points="2802.19,-530 2802.19,-605 "/>
<text text-anchor="start" x="2809.19" y="-591.5" font-family="ArialMT" font-size="10.00">backend </text>
<text text-anchor="start" x="2849.19" y="-591.5" font-family="Arial ItalicMT" font-size="10.00" fill="#999999">integer</text>
<text text-anchor="start" x="2809.19" y="-578.5" font-family="ArialMT" font-size="10.00">directory </text>
<text text-anchor="start" x="2850.19" y="-578.5" font-family="Arial ItalicMT" font-size="10.00" fill="#999999">string</text>
<text text-anchor="start" x="2809.19" y="-565.5" font-family="ArialMT" font-size="10.00">key </text>
<text text-anchor="start" x="2828.19" y="-565.5" font-family="Arial ItalicMT" font-size="10.00" fill="#999999">string</text>
<text text-anchor="start" x="2809.19" y="-552.5" font-family="ArialMT" font-size="10.00">processed_count </text>
<text text-anchor="start" x="2887.19" y="-552.5" font-family="Arial ItalicMT" font-size="10.00" fill="#999999">integer</text>
<text text-anchor="start" x="2809.19" y="-539.5" font-family="ArialMT" font-size="10.00">status </text>
<text text-anchor="start" x="2840.19" y="-539.5" font-family="Arial ItalicMT" font-size="10.00" fill="#999999">string</text>
</g>
<!-- m_Ownership -->
<g id="node9" class="node">
<title>m_Ownership</title>
<path fill="none" stroke="black" d="M1230.19,-197C1230.19,-197 1524.19,-197 1524.19,-197 1530.19,-197 1536.19,-203 1536.19,-209 1536.19,-209 1536.19,-273 1536.19,-273 1536.19,-279 1530.19,-285 1524.19,-285 1524.19,-285 1230.19,-285 1230.19,-285 1224.19,-285 1218.19,-279 1218.19,-273 1218.19,-273 1218.19,-209 1218.19,-209 1218.19,-203 1224.19,-197 1230.19,-197"/>
<text text-anchor="start" x="1262.19" y="-238.2" font-family="Arial BoldMT" font-size="11.00">Ownership</text>
<polyline fill="none" stroke="black" points="1362.19,-197 1362.19,-285 "/>
<text text-anchor="start" x="1369.19" y="-272" font-family="ArialMT" font-size="10.00">confirmed_at </text>
<text text-anchor="start" x="1429.19" y="-272" font-family="Arial ItalicMT" font-size="10.00" fill="#999999">datetime (6,0)</text>
<text text-anchor="start" x="1369.19" y="-259" font-family="ArialMT" font-size="10.00">owner_notifier </text>
<text text-anchor="start" x="1433.19" y="-259" font-family="Arial ItalicMT" font-size="10.00" fill="#999999">boolean ∗</text>
<text text-anchor="start" x="1369.19" y="-246" font-family="ArialMT" font-size="10.00">ownership_request_notifier </text>
<text text-anchor="start" x="1489.19" y="-246" font-family="Arial ItalicMT" font-size="10.00" fill="#999999">boolean ∗</text>
<text text-anchor="start" x="1369.19" y="-233" font-family="ArialMT" font-size="10.00">push_notifier </text>
<text text-anchor="start" x="1428.19" y="-233" font-family="Arial ItalicMT" font-size="10.00" fill="#999999">boolean ∗</text>
<text text-anchor="start" x="1369.19" y="-220" font-family="ArialMT" font-size="10.00">token </text>
<text text-anchor="start" x="1397.19" y="-220" font-family="Arial ItalicMT" font-size="10.00" fill="#999999">string</text>
<text text-anchor="start" x="1369.19" y="-207" font-family="ArialMT" font-size="10.00">token_expires_at </text>
<text text-anchor="start" x="1447.19" y="-207" font-family="Arial ItalicMT" font-size="10.00" fill="#999999">datetime (6,0)</text>
</g>
<!-- m_OwnershipCall -->
<g id="node10" class="node">
<title>m_OwnershipCall</title>
<path fill="none" stroke="black" d="M1577.19,-223C1577.19,-223 1841.19,-223 1841.19,-223 1847.19,-223 1853.19,-229 1853.19,-235 1853.19,-235 1853.19,-247 1853.19,-247 1853.19,-253 1847.19,-259 1841.19,-259 1841.19,-259 1577.19,-259 1577.19,-259 1571.19,-259 1565.19,-253 1565.19,-247 1565.19,-247 1565.19,-235 1565.19,-235 1565.19,-229 1571.19,-223 1577.19,-223"/>
<text text-anchor="start" x="1599.69" y="-238.2" font-family="Arial BoldMT" font-size="11.00">OwnershipCall</text>
<polyline fill="none" stroke="black" points="1709.19,-223 1709.19,-259 "/>
<text text-anchor="start" x="1716.19" y="-246" font-family="ArialMT" font-size="10.00">note </text>
<text text-anchor="start" x="1738.19" y="-246" font-family="Arial ItalicMT" font-size="10.00" fill="#999999">text ∗</text>
<text text-anchor="start" x="1716.19" y="-233" font-family="ArialMT" font-size="10.00">status </text>
<text text-anchor="start" x="1747.19" y="-233" font-family="Arial ItalicMT" font-size="10.00" fill="#999999">boolean ∗</text>
</g>
<!-- m_OwnershipRequest -->
<g id="node11" class="node">
<title>m_OwnershipRequest</title>
<path fill="none" stroke="black" d="M781.19,-7C781.19,-7 1045.19,-7 1045.19,-7 1051.19,-7 1057.19,-13 1057.19,-19 1057.19,-19 1057.19,-31 1057.19,-31 1057.19,-37 1051.19,-43 1045.19,-43 1045.19,-43 781.19,-43 781.19,-43 775.19,-43 769.19,-37 769.19,-31 769.19,-31 769.19,-19 769.19,-19 769.19,-13 775.19,-7 781.19,-7"/>
<text text-anchor="start" x="792.69" y="-22.2" font-family="Arial BoldMT" font-size="11.00">OwnershipRequest</text>
<polyline fill="none" stroke="black" points="913.19,-7 913.19,-43 "/>
<text text-anchor="start" x="920.19" y="-30" font-family="ArialMT" font-size="10.00">note </text>
<text text-anchor="start" x="942.19" y="-30" font-family="Arial ItalicMT" font-size="10.00" fill="#999999">text ∗</text>
<text text-anchor="start" x="920.19" y="-17" font-family="ArialMT" font-size="10.00">status </text>
<text text-anchor="start" x="951.19" y="-17" font-family="Arial ItalicMT" font-size="10.00" fill="#999999">integer (2) ∗</text>
</g>
<!-- m_OwnershipCall&#45;&gt;m_OwnershipRequest -->
<g id="edge17" class="edge">
<title>m_OwnershipCall&#45;&gt;m_OwnershipRequest</title>
<path fill="none" stroke="black" d="M1697.74,-222.77C1674.59,-189.55 1618.64,-117.19 1551.19,-86 1467.94,-47.5 1227.27,-33.7 1066.49,-28.76"/>
<polygon fill="black" stroke="black" points="1066.55,-25.61 1057.46,-28.49 1066.36,-31.91 1066.55,-25.61"/>
</g>
<!-- m_Rubygem -->
<g id="node12" class="node">
<title>m_Rubygem</title>
<path fill="none" stroke="black" d="M1671.19,-543C1671.19,-543 1935.19,-543 1935.19,-543 1941.19,-543 1947.19,-549 1947.19,-555 1947.19,-555 1947.19,-580 1947.19,-580 1947.19,-586 1941.19,-592 1935.19,-592 1935.19,-592 1671.19,-592 1671.19,-592 1665.19,-592 1659.19,-586 1659.19,-580 1659.19,-580 1659.19,-555 1659.19,-555 1659.19,-549 1665.19,-543 1671.19,-543"/>
<text text-anchor="start" x="1705.69" y="-564.7" font-family="Arial BoldMT" font-size="11.00">Rubygem</text>
<polyline fill="none" stroke="black" points="1803.19,-543 1803.19,-592 "/>
<text text-anchor="start" x="1810.19" y="-578.5" font-family="ArialMT" font-size="10.00">indexed </text>
<text text-anchor="start" x="1847.19" y="-578.5" font-family="Arial ItalicMT" font-size="10.00" fill="#999999">boolean ∗</text>
<text text-anchor="start" x="1810.19" y="-565.5" font-family="ArialMT" font-size="10.00">name </text>
<text text-anchor="start" x="1838.19" y="-565.5" font-family="Arial ItalicMT" font-size="10.00" fill="#999999">string ∗ U</text>
<text text-anchor="start" x="1810.19" y="-552.5" font-family="ArialMT" font-size="10.00">slug </text>
<text text-anchor="start" x="1832.19" y="-552.5" font-family="Arial ItalicMT" font-size="10.00" fill="#999999">string</text>
</g>
<!-- m_Rubygem&#45;&gt;m_Dependency -->
<g id="edge21" class="edge">
<title>m_Rubygem&#45;&gt;m_Dependency</title>
<path fill="none" stroke="black" d="M1897.19,-240C1868.94,-176.25 1891.28,-145.77 1927.19,-86 1934.18,-74.37 1944.29,-64.02 1954.8,-55.34"/>
<polygon fill="black" stroke="black" points="1956.98,-57.64 1962.11,-49.6 1953.09,-52.68 1956.98,-57.64"/>
</g>
<!-- m_Rubygem&#45;&gt;m_GemDownload -->
<g id="edge12" class="edge">
<title>m_Rubygem&#45;&gt;m_GemDownload</title>
<path fill="none" stroke="black" d="M1822.28,-542.75C1849.49,-510.91 1902.74,-455.68 1962.19,-432 2028.46,-405.6 2554.18,-447.84 2603.19,-396 2697.84,-295.88 2663.27,-209.99 2603.19,-86 2594.32,-67.7 2576.85,-53.29 2560.9,-43.19"/>
</g>
<!-- m_Rubygem&#45;&gt;m_Linkset -->
<g id="edge11" class="edge">
<title>m_Rubygem&#45;&gt;m_Linkset</title>
<path fill="none" stroke="black" d="M1822.71,-542.94C1850.2,-511.6 1903.57,-457.23 1962.19,-432 2095.27,-374.73 2155.2,-457.92 2286.19,-396 2338.83,-371.12 2384.66,-321.49 2413.21,-285.28"/>
</g>
<!-- m_Rubygem&#45;&gt;m_Ownership -->
<g id="edge1" class="edge">
<title>m_Rubygem&#45;&gt;m_Ownership</title>
<path fill="none" stroke="black" d="M1764.97,-542.84C1714.65,-511.19 1624.02,-452.49 1551.19,-396 1508.78,-363.11 1463.46,-322.81 1429.7,-291.69"/>
<polygon fill="black" stroke="black" points="1431.43,-289 1422.68,-285.2 1427.15,-293.62 1431.43,-289"/>
</g>
<!-- m_Rubygem&#45;&gt;m_OwnershipCall -->
<g id="edge13" class="edge">
<title>m_Rubygem&#45;&gt;m_OwnershipCall</title>
<path fill="none" stroke="black" d="M1796.35,-542.9C1779.23,-483.8 1734.62,-329.79 1716.75,-268.1"/>
<polygon fill="black" stroke="black" points="1719.75,-267.13 1714.22,-259.36 1713.69,-268.88 1719.75,-267.13"/>
</g>
<!-- m_Rubygem&#45;&gt;m_OwnershipRequest -->
<g id="edge14" class="edge">
<title>m_Rubygem&#45;&gt;m_OwnershipRequest</title>
<path fill="none" stroke="black" d="M1897.19,-240C1868.98,-176.32 1920.38,-132.12 1868.19,-86 1809.66,-34.28 1321.8,-26.17 1066.94,-25.51"/>
<polygon fill="black" stroke="black" points="1066.61,-22.36 1057.6,-25.49 1066.6,-28.66 1066.61,-22.36"/>
<path fill="none" stroke="black" d="M1820.95,-542.93C1859.76,-488.36 1944.94,-349.79 1897.19,-242"/>
</g>
<!-- m_Subscription -->
<g id="node14" class="node">
<title>m_Subscription</title>
<path fill="none" stroke="black" d="M740.19,-223C740.19,-223 860.19,-223 860.19,-223 866.19,-223 872.19,-229 872.19,-235 872.19,-235 872.19,-247 872.19,-247 872.19,-253 866.19,-259 860.19,-259 860.19,-259 740.19,-259 740.19,-259 734.19,-259 728.19,-253 728.19,-247 728.19,-247 728.19,-235 728.19,-235 728.19,-229 734.19,-223 740.19,-223"/>
<text text-anchor="start" x="768.19" y="-238.2" font-family="Arial BoldMT" font-size="11.00">Subscription</text>
</g>
<!-- m_Rubygem&#45;&gt;m_Subscription -->
<g id="edge3" class="edge">
<title>m_Rubygem&#45;&gt;m_Subscription</title>
<path fill="none" stroke="black" d="M1688.31,-542.98C1551.18,-515.18 1314.84,-468.15 1111.19,-432 1011.91,-414.38 969.95,-453.59 887.19,-396 842.53,-364.92 818.02,-303.1 807.15,-267.98"/>
<polygon fill="black" stroke="black" points="810.14,-266.97 804.56,-259.24 804.1,-268.76 810.14,-266.97"/>
</g>
<!-- m_User -->
<g id="node15" class="node">
<title>m_User</title>
<path fill="none" stroke="black" d="M762.19,-432.5C762.19,-432.5 1084.19,-432.5 1084.19,-432.5 1090.19,-432.5 1096.19,-438.5 1096.19,-444.5 1096.19,-444.5 1096.19,-690.5 1096.19,-690.5 1096.19,-696.5 1090.19,-702.5 1084.19,-702.5 1084.19,-702.5 762.19,-702.5 762.19,-702.5 756.19,-702.5 750.19,-696.5 750.19,-690.5 750.19,-690.5 750.19,-444.5 750.19,-444.5 750.19,-438.5 756.19,-432.5 762.19,-432.5"/>
<text text-anchor="start" x="808.19" y="-564.7" font-family="Arial BoldMT" font-size="11.00">User</text>
<polyline fill="none" stroke="black" points="894.19,-432.5 894.19,-702.5 "/>
<text text-anchor="start" x="901.19" y="-689.5" font-family="ArialMT" font-size="10.00">api_key </text>
<text text-anchor="start" x="938.19" y="-689.5" font-family="Arial ItalicMT" font-size="10.00" fill="#999999">string</text>
<text text-anchor="start" x="901.19" y="-676.5" font-family="ArialMT" font-size="10.00">blocked_email </text>
<text text-anchor="start" x="967.19" y="-676.5" font-family="Arial ItalicMT" font-size="10.00" fill="#999999">string</text>
<text text-anchor="start" x="901.19" y="-663.5" font-family="ArialMT" font-size="10.00">confirmation_token </text>
<text text-anchor="start" x="987.19" y="-663.5" font-family="Arial ItalicMT" font-size="10.00" fill="#999999">string (128)</text>
<text text-anchor="start" x="901.19" y="-650.5" font-family="ArialMT" font-size="10.00">email </text>
<text text-anchor="start" x="928.19" y="-650.5" font-family="Arial ItalicMT" font-size="10.00" fill="#999999">string ∗ U</text>
<text text-anchor="start" x="901.19" y="-637.5" font-family="ArialMT" font-size="10.00">email_confirmed </text>
<text text-anchor="start" x="976.19" y="-637.5" font-family="Arial ItalicMT" font-size="10.00" fill="#999999">boolean ∗</text>
<text text-anchor="start" x="901.19" y="-624.5" font-family="ArialMT" font-size="10.00">email_reset </text>
<text text-anchor="start" x="955.19" y="-624.5" font-family="Arial ItalicMT" font-size="10.00" fill="#999999">boolean</text>
<text text-anchor="start" x="901.19" y="-611.5" font-family="ArialMT" font-size="10.00">encrypted_password </text>
<text text-anchor="start" x="995.19" y="-611.5" font-family="Arial ItalicMT" font-size="10.00" fill="#999999">string (128)</text>
<text text-anchor="start" x="901.19" y="-598.5" font-family="ArialMT" font-size="10.00">handle </text>
<text text-anchor="start" x="933.19" y="-598.5" font-family="Arial ItalicMT" font-size="10.00" fill="#999999">string U</text>
<text text-anchor="start" x="901.19" y="-585.5" font-family="ArialMT" font-size="10.00">hide_email </text>
<text text-anchor="start" x="951.19" y="-585.5" font-family="Arial ItalicMT" font-size="10.00" fill="#999999">boolean</text>
<text text-anchor="start" x="901.19" y="-572.5" font-family="ArialMT" font-size="10.00">mail_fails </text>
<text text-anchor="start" x="946.19" y="-572.5" font-family="Arial ItalicMT" font-size="10.00" fill="#999999">integer</text>
<text text-anchor="start" x="901.19" y="-559.5" font-family="ArialMT" font-size="10.00">mfa_level </text>
<text text-anchor="start" x="947.19" y="-559.5" font-family="Arial ItalicMT" font-size="10.00" fill="#999999">integer</text>
<text text-anchor="start" x="901.19" y="-546.5" font-family="ArialMT" font-size="10.00">mfa_recovery_codes </text>
<text text-anchor="start" x="995.19" y="-546.5" font-family="Arial ItalicMT" font-size="10.00" fill="#999999">string</text>
<text text-anchor="start" x="901.19" y="-533.5" font-family="ArialMT" font-size="10.00">mfa_seed </text>
<text text-anchor="start" x="947.19" y="-533.5" font-family="Arial ItalicMT" font-size="10.00" fill="#999999">string</text>
<text text-anchor="start" x="901.19" y="-520.5" font-family="ArialMT" font-size="10.00">remember_token </text>
<text text-anchor="start" x="977.19" y="-520.5" font-family="Arial ItalicMT" font-size="10.00" fill="#999999">string (128)</text>
<text text-anchor="start" x="901.19" y="-507.5" font-family="ArialMT" font-size="10.00">remember_token_expires_at </text>
<text text-anchor="start" x="1028.19" y="-507.5" font-family="Arial ItalicMT" font-size="10.00" fill="#999999">datetime (6,0)</text>
<text text-anchor="start" x="901.19" y="-494.5" font-family="ArialMT" font-size="10.00">salt </text>
<text text-anchor="start" x="920.19" y="-494.5" font-family="Arial ItalicMT" font-size="10.00" fill="#999999">string (128)</text>
<text text-anchor="start" x="901.19" y="-481.5" font-family="ArialMT" font-size="10.00">token </text>
<text text-anchor="start" x="929.19" y="-481.5" font-family="Arial ItalicMT" font-size="10.00" fill="#999999">string (128)</text>
<text text-anchor="start" x="901.19" y="-468.5" font-family="ArialMT" font-size="10.00">token_expires_at </text>
<text text-anchor="start" x="979.19" y="-468.5" font-family="Arial ItalicMT" font-size="10.00" fill="#999999">datetime (6,0)</text>
<text text-anchor="start" x="901.19" y="-455.5" font-family="ArialMT" font-size="10.00">twitter_username </text>
<text text-anchor="start" x="980.19" y="-455.5" font-family="Arial ItalicMT" font-size="10.00" fill="#999999">string</text>
<text text-anchor="start" x="901.19" y="-442.5" font-family="ArialMT" font-size="10.00">unconfirmed_email </text>
<text text-anchor="start" x="986.19" y="-442.5" font-family="Arial ItalicMT" font-size="10.00" fill="#999999">string</text>
</g>
<!-- m_Version -->
<g id="node17" class="node">
<title>m_Version</title>
<path fill="none" stroke="black" d="M1953.19,-86.5C1953.19,-86.5 2259.19,-86.5 2259.19,-86.5 2265.19,-86.5 2271.19,-92.5 2271.19,-98.5 2271.19,-98.5 2271.19,-383.5 2271.19,-383.5 2271.19,-389.5 2265.19,-395.5 2259.19,-395.5 2259.19,-395.5 1953.19,-395.5 1953.19,-395.5 1947.19,-395.5 1941.19,-389.5 1941.19,-383.5 1941.19,-383.5 1941.19,-98.5 1941.19,-98.5 1941.19,-92.5 1947.19,-86.5 1953.19,-86.5"/>
<text text-anchor="start" x="1992.69" y="-238.2" font-family="Arial BoldMT" font-size="11.00">Version</text>
<polyline fill="none" stroke="black" points="2085.19,-86.5 2085.19,-395.5 "/>
<text text-anchor="start" x="2092.19" y="-382" font-family="ArialMT" font-size="10.00">authors </text>
<text text-anchor="start" x="2128.19" y="-382" font-family="Arial ItalicMT" font-size="10.00" fill="#999999">text</text>
<text text-anchor="start" x="2092.19" y="-369" font-family="ArialMT" font-size="10.00">built_at </text>
<text text-anchor="start" x="2127.19" y="-369" font-family="Arial ItalicMT" font-size="10.00" fill="#999999">datetime (6,0)</text>
<text text-anchor="start" x="2092.19" y="-356" font-family="ArialMT" font-size="10.00">canonical_number </text>
<text text-anchor="start" x="2174.19" y="-356" font-family="Arial ItalicMT" font-size="10.00" fill="#999999">string</text>
<text text-anchor="start" x="2092.19" y="-343" font-family="ArialMT" font-size="10.00">cert_chain </text>
<text text-anchor="start" x="2141.19" y="-343" font-family="Arial ItalicMT" font-size="10.00" fill="#999999">text</text>
<text text-anchor="start" x="2092.19" y="-330" font-family="ArialMT" font-size="10.00">description </text>
<text text-anchor="start" x="2143.19" y="-330" font-family="Arial ItalicMT" font-size="10.00" fill="#999999">text</text>
<text text-anchor="start" x="2092.19" y="-317" font-family="ArialMT" font-size="10.00">full_name </text>
<text text-anchor="start" x="2138.19" y="-317" font-family="Arial ItalicMT" font-size="10.00" fill="#999999">string ∗ U</text>
<text text-anchor="start" x="2092.19" y="-304" font-family="ArialMT" font-size="10.00">indexed </text>
<text text-anchor="start" x="2129.19" y="-304" font-family="Arial ItalicMT" font-size="10.00" fill="#999999">boolean</text>
<text text-anchor="start" x="2092.19" y="-291" font-family="ArialMT" font-size="10.00">info_checksum </text>
<text text-anchor="start" x="2162.19" y="-291" font-family="Arial ItalicMT" font-size="10.00" fill="#999999">string</text>
<text text-anchor="start" x="2092.19" y="-278" font-family="ArialMT" font-size="10.00">latest </text>
<text text-anchor="start" x="2120.19" y="-278" font-family="Arial ItalicMT" font-size="10.00" fill="#999999">boolean</text>
<text text-anchor="start" x="2092.19" y="-265" font-family="ArialMT" font-size="10.00">licenses </text>
<text text-anchor="start" x="2132.19" y="-265" font-family="Arial ItalicMT" font-size="10.00" fill="#999999">string</text>
<text text-anchor="start" x="2092.19" y="-252" font-family="ArialMT" font-size="10.00">metadata </text>
<text text-anchor="start" x="2136.19" y="-252" font-family="Arial ItalicMT" font-size="10.00" fill="#999999">hstore ∗</text>
<text text-anchor="start" x="2092.19" y="-239" font-family="ArialMT" font-size="10.00">number </text>
<text text-anchor="start" x="2128.19" y="-239" font-family="Arial ItalicMT" font-size="10.00" fill="#999999">string</text>
<text text-anchor="start" x="2092.19" y="-226" font-family="ArialMT" font-size="10.00">platform </text>
<text text-anchor="start" x="2131.19" y="-226" font-family="Arial ItalicMT" font-size="10.00" fill="#999999">string</text>
<text text-anchor="start" x="2092.19" y="-213" font-family="ArialMT" font-size="10.00">position </text>
<text text-anchor="start" x="2129.19" y="-213" font-family="Arial ItalicMT" font-size="10.00" fill="#999999">integer</text>
<text text-anchor="start" x="2092.19" y="-200" font-family="ArialMT" font-size="10.00">prerelease </text>
<text text-anchor="start" x="2141.19" y="-200" font-family="Arial ItalicMT" font-size="10.00" fill="#999999">boolean</text>
<text text-anchor="start" x="2092.19" y="-187" font-family="ArialMT" font-size="10.00">required_ruby_version </text>
<text text-anchor="start" x="2191.19" y="-187" font-family="Arial ItalicMT" font-size="10.00" fill="#999999">string</text>
<text text-anchor="start" x="2092.19" y="-174" font-family="ArialMT" font-size="10.00">required_rubygems_version </text>
<text text-anchor="start" x="2215.19" y="-174" font-family="Arial ItalicMT" font-size="10.00" fill="#999999">string (255)</text>
<text text-anchor="start" x="2092.19" y="-161" font-family="ArialMT" font-size="10.00">requirements </text>
<text text-anchor="start" x="2152.19" y="-161" font-family="Arial ItalicMT" font-size="10.00" fill="#999999">text</text>
<text text-anchor="start" x="2092.19" y="-148" font-family="ArialMT" font-size="10.00">sha256 </text>
<text text-anchor="start" x="2127.19" y="-148" font-family="Arial ItalicMT" font-size="10.00" fill="#999999">string</text>
<text text-anchor="start" x="2092.19" y="-135" font-family="ArialMT" font-size="10.00">size </text>
<text text-anchor="start" x="2114.19" y="-135" font-family="Arial ItalicMT" font-size="10.00" fill="#999999">integer</text>
<text text-anchor="start" x="2092.19" y="-122" font-family="ArialMT" font-size="10.00">summary </text>
<text text-anchor="start" x="2136.19" y="-122" font-family="Arial ItalicMT" font-size="10.00" fill="#999999">text</text>
<text text-anchor="start" x="2092.19" y="-109" font-family="ArialMT" font-size="10.00">yanked_at </text>
<text text-anchor="start" x="2141.19" y="-109" font-family="Arial ItalicMT" font-size="10.00" fill="#999999">datetime (6,0)</text>
<text text-anchor="start" x="2092.19" y="-96" font-family="ArialMT" font-size="10.00">yanked_info_checksum </text>
<text text-anchor="start" x="2198.19" y="-96" font-family="Arial ItalicMT" font-size="10.00" fill="#999999">string</text>
</g>
<!-- m_Rubygem&#45;&gt;m_Version -->
<g id="edge5" class="edge">
<title>m_Rubygem&#45;&gt;m_Version</title>
<path fill="none" stroke="black" d="M1825.22,-542.9C1853.49,-512.63 1905.01,-457.45 1956.29,-402.53"/>
<polygon fill="black" stroke="black" points="1958.7,-404.57 1962.54,-395.84 1954.1,-400.27 1958.7,-404.57"/>
</g>
<!-- m_WebHook -->
<g id="node18" class="node">
<title>m_WebHook</title>
<path fill="none" stroke="black" d="M913.19,-223C913.19,-223 1177.19,-223 1177.19,-223 1183.19,-223 1189.19,-229 1189.19,-235 1189.19,-235 1189.19,-247 1189.19,-247 1189.19,-253 1183.19,-259 1177.19,-259 1177.19,-259 913.19,-259 913.19,-259 907.19,-259 901.19,-253 901.19,-247 901.19,-247 901.19,-235 901.19,-235 901.19,-229 907.19,-223 913.19,-223"/>
<text text-anchor="start" x="946.69" y="-238.2" font-family="Arial BoldMT" font-size="11.00">WebHook</text>
<polyline fill="none" stroke="black" points="1045.19,-223 1045.19,-259 "/>
<text text-anchor="start" x="1052.19" y="-246" font-family="ArialMT" font-size="10.00">failure_count </text>
<text text-anchor="start" x="1111.19" y="-246" font-family="Arial ItalicMT" font-size="10.00" fill="#999999">integer</text>
<text text-anchor="start" x="1052.19" y="-233" font-family="ArialMT" font-size="10.00">url </text>
<text text-anchor="start" x="1066.19" y="-233" font-family="Arial ItalicMT" font-size="10.00" fill="#999999">string ∗</text>
</g>
<!-- m_Rubygem&#45;&gt;m_WebHook -->
<g id="edge10" class="edge">
<title>m_Rubygem&#45;&gt;m_WebHook</title>
<path fill="none" stroke="black" d="M1658.97,-545.89C1532.53,-523.21 1347.12,-478.48 1204.19,-396 1144.77,-361.72 1090.91,-300.37 1063.75,-266.37"/>
<polygon fill="black" stroke="black" points="1066.1,-264.26 1058.05,-259.15 1061.15,-268.17 1066.1,-264.26"/>
</g>
<!-- m_SendgridEvent -->
<g id="node13" class="node">
<title>m_SendgridEvent</title>
<path fill="none" stroke="black" d="M2987.19,-523.5C2987.19,-523.5 3251.19,-523.5 3251.19,-523.5 3257.19,-523.5 3263.19,-529.5 3263.19,-535.5 3263.19,-535.5 3263.19,-599.5 3263.19,-599.5 3263.19,-605.5 3257.19,-611.5 3251.19,-611.5 3251.19,-611.5 2987.19,-611.5 2987.19,-611.5 2981.19,-611.5 2975.19,-605.5 2975.19,-599.5 2975.19,-599.5 2975.19,-535.5 2975.19,-535.5 2975.19,-529.5 2981.19,-523.5 2987.19,-523.5"/>
<text text-anchor="start" x="3009.19" y="-564.7" font-family="Arial BoldMT" font-size="11.00">SendgridEvent</text>
<polyline fill="none" stroke="black" points="3119.19,-523.5 3119.19,-611.5 "/>
<text text-anchor="start" x="3126.19" y="-598.5" font-family="ArialMT" font-size="10.00">email </text>
<text text-anchor="start" x="3153.19" y="-598.5" font-family="Arial ItalicMT" font-size="10.00" fill="#999999">string</text>
<text text-anchor="start" x="3126.19" y="-585.5" font-family="ArialMT" font-size="10.00">event_type </text>
<text text-anchor="start" x="3178.19" y="-585.5" font-family="Arial ItalicMT" font-size="10.00" fill="#999999">string</text>
<text text-anchor="start" x="3126.19" y="-572.5" font-family="ArialMT" font-size="10.00">occurred_at </text>
<text text-anchor="start" x="3181.19" y="-572.5" font-family="Arial ItalicMT" font-size="10.00" fill="#999999">datetime (6,0)</text>
<text text-anchor="start" x="3126.19" y="-559.5" font-family="ArialMT" font-size="10.00">payload </text>
<text text-anchor="start" x="3163.19" y="-559.5" font-family="Arial ItalicMT" font-size="10.00" fill="#999999">jsonb ∗</text>
<text text-anchor="start" x="3126.19" y="-546.5" font-family="ArialMT" font-size="10.00">sendgrid_id </text>
<text text-anchor="start" x="3179.19" y="-546.5" font-family="Arial ItalicMT" font-size="10.00" fill="#999999">string ∗</text>
<text text-anchor="start" x="3126.19" y="-533.5" font-family="ArialMT" font-size="10.00">status </text>
<text text-anchor="start" x="3157.19" y="-533.5" font-family="Arial ItalicMT" font-size="10.00" fill="#999999">string ∗</text>
</g>
<!-- m_User&#45;&gt;m_ApiKey -->
<g id="edge20" class="edge">
<title>m_User&#45;&gt;m_ApiKey</title>
<path fill="none" stroke="black" d="M749.97,-530.65C643.33,-503.78 506.59,-460.42 397.19,-396 364.5,-376.75 332.95,-350.04 306.34,-324.27"/>
<polygon fill="black" stroke="black" points="308.31,-321.79 299.68,-317.74 303.9,-326.29 308.31,-321.79"/>
</g>
<!-- m_User&#45;&gt;m_Deletion -->
<g id="edge19" class="edge">
<title>m_User&#45;&gt;m_Deletion</title>
<path fill="none" stroke="black" d="M756.12,-432.35C741.81,-420.21 727.66,-407.98 714.19,-396 667.54,-354.52 616.07,-303.67 584.68,-272.05"/>
<polygon fill="black" stroke="black" points="586.87,-269.78 578.3,-265.6 582.39,-274.21 586.87,-269.78"/>
</g>
<!-- m_User&#45;&gt;m_Ownership -->
<g id="edge2" class="edge">
<title>m_User&#45;&gt;m_Ownership</title>
<path fill="none" stroke="black" d="M1096.2,-468.32C1132.68,-445.76 1170.34,-421.01 1204.19,-396 1247.51,-363.99 1292.87,-323.3 1326.27,-291.79"/>
<polygon fill="black" stroke="black" points="1328.84,-293.69 1333.21,-285.22 1324.51,-289.12 1328.84,-293.69"/>
</g>
<!-- m_User&#45;&gt;m_OwnershipCall -->
<g id="edge18" class="edge">
<title>m_User&#45;&gt;m_OwnershipCall</title>
<path fill="none" stroke="black" d="M1096.47,-543.65C1227.93,-520.76 1409.55,-476.88 1551.19,-396 1610.56,-362.1 1663.95,-300.6 1690.84,-266.47"/>
<polygon fill="black" stroke="black" points="1693.44,-268.26 1696.48,-259.22 1688.46,-264.4 1693.44,-268.26"/>
</g>
<!-- m_User&#45;&gt;m_OwnershipRequest -->
<g id="edge16" class="edge">
<title>m_User&#45;&gt;m_OwnershipRequest</title>
<path fill="none" stroke="black" d="M750.11,-557.16C525.63,-541.01 152.72,-499.06 68.19,-396 -19.19,-289.48 -25.72,-186.81 68.19,-86 114.22,-36.59 529.17,-27.19 759.97,-25.83"/>
<polygon fill="black" stroke="black" points="760.14,-28.98 769.12,-25.78 760.1,-22.68 760.14,-28.98"/>
</g>
<!-- m_User&#45;&gt;m_Subscription -->
<g id="edge4" class="edge">
<title>m_User&#45;&gt;m_Subscription</title>
<path fill="none" stroke="black" d="M872.27,-432.17C848.97,-370.71 823.59,-303.74 810.03,-267.97"/>
<polygon fill="black" stroke="black" points="812.83,-266.46 806.69,-259.16 806.94,-268.69 812.83,-266.46"/>
</g>
<!-- m_User&#45;&gt;m_Version -->
<g id="edge8" class="edge">
<title>m_User&#45;&gt;m_Version</title>
<path fill="none" stroke="black" d="M1096.34,-531.55C1242.32,-502.73 1456.93,-461.88 1645.19,-432 1766.49,-412.75 1806.53,-444.93 1919.19,-396 1923.77,-394.01 1928.33,-391.87 1932.85,-389.61"/>
<polygon fill="black" stroke="black" points="1934.43,-392.34 1940.97,-385.4 1931.53,-386.75 1934.43,-392.34"/>
</g>
<!-- m_User&#45;&gt;m_WebHook -->
<g id="edge15" class="edge">
<title>m_User&#45;&gt;m_WebHook</title>
<path fill="none" stroke="black" d="M973.69,-432.17C996.8,-370.71 1021.98,-303.74 1035.42,-267.97"/>
<polygon fill="black" stroke="black" points="1038.52,-268.69 1038.74,-259.16 1032.62,-266.48 1038.52,-268.69"/>
</g>
<!-- m_User::WithPrivateFields -->
<g id="node16" class="node">
<title>m_User::WithPrivateFields</title>
<path fill="none" stroke="black" d="M3304.19,-432.5C3304.19,-432.5 3626.19,-432.5 3626.19,-432.5 3632.19,-432.5 3638.19,-438.5 3638.19,-444.5 3638.19,-444.5 3638.19,-690.5 3638.19,-690.5 3638.19,-696.5 3632.19,-702.5 3626.19,-702.5 3626.19,-702.5 3304.19,-702.5 3304.19,-702.5 3298.19,-702.5 3292.19,-696.5 3292.19,-690.5 3292.19,-690.5 3292.19,-444.5 3292.19,-444.5 3292.19,-438.5 3298.19,-432.5 3304.19,-432.5"/>
<text text-anchor="start" x="3305.19" y="-564.7" font-family="Arial BoldMT" font-size="11.00">User::WithPrivateFields</text>
<polyline fill="none" stroke="black" points="3436.19,-432.5 3436.19,-702.5 "/>
<text text-anchor="start" x="3443.19" y="-689.5" font-family="ArialMT" font-size="10.00">api_key </text>
<text text-anchor="start" x="3480.19" y="-689.5" font-family="Arial ItalicMT" font-size="10.00" fill="#999999">string</text>
<text text-anchor="start" x="3443.19" y="-676.5" font-family="ArialMT" font-size="10.00">blocked_email </text>
<text text-anchor="start" x="3509.19" y="-676.5" font-family="Arial ItalicMT" font-size="10.00" fill="#999999">string</text>
<text text-anchor="start" x="3443.19" y="-663.5" font-family="ArialMT" font-size="10.00">confirmation_token </text>
<text text-anchor="start" x="3529.19" y="-663.5" font-family="Arial ItalicMT" font-size="10.00" fill="#999999">string (128)</text>
<text text-anchor="start" x="3443.19" y="-650.5" font-family="ArialMT" font-size="10.00">email </text>
<text text-anchor="start" x="3470.19" y="-650.5" font-family="Arial ItalicMT" font-size="10.00" fill="#999999">string ∗ U</text>
<text text-anchor="start" x="3443.19" y="-637.5" font-family="ArialMT" font-size="10.00">email_confirmed </text>
<text text-anchor="start" x="3518.19" y="-637.5" font-family="Arial ItalicMT" font-size="10.00" fill="#999999">boolean ∗</text>
<text text-anchor="start" x="3443.19" y="-624.5" font-family="ArialMT" font-size="10.00">email_reset </text>
<text text-anchor="start" x="3497.19" y="-624.5" font-family="Arial ItalicMT" font-size="10.00" fill="#999999">boolean</text>
<text text-anchor="start" x="3443.19" y="-611.5" font-family="ArialMT" font-size="10.00">encrypted_password </text>
<text text-anchor="start" x="3537.19" y="-611.5" font-family="Arial ItalicMT" font-size="10.00" fill="#999999">string (128)</text>
<text text-anchor="start" x="3443.19" y="-598.5" font-family="ArialMT" font-size="10.00">handle </text>
<text text-anchor="start" x="3475.19" y="-598.5" font-family="Arial ItalicMT" font-size="10.00" fill="#999999">string U</text>
<text text-anchor="start" x="3443.19" y="-585.5" font-family="ArialMT" font-size="10.00">hide_email </text>
<text text-anchor="start" x="3493.19" y="-585.5" font-family="Arial ItalicMT" font-size="10.00" fill="#999999">boolean</text>
<text text-anchor="start" x="3443.19" y="-572.5" font-family="ArialMT" font-size="10.00">mail_fails </text>
<text text-anchor="start" x="3488.19" y="-572.5" font-family="Arial ItalicMT" font-size="10.00" fill="#999999">integer</text>
<text text-anchor="start" x="3443.19" y="-559.5" font-family="ArialMT" font-size="10.00">mfa_level </text>
<text text-anchor="start" x="3489.19" y="-559.5" font-family="Arial ItalicMT" font-size="10.00" fill="#999999">integer</text>
<text text-anchor="start" x="3443.19" y="-546.5" font-family="ArialMT" font-size="10.00">mfa_recovery_codes </text>
<text text-anchor="start" x="3537.19" y="-546.5" font-family="Arial ItalicMT" font-size="10.00" fill="#999999">string</text>
<text text-anchor="start" x="3443.19" y="-533.5" font-family="ArialMT" font-size="10.00">mfa_seed </text>
<text text-anchor="start" x="3489.19" y="-533.5" font-family="Arial ItalicMT" font-size="10.00" fill="#999999">string</text>
<text text-anchor="start" x="3443.19" y="-520.5" font-family="ArialMT" font-size="10.00">remember_token </text>
<text text-anchor="start" x="3519.19" y="-520.5" font-family="Arial ItalicMT" font-size="10.00" fill="#999999">string (128)</text>
<text text-anchor="start" x="3443.19" y="-507.5" font-family="ArialMT" font-size="10.00">remember_token_expires_at </text>
<text text-anchor="start" x="3570.19" y="-507.5" font-family="Arial ItalicMT" font-size="10.00" fill="#999999">datetime (6,0)</text>
<text text-anchor="start" x="3443.19" y="-494.5" font-family="ArialMT" font-size="10.00">salt </text>
<text text-anchor="start" x="3462.19" y="-494.5" font-family="Arial ItalicMT" font-size="10.00" fill="#999999">string (128)</text>
<text text-anchor="start" x="3443.19" y="-481.5" font-family="ArialMT" font-size="10.00">token </text>
<text text-anchor="start" x="3471.19" y="-481.5" font-family="Arial ItalicMT" font-size="10.00" fill="#999999">string (128)</text>
<text text-anchor="start" x="3443.19" y="-468.5" font-family="ArialMT" font-size="10.00">token_expires_at </text>
<text text-anchor="start" x="3521.19" y="-468.5" font-family="Arial ItalicMT" font-size="10.00" fill="#999999">datetime (6,0)</text>
<text text-anchor="start" x="3443.19" y="-455.5" font-family="ArialMT" font-size="10.00">twitter_username </text>
<text text-anchor="start" x="3522.19" y="-455.5" font-family="Arial ItalicMT" font-size="10.00" fill="#999999">string</text>
<text text-anchor="start" x="3443.19" y="-442.5" font-family="ArialMT" font-size="10.00">unconfirmed_email </text>
<text text-anchor="start" x="3528.19" y="-442.5" font-family="Arial ItalicMT" font-size="10.00" fill="#999999">string</text>
</g>
<!-- m_Version&#45;&gt;m_Dependency -->
<g id="edge6" class="edge">
<title>m_Version&#45;&gt;m_Dependency</title>
<path fill="none" stroke="black" d="M2030.86,-86.47C2025.75,-76.07 2021.01,-66.39 2016.88,-57.97"/>
<polygon fill="black" stroke="black" points="2019.59,-56.36 2012.8,-49.67 2013.94,-59.14 2019.59,-56.36"/>
</g>
<!-- m_Version&#45;&gt;m_GemDownload -->
<g id="edge7" class="edge">
<title>m_Version&#45;&gt;m_GemDownload</title>
<path fill="none" stroke="black" d="M2271.45,-94.09C2276.34,-91.25 2281.25,-88.54 2286.19,-86 2325.47,-65.75 2371.93,-52.1 2413.53,-43.01"/>
</g>
</g>
</svg>
