<?xml version="1.0" encoding="UTF-8" standalone="no"?>
<!DOCTYPE svg PUBLIC "-//W3C//DTD SVG 1.1//EN"
 "http://www.w3.org/Graphics/SVG/1.1/DTD/svg11.dtd">
<!-- Generated by graphviz version 2.38.0 (20140413.2041)
 -->
<!-- Title: Gemcutter Pages: 1 -->
<svg width="1729pt" height="689pt"
 viewBox="0.00 0.00 1728.60 688.60" xmlns="http://www.w3.org/2000/svg" xmlns:xlink="http://www.w3.org/1999/xlink">
<g id="graph0" class="graph" transform="scale(1 1) rotate(0) translate(28.8 659.8)">
<title>Gemcutter</title>
<polygon fill="white" stroke="none" points="-28.8,28.8 -28.8,-659.8 1699.8,-659.8 1699.8,28.8 -28.8,28.8"/>
<text text-anchor="middle" x="835.5" y="-616.6" font-family="Arial Bold" font-size="13.00">RubyGems.org domain model</text>
<!-- m_Delayed::Backend::ActiveRecord::Job -->
<g id="node1" class="node"><title>m_Delayed::Backend::ActiveRecord::Job</title>
<path fill="none" stroke="black" d="M25,-427C25,-427 213,-427 213,-427 219,-427 225,-433 225,-439 225,-439 225,-562 225,-562 225,-568 219,-574 213,-574 213,-574 25,-574 25,-574 19,-574 13,-568 13,-562 13,-562 13,-439 13,-439 13,-433 19,-427 25,-427"/>
<text text-anchor="start" x="18" y="-561.2" font-family="Arial Bold" font-size="11.00">Delayed::Backend::ActiveRecord::Job</text>
<polyline fill="none" stroke="black" points="13,-554 225,-554 "/>
<text text-anchor="start" x="54" y="-540.5" font-family="Arial" font-size="10.00">attempts </text>
<text text-anchor="start" x="96" y="-540.5" font-family="Arial Italic" font-size="10.00" fill="#999999">integer</text>
<text text-anchor="start" x="54" y="-527.5" font-family="Arial" font-size="10.00">failed_at </text>
<text text-anchor="start" x="94" y="-527.5" font-family="Arial Italic" font-size="10.00" fill="#999999">datetime</text>
<text text-anchor="start" x="54" y="-514.5" font-family="Arial" font-size="10.00">handler </text>
<text text-anchor="start" x="89" y="-514.5" font-family="Arial Italic" font-size="10.00" fill="#999999">text</text>
<text text-anchor="start" x="54" y="-501.5" font-family="Arial" font-size="10.00">last_error </text>
<text text-anchor="start" x="98" y="-501.5" font-family="Arial Italic" font-size="10.00" fill="#999999">text</text>
<text text-anchor="start" x="54" y="-488.5" font-family="Arial" font-size="10.00">locked_at </text>
<text text-anchor="start" x="100" y="-488.5" font-family="Arial Italic" font-size="10.00" fill="#999999">datetime</text>
<text text-anchor="start" x="54" y="-475.5" font-family="Arial" font-size="10.00">locked_by </text>
<text text-anchor="start" x="102" y="-475.5" font-family="Arial Italic" font-size="10.00" fill="#999999">string</text>
<text text-anchor="start" x="54" y="-462.5" font-family="Arial" font-size="10.00">priority </text>
<text text-anchor="start" x="87" y="-462.5" font-family="Arial Italic" font-size="10.00" fill="#999999">integer</text>
<text text-anchor="start" x="54" y="-449.5" font-family="Arial" font-size="10.00">queue </text>
<text text-anchor="start" x="84" y="-449.5" font-family="Arial Italic" font-size="10.00" fill="#999999">string</text>
<text text-anchor="start" x="54" y="-436.5" font-family="Arial" font-size="10.00">run_at </text>
<text text-anchor="start" x="85" y="-436.5" font-family="Arial Italic" font-size="10.00" fill="#999999">datetime</text>
</g>
<!-- m_Deletion -->
<g id="node2" class="node"><title>m_Deletion</title>
<path fill="none" stroke="black" d="M12,-204C12,-204 132,-204 132,-204 138,-204 144,-210 144,-216 144,-216 144,-261 144,-261 144,-267 138,-273 132,-273 132,-273 12,-273 12,-273 6,-273 0,-267 0,-261 0,-261 0,-216 0,-216 0,-210 6,-204 12,-204"/>
<text text-anchor="start" x="48" y="-260.2" font-family="Arial Bold" font-size="11.00">Deletion</text>
<polyline fill="none" stroke="black" points="0,-253 144,-253 "/>
<text text-anchor="start" x="7" y="-239.5" font-family="Arial" font-size="10.00">number </text>
<text text-anchor="start" x="43" y="-239.5" font-family="Arial Italic" font-size="10.00" fill="#999999">string ∗</text>
<text text-anchor="start" x="7" y="-226.5" font-family="Arial" font-size="10.00">platform </text>
<text text-anchor="start" x="46" y="-226.5" font-family="Arial Italic" font-size="10.00" fill="#999999">string</text>
<text text-anchor="start" x="7" y="-213.5" font-family="Arial" font-size="10.00">rubygem </text>
<text text-anchor="start" x="48" y="-213.5" font-family="Arial Italic" font-size="10.00" fill="#999999">string ∗</text>
</g>
<!-- m_Dependency -->
<g id="node3" class="node"><title>m_Dependency</title>
<path fill="none" stroke="black" d="M706,-0.5C706,-0.5 826,-0.5 826,-0.5 832,-0.5 838,-6.5 838,-12.5 838,-12.5 838,-57.5 838,-57.5 838,-63.5 832,-69.5 826,-69.5 826,-69.5 706,-69.5 706,-69.5 700,-69.5 694,-63.5 694,-57.5 694,-57.5 694,-12.5 694,-12.5 694,-6.5 700,-0.5 706,-0.5"/>
<text text-anchor="start" x="731" y="-56.7" font-family="Arial Bold" font-size="11.00">Dependency</text>
<polyline fill="none" stroke="black" points="694,-49.5 838,-49.5 "/>
<text text-anchor="start" x="701" y="-36" font-family="Arial" font-size="10.00">requirements </text>
<text text-anchor="start" x="761" y="-36" font-family="Arial Italic" font-size="10.00" fill="#999999">string ∗</text>
<text text-anchor="start" x="701" y="-23" font-family="Arial" font-size="10.00">scope </text>
<text text-anchor="start" x="731" y="-23" font-family="Arial Italic" font-size="10.00" fill="#999999">string</text>
<text text-anchor="start" x="701" y="-10" font-family="Arial" font-size="10.00">unresolved_name </text>
<text text-anchor="start" x="781" y="-10" font-family="Arial Italic" font-size="10.00" fill="#999999">string</text>
</g>
<!-- m_Doorkeeper::AccessGrant -->
<g id="node4" class="node"><title>m_Doorkeeper::AccessGrant</title>
<path fill="none" stroke="black" d="M1168,-184.5C1168,-184.5 1292,-184.5 1292,-184.5 1298,-184.5 1304,-190.5 1304,-196.5 1304,-196.5 1304,-280.5 1304,-280.5 1304,-286.5 1298,-292.5 1292,-292.5 1292,-292.5 1168,-292.5 1168,-292.5 1162,-292.5 1156,-286.5 1156,-280.5 1156,-280.5 1156,-196.5 1156,-196.5 1156,-190.5 1162,-184.5 1168,-184.5"/>
<text text-anchor="start" x="1161" y="-279.7" font-family="Arial Bold" font-size="11.00">Doorkeeper::AccessGrant</text>
<polyline fill="none" stroke="black" points="1156,-272.5 1304,-272.5 "/>
<text text-anchor="start" x="1165" y="-259.5" font-family="Arial" font-size="10.00">expires_in </text>
<text text-anchor="start" x="1213" y="-259.5" font-family="Arial Italic" font-size="10.00" fill="#999999">integer ∗</text>
<text text-anchor="start" x="1165" y="-246.5" font-family="Arial" font-size="10.00">redirect_uri </text>
<text text-anchor="start" x="1217" y="-246.5" font-family="Arial Italic" font-size="10.00" fill="#999999">text ∗</text>
<text text-anchor="start" x="1165" y="-233.5" font-family="Arial" font-size="10.00">resource_owner_id </text>
<text text-anchor="start" x="1250" y="-233.5" font-family="Arial Italic" font-size="10.00" fill="#999999">integer ∗</text>
<text text-anchor="start" x="1165" y="-220.5" font-family="Arial" font-size="10.00">revoked_at </text>
<text text-anchor="start" x="1217" y="-220.5" font-family="Arial Italic" font-size="10.00" fill="#999999">datetime</text>
<text text-anchor="start" x="1165" y="-207.5" font-family="Arial" font-size="10.00">scopes </text>
<text text-anchor="start" x="1200" y="-207.5" font-family="Arial Italic" font-size="10.00" fill="#999999">string</text>
<text text-anchor="start" x="1165" y="-194.5" font-family="Arial" font-size="10.00">token </text>
<text text-anchor="start" x="1193" y="-194.5" font-family="Arial Italic" font-size="10.00" fill="#999999">string ∗ U</text>
</g>
<!-- m_Doorkeeper::AccessToken -->
<g id="node5" class="node"><title>m_Doorkeeper::AccessToken</title>
<path fill="none" stroke="black" d="M1345.5,-184.5C1345.5,-184.5 1470.5,-184.5 1470.5,-184.5 1476.5,-184.5 1482.5,-190.5 1482.5,-196.5 1482.5,-196.5 1482.5,-280.5 1482.5,-280.5 1482.5,-286.5 1476.5,-292.5 1470.5,-292.5 1470.5,-292.5 1345.5,-292.5 1345.5,-292.5 1339.5,-292.5 1333.5,-286.5 1333.5,-280.5 1333.5,-280.5 1333.5,-196.5 1333.5,-196.5 1333.5,-190.5 1339.5,-184.5 1345.5,-184.5"/>
<text text-anchor="start" x="1339" y="-279.7" font-family="Arial Bold" font-size="11.00">Doorkeeper::AccessToken</text>
<polyline fill="none" stroke="black" points="1333.5,-272.5 1482.5,-272.5 "/>
<text text-anchor="start" x="1343" y="-259.5" font-family="Arial" font-size="10.00">expires_in </text>
<text text-anchor="start" x="1391" y="-259.5" font-family="Arial Italic" font-size="10.00" fill="#999999">integer</text>
<text text-anchor="start" x="1343" y="-246.5" font-family="Arial" font-size="10.00">refresh_token </text>
<text text-anchor="start" x="1406" y="-246.5" font-family="Arial Italic" font-size="10.00" fill="#999999">string U</text>
<text text-anchor="start" x="1343" y="-233.5" font-family="Arial" font-size="10.00">resource_owner_id </text>
<text text-anchor="start" x="1428" y="-233.5" font-family="Arial Italic" font-size="10.00" fill="#999999">integer</text>
<text text-anchor="start" x="1343" y="-220.5" font-family="Arial" font-size="10.00">revoked_at </text>
<text text-anchor="start" x="1395" y="-220.5" font-family="Arial Italic" font-size="10.00" fill="#999999">datetime</text>
<text text-anchor="start" x="1343" y="-207.5" font-family="Arial" font-size="10.00">scopes </text>
<text text-anchor="start" x="1378" y="-207.5" font-family="Arial Italic" font-size="10.00" fill="#999999">string</text>
<text text-anchor="start" x="1343" y="-194.5" font-family="Arial" font-size="10.00">token </text>
<text text-anchor="start" x="1371" y="-194.5" font-family="Arial Italic" font-size="10.00" fill="#999999">string ∗ U</text>
</g>
<!-- m_Doorkeeper::Application -->
<g id="node6" class="node"><title>m_Doorkeeper::Application</title>
<path fill="none" stroke="black" d="M1348,-453C1348,-453 1468,-453 1468,-453 1474,-453 1480,-459 1480,-465 1480,-465 1480,-536 1480,-536 1480,-542 1474,-548 1468,-548 1468,-548 1348,-548 1348,-548 1342,-548 1336,-542 1336,-536 1336,-536 1336,-465 1336,-465 1336,-459 1342,-453 1348,-453"/>
<text text-anchor="start" x="1341" y="-535.2" font-family="Arial Bold" font-size="11.00">Doorkeeper::Application</text>
<polyline fill="none" stroke="black" points="1336,-528 1480,-528 "/>
<text text-anchor="start" x="1343" y="-514.5" font-family="Arial" font-size="10.00">name </text>
<text text-anchor="start" x="1371" y="-514.5" font-family="Arial Italic" font-size="10.00" fill="#999999">string ∗</text>
<text text-anchor="start" x="1343" y="-501.5" font-family="Arial" font-size="10.00">redirect_uri </text>
<text text-anchor="start" x="1395" y="-501.5" font-family="Arial Italic" font-size="10.00" fill="#999999">text ∗</text>
<text text-anchor="start" x="1343" y="-488.5" font-family="Arial" font-size="10.00">scopes </text>
<text text-anchor="start" x="1378" y="-488.5" font-family="Arial Italic" font-size="10.00" fill="#999999">string ∗</text>
<text text-anchor="start" x="1343" y="-475.5" font-family="Arial" font-size="10.00">secret </text>
<text text-anchor="start" x="1374" y="-475.5" font-family="Arial Italic" font-size="10.00" fill="#999999">string ∗</text>
<text text-anchor="start" x="1343" y="-462.5" font-family="Arial" font-size="10.00">uid </text>
<text text-anchor="start" x="1359" y="-462.5" font-family="Arial Italic" font-size="10.00" fill="#999999">string ∗ U</text>
</g>
<!-- m_Doorkeeper::Application&#45;&gt;m_Doorkeeper::AccessGrant -->
<g id="edge1" class="edge"><title>m_Doorkeeper::Application&#45;&gt;m_Doorkeeper::AccessGrant</title>
<path fill="none" stroke="black" d="M1375.54,-452.89C1358.62,-428.533 1337.63,-398.206 1319,-371 1303.26,-348.007 1286.07,-322.67 1271.04,-300.425"/>
<polygon fill="black" stroke="black" points="1273.46,-298.388 1265.81,-292.694 1268.24,-301.915 1273.46,-298.388"/>
</g>
<!-- m_Doorkeeper::Application&#45;&gt;m_Doorkeeper::AccessToken -->
<g id="edge2" class="edge"><title>m_Doorkeeper::Application&#45;&gt;m_Doorkeeper::AccessToken</title>
<path fill="none" stroke="black" d="M1408,-452.717C1408,-410.501 1408,-348.087 1408,-301.683"/>
<polygon fill="black" stroke="black" points="1411.15,-301.627 1408,-292.627 1404.85,-301.627 1411.15,-301.627"/>
</g>
<!-- m_Doorkeeper::Application&#45;&gt;m_Doorkeeper::Application -->
<g id="edge3" class="edge"><title>m_Doorkeeper::Application&#45;&gt;m_Doorkeeper::Application</title>
<path fill="none" stroke="black" stroke-dasharray="1,5" d="M1459.45,-548.039C1485.57,-554.981 1509,-539.135 1509,-500.5 1509,-466.393 1490.74,-450.046 1468.49,-451.459"/>
<polygon fill="black" stroke="black" points="1467.81,-448.379 1459.45,-452.961 1468.84,-454.594 1467.81,-448.379"/>
</g>
<!-- m_GemDownload -->
<g id="node7" class="node"><title>m_GemDownload</title>
<path fill="none" stroke="black" d="M879,-13.5C879,-13.5 999,-13.5 999,-13.5 1005,-13.5 1011,-19.5 1011,-25.5 1011,-25.5 1011,-44.5 1011,-44.5 1011,-50.5 1005,-56.5 999,-56.5 999,-56.5 879,-56.5 879,-56.5 873,-56.5 867,-50.5 867,-44.5 867,-44.5 867,-25.5 867,-25.5 867,-19.5 873,-13.5 879,-13.5"/>
<text text-anchor="start" x="897.5" y="-43.7" font-family="Arial Bold" font-size="11.00">GemDownload</text>
<polyline fill="none" stroke="black" points="867,-36.5 1011,-36.5 "/>
<text text-anchor="start" x="874" y="-23" font-family="Arial" font-size="10.00">count </text>
<text text-anchor="start" x="902" y="-23" font-family="Arial Italic" font-size="10.00" fill="#999999">integer (8)</text>
</g>
<!-- m_Linkset -->
<g id="node8" class="node"><title>m_Linkset</title>
<path fill="none" stroke="black" d="M995,-184.5C995,-184.5 1115,-184.5 1115,-184.5 1121,-184.5 1127,-190.5 1127,-196.5 1127,-196.5 1127,-280.5 1127,-280.5 1127,-286.5 1121,-292.5 1115,-292.5 1115,-292.5 995,-292.5 995,-292.5 989,-292.5 983,-286.5 983,-280.5 983,-280.5 983,-196.5 983,-196.5 983,-190.5 989,-184.5 995,-184.5"/>
<text text-anchor="start" x="1033.5" y="-279.7" font-family="Arial Bold" font-size="11.00">Linkset</text>
<polyline fill="none" stroke="black" points="983,-272.5 1127,-272.5 "/>
<text text-anchor="start" x="990" y="-259.5" font-family="Arial" font-size="10.00">bugs </text>
<text text-anchor="start" x="1015" y="-259.5" font-family="Arial Italic" font-size="10.00" fill="#999999">string</text>
<text text-anchor="start" x="990" y="-246.5" font-family="Arial" font-size="10.00">code </text>
<text text-anchor="start" x="1015" y="-246.5" font-family="Arial Italic" font-size="10.00" fill="#999999">string</text>
<text text-anchor="start" x="990" y="-233.5" font-family="Arial" font-size="10.00">docs </text>
<text text-anchor="start" x="1015" y="-233.5" font-family="Arial Italic" font-size="10.00" fill="#999999">string</text>
<text text-anchor="start" x="990" y="-220.5" font-family="Arial" font-size="10.00">home </text>
<text text-anchor="start" x="1018" y="-220.5" font-family="Arial Italic" font-size="10.00" fill="#999999">string</text>
<text text-anchor="start" x="990" y="-207.5" font-family="Arial" font-size="10.00">mail </text>
<text text-anchor="start" x="1012" y="-207.5" font-family="Arial Italic" font-size="10.00" fill="#999999">string</text>
<text text-anchor="start" x="990" y="-194.5" font-family="Arial" font-size="10.00">wiki </text>
<text text-anchor="start" x="1010" y="-194.5" font-family="Arial Italic" font-size="10.00" fill="#999999">string</text>
</g>
<!-- m_LogTicket -->
<g id="node9" class="node"><title>m_LogTicket</title>
<path fill="none" stroke="black" d="M1539,-453C1539,-453 1659,-453 1659,-453 1665,-453 1671,-459 1671,-465 1671,-465 1671,-536 1671,-536 1671,-542 1665,-548 1659,-548 1659,-548 1539,-548 1539,-548 1533,-548 1527,-542 1527,-536 1527,-536 1527,-465 1527,-465 1527,-459 1533,-453 1539,-453"/>
<text text-anchor="start" x="1571" y="-535.2" font-family="Arial Bold" font-size="11.00">LogTicket</text>
<polyline fill="none" stroke="black" points="1527,-528 1671,-528 "/>
<text text-anchor="start" x="1534" y="-514.5" font-family="Arial" font-size="10.00">backend </text>
<text text-anchor="start" x="1574" y="-514.5" font-family="Arial Italic" font-size="10.00" fill="#999999">integer</text>
<text text-anchor="start" x="1534" y="-501.5" font-family="Arial" font-size="10.00">directory </text>
<text text-anchor="start" x="1575" y="-501.5" font-family="Arial Italic" font-size="10.00" fill="#999999">string</text>
<text text-anchor="start" x="1534" y="-488.5" font-family="Arial" font-size="10.00">key </text>
<text text-anchor="start" x="1553" y="-488.5" font-family="Arial Italic" font-size="10.00" fill="#999999">string</text>
<text text-anchor="start" x="1534" y="-475.5" font-family="Arial" font-size="10.00">processed_count </text>
<text text-anchor="start" x="1612" y="-475.5" font-family="Arial Italic" font-size="10.00" fill="#999999">integer</text>
<text text-anchor="start" x="1534" y="-462.5" font-family="Arial" font-size="10.00">status </text>
<text text-anchor="start" x="1565" y="-462.5" font-family="Arial Italic" font-size="10.00" fill="#999999">string</text>
</g>
<!-- m_Ownership -->
<g id="node10" class="node"><title>m_Ownership</title>
<path fill="none" stroke="black" d="M185,-217C185,-217 305,-217 305,-217 311,-217 317,-223 317,-229 317,-229 317,-248 317,-248 317,-254 311,-260 305,-260 305,-260 185,-260 185,-260 179,-260 173,-254 173,-248 173,-248 173,-229 173,-229 173,-223 179,-217 185,-217"/>
<text text-anchor="start" x="214" y="-247.2" font-family="Arial Bold" font-size="11.00">Ownership</text>
<polyline fill="none" stroke="black" points="173,-240 317,-240 "/>
<text text-anchor="start" x="180" y="-226.5" font-family="Arial" font-size="10.00">token </text>
<text text-anchor="start" x="208" y="-226.5" font-family="Arial Italic" font-size="10.00" fill="#999999">string</text>
</g>
<!-- m_Rubygem -->
<g id="node11" class="node"><title>m_Rubygem</title>
<path fill="none" stroke="black" d="M705,-472.5C705,-472.5 825,-472.5 825,-472.5 831,-472.5 837,-478.5 837,-484.5 837,-484.5 837,-516.5 837,-516.5 837,-522.5 831,-528.5 825,-528.5 825,-528.5 705,-528.5 705,-528.5 699,-528.5 693,-522.5 693,-516.5 693,-516.5 693,-484.5 693,-484.5 693,-478.5 699,-472.5 705,-472.5"/>
<text text-anchor="start" x="737.5" y="-515.7" font-family="Arial Bold" font-size="11.00">Rubygem</text>
<polyline fill="none" stroke="black" points="693,-508.5 837,-508.5 "/>
<text text-anchor="start" x="700" y="-495.5" font-family="Arial" font-size="10.00">name </text>
<text text-anchor="start" x="728" y="-495.5" font-family="Arial Italic" font-size="10.00" fill="#999999">string ∗ U</text>
<text text-anchor="start" x="700" y="-482.5" font-family="Arial" font-size="10.00">slug </text>
<text text-anchor="start" x="722" y="-482.5" font-family="Arial Italic" font-size="10.00" fill="#999999">string</text>
</g>
<!-- m_Rubygem&#45;&gt;m_Dependency -->
<g id="edge5" class="edge"><title>m_Rubygem&#45;&gt;m_Dependency</title>
<path fill="none" stroke="black" d="M756.991,-472.227C749.856,-446.418 739.951,-406.458 736,-371 722.956,-253.947 712.319,-221.372 736,-106 737.914,-96.6757 741.124,-87.0599 744.75,-78.0538"/>
<polygon fill="black" stroke="black" points="747.706,-79.1508 748.324,-69.6355 741.907,-76.6882 747.706,-79.1508"/>
</g>
<!-- m_Rubygem&#45;&gt;m_GemDownload -->
<g id="edge7" class="edge"><title>m_Rubygem&#45;&gt;m_GemDownload</title>
<path fill="none" stroke="black" d="M811.13,-472.316C844.778,-449.766 888.161,-414.422 910,-371 964.165,-263.305 949.816,-111.378 942.242,-56.6517"/>
</g>
<!-- m_Rubygem&#45;&gt;m_Linkset -->
<g id="edge9" class="edge"><title>m_Rubygem&#45;&gt;m_Linkset</title>
<path fill="none" stroke="black" d="M817.029,-472.459C858.846,-449.145 917.569,-412.715 961,-371 984.984,-347.964 1006.9,-318.078 1023.53,-292.62"/>
</g>
<!-- m_Rubygem&#45;&gt;m_Ownership -->
<g id="edge10" class="edge"><title>m_Rubygem&#45;&gt;m_Ownership</title>
<path fill="none" stroke="black" d="M692.905,-481.066C577.298,-451.076 360.393,-392.872 331,-371 295.347,-344.469 270.242,-298.449 256.7,-268.49"/>
<polygon fill="black" stroke="black" points="259.529,-267.098 253.029,-260.122 253.76,-269.629 259.529,-267.098"/>
</g>
<!-- m_Subscription -->
<g id="node12" class="node"><title>m_Subscription</title>
<path fill="none" stroke="black" d="M358,-220.5C358,-220.5 478,-220.5 478,-220.5 484,-220.5 490,-226.5 490,-232.5 490,-232.5 490,-244.5 490,-244.5 490,-250.5 484,-256.5 478,-256.5 478,-256.5 358,-256.5 358,-256.5 352,-256.5 346,-250.5 346,-244.5 346,-244.5 346,-232.5 346,-232.5 346,-226.5 352,-220.5 358,-220.5"/>
<text text-anchor="start" x="382" y="-235.7" font-family="Arial Bold" font-size="11.00">Subscription</text>
</g>
<!-- m_Rubygem&#45;&gt;m_Subscription -->
<g id="edge14" class="edge"><title>m_Rubygem&#45;&gt;m_Subscription</title>
<path fill="none" stroke="black" d="M692.717,-475.893C636.607,-454.917 559.31,-419.959 504,-371 469.755,-340.687 443.479,-293.678 429.422,-264.842"/>
<polygon fill="black" stroke="black" points="432.17,-263.287 425.456,-256.516 426.482,-265.996 432.17,-263.287"/>
</g>
<!-- m_User -->
<g id="node13" class="node"><title>m_User</title>
<path fill="none" stroke="black" d="M266,-407.5C266,-407.5 398,-407.5 398,-407.5 404,-407.5 410,-413.5 410,-419.5 410,-419.5 410,-581.5 410,-581.5 410,-587.5 404,-593.5 398,-593.5 398,-593.5 266,-593.5 266,-593.5 260,-593.5 254,-587.5 254,-581.5 254,-581.5 254,-419.5 254,-419.5 254,-413.5 260,-407.5 266,-407.5"/>
<text text-anchor="start" x="317.5" y="-580.7" font-family="Arial Bold" font-size="11.00">User</text>
<polyline fill="none" stroke="black" points="254,-573.5 410,-573.5 "/>
<text text-anchor="start" x="261" y="-560.5" font-family="Arial" font-size="10.00">api_key </text>
<text text-anchor="start" x="298" y="-560.5" font-family="Arial Italic" font-size="10.00" fill="#999999">string</text>
<text text-anchor="start" x="261" y="-547.5" font-family="Arial" font-size="10.00">confirmation_token </text>
<text text-anchor="start" x="347" y="-547.5" font-family="Arial Italic" font-size="10.00" fill="#999999">string (128)</text>
<text text-anchor="start" x="261" y="-534.5" font-family="Arial" font-size="10.00">email </text>
<text text-anchor="start" x="288" y="-534.5" font-family="Arial Italic" font-size="10.00" fill="#999999">string ∗ U</text>
<text text-anchor="start" x="261" y="-521.5" font-family="Arial" font-size="10.00">email_confirmed </text>
<text text-anchor="start" x="336" y="-521.5" font-family="Arial Italic" font-size="10.00" fill="#999999">boolean ∗</text>
<text text-anchor="start" x="261" y="-508.5" font-family="Arial" font-size="10.00">email_reset </text>
<text text-anchor="start" x="315" y="-508.5" font-family="Arial Italic" font-size="10.00" fill="#999999">boolean</text>
<text text-anchor="start" x="261" y="-495.5" font-family="Arial" font-size="10.00">encrypted_password </text>
<text text-anchor="start" x="354" y="-495.5" font-family="Arial Italic" font-size="10.00" fill="#999999">string (128)</text>
<text text-anchor="start" x="261" y="-482.5" font-family="Arial" font-size="10.00">handle </text>
<text text-anchor="start" x="293" y="-482.5" font-family="Arial Italic" font-size="10.00" fill="#999999">string U</text>
<text text-anchor="start" x="261" y="-469.5" font-family="Arial" font-size="10.00">hide_email </text>
<text text-anchor="start" x="311" y="-469.5" font-family="Arial Italic" font-size="10.00" fill="#999999">boolean</text>
<text text-anchor="start" x="261" y="-456.5" font-family="Arial" font-size="10.00">remember_token </text>
<text text-anchor="start" x="337" y="-456.5" font-family="Arial Italic" font-size="10.00" fill="#999999">string (128)</text>
<text text-anchor="start" x="261" y="-443.5" font-family="Arial" font-size="10.00">salt </text>
<text text-anchor="start" x="280" y="-443.5" font-family="Arial Italic" font-size="10.00" fill="#999999">string (128)</text>
<text text-anchor="start" x="261" y="-430.5" font-family="Arial" font-size="10.00">token </text>
<text text-anchor="start" x="289" y="-430.5" font-family="Arial Italic" font-size="10.00" fill="#999999">string (128)</text>
<text text-anchor="start" x="261" y="-417.5" font-family="Arial" font-size="10.00">token_expires_at </text>
<text text-anchor="start" x="339" y="-417.5" font-family="Arial Italic" font-size="10.00" fill="#999999">datetime</text>
</g>
<!-- m_Rubygem&#45;&gt;m_User -->
<g id="edge12" class="edge"><title>m_Rubygem&#45;&gt;m_User</title>
<path fill="none" stroke="black" stroke-dasharray="1,5" d="M716.149,-472.425C616.964,-422.669 517.778,-417.069 418.593,-455.623"/>
<polygon fill="black" stroke="black" points="417.407,-452.704 410.228,-458.979 419.753,-458.551 417.407,-452.704"/>
</g>
<!-- m_Rubygem&#45;&gt;m_User -->
<g id="edge13" class="edge"><title>m_Rubygem&#45;&gt;m_User</title>
<path fill="none" stroke="black" stroke-dasharray="1,5" d="M716.149,-528.575C616.964,-578.331 517.778,-583.931 418.593,-545.377"/>
<polygon fill="black" stroke="black" points="419.753,-542.449 410.228,-542.021 417.407,-548.296 419.753,-542.449"/>
</g>
<!-- m_Version -->
<g id="node14" class="node"><title>m_Version</title>
<path fill="none" stroke="black" d="M763,-106.5C763,-106.5 883,-106.5 883,-106.5 889,-106.5 895,-112.5 895,-118.5 895,-118.5 895,-358.5 895,-358.5 895,-364.5 889,-370.5 883,-370.5 883,-370.5 763,-370.5 763,-370.5 757,-370.5 751,-364.5 751,-358.5 751,-358.5 751,-118.5 751,-118.5 751,-112.5 757,-106.5 763,-106.5"/>
<text text-anchor="start" x="801" y="-357.7" font-family="Arial Bold" font-size="11.00">Version</text>
<polyline fill="none" stroke="black" points="751,-350.5 895,-350.5 "/>
<text text-anchor="start" x="758" y="-337.5" font-family="Arial" font-size="10.00">authors </text>
<text text-anchor="start" x="794" y="-337.5" font-family="Arial Italic" font-size="10.00" fill="#999999">string</text>
<text text-anchor="start" x="758" y="-324.5" font-family="Arial" font-size="10.00">built_at </text>
<text text-anchor="start" x="793" y="-324.5" font-family="Arial Italic" font-size="10.00" fill="#999999">datetime</text>
<text text-anchor="start" x="758" y="-311.5" font-family="Arial" font-size="10.00">description </text>
<text text-anchor="start" x="809" y="-311.5" font-family="Arial Italic" font-size="10.00" fill="#999999">text</text>
<text text-anchor="start" x="758" y="-298.5" font-family="Arial" font-size="10.00">full_name </text>
<text text-anchor="start" x="804" y="-298.5" font-family="Arial Italic" font-size="10.00" fill="#999999">string ∗ U</text>
<text text-anchor="start" x="758" y="-285.5" font-family="Arial" font-size="10.00">indexed </text>
<text text-anchor="start" x="795" y="-285.5" font-family="Arial Italic" font-size="10.00" fill="#999999">boolean</text>
<text text-anchor="start" x="758" y="-272.5" font-family="Arial" font-size="10.00">latest </text>
<text text-anchor="start" x="786" y="-272.5" font-family="Arial Italic" font-size="10.00" fill="#999999">boolean</text>
<text text-anchor="start" x="758" y="-259.5" font-family="Arial" font-size="10.00">licenses </text>
<text text-anchor="start" x="798" y="-259.5" font-family="Arial Italic" font-size="10.00" fill="#999999">string</text>
<text text-anchor="start" x="758" y="-246.5" font-family="Arial" font-size="10.00">metadata </text>
<text text-anchor="start" x="802" y="-246.5" font-family="Arial Italic" font-size="10.00" fill="#999999">hstore ∗</text>
<text text-anchor="start" x="758" y="-233.5" font-family="Arial" font-size="10.00">number </text>
<text text-anchor="start" x="794" y="-233.5" font-family="Arial Italic" font-size="10.00" fill="#999999">string</text>
<text text-anchor="start" x="758" y="-220.5" font-family="Arial" font-size="10.00">platform </text>
<text text-anchor="start" x="797" y="-220.5" font-family="Arial Italic" font-size="10.00" fill="#999999">string</text>
<text text-anchor="start" x="758" y="-207.5" font-family="Arial" font-size="10.00">position </text>
<text text-anchor="start" x="795" y="-207.5" font-family="Arial Italic" font-size="10.00" fill="#999999">integer</text>
<text text-anchor="start" x="758" y="-194.5" font-family="Arial" font-size="10.00">prerelease </text>
<text text-anchor="start" x="807" y="-194.5" font-family="Arial Italic" font-size="10.00" fill="#999999">boolean</text>
<text text-anchor="start" x="758" y="-181.5" font-family="Arial" font-size="10.00">requirements </text>
<text text-anchor="start" x="818" y="-181.5" font-family="Arial Italic" font-size="10.00" fill="#999999">text</text>
<text text-anchor="start" x="758" y="-168.5" font-family="Arial" font-size="10.00">ruby_version </text>
<text text-anchor="start" x="817" y="-168.5" font-family="Arial Italic" font-size="10.00" fill="#999999">string</text>
<text text-anchor="start" x="758" y="-155.5" font-family="Arial" font-size="10.00">rubygems_version </text>
<text text-anchor="start" x="841" y="-155.5" font-family="Arial Italic" font-size="10.00" fill="#999999">string</text>
<text text-anchor="start" x="758" y="-142.5" font-family="Arial" font-size="10.00">sha256 </text>
<text text-anchor="start" x="793" y="-142.5" font-family="Arial Italic" font-size="10.00" fill="#999999">string</text>
<text text-anchor="start" x="758" y="-129.5" font-family="Arial" font-size="10.00">size </text>
<text text-anchor="start" x="780" y="-129.5" font-family="Arial Italic" font-size="10.00" fill="#999999">integer</text>
<text text-anchor="start" x="758" y="-116.5" font-family="Arial" font-size="10.00">summary </text>
<text text-anchor="start" x="802" y="-116.5" font-family="Arial Italic" font-size="10.00" fill="#999999">text</text>
</g>
<!-- m_Rubygem&#45;&gt;m_Version -->
<g id="edge15" class="edge"><title>m_Rubygem&#45;&gt;m_Version</title>
<path fill="none" stroke="black" d="M771.097,-472.167C776.178,-449.39 783.834,-415.07 791.717,-379.735"/>
<polygon fill="black" stroke="black" points="794.839,-380.205 793.724,-370.736 788.69,-378.834 794.839,-380.205"/>
</g>
<!-- m_WebHook -->
<g id="node15" class="node"><title>m_WebHook</title>
<path fill="none" stroke="black" d="M531,-210.5C531,-210.5 651,-210.5 651,-210.5 657,-210.5 663,-216.5 663,-222.5 663,-222.5 663,-254.5 663,-254.5 663,-260.5 657,-266.5 651,-266.5 651,-266.5 531,-266.5 531,-266.5 525,-266.5 519,-260.5 519,-254.5 519,-254.5 519,-222.5 519,-222.5 519,-216.5 525,-210.5 531,-210.5"/>
<text text-anchor="start" x="563" y="-253.7" font-family="Arial Bold" font-size="11.00">WebHook</text>
<polyline fill="none" stroke="black" points="519,-246.5 663,-246.5 "/>
<text text-anchor="start" x="526" y="-233.5" font-family="Arial" font-size="10.00">failure_count </text>
<text text-anchor="start" x="585" y="-233.5" font-family="Arial Italic" font-size="10.00" fill="#999999">integer</text>
<text text-anchor="start" x="526" y="-220.5" font-family="Arial" font-size="10.00">url </text>
<text text-anchor="start" x="540" y="-220.5" font-family="Arial Italic" font-size="10.00" fill="#999999">string</text>
</g>
<!-- m_Rubygem&#45;&gt;m_WebHook -->
<g id="edge16" class="edge"><title>m_Rubygem&#45;&gt;m_WebHook</title>
<path fill="none" stroke="black" d="M746.708,-472.167C714.921,-424.67 649.539,-326.973 614.462,-274.558"/>
<polygon fill="black" stroke="black" points="616.932,-272.585 609.308,-266.857 611.696,-276.089 616.932,-272.585"/>
</g>
<!-- m_User&#45;&gt;m_Deletion -->
<g id="edge4" class="edge"><title>m_User&#45;&gt;m_Deletion</title>
<path fill="none" stroke="black" d="M253.788,-417.989C248.924,-414.105 243.979,-410.41 239,-407 206.496,-384.741 188.006,-396.527 158,-371 129.067,-346.386 106.164,-309.64 91.292,-281.244"/>
<polygon fill="black" stroke="black" points="94.0282,-279.676 87.1245,-273.099 88.4196,-282.546 94.0282,-279.676"/>
</g>
<!-- m_User&#45;&gt;m_Ownership -->
<g id="edge11" class="edge"><title>m_User&#45;&gt;m_Ownership</title>
<path fill="none" stroke="black" d="M301.205,-407.468C284.941,-358.864 266.08,-302.498 254.865,-268.983"/>
<polygon fill="black" stroke="black" points="257.757,-267.697 251.914,-260.162 251.782,-269.696 257.757,-267.697"/>
</g>
<!-- m_User&#45;&gt;m_Subscription -->
<g id="edge17" class="edge"><title>m_User&#45;&gt;m_Subscription</title>
<path fill="none" stroke="black" d="M362.441,-407.468C379.137,-356.994 398.6,-298.15 409.493,-265.219"/>
<polygon fill="black" stroke="black" points="412.493,-266.18 412.328,-256.647 406.511,-264.202 412.493,-266.18"/>
</g>
<!-- m_User&#45;&gt;m_WebHook -->
<g id="edge18" class="edge"><title>m_User&#45;&gt;m_WebHook</title>
<path fill="none" stroke="black" d="M410.277,-449.66C441.428,-427.71 476.359,-400.267 504,-371 531.713,-341.656 556.363,-302.492 572.286,-274.553"/>
<polygon fill="black" stroke="black" points="575.076,-276.017 576.74,-266.628 569.584,-272.93 575.076,-276.017"/>
</g>
<!-- m_Version&#45;&gt;m_Dependency -->
<g id="edge6" class="edge"><title>m_Version&#45;&gt;m_Dependency</title>
<path fill="none" stroke="black" d="M785.936,-106.475C783.156,-96.649 780.497,-87.2466 778.077,-78.6919"/>
<polygon fill="black" stroke="black" points="781.031,-77.5648 775.551,-69.762 774.969,-79.2797 781.031,-77.5648"/>
</g>
<!-- m_Version&#45;&gt;m_GemDownload -->
<g id="edge8" class="edge"><title>m_Version&#45;&gt;m_GemDownload</title>
<path fill="none" stroke="black" d="M895.145,-112.179C907.493,-90.7297 918.93,-70.8632 927.026,-56.7992"/>
</g>
</g>
</svg>
