<?xml version="1.0" encoding="UTF-8" standalone="no"?>
<!DOCTYPE svg PUBLIC "-//W3C//DTD SVG 1.1//EN"
 "http://www.w3.org/Graphics/SVG/1.1/DTD/svg11.dtd">
<!-- Generated by graphviz version 2.50.0 (0)
 -->
<!-- Title: Gemcutter Pages: 1 -->
<svg width="3983pt" height="811pt"
 viewBox="0.00 0.00 3983.10 810.60" xmlns="http://www.w3.org/2000/svg" xmlns:xlink="http://www.w3.org/1999/xlink">
<g id="graph0" class="graph" transform="scale(1 1) rotate(0) translate(28.8 781.8)">
<title>Gemcutter</title>
<polygon fill="white" stroke="transparent" points="-28.8,28.8 -28.8,-781.8 3954.3,-781.8 3954.3,28.8 -28.8,28.8"/>
<text text-anchor="middle" x="1962.75" y="-738.6" font-family="Arial Bold" font-size="13.00">RubyGems.org domain model</text>
<!-- m_ApiKey -->
<g id="node1" class="node">
<title>m_ApiKey</title>
<path fill="none" stroke="black" d="M646,-151.5C646,-151.5 934,-151.5 934,-151.5 940,-151.5 946,-157.5 946,-163.5 946,-163.5 946,-318.5 946,-318.5 946,-324.5 940,-330.5 934,-330.5 934,-330.5 646,-330.5 646,-330.5 640,-330.5 634,-324.5 634,-318.5 634,-318.5 634,-163.5 634,-163.5 634,-157.5 640,-151.5 646,-151.5"/>
<text text-anchor="start" x="684.5" y="-238.2" font-family="Arial Bold" font-size="11.00">ApiKey</text>
<polyline fill="none" stroke="black" points="778,-151.5 778,-330.5 "/>
<text text-anchor="start" x="785" y="-317" font-family="Arial" font-size="10.00">access_webhooks </text>
<text text-anchor="start" x="870" y="-317" font-family="Arial Italic" font-size="10.00" fill="#999999">boolean ∗</text>
<text text-anchor="start" x="785" y="-304" font-family="Arial" font-size="10.00">add_owner </text>
<text text-anchor="start" x="836" y="-304" font-family="Arial Italic" font-size="10.00" fill="#999999">boolean ∗</text>
<text text-anchor="start" x="785" y="-291" font-family="Arial" font-size="10.00">hashed_key </text>
<text text-anchor="start" x="841" y="-291" font-family="Arial Italic" font-size="10.00" fill="#999999">string ∗</text>
<text text-anchor="start" x="785" y="-278" font-family="Arial" font-size="10.00">index_rubygems </text>
<text text-anchor="start" x="860" y="-278" font-family="Arial Italic" font-size="10.00" fill="#999999">boolean ∗</text>
<text text-anchor="start" x="785" y="-265" font-family="Arial" font-size="10.00">last_accessed_at </text>
<text text-anchor="start" x="865" y="-265" font-family="Arial Italic" font-size="10.00" fill="#999999">datetime</text>
<text text-anchor="start" x="785" y="-252" font-family="Arial" font-size="10.00">mfa </text>
<text text-anchor="start" x="805" y="-252" font-family="Arial Italic" font-size="10.00" fill="#999999">boolean ∗</text>
<text text-anchor="start" x="785" y="-239" font-family="Arial" font-size="10.00">name </text>
<text text-anchor="start" x="813" y="-239" font-family="Arial Italic" font-size="10.00" fill="#999999">string ∗</text>
<text text-anchor="start" x="785" y="-226" font-family="Arial" font-size="10.00">push_rubygem </text>
<text text-anchor="start" x="852" y="-226" font-family="Arial Italic" font-size="10.00" fill="#999999">boolean ∗</text>
<text text-anchor="start" x="785" y="-213" font-family="Arial" font-size="10.00">remove_owner </text>
<text text-anchor="start" x="852" y="-213" font-family="Arial Italic" font-size="10.00" fill="#999999">boolean ∗</text>
<text text-anchor="start" x="785" y="-200" font-family="Arial" font-size="10.00">show_dashboard </text>
<text text-anchor="start" x="862" y="-200" font-family="Arial Italic" font-size="10.00" fill="#999999">boolean ∗</text>
<text text-anchor="start" x="785" y="-187" font-family="Arial" font-size="10.00">soft_deleted_at </text>
<text text-anchor="start" x="855" y="-187" font-family="Arial Italic" font-size="10.00" fill="#999999">datetime (6,0)</text>
<text text-anchor="start" x="785" y="-174" font-family="Arial" font-size="10.00">soft_deleted_rubygem_name </text>
<text text-anchor="start" x="914" y="-174" font-family="Arial Italic" font-size="10.00" fill="#999999">string</text>
<text text-anchor="start" x="785" y="-161" font-family="Arial" font-size="10.00">yank_rubygem </text>
<text text-anchor="start" x="852" y="-161" font-family="Arial Italic" font-size="10.00" fill="#999999">boolean ∗</text>
</g>
<!-- m_ApiKeyRubygemScope -->
<g id="node2" class="node">
<title>m_ApiKeyRubygemScope</title>
<path fill="none" stroke="black" d="M978,-7C978,-7 1098,-7 1098,-7 1104,-7 1110,-13 1110,-19 1110,-19 1110,-31 1110,-31 1110,-37 1104,-43 1098,-43 1098,-43 978,-43 978,-43 972,-43 966,-37 966,-31 966,-31 966,-19 966,-19 966,-13 972,-7 978,-7"/>
<text text-anchor="start" x="975" y="-22.2" font-family="Arial Bold" font-size="11.00">ApiKeyRubygemScope</text>
</g>
<!-- m_ApiKey&#45;&gt;m_ApiKeyRubygemScope -->
<g id="edge24" class="edge">
<title>m_ApiKey&#45;&gt;m_ApiKeyRubygemScope</title>
<path fill="none" stroke="black" d="M886.15,-151.23C910.29,-129.55 936.35,-106.66 961,-86 978.79,-71.09 999.6,-54.95 1015.09,-43.17"/>
</g>
<!-- m_Ownership -->
<g id="node10" class="node">
<title>m_Ownership</title>
<path fill="none" stroke="black" d="M987.5,-197C987.5,-197 1286.5,-197 1286.5,-197 1292.5,-197 1298.5,-203 1298.5,-209 1298.5,-209 1298.5,-273 1298.5,-273 1298.5,-279 1292.5,-285 1286.5,-285 1286.5,-285 987.5,-285 987.5,-285 981.5,-285 975.5,-279 975.5,-273 975.5,-273 975.5,-209 975.5,-209 975.5,-203 981.5,-197 987.5,-197"/>
<text text-anchor="start" x="1017" y="-238.2" font-family="Arial Bold" font-size="11.00">Ownership</text>
<polyline fill="none" stroke="black" points="1119.5,-197 1119.5,-285 "/>
<text text-anchor="start" x="1127" y="-272" font-family="Arial" font-size="10.00">confirmed_at </text>
<text text-anchor="start" x="1187" y="-272" font-family="Arial Italic" font-size="10.00" fill="#999999">datetime</text>
<text text-anchor="start" x="1127" y="-259" font-family="Arial" font-size="10.00">owner_notifier </text>
<text text-anchor="start" x="1191" y="-259" font-family="Arial Italic" font-size="10.00" fill="#999999">boolean ∗</text>
<text text-anchor="start" x="1127" y="-246" font-family="Arial" font-size="10.00">ownership_request_notifier </text>
<text text-anchor="start" x="1247" y="-246" font-family="Arial Italic" font-size="10.00" fill="#999999">boolean ∗</text>
<text text-anchor="start" x="1127" y="-233" font-family="Arial" font-size="10.00">push_notifier </text>
<text text-anchor="start" x="1186" y="-233" font-family="Arial Italic" font-size="10.00" fill="#999999">boolean ∗</text>
<text text-anchor="start" x="1127" y="-220" font-family="Arial" font-size="10.00">token </text>
<text text-anchor="start" x="1155" y="-220" font-family="Arial Italic" font-size="10.00" fill="#999999">string</text>
<text text-anchor="start" x="1127" y="-207" font-family="Arial" font-size="10.00">token_expires_at </text>
<text text-anchor="start" x="1205" y="-207" font-family="Arial Italic" font-size="10.00" fill="#999999">datetime</text>
</g>
<!-- m_Delayed::Backend::ActiveRecord::Job -->
<g id="node3" class="node">
<title>m_Delayed::Backend::ActiveRecord::Job</title>
<path fill="none" stroke="black" d="M2278,-510.5C2278,-510.5 2610,-510.5 2610,-510.5 2616,-510.5 2622,-516.5 2622,-522.5 2622,-522.5 2622,-625.5 2622,-625.5 2622,-631.5 2616,-637.5 2610,-637.5 2610,-637.5 2278,-637.5 2278,-637.5 2272,-637.5 2266,-631.5 2266,-625.5 2266,-625.5 2266,-522.5 2266,-522.5 2266,-516.5 2272,-510.5 2278,-510.5"/>
<text text-anchor="start" x="2271" y="-571.2" font-family="Arial Bold" font-size="11.00">Delayed::Backend::ActiveRecord::Job</text>
<polyline fill="none" stroke="black" points="2478,-510.5 2478,-637.5 "/>
<text text-anchor="start" x="2485" y="-624" font-family="Arial" font-size="10.00">attempts </text>
<text text-anchor="start" x="2527" y="-624" font-family="Arial Italic" font-size="10.00" fill="#999999">integer</text>
<text text-anchor="start" x="2485" y="-611" font-family="Arial" font-size="10.00">failed_at </text>
<text text-anchor="start" x="2525" y="-611" font-family="Arial Italic" font-size="10.00" fill="#999999">datetime</text>
<text text-anchor="start" x="2485" y="-598" font-family="Arial" font-size="10.00">handler </text>
<text text-anchor="start" x="2520" y="-598" font-family="Arial Italic" font-size="10.00" fill="#999999">text</text>
<text text-anchor="start" x="2485" y="-585" font-family="Arial" font-size="10.00">last_error </text>
<text text-anchor="start" x="2529" y="-585" font-family="Arial Italic" font-size="10.00" fill="#999999">text</text>
<text text-anchor="start" x="2485" y="-572" font-family="Arial" font-size="10.00">locked_at </text>
<text text-anchor="start" x="2531" y="-572" font-family="Arial Italic" font-size="10.00" fill="#999999">datetime</text>
<text text-anchor="start" x="2485" y="-559" font-family="Arial" font-size="10.00">locked_by </text>
<text text-anchor="start" x="2533" y="-559" font-family="Arial Italic" font-size="10.00" fill="#999999">string</text>
<text text-anchor="start" x="2485" y="-546" font-family="Arial" font-size="10.00">priority </text>
<text text-anchor="start" x="2518" y="-546" font-family="Arial Italic" font-size="10.00" fill="#999999">integer</text>
<text text-anchor="start" x="2485" y="-533" font-family="Arial" font-size="10.00">queue </text>
<text text-anchor="start" x="2515" y="-533" font-family="Arial Italic" font-size="10.00" fill="#999999">string</text>
<text text-anchor="start" x="2485" y="-520" font-family="Arial" font-size="10.00">run_at </text>
<text text-anchor="start" x="2516" y="-520" font-family="Arial Italic" font-size="10.00" fill="#999999">datetime</text>
</g>
<!-- m_Deletion -->
<g id="node4" class="node">
<title>m_Deletion</title>
<path fill="none" stroke="black" d="M329,-216.5C329,-216.5 593,-216.5 593,-216.5 599,-216.5 605,-222.5 605,-228.5 605,-228.5 605,-253.5 605,-253.5 605,-259.5 599,-265.5 593,-265.5 593,-265.5 329,-265.5 329,-265.5 323,-265.5 317,-259.5 317,-253.5 317,-253.5 317,-228.5 317,-228.5 317,-222.5 323,-216.5 329,-216.5"/>
<text text-anchor="start" x="365" y="-238.2" font-family="Arial Bold" font-size="11.00">Deletion</text>
<polyline fill="none" stroke="black" points="461,-216.5 461,-265.5 "/>
<text text-anchor="start" x="468" y="-252" font-family="Arial" font-size="10.00">number </text>
<text text-anchor="start" x="504" y="-252" font-family="Arial Italic" font-size="10.00" fill="#999999">string ∗</text>
<text text-anchor="start" x="468" y="-239" font-family="Arial" font-size="10.00">platform </text>
<text text-anchor="start" x="507" y="-239" font-family="Arial Italic" font-size="10.00" fill="#999999">string</text>
<text text-anchor="start" x="468" y="-226" font-family="Arial" font-size="10.00">rubygem </text>
<text text-anchor="start" x="509" y="-226" font-family="Arial Italic" font-size="10.00" fill="#999999">string ∗</text>
</g>
<!-- m_Dependency -->
<g id="node5" class="node">
<title>m_Dependency</title>
<path fill="none" stroke="black" d="M2394,-0.5C2394,-0.5 2658,-0.5 2658,-0.5 2664,-0.5 2670,-6.5 2670,-12.5 2670,-12.5 2670,-37.5 2670,-37.5 2670,-43.5 2664,-49.5 2658,-49.5 2658,-49.5 2394,-49.5 2394,-49.5 2388,-49.5 2382,-43.5 2382,-37.5 2382,-37.5 2382,-12.5 2382,-12.5 2382,-6.5 2388,-0.5 2394,-0.5"/>
<text text-anchor="start" x="2419" y="-22.2" font-family="Arial Bold" font-size="11.00">Dependency</text>
<polyline fill="none" stroke="black" points="2526,-0.5 2526,-49.5 "/>
<text text-anchor="start" x="2533" y="-36" font-family="Arial" font-size="10.00">requirements </text>
<text text-anchor="start" x="2593" y="-36" font-family="Arial Italic" font-size="10.00" fill="#999999">string ∗</text>
<text text-anchor="start" x="2533" y="-23" font-family="Arial" font-size="10.00">scope </text>
<text text-anchor="start" x="2563" y="-23" font-family="Arial Italic" font-size="10.00" fill="#999999">string</text>
<text text-anchor="start" x="2533" y="-10" font-family="Arial" font-size="10.00">unresolved_name </text>
<text text-anchor="start" x="2613" y="-10" font-family="Arial Italic" font-size="10.00" fill="#999999">string</text>
</g>
<!-- m_GemDownload -->
<g id="node6" class="node">
<title>m_GemDownload</title>
<path fill="none" stroke="black" d="M2077,-7C2077,-7 2341,-7 2341,-7 2347,-7 2353,-13 2353,-19 2353,-19 2353,-31 2353,-31 2353,-37 2347,-43 2341,-43 2341,-43 2077,-43 2077,-43 2071,-43 2065,-37 2065,-31 2065,-31 2065,-19 2065,-19 2065,-13 2071,-7 2077,-7"/>
<text text-anchor="start" x="2096.5" y="-22.2" font-family="Arial Bold" font-size="11.00">GemDownload</text>
<polyline fill="none" stroke="black" points="2209,-7 2209,-43 "/>
<text text-anchor="start" x="2216" y="-23" font-family="Arial" font-size="10.00">count </text>
<text text-anchor="start" x="2244" y="-23" font-family="Arial Italic" font-size="10.00" fill="#999999">integer (8)</text>
</g>
<!-- m_GemTypoException -->
<g id="node7" class="node">
<title>m_GemTypoException</title>
<path fill="none" stroke="black" d="M2663,-556C2663,-556 2927,-556 2927,-556 2933,-556 2939,-562 2939,-568 2939,-568 2939,-580 2939,-580 2939,-586 2933,-592 2927,-592 2927,-592 2663,-592 2663,-592 2657,-592 2651,-586 2651,-580 2651,-580 2651,-568 2651,-568 2651,-562 2657,-556 2663,-556"/>
<text text-anchor="start" x="2669.5" y="-571.2" font-family="Arial Bold" font-size="11.00">GemTypoException</text>
<polyline fill="none" stroke="black" points="2795,-556 2795,-592 "/>
<text text-anchor="start" x="2802" y="-579" font-family="Arial" font-size="10.00">info </text>
<text text-anchor="start" x="2821" y="-579" font-family="Arial Italic" font-size="10.00" fill="#999999">text</text>
<text text-anchor="start" x="2802" y="-566" font-family="Arial" font-size="10.00">name </text>
<text text-anchor="start" x="2830" y="-566" font-family="Arial Italic" font-size="10.00" fill="#999999">string ∗ U</text>
</g>
<!-- m_Linkset -->
<g id="node8" class="node">
<title>m_Linkset</title>
<path fill="none" stroke="black" d="M2624,-197C2624,-197 2888,-197 2888,-197 2894,-197 2900,-203 2900,-209 2900,-209 2900,-273 2900,-273 2900,-279 2894,-285 2888,-285 2888,-285 2624,-285 2624,-285 2618,-285 2612,-279 2612,-273 2612,-273 2612,-209 2612,-209 2612,-203 2618,-197 2624,-197"/>
<text text-anchor="start" x="2662.5" y="-238.2" font-family="Arial Bold" font-size="11.00">Linkset</text>
<polyline fill="none" stroke="black" points="2756,-197 2756,-285 "/>
<text text-anchor="start" x="2763" y="-272" font-family="Arial" font-size="10.00">bugs </text>
<text text-anchor="start" x="2788" y="-272" font-family="Arial Italic" font-size="10.00" fill="#999999">string</text>
<text text-anchor="start" x="2763" y="-259" font-family="Arial" font-size="10.00">code </text>
<text text-anchor="start" x="2788" y="-259" font-family="Arial Italic" font-size="10.00" fill="#999999">string</text>
<text text-anchor="start" x="2763" y="-246" font-family="Arial" font-size="10.00">docs </text>
<text text-anchor="start" x="2788" y="-246" font-family="Arial Italic" font-size="10.00" fill="#999999">string</text>
<text text-anchor="start" x="2763" y="-233" font-family="Arial" font-size="10.00">home </text>
<text text-anchor="start" x="2791" y="-233" font-family="Arial Italic" font-size="10.00" fill="#999999">string</text>
<text text-anchor="start" x="2763" y="-220" font-family="Arial" font-size="10.00">mail </text>
<text text-anchor="start" x="2785" y="-220" font-family="Arial Italic" font-size="10.00" fill="#999999">string</text>
<text text-anchor="start" x="2763" y="-207" font-family="Arial" font-size="10.00">wiki </text>
<text text-anchor="start" x="2784" y="-207" font-family="Arial Italic" font-size="10.00" fill="#999999">string</text>
</g>
<!-- m_LogTicket -->
<g id="node9" class="node">
<title>m_LogTicket</title>
<path fill="none" stroke="black" d="M2980,-536.5C2980,-536.5 3244,-536.5 3244,-536.5 3250,-536.5 3256,-542.5 3256,-548.5 3256,-548.5 3256,-599.5 3256,-599.5 3256,-605.5 3250,-611.5 3244,-611.5 3244,-611.5 2980,-611.5 2980,-611.5 2974,-611.5 2968,-605.5 2968,-599.5 2968,-599.5 2968,-548.5 2968,-548.5 2968,-542.5 2974,-536.5 2980,-536.5"/>
<text text-anchor="start" x="3012" y="-571.2" font-family="Arial Bold" font-size="11.00">LogTicket</text>
<polyline fill="none" stroke="black" points="3112,-536.5 3112,-611.5 "/>
<text text-anchor="start" x="3119" y="-598" font-family="Arial" font-size="10.00">backend </text>
<text text-anchor="start" x="3159" y="-598" font-family="Arial Italic" font-size="10.00" fill="#999999">integer</text>
<text text-anchor="start" x="3119" y="-585" font-family="Arial" font-size="10.00">directory </text>
<text text-anchor="start" x="3160" y="-585" font-family="Arial Italic" font-size="10.00" fill="#999999">string</text>
<text text-anchor="start" x="3119" y="-572" font-family="Arial" font-size="10.00">key </text>
<text text-anchor="start" x="3138" y="-572" font-family="Arial Italic" font-size="10.00" fill="#999999">string</text>
<text text-anchor="start" x="3119" y="-559" font-family="Arial" font-size="10.00">processed_count </text>
<text text-anchor="start" x="3197" y="-559" font-family="Arial Italic" font-size="10.00" fill="#999999">integer</text>
<text text-anchor="start" x="3119" y="-546" font-family="Arial" font-size="10.00">status </text>
<text text-anchor="start" x="3150" y="-546" font-family="Arial Italic" font-size="10.00" fill="#999999">string</text>
</g>
<!-- m_Ownership&#45;&gt;m_ApiKeyRubygemScope -->
<g id="edge22" class="edge">
<title>m_Ownership&#45;&gt;m_ApiKeyRubygemScope</title>
<path fill="none" stroke="black" d="M1117.08,-196.95C1096.94,-153.41 1066.47,-87.54 1049.85,-51.61"/>
<polygon fill="black" stroke="black" points="1052.57,-49.99 1045.93,-43.15 1046.85,-52.64 1052.57,-49.99"/>
</g>
<!-- m_OwnershipCall -->
<g id="node11" class="node">
<title>m_OwnershipCall</title>
<path fill="none" stroke="black" d="M1399,-223C1399,-223 1663,-223 1663,-223 1669,-223 1675,-229 1675,-235 1675,-235 1675,-247 1675,-247 1675,-253 1669,-259 1663,-259 1663,-259 1399,-259 1399,-259 1393,-259 1387,-253 1387,-247 1387,-247 1387,-235 1387,-235 1387,-229 1393,-223 1399,-223"/>
<text text-anchor="start" x="1418.5" y="-238.2" font-family="Arial Bold" font-size="11.00">OwnershipCall</text>
<polyline fill="none" stroke="black" points="1531,-223 1531,-259 "/>
<text text-anchor="start" x="1538" y="-246" font-family="Arial" font-size="10.00">note </text>
<text text-anchor="start" x="1560" y="-246" font-family="Arial Italic" font-size="10.00" fill="#999999">text ∗</text>
<text text-anchor="start" x="1538" y="-233" font-family="Arial" font-size="10.00">status </text>
<text text-anchor="start" x="1569" y="-233" font-family="Arial Italic" font-size="10.00" fill="#999999">boolean ∗</text>
</g>
<!-- m_OwnershipRequest -->
<g id="node12" class="node">
<title>m_OwnershipRequest</title>
<path fill="none" stroke="black" d="M1305,-7C1305,-7 1569,-7 1569,-7 1575,-7 1581,-13 1581,-19 1581,-19 1581,-31 1581,-31 1581,-37 1575,-43 1569,-43 1569,-43 1305,-43 1305,-43 1299,-43 1293,-37 1293,-31 1293,-31 1293,-19 1293,-19 1293,-13 1299,-7 1305,-7"/>
<text text-anchor="start" x="1313" y="-22.2" font-family="Arial Bold" font-size="11.00">OwnershipRequest</text>
<polyline fill="none" stroke="black" points="1437,-7 1437,-43 "/>
<text text-anchor="start" x="1444" y="-30" font-family="Arial" font-size="10.00">note </text>
<text text-anchor="start" x="1466" y="-30" font-family="Arial Italic" font-size="10.00" fill="#999999">text ∗</text>
<text text-anchor="start" x="1444" y="-17" font-family="Arial" font-size="10.00">status </text>
<text text-anchor="start" x="1475" y="-17" font-family="Arial Italic" font-size="10.00" fill="#999999">integer (2) ∗</text>
</g>
<!-- m_OwnershipCall&#45;&gt;m_OwnershipRequest -->
<g id="edge21" class="edge">
<title>m_OwnershipCall&#45;&gt;m_OwnershipRequest</title>
<path fill="none" stroke="black" d="M1523.47,-222.85C1507,-185.36 1467.73,-95.95 1448.29,-51.7"/>
<polygon fill="black" stroke="black" points="1451.07,-50.21 1444.57,-43.23 1445.3,-52.74 1451.07,-50.21"/>
</g>
<!-- m_Rubygem -->
<g id="node13" class="node">
<title>m_Rubygem</title>
<path fill="none" stroke="black" d="M1961,-549.5C1961,-549.5 2225,-549.5 2225,-549.5 2231,-549.5 2237,-555.5 2237,-561.5 2237,-561.5 2237,-586.5 2237,-586.5 2237,-592.5 2231,-598.5 2225,-598.5 2225,-598.5 1961,-598.5 1961,-598.5 1955,-598.5 1949,-592.5 1949,-586.5 1949,-586.5 1949,-561.5 1949,-561.5 1949,-555.5 1955,-549.5 1961,-549.5"/>
<text text-anchor="start" x="1993.5" y="-571.2" font-family="Arial Bold" font-size="11.00">Rubygem</text>
<polyline fill="none" stroke="black" points="2093,-549.5 2093,-598.5 "/>
<text text-anchor="start" x="2100" y="-585" font-family="Arial" font-size="10.00">indexed </text>
<text text-anchor="start" x="2137" y="-585" font-family="Arial Italic" font-size="10.00" fill="#999999">boolean ∗</text>
<text text-anchor="start" x="2100" y="-572" font-family="Arial" font-size="10.00">name </text>
<text text-anchor="start" x="2128" y="-572" font-family="Arial Italic" font-size="10.00" fill="#999999">string ∗ U</text>
<text text-anchor="start" x="2100" y="-559" font-family="Arial" font-size="10.00">slug </text>
<text text-anchor="start" x="2122" y="-559" font-family="Arial Italic" font-size="10.00" fill="#999999">string</text>
</g>
<!-- m_Rubygem&#45;&gt;m_Dependency -->
<g id="edge23" class="edge">
<title>m_Rubygem&#45;&gt;m_Dependency</title>
<path fill="none" stroke="black" d="M2110.7,-549.49C2137.22,-516.36 2190.74,-457.17 2252,-432 2320.24,-403.96 2864.27,-449.56 2915,-396 3009.75,-295.97 3004.69,-190.59 2915,-86 2884.43,-50.35 2774.56,-35.69 2679.35,-29.75"/>
<polygon fill="black" stroke="black" points="2679.36,-26.6 2670.18,-29.2 2678.98,-32.88 2679.36,-26.6"/>
</g>
<!-- m_Rubygem&#45;&gt;m_GemDownload -->
<g id="edge18" class="edge">
<title>m_Rubygem&#45;&gt;m_GemDownload</title>
<path fill="none" stroke="black" d="M2209,-240C2182.83,-171.05 2197.25,-80.36 2205.04,-43.1"/>
</g>
<!-- m_Rubygem&#45;&gt;m_Linkset -->
<g id="edge17" class="edge">
<title>m_Rubygem&#45;&gt;m_Linkset</title>
<path fill="none" stroke="black" d="M2111.32,-549.35C2138.2,-516.61 2191.72,-458.53 2252,-432 2393.51,-369.72 2458,-461.59 2598,-396 2650.9,-371.22 2696.84,-321.31 2725.34,-285.01"/>
</g>
<!-- m_Rubygem&#45;&gt;m_Ownership -->
<g id="edge16" class="edge">
<title>m_Rubygem&#45;&gt;m_Ownership</title>
<path fill="none" stroke="black" d="M1948.82,-552.4C1799.86,-527.76 1562.87,-479.05 1372,-396 1308.87,-368.53 1243.92,-324.54 1198.34,-290.59"/>
<polygon fill="black" stroke="black" points="1200.01,-287.9 1190.92,-285.02 1196.23,-292.94 1200.01,-287.9"/>
</g>
<!-- m_Rubygem&#45;&gt;m_OwnershipCall -->
<g id="edge19" class="edge">
<title>m_Rubygem&#45;&gt;m_OwnershipCall</title>
<path fill="none" stroke="black" d="M2018.77,-549.37C1934.73,-520.65 1795.77,-467.07 1690,-396 1633.66,-358.14 1579.37,-299.21 1551.12,-266.31"/>
<polygon fill="black" stroke="black" points="1553.4,-264.13 1545.17,-259.31 1548.6,-268.21 1553.4,-264.13"/>
</g>
<!-- m_Rubygem&#45;&gt;m_OwnershipRequest -->
<g id="edge20" class="edge">
<title>m_Rubygem&#45;&gt;m_OwnershipRequest</title>
<path fill="none" stroke="black" d="M2113.1,-549.17C2156.63,-494.53 2252.32,-356.15 2209,-242"/>
<path fill="none" stroke="black" d="M2209,-240C2184.29,-174.88 2231.78,-132.58 2180,-86 2137.19,-47.49 1794.78,-33.52 1590.04,-28.59"/>
<polygon fill="black" stroke="black" points="1590.08,-25.44 1581.01,-28.38 1589.93,-31.74 1590.08,-25.44"/>
</g>
<!-- m_Subscription -->
<g id="node15" class="node">
<title>m_Subscription</title>
<path fill="none" stroke="black" d="M2033,-223C2033,-223 2153,-223 2153,-223 2159,-223 2165,-229 2165,-235 2165,-235 2165,-247 2165,-247 2165,-253 2159,-259 2153,-259 2153,-259 2033,-259 2033,-259 2027,-259 2021,-253 2021,-247 2021,-247 2021,-235 2021,-235 2021,-229 2027,-223 2033,-223"/>
<text text-anchor="start" x="2057" y="-238.2" font-family="Arial Bold" font-size="11.00">Subscription</text>
</g>
<!-- m_Rubygem&#45;&gt;m_Subscription -->
<g id="edge15" class="edge">
<title>m_Rubygem&#45;&gt;m_Subscription</title>
<path fill="none" stroke="black" d="M2093,-549.46C2093,-489.46 2093,-331.09 2093,-268.24"/>
<polygon fill="black" stroke="black" points="2096.15,-268.01 2093,-259.01 2089.85,-268.01 2096.15,-268.01"/>
</g>
<!-- m_Version -->
<g id="node18" class="node">
<title>m_Version</title>
<path fill="none" stroke="black" d="M2265,-86.5C2265,-86.5 2571,-86.5 2571,-86.5 2577,-86.5 2583,-92.5 2583,-98.5 2583,-98.5 2583,-383.5 2583,-383.5 2583,-389.5 2577,-395.5 2571,-395.5 2571,-395.5 2265,-395.5 2265,-395.5 2259,-395.5 2253,-389.5 2253,-383.5 2253,-383.5 2253,-98.5 2253,-98.5 2253,-92.5 2259,-86.5 2265,-86.5"/>
<text text-anchor="start" x="2303" y="-238.2" font-family="Arial Bold" font-size="11.00">Version</text>
<polyline fill="none" stroke="black" points="2397,-86.5 2397,-395.5 "/>
<text text-anchor="start" x="2404" y="-382" font-family="Arial" font-size="10.00">authors </text>
<text text-anchor="start" x="2440" y="-382" font-family="Arial Italic" font-size="10.00" fill="#999999">text</text>
<text text-anchor="start" x="2404" y="-369" font-family="Arial" font-size="10.00">built_at </text>
<text text-anchor="start" x="2439" y="-369" font-family="Arial Italic" font-size="10.00" fill="#999999">datetime</text>
<text text-anchor="start" x="2404" y="-356" font-family="Arial" font-size="10.00">canonical_number </text>
<text text-anchor="start" x="2486" y="-356" font-family="Arial Italic" font-size="10.00" fill="#999999">string</text>
<text text-anchor="start" x="2404" y="-343" font-family="Arial" font-size="10.00">cert_chain </text>
<text text-anchor="start" x="2453" y="-343" font-family="Arial Italic" font-size="10.00" fill="#999999">text</text>
<text text-anchor="start" x="2404" y="-330" font-family="Arial" font-size="10.00">description </text>
<text text-anchor="start" x="2455" y="-330" font-family="Arial Italic" font-size="10.00" fill="#999999">text</text>
<text text-anchor="start" x="2404" y="-317" font-family="Arial" font-size="10.00">full_name </text>
<text text-anchor="start" x="2450" y="-317" font-family="Arial Italic" font-size="10.00" fill="#999999">string ∗ U</text>
<text text-anchor="start" x="2404" y="-304" font-family="Arial" font-size="10.00">indexed </text>
<text text-anchor="start" x="2441" y="-304" font-family="Arial Italic" font-size="10.00" fill="#999999">boolean</text>
<text text-anchor="start" x="2404" y="-291" font-family="Arial" font-size="10.00">info_checksum </text>
<text text-anchor="start" x="2474" y="-291" font-family="Arial Italic" font-size="10.00" fill="#999999">string</text>
<text text-anchor="start" x="2404" y="-278" font-family="Arial" font-size="10.00">latest </text>
<text text-anchor="start" x="2432" y="-278" font-family="Arial Italic" font-size="10.00" fill="#999999">boolean</text>
<text text-anchor="start" x="2404" y="-265" font-family="Arial" font-size="10.00">licenses </text>
<text text-anchor="start" x="2444" y="-265" font-family="Arial Italic" font-size="10.00" fill="#999999">string</text>
<text text-anchor="start" x="2404" y="-252" font-family="Arial" font-size="10.00">metadata </text>
<text text-anchor="start" x="2448" y="-252" font-family="Arial Italic" font-size="10.00" fill="#999999">hstore ∗</text>
<text text-anchor="start" x="2404" y="-239" font-family="Arial" font-size="10.00">number </text>
<text text-anchor="start" x="2440" y="-239" font-family="Arial Italic" font-size="10.00" fill="#999999">string</text>
<text text-anchor="start" x="2404" y="-226" font-family="Arial" font-size="10.00">platform </text>
<text text-anchor="start" x="2443" y="-226" font-family="Arial Italic" font-size="10.00" fill="#999999">string</text>
<text text-anchor="start" x="2404" y="-213" font-family="Arial" font-size="10.00">position </text>
<text text-anchor="start" x="2441" y="-213" font-family="Arial Italic" font-size="10.00" fill="#999999">integer</text>
<text text-anchor="start" x="2404" y="-200" font-family="Arial" font-size="10.00">prerelease </text>
<text text-anchor="start" x="2453" y="-200" font-family="Arial Italic" font-size="10.00" fill="#999999">boolean</text>
<text text-anchor="start" x="2404" y="-187" font-family="Arial" font-size="10.00">required_ruby_version </text>
<text text-anchor="start" x="2503" y="-187" font-family="Arial Italic" font-size="10.00" fill="#999999">string</text>
<text text-anchor="start" x="2404" y="-174" font-family="Arial" font-size="10.00">required_rubygems_version </text>
<text text-anchor="start" x="2527" y="-174" font-family="Arial Italic" font-size="10.00" fill="#999999">string (255)</text>
<text text-anchor="start" x="2404" y="-161" font-family="Arial" font-size="10.00">requirements </text>
<text text-anchor="start" x="2464" y="-161" font-family="Arial Italic" font-size="10.00" fill="#999999">text</text>
<text text-anchor="start" x="2404" y="-148" font-family="Arial" font-size="10.00">sha256 </text>
<text text-anchor="start" x="2439" y="-148" font-family="Arial Italic" font-size="10.00" fill="#999999">string</text>
<text text-anchor="start" x="2404" y="-135" font-family="Arial" font-size="10.00">size </text>
<text text-anchor="start" x="2426" y="-135" font-family="Arial Italic" font-size="10.00" fill="#999999">integer</text>
<text text-anchor="start" x="2404" y="-122" font-family="Arial" font-size="10.00">summary </text>
<text text-anchor="start" x="2448" y="-122" font-family="Arial Italic" font-size="10.00" fill="#999999">text</text>
<text text-anchor="start" x="2404" y="-109" font-family="Arial" font-size="10.00">yanked_at </text>
<text text-anchor="start" x="2453" y="-109" font-family="Arial Italic" font-size="10.00" fill="#999999">datetime</text>
<text text-anchor="start" x="2404" y="-96" font-family="Arial" font-size="10.00">yanked_info_checksum </text>
<text text-anchor="start" x="2510" y="-96" font-family="Arial Italic" font-size="10.00" fill="#999999">string</text>
</g>
<!-- m_Rubygem&#45;&gt;m_Version -->
<g id="edge4" class="edge">
<title>m_Rubygem&#45;&gt;m_Version</title>
<path fill="none" stroke="black" d="M2116.11,-549.46C2146.9,-518.1 2204.07,-459.88 2260.44,-402.47"/>
<polygon fill="black" stroke="black" points="2262.9,-404.46 2266.95,-395.83 2258.4,-400.05 2262.9,-404.46"/>
</g>
<!-- m_WebHook -->
<g id="node19" class="node">
<title>m_WebHook</title>
<path fill="none" stroke="black" d="M1716,-223C1716,-223 1980,-223 1980,-223 1986,-223 1992,-229 1992,-235 1992,-235 1992,-247 1992,-247 1992,-253 1986,-259 1980,-259 1980,-259 1716,-259 1716,-259 1710,-259 1704,-253 1704,-247 1704,-247 1704,-235 1704,-235 1704,-229 1710,-223 1716,-223"/>
<text text-anchor="start" x="1748" y="-238.2" font-family="Arial Bold" font-size="11.00">WebHook</text>
<polyline fill="none" stroke="black" points="1848,-223 1848,-259 "/>
<text text-anchor="start" x="1855" y="-246" font-family="Arial" font-size="10.00">failure_count </text>
<text text-anchor="start" x="1914" y="-246" font-family="Arial Italic" font-size="10.00" fill="#999999">integer</text>
<text text-anchor="start" x="1855" y="-233" font-family="Arial" font-size="10.00">url </text>
<text text-anchor="start" x="1869" y="-233" font-family="Arial Italic" font-size="10.00" fill="#999999">string ∗</text>
</g>
<!-- m_Rubygem&#45;&gt;m_WebHook -->
<g id="edge3" class="edge">
<title>m_Rubygem&#45;&gt;m_WebHook</title>
<path fill="none" stroke="black" d="M2075.58,-549.46C2030.71,-488.84 1911.53,-327.82 1866.01,-266.34"/>
<polygon fill="black" stroke="black" points="1868.47,-264.37 1860.59,-259.01 1863.41,-268.12 1868.47,-264.37"/>
</g>
<!-- m_SendgridEvent -->
<g id="node14" class="node">
<title>m_SendgridEvent</title>
<path fill="none" stroke="black" d="M3297,-530C3297,-530 3561,-530 3561,-530 3567,-530 3573,-536 3573,-542 3573,-542 3573,-606 3573,-606 3573,-612 3567,-618 3561,-618 3561,-618 3297,-618 3297,-618 3291,-618 3285,-612 3285,-606 3285,-606 3285,-542 3285,-542 3285,-536 3291,-530 3297,-530"/>
<text text-anchor="start" x="3315.5" y="-571.2" font-family="Arial Bold" font-size="11.00">SendgridEvent</text>
<polyline fill="none" stroke="black" points="3429,-530 3429,-618 "/>
<text text-anchor="start" x="3436" y="-605" font-family="Arial" font-size="10.00">email </text>
<text text-anchor="start" x="3463" y="-605" font-family="Arial Italic" font-size="10.00" fill="#999999">string</text>
<text text-anchor="start" x="3436" y="-592" font-family="Arial" font-size="10.00">event_type </text>
<text text-anchor="start" x="3488" y="-592" font-family="Arial Italic" font-size="10.00" fill="#999999">string</text>
<text text-anchor="start" x="3436" y="-579" font-family="Arial" font-size="10.00">occurred_at </text>
<text text-anchor="start" x="3491" y="-579" font-family="Arial Italic" font-size="10.00" fill="#999999">datetime</text>
<text text-anchor="start" x="3436" y="-566" font-family="Arial" font-size="10.00">payload </text>
<text text-anchor="start" x="3473" y="-566" font-family="Arial Italic" font-size="10.00" fill="#999999">jsonb ∗</text>
<text text-anchor="start" x="3436" y="-553" font-family="Arial" font-size="10.00">sendgrid_id </text>
<text text-anchor="start" x="3489" y="-553" font-family="Arial Italic" font-size="10.00" fill="#999999">string ∗</text>
<text text-anchor="start" x="3436" y="-540" font-family="Arial" font-size="10.00">status </text>
<text text-anchor="start" x="3467" y="-540" font-family="Arial Italic" font-size="10.00" fill="#999999">string ∗</text>
</g>
<!-- m_User -->
<g id="node16" class="node">
<title>m_User</title>
<path fill="none" stroke="black" d="M987.5,-432.5C987.5,-432.5 1286.5,-432.5 1286.5,-432.5 1292.5,-432.5 1298.5,-438.5 1298.5,-444.5 1298.5,-444.5 1298.5,-703.5 1298.5,-703.5 1298.5,-709.5 1292.5,-715.5 1286.5,-715.5 1286.5,-715.5 987.5,-715.5 987.5,-715.5 981.5,-715.5 975.5,-709.5 975.5,-703.5 975.5,-703.5 975.5,-444.5 975.5,-444.5 975.5,-438.5 981.5,-432.5 987.5,-432.5"/>
<text text-anchor="start" x="1033" y="-571.2" font-family="Arial Bold" font-size="11.00">User</text>
<polyline fill="none" stroke="black" points="1119.5,-432.5 1119.5,-715.5 "/>
<text text-anchor="start" x="1127" y="-702" font-family="Arial" font-size="10.00">api_key </text>
<text text-anchor="start" x="1164" y="-702" font-family="Arial Italic" font-size="10.00" fill="#999999">string</text>
<text text-anchor="start" x="1127" y="-689" font-family="Arial" font-size="10.00">blocked_email </text>
<text text-anchor="start" x="1193" y="-689" font-family="Arial Italic" font-size="10.00" fill="#999999">string</text>
<text text-anchor="start" x="1127" y="-676" font-family="Arial" font-size="10.00">confirmation_token </text>
<text text-anchor="start" x="1213" y="-676" font-family="Arial Italic" font-size="10.00" fill="#999999">string (128)</text>
<text text-anchor="start" x="1127" y="-663" font-family="Arial" font-size="10.00">email </text>
<text text-anchor="start" x="1154" y="-663" font-family="Arial Italic" font-size="10.00" fill="#999999">string ∗ U</text>
<text text-anchor="start" x="1127" y="-650" font-family="Arial" font-size="10.00">email_confirmed </text>
<text text-anchor="start" x="1202" y="-650" font-family="Arial Italic" font-size="10.00" fill="#999999">boolean ∗</text>
<text text-anchor="start" x="1127" y="-637" font-family="Arial" font-size="10.00">email_reset </text>
<text text-anchor="start" x="1181" y="-637" font-family="Arial Italic" font-size="10.00" fill="#999999">boolean</text>
<text text-anchor="start" x="1127" y="-624" font-family="Arial" font-size="10.00">encrypted_password </text>
<text text-anchor="start" x="1221" y="-624" font-family="Arial Italic" font-size="10.00" fill="#999999">string (128)</text>
<text text-anchor="start" x="1127" y="-611" font-family="Arial" font-size="10.00">handle </text>
<text text-anchor="start" x="1159" y="-611" font-family="Arial Italic" font-size="10.00" fill="#999999">string U</text>
<text text-anchor="start" x="1127" y="-598" font-family="Arial" font-size="10.00">hide_email </text>
<text text-anchor="start" x="1177" y="-598" font-family="Arial Italic" font-size="10.00" fill="#999999">boolean</text>
<text text-anchor="start" x="1127" y="-585" font-family="Arial" font-size="10.00">mail_fails </text>
<text text-anchor="start" x="1172" y="-585" font-family="Arial Italic" font-size="10.00" fill="#999999">integer</text>
<text text-anchor="start" x="1127" y="-572" font-family="Arial" font-size="10.00">mfa_level </text>
<text text-anchor="start" x="1173" y="-572" font-family="Arial Italic" font-size="10.00" fill="#999999">integer</text>
<text text-anchor="start" x="1127" y="-559" font-family="Arial" font-size="10.00">mfa_recovery_codes </text>
<text text-anchor="start" x="1221" y="-559" font-family="Arial Italic" font-size="10.00" fill="#999999">string</text>
<text text-anchor="start" x="1127" y="-546" font-family="Arial" font-size="10.00">mfa_seed </text>
<text text-anchor="start" x="1173" y="-546" font-family="Arial Italic" font-size="10.00" fill="#999999">string</text>
<text text-anchor="start" x="1127" y="-533" font-family="Arial" font-size="10.00">remember_token </text>
<text text-anchor="start" x="1203" y="-533" font-family="Arial Italic" font-size="10.00" fill="#999999">string (128)</text>
<text text-anchor="start" x="1127" y="-520" font-family="Arial" font-size="10.00">remember_token_expires_at </text>
<text text-anchor="start" x="1254" y="-520" font-family="Arial Italic" font-size="10.00" fill="#999999">datetime</text>
<text text-anchor="start" x="1127" y="-507" font-family="Arial" font-size="10.00">salt </text>
<text text-anchor="start" x="1146" y="-507" font-family="Arial Italic" font-size="10.00" fill="#999999">string (128)</text>
<text text-anchor="start" x="1127" y="-494" font-family="Arial" font-size="10.00">token </text>
<text text-anchor="start" x="1155" y="-494" font-family="Arial Italic" font-size="10.00" fill="#999999">string (128)</text>
<text text-anchor="start" x="1127" y="-481" font-family="Arial" font-size="10.00">token_expires_at </text>
<text text-anchor="start" x="1205" y="-481" font-family="Arial Italic" font-size="10.00" fill="#999999">datetime</text>
<text text-anchor="start" x="1127" y="-468" font-family="Arial" font-size="10.00">twitter_username </text>
<text text-anchor="start" x="1206" y="-468" font-family="Arial Italic" font-size="10.00" fill="#999999">string</text>
<text text-anchor="start" x="1127" y="-455" font-family="Arial" font-size="10.00">unconfirmed_email </text>
<text text-anchor="start" x="1212" y="-455" font-family="Arial Italic" font-size="10.00" fill="#999999">string</text>
<text text-anchor="start" x="1127" y="-442" font-family="Arial" font-size="10.00">webauthn_id </text>
<text text-anchor="start" x="1185" y="-442" font-family="Arial Italic" font-size="10.00" fill="#999999">string</text>
</g>
<!-- m_User&#45;&gt;m_ApiKey -->
<g id="edge12" class="edge">
<title>m_User&#45;&gt;m_ApiKey</title>
<path fill="none" stroke="black" d="M989.59,-432.39C955.81,-400.17 920.69,-366.66 889.49,-336.9"/>
<polygon fill="black" stroke="black" points="891.58,-334.54 882.89,-330.61 887.23,-339.1 891.58,-334.54"/>
</g>
<!-- m_User&#45;&gt;m_Deletion -->
<g id="edge11" class="edge">
<title>m_User&#45;&gt;m_Deletion</title>
<path fill="none" stroke="black" d="M975.43,-537.54C868.95,-509.55 729.33,-463.78 619,-396 564.46,-362.49 513.8,-307.11 485.19,-272.69"/>
<polygon fill="black" stroke="black" points="487.58,-270.63 479.43,-265.67 482.71,-274.63 487.58,-270.63"/>
</g>
<!-- m_User&#45;&gt;m_Ownership -->
<g id="edge8" class="edge">
<title>m_User&#45;&gt;m_Ownership</title>
<path fill="none" stroke="black" d="M1137,-432.15C1137,-383.32 1137,-331.57 1137,-294.4"/>
<polygon fill="black" stroke="black" points="1140.15,-294.28 1137,-285.28 1133.85,-294.28 1140.15,-294.28"/>
</g>
<!-- m_User&#45;&gt;m_OwnershipCall -->
<g id="edge13" class="edge">
<title>m_User&#45;&gt;m_OwnershipCall</title>
<path fill="none" stroke="black" d="M1298.79,-450.24C1321.28,-432.35 1343.9,-413.92 1365,-396 1417.09,-351.76 1474.99,-296.59 1506.78,-265.73"/>
<polygon fill="black" stroke="black" points="1509.28,-267.7 1513.53,-259.16 1504.89,-263.18 1509.28,-267.7"/>
</g>
<!-- m_User&#45;&gt;m_OwnershipRequest -->
<g id="edge14" class="edge">
<title>m_User&#45;&gt;m_OwnershipRequest</title>
<path fill="none" stroke="black" d="M1290.19,-432.32C1298.69,-420.6 1306.43,-408.46 1313,-396 1378.43,-271.94 1303.93,-208.63 1372,-86 1379.9,-71.77 1392.4,-59.03 1404.34,-49"/>
<polygon fill="black" stroke="black" points="1406.62,-51.21 1411.66,-43.11 1402.67,-46.3 1406.62,-51.21"/>
</g>
<!-- m_User&#45;&gt;m_Subscription -->
<g id="edge10" class="edge">
<title>m_User&#45;&gt;m_Subscription</title>
<path fill="none" stroke="black" d="M1298.86,-547.55C1534.54,-509.38 1950.38,-437.38 2007,-396 2050.8,-363.99 2075.17,-302.53 2086.02,-267.71"/>
<polygon fill="black" stroke="black" points="2089.05,-268.58 2088.61,-259.05 2083.01,-266.77 2089.05,-268.58"/>
</g>
<!-- m_User&#45;&gt;m_Version -->
<g id="edge7" class="edge">
<title>m_User&#45;&gt;m_Version</title>
<path fill="none" stroke="black" d="M1298.59,-541.81C1459.5,-511.38 1713.75,-464.98 1935,-432 2066.08,-412.46 2109.19,-448.21 2231,-396 2235.59,-394.03 2240.16,-391.92 2244.69,-389.67"/>
<polygon fill="black" stroke="black" points="2246.26,-392.4 2252.82,-385.49 2243.38,-386.8 2246.26,-392.4"/>
</g>
<!-- m_User&#45;&gt;m_WebHook -->
<g id="edge2" class="edge">
<title>m_User&#45;&gt;m_WebHook</title>
<path fill="none" stroke="black" d="M1298.69,-542.05C1413.62,-515.23 1568.5,-469.02 1690,-396 1748.45,-360.87 1802.02,-300.12 1829.23,-266.38"/>
<polygon fill="black" stroke="black" points="1831.79,-268.21 1834.94,-259.21 1826.87,-264.28 1831.79,-268.21"/>
</g>
<!-- m_WebauthnCredential -->
<g id="node20" class="node">
<title>m_WebauthnCredential</title>
<path fill="none" stroke="black" d="M12,-210C12,-210 276,-210 276,-210 282,-210 288,-216 288,-222 288,-222 288,-260 288,-260 288,-266 282,-272 276,-272 276,-272 12,-272 12,-272 6,-272 0,-266 0,-260 0,-260 0,-222 0,-222 0,-216 6,-210 12,-210"/>
<text text-anchor="start" x="16" y="-238.2" font-family="Arial Bold" font-size="11.00">WebauthnCredential</text>
<polyline fill="none" stroke="black" points="144,-210 144,-272 "/>
<text text-anchor="start" x="151" y="-259" font-family="Arial" font-size="10.00">external_id </text>
<text text-anchor="start" x="202" y="-259" font-family="Arial Italic" font-size="10.00" fill="#999999">string ∗ U</text>
<text text-anchor="start" x="151" y="-246" font-family="Arial" font-size="10.00">nickname </text>
<text text-anchor="start" x="197" y="-246" font-family="Arial Italic" font-size="10.00" fill="#999999">string ∗ U</text>
<text text-anchor="start" x="151" y="-233" font-family="Arial" font-size="10.00">public_key </text>
<text text-anchor="start" x="201" y="-233" font-family="Arial Italic" font-size="10.00" fill="#999999">string ∗</text>
<text text-anchor="start" x="151" y="-220" font-family="Arial" font-size="10.00">sign_count </text>
<text text-anchor="start" x="202" y="-220" font-family="Arial Italic" font-size="10.00" fill="#999999">integer (8) ∗</text>
</g>
<!-- m_User&#45;&gt;m_WebauthnCredential -->
<g id="edge1" class="edge">
<title>m_User&#45;&gt;m_WebauthnCredential</title>
<path fill="none" stroke="black" d="M975.24,-565.32C800.04,-551.14 516.84,-510.79 302,-396 248.38,-367.35 200.52,-315.03 171.88,-279.41"/>
<polygon fill="black" stroke="black" points="174.13,-277.17 166.07,-272.07 169.19,-281.08 174.13,-277.17"/>
</g>
<!-- m_User::WithPrivateFields -->
<g id="node17" class="node">
<title>m_User::WithPrivateFields</title>
<path fill="none" stroke="black" d="M3614.5,-432.5C3614.5,-432.5 3913.5,-432.5 3913.5,-432.5 3919.5,-432.5 3925.5,-438.5 3925.5,-444.5 3925.5,-444.5 3925.5,-703.5 3925.5,-703.5 3925.5,-709.5 3919.5,-715.5 3913.5,-715.5 3913.5,-715.5 3614.5,-715.5 3614.5,-715.5 3608.5,-715.5 3602.5,-709.5 3602.5,-703.5 3602.5,-703.5 3602.5,-444.5 3602.5,-444.5 3602.5,-438.5 3608.5,-432.5 3614.5,-432.5"/>
<text text-anchor="start" x="3610" y="-571.2" font-family="Arial Bold" font-size="11.00">User::WithPrivateFields</text>
<polyline fill="none" stroke="black" points="3746.5,-432.5 3746.5,-715.5 "/>
<text text-anchor="start" x="3754" y="-702" font-family="Arial" font-size="10.00">api_key </text>
<text text-anchor="start" x="3791" y="-702" font-family="Arial Italic" font-size="10.00" fill="#999999">string</text>
<text text-anchor="start" x="3754" y="-689" font-family="Arial" font-size="10.00">blocked_email </text>
<text text-anchor="start" x="3820" y="-689" font-family="Arial Italic" font-size="10.00" fill="#999999">string</text>
<text text-anchor="start" x="3754" y="-676" font-family="Arial" font-size="10.00">confirmation_token </text>
<text text-anchor="start" x="3840" y="-676" font-family="Arial Italic" font-size="10.00" fill="#999999">string (128)</text>
<text text-anchor="start" x="3754" y="-663" font-family="Arial" font-size="10.00">email </text>
<text text-anchor="start" x="3781" y="-663" font-family="Arial Italic" font-size="10.00" fill="#999999">string ∗ U</text>
<text text-anchor="start" x="3754" y="-650" font-family="Arial" font-size="10.00">email_confirmed </text>
<text text-anchor="start" x="3829" y="-650" font-family="Arial Italic" font-size="10.00" fill="#999999">boolean ∗</text>
<text text-anchor="start" x="3754" y="-637" font-family="Arial" font-size="10.00">email_reset </text>
<text text-anchor="start" x="3808" y="-637" font-family="Arial Italic" font-size="10.00" fill="#999999">boolean</text>
<text text-anchor="start" x="3754" y="-624" font-family="Arial" font-size="10.00">encrypted_password </text>
<text text-anchor="start" x="3848" y="-624" font-family="Arial Italic" font-size="10.00" fill="#999999">string (128)</text>
<text text-anchor="start" x="3754" y="-611" font-family="Arial" font-size="10.00">handle </text>
<text text-anchor="start" x="3786" y="-611" font-family="Arial Italic" font-size="10.00" fill="#999999">string U</text>
<text text-anchor="start" x="3754" y="-598" font-family="Arial" font-size="10.00">hide_email </text>
<text text-anchor="start" x="3804" y="-598" font-family="Arial Italic" font-size="10.00" fill="#999999">boolean</text>
<text text-anchor="start" x="3754" y="-585" font-family="Arial" font-size="10.00">mail_fails </text>
<text text-anchor="start" x="3799" y="-585" font-family="Arial Italic" font-size="10.00" fill="#999999">integer</text>
<text text-anchor="start" x="3754" y="-572" font-family="Arial" font-size="10.00">mfa_level </text>
<text text-anchor="start" x="3800" y="-572" font-family="Arial Italic" font-size="10.00" fill="#999999">integer</text>
<text text-anchor="start" x="3754" y="-559" font-family="Arial" font-size="10.00">mfa_recovery_codes </text>
<text text-anchor="start" x="3848" y="-559" font-family="Arial Italic" font-size="10.00" fill="#999999">string</text>
<text text-anchor="start" x="3754" y="-546" font-family="Arial" font-size="10.00">mfa_seed </text>
<text text-anchor="start" x="3800" y="-546" font-family="Arial Italic" font-size="10.00" fill="#999999">string</text>
<text text-anchor="start" x="3754" y="-533" font-family="Arial" font-size="10.00">remember_token </text>
<text text-anchor="start" x="3830" y="-533" font-family="Arial Italic" font-size="10.00" fill="#999999">string (128)</text>
<text text-anchor="start" x="3754" y="-520" font-family="Arial" font-size="10.00">remember_token_expires_at </text>
<text text-anchor="start" x="3881" y="-520" font-family="Arial Italic" font-size="10.00" fill="#999999">datetime</text>
<text text-anchor="start" x="3754" y="-507" font-family="Arial" font-size="10.00">salt </text>
<text text-anchor="start" x="3773" y="-507" font-family="Arial Italic" font-size="10.00" fill="#999999">string (128)</text>
<text text-anchor="start" x="3754" y="-494" font-family="Arial" font-size="10.00">token </text>
<text text-anchor="start" x="3782" y="-494" font-family="Arial Italic" font-size="10.00" fill="#999999">string (128)</text>
<text text-anchor="start" x="3754" y="-481" font-family="Arial" font-size="10.00">token_expires_at </text>
<text text-anchor="start" x="3832" y="-481" font-family="Arial Italic" font-size="10.00" fill="#999999">datetime</text>
<text text-anchor="start" x="3754" y="-468" font-family="Arial" font-size="10.00">twitter_username </text>
<text text-anchor="start" x="3833" y="-468" font-family="Arial Italic" font-size="10.00" fill="#999999">string</text>
<text text-anchor="start" x="3754" y="-455" font-family="Arial" font-size="10.00">unconfirmed_email </text>
<text text-anchor="start" x="3839" y="-455" font-family="Arial Italic" font-size="10.00" fill="#999999">string</text>
<text text-anchor="start" x="3754" y="-442" font-family="Arial" font-size="10.00">webauthn_id </text>
<text text-anchor="start" x="3812" y="-442" font-family="Arial Italic" font-size="10.00" fill="#999999">string</text>
</g>
<!-- m_Version&#45;&gt;m_Dependency -->
<g id="edge5" class="edge">
<title>m_Version&#45;&gt;m_Dependency</title>
<path fill="none" stroke="black" d="M2495.48,-86.47C2500.79,-75.96 2505.72,-66.19 2510,-57.71"/>
<polygon fill="black" stroke="black" points="2512.81,-59.12 2514.06,-49.67 2507.19,-56.28 2512.81,-59.12"/>
</g>
<!-- m_Version&#45;&gt;m_GemDownload -->
<g id="edge6" class="edge">
<title>m_Version&#45;&gt;m_GemDownload</title>
<path fill="none" stroke="black" d="M2268.05,-86.47C2251.37,-69.38 2236.61,-54.27 2226.01,-43.42"/>
</g>
</g>
</svg>
