<?xml version="1.0" encoding="UTF-8" standalone="no"?>
<!DOCTYPE svg PUBLIC "-//W3C//DTD SVG 1.1//EN"
 "http://www.w3.org/Graphics/SVG/1.1/DTD/svg11.dtd">
<!-- Generated by graphviz version 2.40.1 (20161225.0304)
 -->
<!-- Title: Gemcutter Pages: 1 -->
<svg width="2191pt" height="758pt"
 viewBox="0.00 0.00 2190.60 757.60" xmlns="http://www.w3.org/2000/svg" xmlns:xlink="http://www.w3.org/1999/xlink">
<g id="graph0" class="graph" transform="scale(1 1) rotate(0) translate(28.8 728.8)">
<title>Gemcutter</title>
<polygon fill="#ffffff" stroke="transparent" points="-28.8,28.8 -28.8,-728.8 2161.8,-728.8 2161.8,28.8 -28.8,28.8"/>
<text text-anchor="middle" x="1066.5" y="-685.6" font-family="Arial BoldMT" font-size="13.00" fill="#000000">RubyGems.org domain model</text>
<!-- m_Announcement -->
<g id="node1" class="node">
<title>m_Announcement</title>
<path fill="none" stroke="#000000" d="M12,-517C12,-517 276,-517 276,-517 282,-517 288,-523 288,-529 288,-529 288,-541 288,-541 288,-547 282,-553 276,-553 276,-553 12,-553 12,-553 6,-553 0,-547 0,-541 0,-541 0,-529 0,-529 0,-523 6,-517 12,-517"/>
<text text-anchor="start" x="33.0012" y="-531.2" font-family="Arial BoldMT" font-size="11.00" fill="#000000">Announcement</text>
<polyline fill="none" stroke="#000000" points="144,-517 144,-553 "/>
<text text-anchor="start" x="151" y="-533" font-family="ArialMT" font-size="10.00" fill="#000000">body </text>
<text text-anchor="start" x="175.4629" y="-533" font-family="Arial ItalicMT" font-size="10.00" fill="#999999">text</text>
</g>
<!-- m_Delayed::Backend::ActiveRecord::Job -->
<g id="node2" class="node">
<title>m_Delayed::Backend::ActiveRecord::Job</title>
<path fill="none" stroke="#000000" d="M329,-471.5C329,-471.5 643,-471.5 643,-471.5 649,-471.5 655,-477.5 655,-483.5 655,-483.5 655,-586.5 655,-586.5 655,-592.5 649,-598.5 643,-598.5 643,-598.5 329,-598.5 329,-598.5 323,-598.5 317,-592.5 317,-586.5 317,-586.5 317,-483.5 317,-483.5 317,-477.5 323,-471.5 329,-471.5"/>
<text text-anchor="start" x="321.6736" y="-531.2" font-family="Arial BoldMT" font-size="11.00" fill="#000000">Delayed::Backend::ActiveRecord::Job</text>
<polyline fill="none" stroke="#000000" points="511,-471.5 511,-598.5 "/>
<text text-anchor="start" x="518" y="-585" font-family="ArialMT" font-size="10.00" fill="#000000">attempts </text>
<text text-anchor="start" x="559.1279" y="-585" font-family="Arial ItalicMT" font-size="10.00" fill="#999999">integer</text>
<text text-anchor="start" x="518" y="-572" font-family="ArialMT" font-size="10.00" fill="#000000">failed_at </text>
<text text-anchor="start" x="558.5859" y="-572" font-family="Arial ItalicMT" font-size="10.00" fill="#999999">datetime</text>
<text text-anchor="start" x="518" y="-559" font-family="ArialMT" font-size="10.00" fill="#000000">handler </text>
<text text-anchor="start" x="554.1377" y="-559" font-family="Arial ItalicMT" font-size="10.00" fill="#999999">text</text>
<text text-anchor="start" x="518" y="-546" font-family="ArialMT" font-size="10.00" fill="#000000">last_error </text>
<text text-anchor="start" x="563.0146" y="-546" font-family="Arial ItalicMT" font-size="10.00" fill="#999999">text</text>
<text text-anchor="start" x="518" y="-533" font-family="ArialMT" font-size="10.00" fill="#000000">locked_at </text>
<text text-anchor="start" x="563.5859" y="-533" font-family="Arial ItalicMT" font-size="10.00" fill="#999999">datetime</text>
<text text-anchor="start" x="518" y="-520" font-family="ArialMT" font-size="10.00" fill="#000000">locked_by </text>
<text text-anchor="start" x="565.8076" y="-520" font-family="Arial ItalicMT" font-size="10.00" fill="#999999">string</text>
<text text-anchor="start" x="518" y="-507" font-family="ArialMT" font-size="10.00" fill="#000000">priority </text>
<text text-anchor="start" x="550.7832" y="-507" font-family="Arial ItalicMT" font-size="10.00" fill="#999999">integer</text>
<text text-anchor="start" x="518" y="-494" font-family="ArialMT" font-size="10.00" fill="#000000">queue </text>
<text text-anchor="start" x="548.5859" y="-494" font-family="Arial ItalicMT" font-size="10.00" fill="#999999">string</text>
<text text-anchor="start" x="518" y="-481" font-family="ArialMT" font-size="10.00" fill="#000000">run_at </text>
<text text-anchor="start" x="549.1328" y="-481" font-family="Arial ItalicMT" font-size="10.00" fill="#999999">datetime</text>
</g>
<!-- m_Deletion -->
<g id="node3" class="node">
<title>m_Deletion</title>
<path fill="none" stroke="#000000" d="M276,-203.5C276,-203.5 540,-203.5 540,-203.5 546,-203.5 552,-209.5 552,-215.5 552,-215.5 552,-240.5 552,-240.5 552,-246.5 546,-252.5 540,-252.5 540,-252.5 276,-252.5 276,-252.5 270,-252.5 264,-246.5 264,-240.5 264,-240.5 264,-215.5 264,-215.5 264,-209.5 270,-203.5 276,-203.5"/>
<text text-anchor="start" x="313.8208" y="-224.2" font-family="Arial BoldMT" font-size="11.00" fill="#000000">Deletion</text>
<polyline fill="none" stroke="#000000" points="408,-203.5 408,-252.5 "/>
<text text-anchor="start" x="415" y="-239" font-family="ArialMT" font-size="10.00" fill="#000000">number </text>
<text text-anchor="start" x="451.6846" y="-239" font-family="Arial ItalicMT" font-size="10.00" fill="#999999">string ∗</text>
<text text-anchor="start" x="415" y="-226" font-family="ArialMT" font-size="10.00" fill="#000000">platform </text>
<text text-anchor="start" x="453.9014" y="-226" font-family="Arial ItalicMT" font-size="10.00" fill="#999999">string</text>
<text text-anchor="start" x="415" y="-213" font-family="ArialMT" font-size="10.00" fill="#000000">rubygem </text>
<text text-anchor="start" x="456.6846" y="-213" font-family="Arial ItalicMT" font-size="10.00" fill="#999999">string ∗</text>
</g>
<!-- m_Dependency -->
<g id="node4" class="node">
<title>m_Dependency</title>
<path fill="none" stroke="#000000" d="M1352,-.5C1352,-.5 1616,-.5 1616,-.5 1622,-.5 1628,-6.5 1628,-12.5 1628,-12.5 1628,-37.5 1628,-37.5 1628,-43.5 1622,-49.5 1616,-49.5 1616,-49.5 1352,-49.5 1352,-49.5 1346,-49.5 1340,-43.5 1340,-37.5 1340,-37.5 1340,-12.5 1340,-12.5 1340,-6.5 1346,-.5 1352,-.5"/>
<text text-anchor="start" x="1379.1162" y="-21.2" font-family="Arial BoldMT" font-size="11.00" fill="#000000">Dependency</text>
<polyline fill="none" stroke="#000000" points="1484,-.5 1484,-49.5 "/>
<text text-anchor="start" x="1491" y="-36" font-family="ArialMT" font-size="10.00" fill="#000000">requirements </text>
<text text-anchor="start" x="1552.1377" y="-36" font-family="Arial ItalicMT" font-size="10.00" fill="#999999">string ∗</text>
<text text-anchor="start" x="1491" y="-23" font-family="ArialMT" font-size="10.00" fill="#000000">scope </text>
<text text-anchor="start" x="1520.4629" y="-23" font-family="Arial ItalicMT" font-size="10.00" fill="#999999">string</text>
<text text-anchor="start" x="1491" y="-10" font-family="ArialMT" font-size="10.00" fill="#000000">unresolved_name </text>
<text text-anchor="start" x="1573.2754" y="-10" font-family="Arial ItalicMT" font-size="10.00" fill="#999999">string</text>
</g>
<!-- m_GemDownload -->
<g id="node5" class="node">
<title>m_GemDownload</title>
<path fill="none" stroke="#000000" d="M1669,-7C1669,-7 1933,-7 1933,-7 1939,-7 1945,-13 1945,-19 1945,-19 1945,-31 1945,-31 1945,-37 1939,-43 1933,-43 1933,-43 1669,-43 1669,-43 1663,-43 1657,-37 1657,-31 1657,-31 1657,-19 1657,-19 1657,-13 1663,-7 1669,-7"/>
<text text-anchor="start" x="1690.6216" y="-21.2" font-family="Arial BoldMT" font-size="11.00" fill="#000000">GemDownload</text>
<polyline fill="none" stroke="#000000" points="1801,-7 1801,-43 "/>
<text text-anchor="start" x="1808" y="-23" font-family="ArialMT" font-size="10.00" fill="#000000">count </text>
<text text-anchor="start" x="1835.2412" y="-23" font-family="Arial ItalicMT" font-size="10.00" fill="#999999">integer (8)</text>
</g>
<!-- m_Linkset -->
<g id="node6" class="node">
<title>m_Linkset</title>
<path fill="none" stroke="#000000" d="M1857,-184C1857,-184 2121,-184 2121,-184 2127,-184 2133,-190 2133,-196 2133,-196 2133,-260 2133,-260 2133,-266 2127,-272 2121,-272 2121,-272 1857,-272 1857,-272 1851,-272 1845,-266 1845,-260 1845,-260 1845,-196 1845,-196 1845,-190 1851,-184 1857,-184"/>
<text text-anchor="start" x="1897.5735" y="-224.2" font-family="Arial BoldMT" font-size="11.00" fill="#000000">Linkset</text>
<polyline fill="none" stroke="#000000" points="1989,-184 1989,-272 "/>
<text text-anchor="start" x="1996" y="-259" font-family="ArialMT" font-size="10.00" fill="#000000">bugs </text>
<text text-anchor="start" x="2020.4629" y="-259" font-family="Arial ItalicMT" font-size="10.00" fill="#999999">string</text>
<text text-anchor="start" x="1996" y="-246" font-family="ArialMT" font-size="10.00" fill="#000000">code </text>
<text text-anchor="start" x="2020.4629" y="-246" font-family="Arial ItalicMT" font-size="10.00" fill="#999999">string</text>
<text text-anchor="start" x="1996" y="-233" font-family="ArialMT" font-size="10.00" fill="#000000">docs </text>
<text text-anchor="start" x="2019.9014" y="-233" font-family="Arial ItalicMT" font-size="10.00" fill="#999999">string</text>
<text text-anchor="start" x="1996" y="-220" font-family="ArialMT" font-size="10.00" fill="#000000">home </text>
<text text-anchor="start" x="2023.793" y="-220" font-family="Arial ItalicMT" font-size="10.00" fill="#999999">string</text>
<text text-anchor="start" x="1996" y="-207" font-family="ArialMT" font-size="10.00" fill="#000000">mail </text>
<text text-anchor="start" x="2017.1133" y="-207" font-family="Arial ItalicMT" font-size="10.00" fill="#999999">string</text>
<text text-anchor="start" x="1996" y="-194" font-family="ArialMT" font-size="10.00" fill="#000000">wiki </text>
<text text-anchor="start" x="2015.4434" y="-194" font-family="Arial ItalicMT" font-size="10.00" fill="#999999">string</text>
</g>
<!-- m_LogTicket -->
<g id="node7" class="node">
<title>m_LogTicket</title>
<path fill="none" stroke="#000000" d="M1687,-497.5C1687,-497.5 1951,-497.5 1951,-497.5 1957,-497.5 1963,-503.5 1963,-509.5 1963,-509.5 1963,-560.5 1963,-560.5 1963,-566.5 1957,-572.5 1951,-572.5 1951,-572.5 1687,-572.5 1687,-572.5 1681,-572.5 1675,-566.5 1675,-560.5 1675,-560.5 1675,-509.5 1675,-509.5 1675,-503.5 1681,-497.5 1687,-497.5"/>
<text text-anchor="start" x="1721.3564" y="-531.2" font-family="Arial BoldMT" font-size="11.00" fill="#000000">LogTicket</text>
<polyline fill="none" stroke="#000000" points="1819,-497.5 1819,-572.5 "/>
<text text-anchor="start" x="1826" y="-559" font-family="ArialMT" font-size="10.00" fill="#000000">backend </text>
<text text-anchor="start" x="1866.5859" y="-559" font-family="Arial ItalicMT" font-size="10.00" fill="#999999">integer</text>
<text text-anchor="start" x="1826" y="-546" font-family="ArialMT" font-size="10.00" fill="#000000">directory </text>
<text text-anchor="start" x="1867.123" y="-546" font-family="Arial ItalicMT" font-size="10.00" fill="#999999">string</text>
<text text-anchor="start" x="1826" y="-533" font-family="ArialMT" font-size="10.00" fill="#000000">key </text>
<text text-anchor="start" x="1844.3398" y="-533" font-family="Arial ItalicMT" font-size="10.00" fill="#999999">string</text>
<text text-anchor="start" x="1826" y="-520" font-family="ArialMT" font-size="10.00" fill="#000000">processed_count </text>
<text text-anchor="start" x="1904.9404" y="-520" font-family="Arial ItalicMT" font-size="10.00" fill="#999999">integer</text>
<text text-anchor="start" x="1826" y="-507" font-family="ArialMT" font-size="10.00" fill="#000000">status </text>
<text text-anchor="start" x="1855.458" y="-507" font-family="Arial ItalicMT" font-size="10.00" fill="#999999">string</text>
</g>
<!-- m_Ownership -->
<g id="node8" class="node">
<title>m_Ownership</title>
<path fill="none" stroke="#000000" d="M593,-210C593,-210 857,-210 857,-210 863,-210 869,-216 869,-222 869,-222 869,-234 869,-234 869,-240 863,-246 857,-246 857,-246 593,-246 593,-246 587,-246 581,-240 581,-234 581,-234 581,-222 581,-222 581,-216 587,-210 593,-210"/>
<text text-anchor="start" x="624.7112" y="-224.2" font-family="Arial BoldMT" font-size="11.00" fill="#000000">Ownership</text>
<polyline fill="none" stroke="#000000" points="725,-210 725,-246 "/>
<text text-anchor="start" x="732" y="-226" font-family="ArialMT" font-size="10.00" fill="#000000">token </text>
<text text-anchor="start" x="759.2412" y="-226" font-family="Arial ItalicMT" font-size="10.00" fill="#999999">string</text>
</g>
<!-- m_Rubygem -->
<g id="node9" class="node">
<title>m_Rubygem</title>
<path fill="none" stroke="#000000" d="M1370,-517C1370,-517 1634,-517 1634,-517 1640,-517 1646,-523 1646,-529 1646,-529 1646,-541 1646,-541 1646,-547 1640,-553 1634,-553 1634,-553 1370,-553 1370,-553 1364,-553 1358,-547 1358,-541 1358,-541 1358,-529 1358,-529 1358,-523 1364,-517 1370,-517"/>
<text text-anchor="start" x="1404.4612" y="-531.2" font-family="Arial BoldMT" font-size="11.00" fill="#000000">Rubygem</text>
<polyline fill="none" stroke="#000000" points="1502,-517 1502,-553 "/>
<text text-anchor="start" x="1509" y="-540" font-family="ArialMT" font-size="10.00" fill="#000000">name </text>
<text text-anchor="start" x="1536.793" y="-540" font-family="Arial ItalicMT" font-size="10.00" fill="#999999">string ∗ U</text>
<text text-anchor="start" x="1509" y="-527" font-family="ArialMT" font-size="10.00" fill="#000000">slug </text>
<text text-anchor="start" x="1530.123" y="-527" font-family="Arial ItalicMT" font-size="10.00" fill="#999999">string</text>
</g>
<!-- m_Rubygem&#45;&gt;m_Dependency -->
<g id="edge2" class="edge">
<title>m_Rubygem&#45;&gt;m_Dependency</title>
<path fill="none" stroke="#000000" d="M1491.6296,-516.9609C1475.3029,-487.4078 1444.3016,-426.3192 1433,-370 1408.1659,-246.2449 1389.9352,-204.6485 1433,-86 1436.8266,-75.4572 1443.3615,-65.462 1450.5002,-56.7288"/>
<polygon fill="#000000" stroke="#000000" points="1453.0747,-58.5681 1456.5924,-49.7053 1448.3156,-54.44 1453.0747,-58.5681"/>
</g>
<!-- m_Rubygem&#45;&gt;m_GemDownload -->
<g id="edge4" class="edge">
<title>m_Rubygem&#45;&gt;m_GemDownload</title>
<path fill="none" stroke="#000000" d="M1519.7892,-516.6284C1547.4279,-489.0366 1603.414,-436.8512 1660,-406 1705.5351,-381.1739 1738.7143,-410.5883 1771,-370 1850.3452,-270.2505 1818.8486,-99.1132 1805.6778,-43.2315"/>
</g>
<!-- m_Rubygem&#45;&gt;m_Linkset -->
<g id="edge6" class="edge">
<title>m_Rubygem&#45;&gt;m_Linkset</title>
<path fill="none" stroke="#000000" d="M1518.5479,-516.8674C1545.3908,-488.6178 1601.3579,-434.402 1660,-406 1726.7711,-373.6609 1756.6042,-403.1028 1823,-370 1871.705,-345.7173 1917.9664,-304.0395 1949.22,-272.0982"/>
</g>
<!-- m_Rubygem&#45;&gt;m_Ownership -->
<g id="edge7" class="edge">
<title>m_Rubygem&#45;&gt;m_Ownership</title>
<path fill="none" stroke="#000000" d="M1436.3541,-516.9804C1344.2976,-491.7803 1171.5676,-444.7489 1024,-406 961.4437,-389.5737 940.0347,-400.4984 883,-370 826.4583,-339.7653 773.8448,-285.1072 745.9005,-253.1419"/>
<polygon fill="#000000" stroke="#000000" points="748.2584,-251.0527 739.9925,-246.299 743.4898,-255.1698 748.2584,-251.0527"/>
</g>
<!-- m_Subscription -->
<g id="node10" class="node">
<title>m_Subscription</title>
<path fill="none" stroke="#000000" d="M910,-210C910,-210 1030,-210 1030,-210 1036,-210 1042,-216 1042,-222 1042,-222 1042,-234 1042,-234 1042,-240 1036,-246 1030,-246 1030,-246 910,-246 910,-246 904,-246 898,-240 898,-234 898,-234 898,-222 898,-222 898,-216 904,-210 910,-210"/>
<text text-anchor="start" x="937.7339" y="-224.2" font-family="Arial BoldMT" font-size="11.00" fill="#000000">Subscription</text>
</g>
<!-- m_Rubygem&#45;&gt;m_Subscription -->
<g id="edge10" class="edge">
<title>m_Rubygem&#45;&gt;m_Subscription</title>
<path fill="none" stroke="#000000" d="M1397.8635,-516.9862C1300.5849,-495.7572 1155.7844,-452.4048 1056,-370 1018.3787,-338.9313 992.9066,-286.8568 979.9672,-255.1444"/>
<polygon fill="#000000" stroke="#000000" points="982.7429,-253.5977 976.5021,-246.3882 976.8849,-255.9159 982.7429,-253.5977"/>
</g>
<!-- m_User -->
<g id="node11" class="node">
<title>m_User</title>
<path fill="none" stroke="#000000" d="M696,-406.5C696,-406.5 998,-406.5 998,-406.5 1004,-406.5 1010,-412.5 1010,-418.5 1010,-418.5 1010,-651.5 1010,-651.5 1010,-657.5 1004,-663.5 998,-663.5 998,-663.5 696,-663.5 696,-663.5 690,-663.5 684,-657.5 684,-651.5 684,-651.5 684,-418.5 684,-418.5 684,-412.5 690,-406.5 696,-406.5"/>
<text text-anchor="start" x="742.3877" y="-531.2" font-family="Arial BoldMT" font-size="11.00" fill="#000000">User</text>
<polyline fill="none" stroke="#000000" points="828,-406.5 828,-663.5 "/>
<text text-anchor="start" x="835" y="-650" font-family="ArialMT" font-size="10.00" fill="#000000">api_key </text>
<text text-anchor="start" x="872.2461" y="-650" font-family="Arial ItalicMT" font-size="10.00" fill="#999999">string</text>
<text text-anchor="start" x="835" y="-637" font-family="ArialMT" font-size="10.00" fill="#000000">confirmation_token </text>
<text text-anchor="start" x="922.2705" y="-637" font-family="Arial ItalicMT" font-size="10.00" fill="#999999">string (128)</text>
<text text-anchor="start" x="835" y="-624" font-family="ArialMT" font-size="10.00" fill="#000000">email </text>
<text text-anchor="start" x="861.6748" y="-624" font-family="Arial ItalicMT" font-size="10.00" fill="#999999">string ∗ U</text>
<text text-anchor="start" x="835" y="-611" font-family="ArialMT" font-size="10.00" fill="#000000">email_confirmed </text>
<text text-anchor="start" x="911.1426" y="-611" font-family="Arial ItalicMT" font-size="10.00" fill="#999999">boolean ∗</text>
<text text-anchor="start" x="835" y="-598" font-family="ArialMT" font-size="10.00" fill="#000000">email_reset </text>
<text text-anchor="start" x="889.4678" y="-598" font-family="Arial ItalicMT" font-size="10.00" fill="#999999">boolean</text>
<text text-anchor="start" x="835" y="-585" font-family="ArialMT" font-size="10.00" fill="#000000">encrypted_password </text>
<text text-anchor="start" x="930.0537" y="-585" font-family="Arial ItalicMT" font-size="10.00" fill="#999999">string (128)</text>
<text text-anchor="start" x="835" y="-572" font-family="ArialMT" font-size="10.00" fill="#000000">handle </text>
<text text-anchor="start" x="867.8076" y="-572" font-family="Arial ItalicMT" font-size="10.00" fill="#999999">string U</text>
<text text-anchor="start" x="835" y="-559" font-family="ArialMT" font-size="10.00" fill="#000000">hide_email </text>
<text text-anchor="start" x="886.1426" y="-559" font-family="Arial ItalicMT" font-size="10.00" fill="#999999">boolean</text>
<text text-anchor="start" x="835" y="-546" font-family="ArialMT" font-size="10.00" fill="#000000">last_otp_at </text>
<text text-anchor="start" x="886.7041" y="-546" font-family="Arial ItalicMT" font-size="10.00" fill="#999999">datetime</text>
<text text-anchor="start" x="835" y="-533" font-family="ArialMT" font-size="10.00" fill="#000000">mfa_level </text>
<text text-anchor="start" x="880.5762" y="-533" font-family="Arial ItalicMT" font-size="10.00" fill="#999999">integer</text>
<text text-anchor="start" x="835" y="-520" font-family="ArialMT" font-size="10.00" fill="#000000">mfa_recovery_codes </text>
<text text-anchor="start" x="930.6006" y="-520" font-family="Arial ItalicMT" font-size="10.00" fill="#999999">string</text>
<text text-anchor="start" x="835" y="-507" font-family="ArialMT" font-size="10.00" fill="#000000">mfa_seed </text>
<text text-anchor="start" x="881.6943" y="-507" font-family="Arial ItalicMT" font-size="10.00" fill="#999999">string</text>
<text text-anchor="start" x="835" y="-494" font-family="ArialMT" font-size="10.00" fill="#000000">remember_token </text>
<text text-anchor="start" x="913.3691" y="-494" font-family="Arial ItalicMT" font-size="10.00" fill="#999999">string (128)</text>
<text text-anchor="start" x="834.7886" y="-481" font-family="ArialMT" font-size="10.00" fill="#000000">remember_token_expires_at </text>
<text text-anchor="start" x="964.8569" y="-481" font-family="Arial ItalicMT" font-size="10.00" fill="#999999">datetime</text>
<text text-anchor="start" x="835" y="-468" font-family="ArialMT" font-size="10.00" fill="#000000">salt </text>
<text text-anchor="start" x="853.3398" y="-468" font-family="Arial ItalicMT" font-size="10.00" fill="#999999">string (128)</text>
<text text-anchor="start" x="835" y="-455" font-family="ArialMT" font-size="10.00" fill="#000000">token </text>
<text text-anchor="start" x="862.2412" y="-455" font-family="Arial ItalicMT" font-size="10.00" fill="#999999">string (128)</text>
<text text-anchor="start" x="835" y="-442" font-family="ArialMT" font-size="10.00" fill="#000000">token_expires_at </text>
<text text-anchor="start" x="913.9404" y="-442" font-family="Arial ItalicMT" font-size="10.00" fill="#999999">datetime</text>
<text text-anchor="start" x="835" y="-429" font-family="ArialMT" font-size="10.00" fill="#000000">twitter_username </text>
<text text-anchor="start" x="914.4775" y="-429" font-family="Arial ItalicMT" font-size="10.00" fill="#999999">string</text>
<text text-anchor="start" x="835" y="-416" font-family="ArialMT" font-size="10.00" fill="#000000">unconfirmed_email </text>
<text text-anchor="start" x="922.2656" y="-416" font-family="Arial ItalicMT" font-size="10.00" fill="#999999">string</text>
</g>
<!-- m_Version -->
<g id="node12" class="node">
<title>m_Version</title>
<path fill="none" stroke="#000000" d="M1459.5,-86.5C1459.5,-86.5 1744.5,-86.5 1744.5,-86.5 1750.5,-86.5 1756.5,-92.5 1756.5,-98.5 1756.5,-98.5 1756.5,-357.5 1756.5,-357.5 1756.5,-363.5 1750.5,-369.5 1744.5,-369.5 1744.5,-369.5 1459.5,-369.5 1459.5,-369.5 1453.5,-369.5 1447.5,-363.5 1447.5,-357.5 1447.5,-357.5 1447.5,-98.5 1447.5,-98.5 1447.5,-92.5 1453.5,-86.5 1459.5,-86.5"/>
<text text-anchor="start" x="1499.1523" y="-224.2" font-family="Arial BoldMT" font-size="11.00" fill="#000000">Version</text>
<polyline fill="none" stroke="#000000" points="1591.5,-86.5 1591.5,-369.5 "/>
<text text-anchor="start" x="1599" y="-356" font-family="ArialMT" font-size="10.00" fill="#000000">authors </text>
<text text-anchor="start" x="1635.1328" y="-356" font-family="Arial ItalicMT" font-size="10.00" fill="#999999">text</text>
<text text-anchor="start" x="1599" y="-343" font-family="ArialMT" font-size="10.00" fill="#000000">built_at </text>
<text text-anchor="start" x="1634.0244" y="-343" font-family="Arial ItalicMT" font-size="10.00" fill="#999999">datetime</text>
<text text-anchor="start" x="1599" y="-330" font-family="ArialMT" font-size="10.00" fill="#000000">description </text>
<text text-anchor="start" x="1650.1377" y="-330" font-family="Arial ItalicMT" font-size="10.00" fill="#999999">text</text>
<text text-anchor="start" x="1599" y="-317" font-family="ArialMT" font-size="10.00" fill="#000000">full_name </text>
<text text-anchor="start" x="1645.1377" y="-317" font-family="Arial ItalicMT" font-size="10.00" fill="#999999">string ∗ U</text>
<text text-anchor="start" x="1599" y="-304" font-family="ArialMT" font-size="10.00" fill="#000000">indexed </text>
<text text-anchor="start" x="1636.8076" y="-304" font-family="Arial ItalicMT" font-size="10.00" fill="#999999">boolean</text>
<text text-anchor="start" x="1599" y="-291" font-family="ArialMT" font-size="10.00" fill="#000000">info_checksum </text>
<text text-anchor="start" x="1668.4775" y="-291" font-family="Arial ItalicMT" font-size="10.00" fill="#999999">string</text>
<text text-anchor="start" x="1599" y="-278" font-family="ArialMT" font-size="10.00" fill="#000000">latest </text>
<text text-anchor="start" x="1625.6797" y="-278" font-family="Arial ItalicMT" font-size="10.00" fill="#999999">boolean</text>
<text text-anchor="start" x="1599" y="-265" font-family="ArialMT" font-size="10.00" fill="#000000">licenses </text>
<text text-anchor="start" x="1637.9063" y="-265" font-family="Arial ItalicMT" font-size="10.00" fill="#999999">string</text>
<text text-anchor="start" x="1599" y="-252" font-family="ArialMT" font-size="10.00" fill="#000000">metadata </text>
<text text-anchor="start" x="1643.4727" y="-252" font-family="Arial ItalicMT" font-size="10.00" fill="#999999">hstore ∗</text>
<text text-anchor="start" x="1599" y="-239" font-family="ArialMT" font-size="10.00" fill="#000000">number </text>
<text text-anchor="start" x="1635.6846" y="-239" font-family="Arial ItalicMT" font-size="10.00" fill="#999999">string</text>
<text text-anchor="start" x="1599" y="-226" font-family="ArialMT" font-size="10.00" fill="#000000">platform </text>
<text text-anchor="start" x="1637.9014" y="-226" font-family="Arial ItalicMT" font-size="10.00" fill="#999999">string</text>
<text text-anchor="start" x="1599" y="-213" font-family="ArialMT" font-size="10.00" fill="#000000">position </text>
<text text-anchor="start" x="1636.2461" y="-213" font-family="Arial ItalicMT" font-size="10.00" fill="#999999">integer</text>
<text text-anchor="start" x="1599" y="-200" font-family="ArialMT" font-size="10.00" fill="#000000">prerelease </text>
<text text-anchor="start" x="1649.0293" y="-200" font-family="Arial ItalicMT" font-size="10.00" fill="#999999">boolean</text>
<text text-anchor="start" x="1599" y="-187" font-family="ArialMT" font-size="10.00" fill="#000000">required_ruby_version </text>
<text text-anchor="start" x="1701.2803" y="-187" font-family="Arial ItalicMT" font-size="10.00" fill="#999999">string</text>
<text text-anchor="start" x="1598.9067" y="-174" font-family="ArialMT" font-size="10.00" fill="#000000">required_rubygems_version </text>
<text text-anchor="start" x="1725.6401" y="-174" font-family="Arial ItalicMT" font-size="10.00" fill="#999999">string</text>
<text text-anchor="start" x="1599" y="-161" font-family="ArialMT" font-size="10.00" fill="#000000">requirements </text>
<text text-anchor="start" x="1660.1377" y="-161" font-family="Arial ItalicMT" font-size="10.00" fill="#999999">text</text>
<text text-anchor="start" x="1599" y="-148" font-family="ArialMT" font-size="10.00" fill="#000000">sha256 </text>
<text text-anchor="start" x="1634.5859" y="-148" font-family="Arial ItalicMT" font-size="10.00" fill="#999999">string</text>
<text text-anchor="start" x="1599" y="-135" font-family="ArialMT" font-size="10.00" fill="#000000">size </text>
<text text-anchor="start" x="1619.5615" y="-135" font-family="Arial ItalicMT" font-size="10.00" fill="#999999">integer</text>
<text text-anchor="start" x="1599" y="-122" font-family="ArialMT" font-size="10.00" fill="#000000">summary </text>
<text text-anchor="start" x="1642.8916" y="-122" font-family="Arial ItalicMT" font-size="10.00" fill="#999999">text</text>
<text text-anchor="start" x="1599" y="-109" font-family="ArialMT" font-size="10.00" fill="#000000">yanked_at </text>
<text text-anchor="start" x="1647.9258" y="-109" font-family="Arial ItalicMT" font-size="10.00" fill="#999999">datetime</text>
<text text-anchor="start" x="1599" y="-96" font-family="ArialMT" font-size="10.00" fill="#000000">yanked_info_checksum </text>
<text text-anchor="start" x="1706.2852" y="-96" font-family="Arial ItalicMT" font-size="10.00" fill="#999999">string</text>
</g>
<!-- m_Rubygem&#45;&gt;m_Version -->
<g id="edge12" class="edge">
<title>m_Rubygem&#45;&gt;m_Version</title>
<path fill="none" stroke="#000000" d="M1507.956,-516.7151C1517.016,-488.9009 1535.1065,-433.3631 1553.0219,-378.3626"/>
<polygon fill="#000000" stroke="#000000" points="1556.1019,-379.0774 1555.8943,-369.5444 1550.1117,-377.1262 1556.1019,-379.0774"/>
</g>
<!-- m_WebHook -->
<g id="node13" class="node">
<title>m_WebHook</title>
<path fill="none" stroke="#000000" d="M1083,-210C1083,-210 1347,-210 1347,-210 1353,-210 1359,-216 1359,-222 1359,-222 1359,-234 1359,-234 1359,-240 1353,-246 1347,-246 1347,-246 1083,-246 1083,-246 1077,-246 1071,-240 1071,-234 1071,-234 1071,-222 1071,-222 1071,-216 1077,-210 1083,-210"/>
<text text-anchor="start" x="1116.9482" y="-224.2" font-family="Arial BoldMT" font-size="11.00" fill="#000000">WebHook</text>
<polyline fill="none" stroke="#000000" points="1215,-210 1215,-246 "/>
<text text-anchor="start" x="1222" y="-233" font-family="ArialMT" font-size="10.00" fill="#000000">failure_count </text>
<text text-anchor="start" x="1282.0391" y="-233" font-family="Arial ItalicMT" font-size="10.00" fill="#999999">integer</text>
<text text-anchor="start" x="1222" y="-220" font-family="ArialMT" font-size="10.00" fill="#000000">url </text>
<text text-anchor="start" x="1235.8916" y="-220" font-family="Arial ItalicMT" font-size="10.00" fill="#999999">string</text>
</g>
<!-- m_Rubygem&#45;&gt;m_WebHook -->
<g id="edge13" class="edge">
<title>m_Rubygem&#45;&gt;m_WebHook</title>
<path fill="none" stroke="#000000" d="M1484.9063,-516.7151C1435.8546,-464.2452 1294.5716,-313.1166 1238.4181,-253.0501"/>
<polygon fill="#000000" stroke="#000000" points="1240.4514,-250.6124 1232.0041,-246.189 1235.8492,-254.9148 1240.4514,-250.6124"/>
</g>
<!-- m_User&#45;&gt;m_Deletion -->
<g id="edge1" class="edge">
<title>m_User&#45;&gt;m_Deletion</title>
<path fill="none" stroke="#000000" d="M683.9961,-414.1835C678.9936,-411.3435 673.9888,-408.6079 669,-406 626.0244,-383.5344 607.7376,-394.6896 566,-370 514.7985,-339.7121 465.3929,-291.2175 435.8471,-259.484"/>
<polygon fill="#000000" stroke="#000000" points="437.9071,-257.0711 429.492,-252.5867 433.274,-261.3401 437.9071,-257.0711"/>
</g>
<!-- m_User&#45;&gt;m_Ownership -->
<g id="edge8" class="edge">
<title>m_User&#45;&gt;m_Ownership</title>
<path fill="none" stroke="#000000" d="M795.7913,-406.1387C773.3441,-349.6529 749.0806,-288.5963 735.5902,-254.6492"/>
<polygon fill="#000000" stroke="#000000" points="738.4918,-253.421 732.2407,-246.2205 732.6372,-255.7476 738.4918,-253.421"/>
</g>
<!-- m_User&#45;&gt;m_Subscription -->
<g id="edge14" class="edge">
<title>m_User&#45;&gt;m_Subscription</title>
<path fill="none" stroke="#000000" d="M898.6284,-406.1387C921.2596,-349.6529 945.722,-288.5963 959.323,-254.6492"/>
<polygon fill="#000000" stroke="#000000" points="962.2767,-255.7465 962.6999,-246.2205 956.4286,-253.4034 962.2767,-255.7465"/>
</g>
<!-- m_User&#45;&gt;m_WebHook -->
<g id="edge15" class="edge">
<title>m_User&#45;&gt;m_WebHook</title>
<path fill="none" stroke="#000000" d="M1010.082,-407.8188C1025.7037,-395.167 1041.221,-382.4138 1056,-370 1103.6877,-329.9444 1157.3821,-281.1938 1188.5823,-252.4857"/>
<polygon fill="#000000" stroke="#000000" points="1190.7798,-254.7442 1195.263,-246.3284 1186.5102,-250.1116 1190.7798,-254.7442"/>
</g>
<!-- m_Version&#45;&gt;m_Dependency -->
<g id="edge3" class="edge">
<title>m_Version&#45;&gt;m_Dependency</title>
<path fill="none" stroke="#000000" d="M1519.7241,-86.4576C1513.6312,-75.9756 1507.9326,-66.1722 1502.9544,-57.608"/>
<polygon fill="#000000" stroke="#000000" points="1505.6592,-55.9929 1498.4128,-49.795 1500.2125,-59.159 1505.6592,-55.9929"/>
</g>
<!-- m_Version&#45;&gt;m_GemDownload -->
<g id="edge5" class="edge">
<title>m_Version&#45;&gt;m_GemDownload</title>
<path fill="none" stroke="#000000" d="M1740.7534,-86.4576C1757.4721,-69.4028 1772.43,-54.1443 1783.2594,-43.0972"/>
</g>
</g>
</svg>
