<?xml version="1.0" encoding="UTF-8" standalone="no"?>
<!DOCTYPE svg PUBLIC "-//W3C//DTD SVG 1.1//EN"
 "http://www.w3.org/Graphics/SVG/1.1/DTD/svg11.dtd">
<!-- Generated by graphviz version 3.0.0 (20220226.1711)
 -->
<!-- Title: Gemcutter Pages: 1 -->
<svg width="3611pt" height="798pt"
 viewBox="0.00 0.00 3610.60 797.60" xmlns="http://www.w3.org/2000/svg" xmlns:xlink="http://www.w3.org/1999/xlink">
<g id="graph0" class="graph" transform="scale(1 1) rotate(0) translate(28.8 768.8)">
<title>Gemcutter</title>
<polygon fill="white" stroke="transparent" points="-28.8,28.8 -28.8,-768.8 3581.8,-768.8 3581.8,28.8 -28.8,28.8"/>
<text text-anchor="middle" x="1776.5" y="-725.6" font-family="Arial Bold" font-size="13.00">RubyGems.org domain model</text>
<!-- m_ApiKey -->
<g id="node1" class="node">
<title>m_ApiKey</title>
<path fill="none" stroke="black" d="M12,-151.5C12,-151.5 300,-151.5 300,-151.5 306,-151.5 312,-157.5 312,-163.5 312,-163.5 312,-318.5 312,-318.5 312,-324.5 306,-330.5 300,-330.5 300,-330.5 12,-330.5 12,-330.5 6,-330.5 0,-324.5 0,-318.5 0,-318.5 0,-163.5 0,-163.5 0,-157.5 6,-151.5 12,-151.5"/>
<text text-anchor="start" x="50.5" y="-238.2" font-family="Arial Bold" font-size="11.00">ApiKey</text>
<polyline fill="none" stroke="black" points="144,-151.5 144,-330.5 "/>
<text text-anchor="start" x="151" y="-317" font-family="Arial" font-size="10.00">access_webhooks </text>
<text text-anchor="start" x="236" y="-317" font-family="Arial Italic" font-size="10.00" fill="#999999">boolean ∗</text>
<text text-anchor="start" x="151" y="-304" font-family="Arial" font-size="10.00">add_owner </text>
<text text-anchor="start" x="202" y="-304" font-family="Arial Italic" font-size="10.00" fill="#999999">boolean ∗</text>
<text text-anchor="start" x="151" y="-291" font-family="Arial" font-size="10.00">hashed_key </text>
<text text-anchor="start" x="207" y="-291" font-family="Arial Italic" font-size="10.00" fill="#999999">string ∗</text>
<text text-anchor="start" x="151" y="-278" font-family="Arial" font-size="10.00">index_rubygems </text>
<text text-anchor="start" x="226" y="-278" font-family="Arial Italic" font-size="10.00" fill="#999999">boolean ∗</text>
<text text-anchor="start" x="151" y="-265" font-family="Arial" font-size="10.00">last_accessed_at </text>
<text text-anchor="start" x="231" y="-265" font-family="Arial Italic" font-size="10.00" fill="#999999">datetime (6,0)</text>
<text text-anchor="start" x="151" y="-252" font-family="Arial" font-size="10.00">mfa </text>
<text text-anchor="start" x="171" y="-252" font-family="Arial Italic" font-size="10.00" fill="#999999">boolean ∗</text>
<text text-anchor="start" x="151" y="-239" font-family="Arial" font-size="10.00">name </text>
<text text-anchor="start" x="179" y="-239" font-family="Arial Italic" font-size="10.00" fill="#999999">string ∗</text>
<text text-anchor="start" x="151" y="-226" font-family="Arial" font-size="10.00">push_rubygem </text>
<text text-anchor="start" x="218" y="-226" font-family="Arial Italic" font-size="10.00" fill="#999999">boolean ∗</text>
<text text-anchor="start" x="151" y="-213" font-family="Arial" font-size="10.00">remove_owner </text>
<text text-anchor="start" x="218" y="-213" font-family="Arial Italic" font-size="10.00" fill="#999999">boolean ∗</text>
<text text-anchor="start" x="151" y="-200" font-family="Arial" font-size="10.00">show_dashboard </text>
<text text-anchor="start" x="228" y="-200" font-family="Arial Italic" font-size="10.00" fill="#999999">boolean ∗</text>
<text text-anchor="start" x="151" y="-187" font-family="Arial" font-size="10.00">soft_deleted_at </text>
<text text-anchor="start" x="221" y="-187" font-family="Arial Italic" font-size="10.00" fill="#999999">datetime (6,0)</text>
<text text-anchor="start" x="151" y="-174" font-family="Arial" font-size="10.00">soft_deleted_rubygem_name </text>
<text text-anchor="start" x="280" y="-174" font-family="Arial Italic" font-size="10.00" fill="#999999">string</text>
<text text-anchor="start" x="151" y="-161" font-family="Arial" font-size="10.00">yank_rubygem </text>
<text text-anchor="start" x="218" y="-161" font-family="Arial Italic" font-size="10.00" fill="#999999">boolean ∗</text>
</g>
<!-- m_ApiKeyRubygemScope -->
<g id="node2" class="node">
<title>m_ApiKeyRubygemScope</title>
<path fill="none" stroke="black" d="M701,-7C701,-7 821,-7 821,-7 827,-7 833,-13 833,-19 833,-19 833,-31 833,-31 833,-37 827,-43 821,-43 821,-43 701,-43 701,-43 695,-43 689,-37 689,-31 689,-31 689,-19 689,-19 689,-13 695,-7 701,-7"/>
<text text-anchor="start" x="698" y="-22.2" font-family="Arial Bold" font-size="11.00">ApiKeyRubygemScope</text>
</g>
<!-- m_ApiKey&#45;&gt;m_ApiKeyRubygemScope -->
<g id="edge6" class="edge">
<title>m_ApiKey&#45;&gt;m_ApiKeyRubygemScope</title>
<path fill="none" stroke="black" d="M234.18,-151.25C260.83,-126.27 292.44,-101.66 326,-86 388.87,-56.67 582.21,-38.72 688.73,-30.79"/>
</g>
<!-- m_Ownership -->
<g id="node10" class="node">
<title>m_Ownership</title>
<path fill="none" stroke="black" d="M1219,-197C1219,-197 1513,-197 1513,-197 1519,-197 1525,-203 1525,-209 1525,-209 1525,-273 1525,-273 1525,-279 1519,-285 1513,-285 1513,-285 1219,-285 1219,-285 1213,-285 1207,-279 1207,-273 1207,-273 1207,-209 1207,-209 1207,-203 1213,-197 1219,-197"/>
<text text-anchor="start" x="1248.5" y="-238.2" font-family="Arial Bold" font-size="11.00">Ownership</text>
<polyline fill="none" stroke="black" points="1351,-197 1351,-285 "/>
<text text-anchor="start" x="1358" y="-272" font-family="Arial" font-size="10.00">confirmed_at </text>
<text text-anchor="start" x="1418" y="-272" font-family="Arial Italic" font-size="10.00" fill="#999999">datetime (6,0)</text>
<text text-anchor="start" x="1358" y="-259" font-family="Arial" font-size="10.00">owner_notifier </text>
<text text-anchor="start" x="1422" y="-259" font-family="Arial Italic" font-size="10.00" fill="#999999">boolean ∗</text>
<text text-anchor="start" x="1358" y="-246" font-family="Arial" font-size="10.00">ownership_request_notifier </text>
<text text-anchor="start" x="1478" y="-246" font-family="Arial Italic" font-size="10.00" fill="#999999">boolean ∗</text>
<text text-anchor="start" x="1358" y="-233" font-family="Arial" font-size="10.00">push_notifier </text>
<text text-anchor="start" x="1417" y="-233" font-family="Arial Italic" font-size="10.00" fill="#999999">boolean ∗</text>
<text text-anchor="start" x="1358" y="-220" font-family="Arial" font-size="10.00">token </text>
<text text-anchor="start" x="1386" y="-220" font-family="Arial Italic" font-size="10.00" fill="#999999">string</text>
<text text-anchor="start" x="1358" y="-207" font-family="Arial" font-size="10.00">token_expires_at </text>
<text text-anchor="start" x="1436" y="-207" font-family="Arial Italic" font-size="10.00" fill="#999999">datetime (6,0)</text>
</g>
<!-- m_ApiKey&#45;&gt;m_Ownership -->
<g id="edge23" class="edge">
<title>m_ApiKey&#45;&gt;m_Ownership</title>
<path fill="none" stroke="black" stroke-dasharray="1,5" d="M225.91,-330.58C257.04,-363.35 296.61,-396.64 340.5,-414 383.79,-431.12 1135.14,-430.95 1178.5,-414 1244.3,-388.28 1300.89,-327.46 1334.21,-285.25"/>
</g>
<!-- m_Delayed::Backend::ActiveRecord::Job -->
<g id="node3" class="node">
<title>m_Delayed::Backend::ActiveRecord::Job</title>
<path fill="none" stroke="black" d="M1883,-504C1883,-504 2215,-504 2215,-504 2221,-504 2227,-510 2227,-516 2227,-516 2227,-619 2227,-619 2227,-625 2221,-631 2215,-631 2215,-631 1883,-631 1883,-631 1877,-631 1871,-625 1871,-619 1871,-619 1871,-516 1871,-516 1871,-510 1877,-504 1883,-504"/>
<text text-anchor="start" x="1876" y="-564.7" font-family="Arial Bold" font-size="11.00">Delayed::Backend::ActiveRecord::Job</text>
<polyline fill="none" stroke="black" points="2083,-504 2083,-631 "/>
<text text-anchor="start" x="2090" y="-617.5" font-family="Arial" font-size="10.00">attempts </text>
<text text-anchor="start" x="2132" y="-617.5" font-family="Arial Italic" font-size="10.00" fill="#999999">integer</text>
<text text-anchor="start" x="2090" y="-604.5" font-family="Arial" font-size="10.00">failed_at </text>
<text text-anchor="start" x="2130" y="-604.5" font-family="Arial Italic" font-size="10.00" fill="#999999">datetime (6,0)</text>
<text text-anchor="start" x="2090" y="-591.5" font-family="Arial" font-size="10.00">handler </text>
<text text-anchor="start" x="2125" y="-591.5" font-family="Arial Italic" font-size="10.00" fill="#999999">text</text>
<text text-anchor="start" x="2090" y="-578.5" font-family="Arial" font-size="10.00">last_error </text>
<text text-anchor="start" x="2134" y="-578.5" font-family="Arial Italic" font-size="10.00" fill="#999999">text</text>
<text text-anchor="start" x="2090" y="-565.5" font-family="Arial" font-size="10.00">locked_at </text>
<text text-anchor="start" x="2136" y="-565.5" font-family="Arial Italic" font-size="10.00" fill="#999999">datetime (6,0)</text>
<text text-anchor="start" x="2090" y="-552.5" font-family="Arial" font-size="10.00">locked_by </text>
<text text-anchor="start" x="2138" y="-552.5" font-family="Arial Italic" font-size="10.00" fill="#999999">string</text>
<text text-anchor="start" x="2090" y="-539.5" font-family="Arial" font-size="10.00">priority </text>
<text text-anchor="start" x="2123" y="-539.5" font-family="Arial Italic" font-size="10.00" fill="#999999">integer</text>
<text text-anchor="start" x="2090" y="-526.5" font-family="Arial" font-size="10.00">queue </text>
<text text-anchor="start" x="2120" y="-526.5" font-family="Arial Italic" font-size="10.00" fill="#999999">string</text>
<text text-anchor="start" x="2090" y="-513.5" font-family="Arial" font-size="10.00">run_at </text>
<text text-anchor="start" x="2121" y="-513.5" font-family="Arial Italic" font-size="10.00" fill="#999999">datetime (6,0)</text>
</g>
<!-- m_Deletion -->
<g id="node4" class="node">
<title>m_Deletion</title>
<path fill="none" stroke="black" d="M353,-216.5C353,-216.5 617,-216.5 617,-216.5 623,-216.5 629,-222.5 629,-228.5 629,-228.5 629,-253.5 629,-253.5 629,-259.5 623,-265.5 617,-265.5 617,-265.5 353,-265.5 353,-265.5 347,-265.5 341,-259.5 341,-253.5 341,-253.5 341,-228.5 341,-228.5 341,-222.5 347,-216.5 353,-216.5"/>
<text text-anchor="start" x="389" y="-238.2" font-family="Arial Bold" font-size="11.00">Deletion</text>
<polyline fill="none" stroke="black" points="485,-216.5 485,-265.5 "/>
<text text-anchor="start" x="492" y="-252" font-family="Arial" font-size="10.00">number </text>
<text text-anchor="start" x="528" y="-252" font-family="Arial Italic" font-size="10.00" fill="#999999">string ∗</text>
<text text-anchor="start" x="492" y="-239" font-family="Arial" font-size="10.00">platform </text>
<text text-anchor="start" x="531" y="-239" font-family="Arial Italic" font-size="10.00" fill="#999999">string</text>
<text text-anchor="start" x="492" y="-226" font-family="Arial" font-size="10.00">rubygem </text>
<text text-anchor="start" x="533" y="-226" font-family="Arial Italic" font-size="10.00" fill="#999999">string ∗</text>
</g>
<!-- m_Dependency -->
<g id="node5" class="node">
<title>m_Dependency</title>
<path fill="none" stroke="black" d="M1855,-0.5C1855,-0.5 2119,-0.5 2119,-0.5 2125,-0.5 2131,-6.5 2131,-12.5 2131,-12.5 2131,-37.5 2131,-37.5 2131,-43.5 2125,-49.5 2119,-49.5 2119,-49.5 1855,-49.5 1855,-49.5 1849,-49.5 1843,-43.5 1843,-37.5 1843,-37.5 1843,-12.5 1843,-12.5 1843,-6.5 1849,-0.5 1855,-0.5"/>
<text text-anchor="start" x="1880" y="-22.2" font-family="Arial Bold" font-size="11.00">Dependency</text>
<polyline fill="none" stroke="black" points="1987,-0.5 1987,-49.5 "/>
<text text-anchor="start" x="1994" y="-36" font-family="Arial" font-size="10.00">requirements </text>
<text text-anchor="start" x="2054" y="-36" font-family="Arial Italic" font-size="10.00" fill="#999999">string ∗</text>
<text text-anchor="start" x="1994" y="-23" font-family="Arial" font-size="10.00">scope </text>
<text text-anchor="start" x="2024" y="-23" font-family="Arial Italic" font-size="10.00" fill="#999999">string</text>
<text text-anchor="start" x="1994" y="-10" font-family="Arial" font-size="10.00">unresolved_name </text>
<text text-anchor="start" x="2074" y="-10" font-family="Arial Italic" font-size="10.00" fill="#999999">string</text>
</g>
<!-- m_GemDownload -->
<g id="node6" class="node">
<title>m_GemDownload</title>
<path fill="none" stroke="black" d="M2172,-7C2172,-7 2436,-7 2436,-7 2442,-7 2448,-13 2448,-19 2448,-19 2448,-31 2448,-31 2448,-37 2442,-43 2436,-43 2436,-43 2172,-43 2172,-43 2166,-43 2160,-37 2160,-31 2160,-31 2160,-19 2160,-19 2160,-13 2166,-7 2172,-7"/>
<text text-anchor="start" x="2191.5" y="-22.2" font-family="Arial Bold" font-size="11.00">GemDownload</text>
<polyline fill="none" stroke="black" points="2304,-7 2304,-43 "/>
<text text-anchor="start" x="2311" y="-23" font-family="Arial" font-size="10.00">count </text>
<text text-anchor="start" x="2339" y="-23" font-family="Arial Italic" font-size="10.00" fill="#999999">integer (8)</text>
</g>
<!-- m_GemTypoException -->
<g id="node7" class="node">
<title>m_GemTypoException</title>
<path fill="none" stroke="black" d="M2268,-549.5C2268,-549.5 2532,-549.5 2532,-549.5 2538,-549.5 2544,-555.5 2544,-561.5 2544,-561.5 2544,-573.5 2544,-573.5 2544,-579.5 2538,-585.5 2532,-585.5 2532,-585.5 2268,-585.5 2268,-585.5 2262,-585.5 2256,-579.5 2256,-573.5 2256,-573.5 2256,-561.5 2256,-561.5 2256,-555.5 2262,-549.5 2268,-549.5"/>
<text text-anchor="start" x="2274.5" y="-564.7" font-family="Arial Bold" font-size="11.00">GemTypoException</text>
<polyline fill="none" stroke="black" points="2400,-549.5 2400,-585.5 "/>
<text text-anchor="start" x="2407" y="-572.5" font-family="Arial" font-size="10.00">info </text>
<text text-anchor="start" x="2426" y="-572.5" font-family="Arial Italic" font-size="10.00" fill="#999999">text</text>
<text text-anchor="start" x="2407" y="-559.5" font-family="Arial" font-size="10.00">name </text>
<text text-anchor="start" x="2435" y="-559.5" font-family="Arial Italic" font-size="10.00" fill="#999999">string ∗ U</text>
</g>
<!-- m_Linkset -->
<g id="node8" class="node">
<title>m_Linkset</title>
<path fill="none" stroke="black" d="M2360,-197C2360,-197 2624,-197 2624,-197 2630,-197 2636,-203 2636,-209 2636,-209 2636,-273 2636,-273 2636,-279 2630,-285 2624,-285 2624,-285 2360,-285 2360,-285 2354,-285 2348,-279 2348,-273 2348,-273 2348,-209 2348,-209 2348,-203 2354,-197 2360,-197"/>
<text text-anchor="start" x="2398.5" y="-238.2" font-family="Arial Bold" font-size="11.00">Linkset</text>
<polyline fill="none" stroke="black" points="2492,-197 2492,-285 "/>
<text text-anchor="start" x="2499" y="-272" font-family="Arial" font-size="10.00">bugs </text>
<text text-anchor="start" x="2524" y="-272" font-family="Arial Italic" font-size="10.00" fill="#999999">string</text>
<text text-anchor="start" x="2499" y="-259" font-family="Arial" font-size="10.00">code </text>
<text text-anchor="start" x="2524" y="-259" font-family="Arial Italic" font-size="10.00" fill="#999999">string</text>
<text text-anchor="start" x="2499" y="-246" font-family="Arial" font-size="10.00">docs </text>
<text text-anchor="start" x="2524" y="-246" font-family="Arial Italic" font-size="10.00" fill="#999999">string</text>
<text text-anchor="start" x="2499" y="-233" font-family="Arial" font-size="10.00">home </text>
<text text-anchor="start" x="2527" y="-233" font-family="Arial Italic" font-size="10.00" fill="#999999">string</text>
<text text-anchor="start" x="2499" y="-220" font-family="Arial" font-size="10.00">mail </text>
<text text-anchor="start" x="2521" y="-220" font-family="Arial Italic" font-size="10.00" fill="#999999">string</text>
<text text-anchor="start" x="2499" y="-207" font-family="Arial" font-size="10.00">wiki </text>
<text text-anchor="start" x="2520" y="-207" font-family="Arial Italic" font-size="10.00" fill="#999999">string</text>
</g>
<!-- m_LogTicket -->
<g id="node9" class="node">
<title>m_LogTicket</title>
<path fill="none" stroke="black" d="M2585,-530C2585,-530 2849,-530 2849,-530 2855,-530 2861,-536 2861,-542 2861,-542 2861,-593 2861,-593 2861,-599 2855,-605 2849,-605 2849,-605 2585,-605 2585,-605 2579,-605 2573,-599 2573,-593 2573,-593 2573,-542 2573,-542 2573,-536 2579,-530 2585,-530"/>
<text text-anchor="start" x="2617" y="-564.7" font-family="Arial Bold" font-size="11.00">LogTicket</text>
<polyline fill="none" stroke="black" points="2717,-530 2717,-605 "/>
<text text-anchor="start" x="2724" y="-591.5" font-family="Arial" font-size="10.00">backend </text>
<text text-anchor="start" x="2764" y="-591.5" font-family="Arial Italic" font-size="10.00" fill="#999999">integer</text>
<text text-anchor="start" x="2724" y="-578.5" font-family="Arial" font-size="10.00">directory </text>
<text text-anchor="start" x="2765" y="-578.5" font-family="Arial Italic" font-size="10.00" fill="#999999">string</text>
<text text-anchor="start" x="2724" y="-565.5" font-family="Arial" font-size="10.00">key </text>
<text text-anchor="start" x="2743" y="-565.5" font-family="Arial Italic" font-size="10.00" fill="#999999">string</text>
<text text-anchor="start" x="2724" y="-552.5" font-family="Arial" font-size="10.00">processed_count </text>
<text text-anchor="start" x="2802" y="-552.5" font-family="Arial Italic" font-size="10.00" fill="#999999">integer</text>
<text text-anchor="start" x="2724" y="-539.5" font-family="Arial" font-size="10.00">status </text>
<text text-anchor="start" x="2755" y="-539.5" font-family="Arial Italic" font-size="10.00" fill="#999999">string</text>
</g>
<!-- m_Ownership&#45;&gt;m_ApiKeyRubygemScope -->
<g id="edge3" class="edge">
<title>m_Ownership&#45;&gt;m_ApiKeyRubygemScope</title>
<path fill="none" stroke="black" d="M1330.7,-196.74C1298.74,-160.79 1248.31,-111.54 1193,-86 1132.3,-57.96 949.76,-40.06 842.37,-31.64"/>
<polygon fill="black" stroke="black" points="842.39,-28.49 833.18,-30.93 841.91,-34.77 842.39,-28.49"/>
</g>
<!-- m_OwnershipCall -->
<g id="node11" class="node">
<title>m_OwnershipCall</title>
<path fill="none" stroke="black" d="M1566,-223C1566,-223 1830,-223 1830,-223 1836,-223 1842,-229 1842,-235 1842,-235 1842,-247 1842,-247 1842,-253 1836,-259 1830,-259 1830,-259 1566,-259 1566,-259 1560,-259 1554,-253 1554,-247 1554,-247 1554,-235 1554,-235 1554,-229 1560,-223 1566,-223"/>
<text text-anchor="start" x="1585.5" y="-238.2" font-family="Arial Bold" font-size="11.00">OwnershipCall</text>
<polyline fill="none" stroke="black" points="1698,-223 1698,-259 "/>
<text text-anchor="start" x="1705" y="-246" font-family="Arial" font-size="10.00">note </text>
<text text-anchor="start" x="1727" y="-246" font-family="Arial Italic" font-size="10.00" fill="#999999">text ∗</text>
<text text-anchor="start" x="1705" y="-233" font-family="Arial" font-size="10.00">status </text>
<text text-anchor="start" x="1736" y="-233" font-family="Arial Italic" font-size="10.00" fill="#999999">boolean ∗</text>
</g>
<!-- m_OwnershipRequest -->
<g id="node12" class="node">
<title>m_OwnershipRequest</title>
<path fill="none" stroke="black" d="M1206,-7C1206,-7 1470,-7 1470,-7 1476,-7 1482,-13 1482,-19 1482,-19 1482,-31 1482,-31 1482,-37 1476,-43 1470,-43 1470,-43 1206,-43 1206,-43 1200,-43 1194,-37 1194,-31 1194,-31 1194,-19 1194,-19 1194,-13 1200,-7 1206,-7"/>
<text text-anchor="start" x="1214" y="-22.2" font-family="Arial Bold" font-size="11.00">OwnershipRequest</text>
<polyline fill="none" stroke="black" points="1338,-7 1338,-43 "/>
<text text-anchor="start" x="1345" y="-30" font-family="Arial" font-size="10.00">note </text>
<text text-anchor="start" x="1367" y="-30" font-family="Arial Italic" font-size="10.00" fill="#999999">text ∗</text>
<text text-anchor="start" x="1345" y="-17" font-family="Arial" font-size="10.00">status </text>
<text text-anchor="start" x="1376" y="-17" font-family="Arial Italic" font-size="10.00" fill="#999999">integer (2) ∗</text>
</g>
<!-- m_OwnershipCall&#45;&gt;m_OwnershipRequest -->
<g id="edge19" class="edge">
<title>m_OwnershipCall&#45;&gt;m_OwnershipRequest</title>
<path fill="none" stroke="black" d="M1685.21,-222.92C1660.59,-191.24 1603.43,-123.22 1540,-86 1508.86,-67.73 1471.72,-54.63 1437.82,-45.43"/>
<polygon fill="black" stroke="black" points="1438.32,-42.3 1428.82,-43.05 1436.72,-48.39 1438.32,-42.3"/>
</g>
<!-- m_Rubygem -->
<g id="node13" class="node">
<title>m_Rubygem</title>
<path fill="none" stroke="black" d="M1566,-543C1566,-543 1830,-543 1830,-543 1836,-543 1842,-549 1842,-555 1842,-555 1842,-580 1842,-580 1842,-586 1836,-592 1830,-592 1830,-592 1566,-592 1566,-592 1560,-592 1554,-586 1554,-580 1554,-580 1554,-555 1554,-555 1554,-549 1560,-543 1566,-543"/>
<text text-anchor="start" x="1598.5" y="-564.7" font-family="Arial Bold" font-size="11.00">Rubygem</text>
<polyline fill="none" stroke="black" points="1698,-543 1698,-592 "/>
<text text-anchor="start" x="1705" y="-578.5" font-family="Arial" font-size="10.00">indexed </text>
<text text-anchor="start" x="1742" y="-578.5" font-family="Arial Italic" font-size="10.00" fill="#999999">boolean ∗</text>
<text text-anchor="start" x="1705" y="-565.5" font-family="Arial" font-size="10.00">name </text>
<text text-anchor="start" x="1733" y="-565.5" font-family="Arial Italic" font-size="10.00" fill="#999999">string ∗ U</text>
<text text-anchor="start" x="1705" y="-552.5" font-family="Arial" font-size="10.00">slug </text>
<text text-anchor="start" x="1727" y="-552.5" font-family="Arial Italic" font-size="10.00" fill="#999999">string</text>
</g>
<!-- m_Rubygem&#45;&gt;m_Dependency -->
<g id="edge24" class="edge">
<title>m_Rubygem&#45;&gt;m_Dependency</title>
<path fill="none" stroke="black" d="M1717.2,-543C1744.52,-511.46 1797.91,-456.57 1857,-432 1943.09,-396.21 2205.86,-458.54 2275,-396 2326.65,-349.28 2288.68,-309.94 2304,-242"/>
<path fill="none" stroke="black" d="M2304,-240C2319.32,-172.06 2323.77,-135.72 2275,-86 2264.54,-75.34 2203.49,-61.89 2140.27,-50.43"/>
<polygon fill="black" stroke="black" points="2140.75,-47.31 2131.34,-48.82 2139.64,-53.51 2140.75,-47.31"/>
</g>
<!-- m_Rubygem&#45;&gt;m_GemDownload -->
<g id="edge14" class="edge">
<title>m_Rubygem&#45;&gt;m_GemDownload</title>
<path fill="none" stroke="black" d="M2304,-240C2320.14,-168.42 2311.38,-79.92 2306.53,-43.2"/>
</g>
<!-- m_Rubygem&#45;&gt;m_Linkset -->
<g id="edge13" class="edge">
<title>m_Rubygem&#45;&gt;m_Linkset</title>
<path fill="none" stroke="black" d="M1717.17,-542.92C1744.45,-511.29 1797.79,-456.29 1857,-432 2050.41,-352.64 2134.46,-479.77 2326,-396 2381.11,-371.9 2429.64,-321.6 2459.77,-285.02"/>
</g>
<!-- m_Rubygem&#45;&gt;m_Ownership -->
<g id="edge1" class="edge">
<title>m_Rubygem&#45;&gt;m_Ownership</title>
<path fill="none" stroke="black" d="M1673.86,-542.9C1620.08,-490.34 1489.49,-362.7 1416.86,-291.71"/>
<polygon fill="black" stroke="black" points="1418.65,-289.06 1410.01,-285.02 1414.25,-293.56 1418.65,-289.06"/>
</g>
<!-- m_Rubygem&#45;&gt;m_OwnershipCall -->
<g id="edge15" class="edge">
<title>m_Rubygem&#45;&gt;m_OwnershipCall</title>
<path fill="none" stroke="black" d="M1698,-542.9C1698,-483.93 1698,-330.42 1698,-268.48"/>
<polygon fill="black" stroke="black" points="1701.15,-268.36 1698,-259.36 1694.85,-268.36 1701.15,-268.36"/>
</g>
<!-- m_Rubygem&#45;&gt;m_OwnershipRequest -->
<g id="edge16" class="edge">
<title>m_Rubygem&#45;&gt;m_OwnershipRequest</title>
<path fill="none" stroke="black" d="M1731.92,-542.86C1770.67,-513.56 1831.93,-459.64 1857,-396 1907.5,-267.81 1948.66,-188.87 1857,-86 1832.82,-58.87 1635.5,-42.19 1491.3,-33.51"/>
<polygon fill="black" stroke="black" points="1491.49,-30.37 1482.32,-32.98 1491.12,-36.66 1491.49,-30.37"/>
</g>
<!-- m_Subscription -->
<g id="node15" class="node">
<title>m_Subscription</title>
<path fill="none" stroke="black" d="M729,-223C729,-223 849,-223 849,-223 855,-223 861,-229 861,-235 861,-235 861,-247 861,-247 861,-253 855,-259 849,-259 849,-259 729,-259 729,-259 723,-259 717,-253 717,-247 717,-247 717,-235 717,-235 717,-229 723,-223 729,-223"/>
<text text-anchor="start" x="753" y="-238.2" font-family="Arial Bold" font-size="11.00">Subscription</text>
</g>
<!-- m_Rubygem&#45;&gt;m_Subscription -->
<g id="edge4" class="edge">
<title>m_Rubygem&#45;&gt;m_Subscription</title>
<path fill="none" stroke="black" d="M1602.06,-543C1484.26,-514.58 1278.16,-466.32 1100,-432 1000.99,-412.93 958.77,-453.59 876,-396 831.34,-364.92 806.83,-303.1 795.97,-267.98"/>
<polygon fill="black" stroke="black" points="798.95,-266.97 793.38,-259.24 792.91,-268.76 798.95,-266.97"/>
</g>
<!-- m_User -->
<g id="node16" class="node">
<title>m_User</title>
<path fill="none" stroke="black" d="M751,-432.5C751,-432.5 1073,-432.5 1073,-432.5 1079,-432.5 1085,-438.5 1085,-444.5 1085,-444.5 1085,-690.5 1085,-690.5 1085,-696.5 1079,-702.5 1073,-702.5 1073,-702.5 751,-702.5 751,-702.5 745,-702.5 739,-696.5 739,-690.5 739,-690.5 739,-444.5 739,-444.5 739,-438.5 745,-432.5 751,-432.5"/>
<text text-anchor="start" x="796.5" y="-564.7" font-family="Arial Bold" font-size="11.00">User</text>
<polyline fill="none" stroke="black" points="883,-432.5 883,-702.5 "/>
<text text-anchor="start" x="890" y="-689.5" font-family="Arial" font-size="10.00">api_key </text>
<text text-anchor="start" x="927" y="-689.5" font-family="Arial Italic" font-size="10.00" fill="#999999">string</text>
<text text-anchor="start" x="890" y="-676.5" font-family="Arial" font-size="10.00">blocked_email </text>
<text text-anchor="start" x="956" y="-676.5" font-family="Arial Italic" font-size="10.00" fill="#999999">string</text>
<text text-anchor="start" x="890" y="-663.5" font-family="Arial" font-size="10.00">confirmation_token </text>
<text text-anchor="start" x="976" y="-663.5" font-family="Arial Italic" font-size="10.00" fill="#999999">string (128)</text>
<text text-anchor="start" x="890" y="-650.5" font-family="Arial" font-size="10.00">email </text>
<text text-anchor="start" x="917" y="-650.5" font-family="Arial Italic" font-size="10.00" fill="#999999">string ∗ U</text>
<text text-anchor="start" x="890" y="-637.5" font-family="Arial" font-size="10.00">email_confirmed </text>
<text text-anchor="start" x="965" y="-637.5" font-family="Arial Italic" font-size="10.00" fill="#999999">boolean ∗</text>
<text text-anchor="start" x="890" y="-624.5" font-family="Arial" font-size="10.00">email_reset </text>
<text text-anchor="start" x="944" y="-624.5" font-family="Arial Italic" font-size="10.00" fill="#999999">boolean</text>
<text text-anchor="start" x="890" y="-611.5" font-family="Arial" font-size="10.00">encrypted_password </text>
<text text-anchor="start" x="984" y="-611.5" font-family="Arial Italic" font-size="10.00" fill="#999999">string (128)</text>
<text text-anchor="start" x="890" y="-598.5" font-family="Arial" font-size="10.00">handle </text>
<text text-anchor="start" x="922" y="-598.5" font-family="Arial Italic" font-size="10.00" fill="#999999">string U</text>
<text text-anchor="start" x="890" y="-585.5" font-family="Arial" font-size="10.00">hide_email </text>
<text text-anchor="start" x="940" y="-585.5" font-family="Arial Italic" font-size="10.00" fill="#999999">boolean</text>
<text text-anchor="start" x="890" y="-572.5" font-family="Arial" font-size="10.00">mail_fails </text>
<text text-anchor="start" x="935" y="-572.5" font-family="Arial Italic" font-size="10.00" fill="#999999">integer</text>
<text text-anchor="start" x="890" y="-559.5" font-family="Arial" font-size="10.00">mfa_level </text>
<text text-anchor="start" x="936" y="-559.5" font-family="Arial Italic" font-size="10.00" fill="#999999">integer</text>
<text text-anchor="start" x="890" y="-546.5" font-family="Arial" font-size="10.00">mfa_recovery_codes </text>
<text text-anchor="start" x="984" y="-546.5" font-family="Arial Italic" font-size="10.00" fill="#999999">string</text>
<text text-anchor="start" x="890" y="-533.5" font-family="Arial" font-size="10.00">mfa_seed </text>
<text text-anchor="start" x="936" y="-533.5" font-family="Arial Italic" font-size="10.00" fill="#999999">string</text>
<text text-anchor="start" x="890" y="-520.5" font-family="Arial" font-size="10.00">remember_token </text>
<text text-anchor="start" x="966" y="-520.5" font-family="Arial Italic" font-size="10.00" fill="#999999">string (128)</text>
<text text-anchor="start" x="890" y="-507.5" font-family="Arial" font-size="10.00">remember_token_expires_at </text>
<text text-anchor="start" x="1017" y="-507.5" font-family="Arial Italic" font-size="10.00" fill="#999999">datetime (6,0)</text>
<text text-anchor="start" x="890" y="-494.5" font-family="Arial" font-size="10.00">salt </text>
<text text-anchor="start" x="909" y="-494.5" font-family="Arial Italic" font-size="10.00" fill="#999999">string (128)</text>
<text text-anchor="start" x="890" y="-481.5" font-family="Arial" font-size="10.00">token </text>
<text text-anchor="start" x="918" y="-481.5" font-family="Arial Italic" font-size="10.00" fill="#999999">string (128)</text>
<text text-anchor="start" x="890" y="-468.5" font-family="Arial" font-size="10.00">token_expires_at </text>
<text text-anchor="start" x="968" y="-468.5" font-family="Arial Italic" font-size="10.00" fill="#999999">datetime (6,0)</text>
<text text-anchor="start" x="890" y="-455.5" font-family="Arial" font-size="10.00">twitter_username </text>
<text text-anchor="start" x="969" y="-455.5" font-family="Arial Italic" font-size="10.00" fill="#999999">string</text>
<text text-anchor="start" x="890" y="-442.5" font-family="Arial" font-size="10.00">unconfirmed_email </text>
<text text-anchor="start" x="975" y="-442.5" font-family="Arial Italic" font-size="10.00" fill="#999999">string</text>
</g>
<!-- m_Version -->
<g id="node18" class="node">
<title>m_Version</title>
<path fill="none" stroke="black" d="M1942,-86.5C1942,-86.5 2248,-86.5 2248,-86.5 2254,-86.5 2260,-92.5 2260,-98.5 2260,-98.5 2260,-383.5 2260,-383.5 2260,-389.5 2254,-395.5 2248,-395.5 2248,-395.5 1942,-395.5 1942,-395.5 1936,-395.5 1930,-389.5 1930,-383.5 1930,-383.5 1930,-98.5 1930,-98.5 1930,-92.5 1936,-86.5 1942,-86.5"/>
<text text-anchor="start" x="1980" y="-238.2" font-family="Arial Bold" font-size="11.00">Version</text>
<polyline fill="none" stroke="black" points="2074,-86.5 2074,-395.5 "/>
<text text-anchor="start" x="2081" y="-382" font-family="Arial" font-size="10.00">authors </text>
<text text-anchor="start" x="2117" y="-382" font-family="Arial Italic" font-size="10.00" fill="#999999">text</text>
<text text-anchor="start" x="2081" y="-369" font-family="Arial" font-size="10.00">built_at </text>
<text text-anchor="start" x="2116" y="-369" font-family="Arial Italic" font-size="10.00" fill="#999999">datetime (6,0)</text>
<text text-anchor="start" x="2081" y="-356" font-family="Arial" font-size="10.00">canonical_number </text>
<text text-anchor="start" x="2163" y="-356" font-family="Arial Italic" font-size="10.00" fill="#999999">string</text>
<text text-anchor="start" x="2081" y="-343" font-family="Arial" font-size="10.00">cert_chain </text>
<text text-anchor="start" x="2130" y="-343" font-family="Arial Italic" font-size="10.00" fill="#999999">text</text>
<text text-anchor="start" x="2081" y="-330" font-family="Arial" font-size="10.00">description </text>
<text text-anchor="start" x="2132" y="-330" font-family="Arial Italic" font-size="10.00" fill="#999999">text</text>
<text text-anchor="start" x="2081" y="-317" font-family="Arial" font-size="10.00">full_name </text>
<text text-anchor="start" x="2127" y="-317" font-family="Arial Italic" font-size="10.00" fill="#999999">string ∗ U</text>
<text text-anchor="start" x="2081" y="-304" font-family="Arial" font-size="10.00">indexed </text>
<text text-anchor="start" x="2118" y="-304" font-family="Arial Italic" font-size="10.00" fill="#999999">boolean</text>
<text text-anchor="start" x="2081" y="-291" font-family="Arial" font-size="10.00">info_checksum </text>
<text text-anchor="start" x="2151" y="-291" font-family="Arial Italic" font-size="10.00" fill="#999999">string</text>
<text text-anchor="start" x="2081" y="-278" font-family="Arial" font-size="10.00">latest </text>
<text text-anchor="start" x="2109" y="-278" font-family="Arial Italic" font-size="10.00" fill="#999999">boolean</text>
<text text-anchor="start" x="2081" y="-265" font-family="Arial" font-size="10.00">licenses </text>
<text text-anchor="start" x="2121" y="-265" font-family="Arial Italic" font-size="10.00" fill="#999999">string</text>
<text text-anchor="start" x="2081" y="-252" font-family="Arial" font-size="10.00">metadata </text>
<text text-anchor="start" x="2125" y="-252" font-family="Arial Italic" font-size="10.00" fill="#999999">hstore ∗</text>
<text text-anchor="start" x="2081" y="-239" font-family="Arial" font-size="10.00">number </text>
<text text-anchor="start" x="2117" y="-239" font-family="Arial Italic" font-size="10.00" fill="#999999">string</text>
<text text-anchor="start" x="2081" y="-226" font-family="Arial" font-size="10.00">platform </text>
<text text-anchor="start" x="2120" y="-226" font-family="Arial Italic" font-size="10.00" fill="#999999">string</text>
<text text-anchor="start" x="2081" y="-213" font-family="Arial" font-size="10.00">position </text>
<text text-anchor="start" x="2118" y="-213" font-family="Arial Italic" font-size="10.00" fill="#999999">integer</text>
<text text-anchor="start" x="2081" y="-200" font-family="Arial" font-size="10.00">prerelease </text>
<text text-anchor="start" x="2130" y="-200" font-family="Arial Italic" font-size="10.00" fill="#999999">boolean</text>
<text text-anchor="start" x="2081" y="-187" font-family="Arial" font-size="10.00">required_ruby_version </text>
<text text-anchor="start" x="2180" y="-187" font-family="Arial Italic" font-size="10.00" fill="#999999">string</text>
<text text-anchor="start" x="2081" y="-174" font-family="Arial" font-size="10.00">required_rubygems_version </text>
<text text-anchor="start" x="2204" y="-174" font-family="Arial Italic" font-size="10.00" fill="#999999">string (255)</text>
<text text-anchor="start" x="2081" y="-161" font-family="Arial" font-size="10.00">requirements </text>
<text text-anchor="start" x="2141" y="-161" font-family="Arial Italic" font-size="10.00" fill="#999999">text</text>
<text text-anchor="start" x="2081" y="-148" font-family="Arial" font-size="10.00">sha256 </text>
<text text-anchor="start" x="2116" y="-148" font-family="Arial Italic" font-size="10.00" fill="#999999">string</text>
<text text-anchor="start" x="2081" y="-135" font-family="Arial" font-size="10.00">size </text>
<text text-anchor="start" x="2103" y="-135" font-family="Arial Italic" font-size="10.00" fill="#999999">integer</text>
<text text-anchor="start" x="2081" y="-122" font-family="Arial" font-size="10.00">summary </text>
<text text-anchor="start" x="2125" y="-122" font-family="Arial Italic" font-size="10.00" fill="#999999">text</text>
<text text-anchor="start" x="2081" y="-109" font-family="Arial" font-size="10.00">yanked_at </text>
<text text-anchor="start" x="2130" y="-109" font-family="Arial Italic" font-size="10.00" fill="#999999">datetime (6,0)</text>
<text text-anchor="start" x="2081" y="-96" font-family="Arial" font-size="10.00">yanked_info_checksum </text>
<text text-anchor="start" x="2187" y="-96" font-family="Arial Italic" font-size="10.00" fill="#999999">string</text>
</g>
<!-- m_Rubygem&#45;&gt;m_Version -->
<g id="edge7" class="edge">
<title>m_Rubygem&#45;&gt;m_Version</title>
<path fill="none" stroke="black" d="M1724.42,-542.92C1755.49,-515.47 1808.95,-469.16 1857,-432 1878.95,-415.02 1885.94,-412.83 1908,-396 1912.83,-392.31 1917.71,-388.55 1922.62,-384.74"/>
<polygon fill="black" stroke="black" points="1924.67,-387.14 1929.83,-379.12 1920.8,-382.17 1924.67,-387.14"/>
</g>
<!-- m_WebHook -->
<g id="node19" class="node">
<title>m_WebHook</title>
<path fill="none" stroke="black" d="M902,-223C902,-223 1166,-223 1166,-223 1172,-223 1178,-229 1178,-235 1178,-235 1178,-247 1178,-247 1178,-253 1172,-259 1166,-259 1166,-259 902,-259 902,-259 896,-259 890,-253 890,-247 890,-247 890,-235 890,-235 890,-229 896,-223 902,-223"/>
<text text-anchor="start" x="934" y="-238.2" font-family="Arial Bold" font-size="11.00">WebHook</text>
<polyline fill="none" stroke="black" points="1034,-223 1034,-259 "/>
<text text-anchor="start" x="1041" y="-246" font-family="Arial" font-size="10.00">failure_count </text>
<text text-anchor="start" x="1100" y="-246" font-family="Arial Italic" font-size="10.00" fill="#999999">integer</text>
<text text-anchor="start" x="1041" y="-233" font-family="Arial" font-size="10.00">url </text>
<text text-anchor="start" x="1055" y="-233" font-family="Arial Italic" font-size="10.00" fill="#999999">string ∗</text>
</g>
<!-- m_Rubygem&#45;&gt;m_WebHook -->
<g id="edge12" class="edge">
<title>m_Rubygem&#45;&gt;m_WebHook</title>
<path fill="none" stroke="black" d="M1582.68,-542.99C1476.05,-517.8 1315.96,-470.97 1193,-396 1134.74,-360.48 1080.8,-300.14 1053.22,-266.5"/>
<polygon fill="black" stroke="black" points="1055.54,-264.36 1047.43,-259.35 1050.64,-268.33 1055.54,-264.36"/>
</g>
<!-- m_SendgridEvent -->
<g id="node14" class="node">
<title>m_SendgridEvent</title>
<path fill="none" stroke="black" d="M2902,-523.5C2902,-523.5 3166,-523.5 3166,-523.5 3172,-523.5 3178,-529.5 3178,-535.5 3178,-535.5 3178,-599.5 3178,-599.5 3178,-605.5 3172,-611.5 3166,-611.5 3166,-611.5 2902,-611.5 2902,-611.5 2896,-611.5 2890,-605.5 2890,-599.5 2890,-599.5 2890,-535.5 2890,-535.5 2890,-529.5 2896,-523.5 2902,-523.5"/>
<text text-anchor="start" x="2920.5" y="-564.7" font-family="Arial Bold" font-size="11.00">SendgridEvent</text>
<polyline fill="none" stroke="black" points="3034,-523.5 3034,-611.5 "/>
<text text-anchor="start" x="3041" y="-598.5" font-family="Arial" font-size="10.00">email </text>
<text text-anchor="start" x="3068" y="-598.5" font-family="Arial Italic" font-size="10.00" fill="#999999">string</text>
<text text-anchor="start" x="3041" y="-585.5" font-family="Arial" font-size="10.00">event_type </text>
<text text-anchor="start" x="3093" y="-585.5" font-family="Arial Italic" font-size="10.00" fill="#999999">string</text>
<text text-anchor="start" x="3041" y="-572.5" font-family="Arial" font-size="10.00">occurred_at </text>
<text text-anchor="start" x="3096" y="-572.5" font-family="Arial Italic" font-size="10.00" fill="#999999">datetime (6,0)</text>
<text text-anchor="start" x="3041" y="-559.5" font-family="Arial" font-size="10.00">payload </text>
<text text-anchor="start" x="3078" y="-559.5" font-family="Arial Italic" font-size="10.00" fill="#999999">jsonb ∗</text>
<text text-anchor="start" x="3041" y="-546.5" font-family="Arial" font-size="10.00">sendgrid_id </text>
<text text-anchor="start" x="3094" y="-546.5" font-family="Arial Italic" font-size="10.00" fill="#999999">string ∗</text>
<text text-anchor="start" x="3041" y="-533.5" font-family="Arial" font-size="10.00">status </text>
<text text-anchor="start" x="3072" y="-533.5" font-family="Arial Italic" font-size="10.00" fill="#999999">string ∗</text>
</g>
<!-- m_User&#45;&gt;m_ApiKey -->
<g id="edge22" class="edge">
<title>m_User&#45;&gt;m_ApiKey</title>
<path fill="none" stroke="black" d="M738.87,-537.57C617.73,-512.33 455.14,-468.17 326,-396 297.56,-380.11 269.94,-358.65 245.51,-336.8"/>
<polygon fill="black" stroke="black" points="247.49,-334.34 238.71,-330.63 243.26,-339.01 247.49,-334.34"/>
</g>
<!-- m_User&#45;&gt;m_Deletion -->
<g id="edge21" class="edge">
<title>m_User&#45;&gt;m_Deletion</title>
<path fill="none" stroke="black" d="M738.88,-459.33C708.96,-439.15 678.61,-417.58 651,-396 600.25,-356.34 546.46,-304.37 514.32,-272.08"/>
<polygon fill="black" stroke="black" points="516.37,-269.68 507.79,-265.51 511.89,-274.11 516.37,-269.68"/>
</g>
<!-- m_User&#45;&gt;m_Ownership -->
<g id="edge2" class="edge">
<title>m_User&#45;&gt;m_Ownership</title>
<path fill="none" stroke="black" d="M1085.01,-468.32C1121.49,-445.76 1159.15,-421.01 1193,-396 1236.33,-363.99 1281.68,-323.3 1315.08,-291.79"/>
<polygon fill="black" stroke="black" points="1317.66,-293.69 1322.02,-285.22 1313.32,-289.12 1317.66,-293.69"/>
</g>
<!-- m_User&#45;&gt;m_OwnershipCall -->
<g id="edge20" class="edge">
<title>m_User&#45;&gt;m_OwnershipCall</title>
<path fill="none" stroke="black" d="M1085.28,-543.65C1216.74,-520.76 1398.36,-476.88 1540,-396 1599.38,-362.1 1652.77,-300.6 1679.65,-266.47"/>
<polygon fill="black" stroke="black" points="1682.25,-268.26 1685.29,-259.22 1677.28,-264.4 1682.25,-268.26"/>
</g>
<!-- m_User&#45;&gt;m_OwnershipRequest -->
<g id="edge18" class="edge">
<title>m_User&#45;&gt;m_OwnershipRequest</title>
<path fill="none" stroke="black" d="M738.99,-449.28C724.63,-433.04 712.14,-415.25 703,-396 643.91,-271.54 610.27,-187.9 703,-86 734.84,-51.01 1007.18,-36 1184.71,-29.88"/>
<polygon fill="black" stroke="black" points="1184.99,-33.02 1193.88,-29.57 1184.78,-26.73 1184.99,-33.02"/>
</g>
<!-- m_User&#45;&gt;m_Subscription -->
<g id="edge5" class="edge">
<title>m_User&#45;&gt;m_Subscription</title>
<path fill="none" stroke="black" d="M861.08,-432.17C837.79,-370.71 812.4,-303.74 798.85,-267.97"/>
<polygon fill="black" stroke="black" points="801.64,-266.46 795.5,-259.16 795.75,-268.69 801.64,-266.46"/>
</g>
<!-- m_User&#45;&gt;m_Version -->
<g id="edge10" class="edge">
<title>m_User&#45;&gt;m_Version</title>
<path fill="none" stroke="black" d="M1085.07,-524.66C1210.71,-495.45 1385.12,-457.32 1540,-432 1679.94,-409.13 1723.5,-443.78 1857,-396 1878.78,-388.21 1900.58,-378.08 1921.66,-366.75"/>
<polygon fill="black" stroke="black" points="1923.32,-369.43 1929.71,-362.35 1920.3,-363.91 1923.32,-369.43"/>
</g>
<!-- m_User&#45;&gt;m_WebHook -->
<g id="edge17" class="edge">
<title>m_User&#45;&gt;m_WebHook</title>
<path fill="none" stroke="black" d="M962.5,-432.17C985.61,-370.71 1010.79,-303.74 1024.23,-267.97"/>
<polygon fill="black" stroke="black" points="1027.33,-268.69 1027.55,-259.16 1021.43,-266.48 1027.33,-268.69"/>
</g>
<!-- m_User::WithPrivateFields -->
<g id="node17" class="node">
<title>m_User::WithPrivateFields</title>
<path fill="none" stroke="black" d="M3219,-432.5C3219,-432.5 3541,-432.5 3541,-432.5 3547,-432.5 3553,-438.5 3553,-444.5 3553,-444.5 3553,-690.5 3553,-690.5 3553,-696.5 3547,-702.5 3541,-702.5 3541,-702.5 3219,-702.5 3219,-702.5 3213,-702.5 3207,-696.5 3207,-690.5 3207,-690.5 3207,-444.5 3207,-444.5 3207,-438.5 3213,-432.5 3219,-432.5"/>
<text text-anchor="start" x="3214.5" y="-564.7" font-family="Arial Bold" font-size="11.00">User::WithPrivateFields</text>
<polyline fill="none" stroke="black" points="3351,-432.5 3351,-702.5 "/>
<text text-anchor="start" x="3358" y="-689.5" font-family="Arial" font-size="10.00">api_key </text>
<text text-anchor="start" x="3395" y="-689.5" font-family="Arial Italic" font-size="10.00" fill="#999999">string</text>
<text text-anchor="start" x="3358" y="-676.5" font-family="Arial" font-size="10.00">blocked_email </text>
<text text-anchor="start" x="3424" y="-676.5" font-family="Arial Italic" font-size="10.00" fill="#999999">string</text>
<text text-anchor="start" x="3358" y="-663.5" font-family="Arial" font-size="10.00">confirmation_token </text>
<text text-anchor="start" x="3444" y="-663.5" font-family="Arial Italic" font-size="10.00" fill="#999999">string (128)</text>
<text text-anchor="start" x="3358" y="-650.5" font-family="Arial" font-size="10.00">email </text>
<text text-anchor="start" x="3385" y="-650.5" font-family="Arial Italic" font-size="10.00" fill="#999999">string ∗ U</text>
<text text-anchor="start" x="3358" y="-637.5" font-family="Arial" font-size="10.00">email_confirmed </text>
<text text-anchor="start" x="3433" y="-637.5" font-family="Arial Italic" font-size="10.00" fill="#999999">boolean ∗</text>
<text text-anchor="start" x="3358" y="-624.5" font-family="Arial" font-size="10.00">email_reset </text>
<text text-anchor="start" x="3412" y="-624.5" font-family="Arial Italic" font-size="10.00" fill="#999999">boolean</text>
<text text-anchor="start" x="3358" y="-611.5" font-family="Arial" font-size="10.00">encrypted_password </text>
<text text-anchor="start" x="3452" y="-611.5" font-family="Arial Italic" font-size="10.00" fill="#999999">string (128)</text>
<text text-anchor="start" x="3358" y="-598.5" font-family="Arial" font-size="10.00">handle </text>
<text text-anchor="start" x="3390" y="-598.5" font-family="Arial Italic" font-size="10.00" fill="#999999">string U</text>
<text text-anchor="start" x="3358" y="-585.5" font-family="Arial" font-size="10.00">hide_email </text>
<text text-anchor="start" x="3408" y="-585.5" font-family="Arial Italic" font-size="10.00" fill="#999999">boolean</text>
<text text-anchor="start" x="3358" y="-572.5" font-family="Arial" font-size="10.00">mail_fails </text>
<text text-anchor="start" x="3403" y="-572.5" font-family="Arial Italic" font-size="10.00" fill="#999999">integer</text>
<text text-anchor="start" x="3358" y="-559.5" font-family="Arial" font-size="10.00">mfa_level </text>
<text text-anchor="start" x="3404" y="-559.5" font-family="Arial Italic" font-size="10.00" fill="#999999">integer</text>
<text text-anchor="start" x="3358" y="-546.5" font-family="Arial" font-size="10.00">mfa_recovery_codes </text>
<text text-anchor="start" x="3452" y="-546.5" font-family="Arial Italic" font-size="10.00" fill="#999999">string</text>
<text text-anchor="start" x="3358" y="-533.5" font-family="Arial" font-size="10.00">mfa_seed </text>
<text text-anchor="start" x="3404" y="-533.5" font-family="Arial Italic" font-size="10.00" fill="#999999">string</text>
<text text-anchor="start" x="3358" y="-520.5" font-family="Arial" font-size="10.00">remember_token </text>
<text text-anchor="start" x="3434" y="-520.5" font-family="Arial Italic" font-size="10.00" fill="#999999">string (128)</text>
<text text-anchor="start" x="3358" y="-507.5" font-family="Arial" font-size="10.00">remember_token_expires_at </text>
<text text-anchor="start" x="3485" y="-507.5" font-family="Arial Italic" font-size="10.00" fill="#999999">datetime (6,0)</text>
<text text-anchor="start" x="3358" y="-494.5" font-family="Arial" font-size="10.00">salt </text>
<text text-anchor="start" x="3377" y="-494.5" font-family="Arial Italic" font-size="10.00" fill="#999999">string (128)</text>
<text text-anchor="start" x="3358" y="-481.5" font-family="Arial" font-size="10.00">token </text>
<text text-anchor="start" x="3386" y="-481.5" font-family="Arial Italic" font-size="10.00" fill="#999999">string (128)</text>
<text text-anchor="start" x="3358" y="-468.5" font-family="Arial" font-size="10.00">token_expires_at </text>
<text text-anchor="start" x="3436" y="-468.5" font-family="Arial Italic" font-size="10.00" fill="#999999">datetime (6,0)</text>
<text text-anchor="start" x="3358" y="-455.5" font-family="Arial" font-size="10.00">twitter_username </text>
<text text-anchor="start" x="3437" y="-455.5" font-family="Arial Italic" font-size="10.00" fill="#999999">string</text>
<text text-anchor="start" x="3358" y="-442.5" font-family="Arial" font-size="10.00">unconfirmed_email </text>
<text text-anchor="start" x="3443" y="-442.5" font-family="Arial Italic" font-size="10.00" fill="#999999">string</text>
</g>
<!-- m_Version&#45;&gt;m_Dependency -->
<g id="edge8" class="edge">
<title>m_Version&#45;&gt;m_Dependency</title>
<path fill="none" stroke="black" d="M2017.52,-86.47C2012.21,-75.96 2007.28,-66.19 2003,-57.71"/>
<polygon fill="black" stroke="black" points="2005.81,-56.28 1998.94,-49.67 2000.19,-59.12 2005.81,-56.28"/>
</g>
<!-- m_Version&#45;&gt;m_GemDownload -->
<g id="edge9" class="edge">
<title>m_Version&#45;&gt;m_GemDownload</title>
<path fill="none" stroke="black" d="M2244.95,-86.47C2261.63,-69.38 2276.39,-54.27 2286.99,-43.42"/>
</g>
</g>
</svg>
