<?xml version="1.0" encoding="UTF-8" standalone="no"?>
<!DOCTYPE svg PUBLIC "-//W3C//DTD SVG 1.1//EN"
 "http://www.w3.org/Graphics/SVG/1.1/DTD/svg11.dtd">
<!-- Generated by graphviz version 2.43.0 (0)
 -->
<!-- Title: Gemcutter Pages: 1 -->
<svg width="4006pt" height="824pt"
 viewBox="0.00 0.00 4005.60 823.60" xmlns="http://www.w3.org/2000/svg" xmlns:xlink="http://www.w3.org/1999/xlink">
<g id="graph0" class="graph" transform="scale(1 1) rotate(0) translate(28.8 794.8)">
<title>Gemcutter</title>
<polygon fill="white" stroke="transparent" points="-28.8,28.8 -28.8,-794.8 3976.8,-794.8 3976.8,28.8 -28.8,28.8"/>
<text text-anchor="middle" x="1974" y="-751.6" font-family="Arial Bold" font-size="13.00">RubyGems.org domain model</text>
<!-- m_ApiKey -->
<g id="node1" class="node">
<title>m_ApiKey</title>
<path fill="none" stroke="black" d="M646,-151.5C646,-151.5 934,-151.5 934,-151.5 940,-151.5 946,-157.5 946,-163.5 946,-163.5 946,-318.5 946,-318.5 946,-324.5 940,-330.5 934,-330.5 934,-330.5 646,-330.5 646,-330.5 640,-330.5 634,-324.5 634,-318.5 634,-318.5 634,-163.5 634,-163.5 634,-157.5 640,-151.5 646,-151.5"/>
<text text-anchor="start" x="684.5" y="-238.2" font-family="Arial Bold" font-size="11.00">ApiKey</text>
<polyline fill="none" stroke="black" points="778,-151.5 778,-330.5 "/>
<text text-anchor="start" x="785" y="-317" font-family="Arial" font-size="10.00">access_webhooks </text>
<text text-anchor="start" x="870" y="-317" font-family="Arial Italic" font-size="10.00" fill="#999999">boolean ∗</text>
<text text-anchor="start" x="785" y="-304" font-family="Arial" font-size="10.00">add_owner </text>
<text text-anchor="start" x="836" y="-304" font-family="Arial Italic" font-size="10.00" fill="#999999">boolean ∗</text>
<text text-anchor="start" x="785" y="-291" font-family="Arial" font-size="10.00">hashed_key </text>
<text text-anchor="start" x="841" y="-291" font-family="Arial Italic" font-size="10.00" fill="#999999">string ∗</text>
<text text-anchor="start" x="785" y="-278" font-family="Arial" font-size="10.00">index_rubygems </text>
<text text-anchor="start" x="860" y="-278" font-family="Arial Italic" font-size="10.00" fill="#999999">boolean ∗</text>
<text text-anchor="start" x="785" y="-265" font-family="Arial" font-size="10.00">last_accessed_at </text>
<text text-anchor="start" x="865" y="-265" font-family="Arial Italic" font-size="10.00" fill="#999999">datetime (6,0)</text>
<text text-anchor="start" x="785" y="-252" font-family="Arial" font-size="10.00">mfa </text>
<text text-anchor="start" x="805" y="-252" font-family="Arial Italic" font-size="10.00" fill="#999999">boolean ∗</text>
<text text-anchor="start" x="785" y="-239" font-family="Arial" font-size="10.00">name </text>
<text text-anchor="start" x="813" y="-239" font-family="Arial Italic" font-size="10.00" fill="#999999">string ∗</text>
<text text-anchor="start" x="785" y="-226" font-family="Arial" font-size="10.00">push_rubygem </text>
<text text-anchor="start" x="852" y="-226" font-family="Arial Italic" font-size="10.00" fill="#999999">boolean ∗</text>
<text text-anchor="start" x="785" y="-213" font-family="Arial" font-size="10.00">remove_owner </text>
<text text-anchor="start" x="852" y="-213" font-family="Arial Italic" font-size="10.00" fill="#999999">boolean ∗</text>
<text text-anchor="start" x="785" y="-200" font-family="Arial" font-size="10.00">show_dashboard </text>
<text text-anchor="start" x="862" y="-200" font-family="Arial Italic" font-size="10.00" fill="#999999">boolean ∗</text>
<text text-anchor="start" x="785" y="-187" font-family="Arial" font-size="10.00">soft_deleted_at </text>
<text text-anchor="start" x="855" y="-187" font-family="Arial Italic" font-size="10.00" fill="#999999">datetime (6,0)</text>
<text text-anchor="start" x="785" y="-174" font-family="Arial" font-size="10.00">soft_deleted_rubygem_name </text>
<text text-anchor="start" x="914" y="-174" font-family="Arial Italic" font-size="10.00" fill="#999999">string</text>
<text text-anchor="start" x="785" y="-161" font-family="Arial" font-size="10.00">yank_rubygem </text>
<text text-anchor="start" x="852" y="-161" font-family="Arial Italic" font-size="10.00" fill="#999999">boolean ∗</text>
</g>
<!-- m_ApiKeyRubygemScope -->
<g id="node2" class="node">
<title>m_ApiKeyRubygemScope</title>
<path fill="none" stroke="black" d="M978,-7C978,-7 1098,-7 1098,-7 1104,-7 1110,-13 1110,-19 1110,-19 1110,-31 1110,-31 1110,-37 1104,-43 1098,-43 1098,-43 978,-43 978,-43 972,-43 966,-37 966,-31 966,-31 966,-19 966,-19 966,-13 972,-7 978,-7"/>
<text text-anchor="start" x="975" y="-22.2" font-family="Arial Bold" font-size="11.00">ApiKeyRubygemScope</text>
</g>
<!-- m_ApiKey&#45;&gt;m_ApiKeyRubygemScope -->
<g id="edge24" class="edge">
<title>m_ApiKey&#45;&gt;m_ApiKeyRubygemScope</title>
<path fill="none" stroke="black" d="M886.15,-151.23C910.29,-129.55 936.35,-106.66 961,-86 978.79,-71.09 999.6,-54.95 1015.09,-43.17"/>
</g>
<!-- m_Ownership -->
<g id="node10" class="node">
<title>m_Ownership</title>
<path fill="none" stroke="black" d="M987.5,-197C987.5,-197 1286.5,-197 1286.5,-197 1292.5,-197 1298.5,-203 1298.5,-209 1298.5,-209 1298.5,-273 1298.5,-273 1298.5,-279 1292.5,-285 1286.5,-285 1286.5,-285 987.5,-285 987.5,-285 981.5,-285 975.5,-279 975.5,-273 975.5,-273 975.5,-209 975.5,-209 975.5,-203 981.5,-197 987.5,-197"/>
<text text-anchor="start" x="1017" y="-238.2" font-family="Arial Bold" font-size="11.00">Ownership</text>
<polyline fill="none" stroke="black" points="1119.5,-197 1119.5,-285 "/>
<text text-anchor="start" x="1127" y="-272" font-family="Arial" font-size="10.00">confirmed_at </text>
<text text-anchor="start" x="1187" y="-272" font-family="Arial Italic" font-size="10.00" fill="#999999">datetime (6,0)</text>
<text text-anchor="start" x="1127" y="-259" font-family="Arial" font-size="10.00">owner_notifier </text>
<text text-anchor="start" x="1191" y="-259" font-family="Arial Italic" font-size="10.00" fill="#999999">boolean ∗</text>
<text text-anchor="start" x="1127" y="-246" font-family="Arial" font-size="10.00">ownership_request_notifier </text>
<text text-anchor="start" x="1247" y="-246" font-family="Arial Italic" font-size="10.00" fill="#999999">boolean ∗</text>
<text text-anchor="start" x="1127" y="-233" font-family="Arial" font-size="10.00">push_notifier </text>
<text text-anchor="start" x="1186" y="-233" font-family="Arial Italic" font-size="10.00" fill="#999999">boolean ∗</text>
<text text-anchor="start" x="1127" y="-220" font-family="Arial" font-size="10.00">token </text>
<text text-anchor="start" x="1155" y="-220" font-family="Arial Italic" font-size="10.00" fill="#999999">string</text>
<text text-anchor="start" x="1127" y="-207" font-family="Arial" font-size="10.00">token_expires_at </text>
<text text-anchor="start" x="1205" y="-207" font-family="Arial Italic" font-size="10.00" fill="#999999">datetime (6,0)</text>
</g>
<!-- m_Delayed::Backend::ActiveRecord::Job -->
<g id="node3" class="node">
<title>m_Delayed::Backend::ActiveRecord::Job</title>
<path fill="none" stroke="black" d="M2278,-517C2278,-517 2610,-517 2610,-517 2616,-517 2622,-523 2622,-529 2622,-529 2622,-632 2622,-632 2622,-638 2616,-644 2610,-644 2610,-644 2278,-644 2278,-644 2272,-644 2266,-638 2266,-632 2266,-632 2266,-529 2266,-529 2266,-523 2272,-517 2278,-517"/>
<text text-anchor="start" x="2271" y="-577.7" font-family="Arial Bold" font-size="11.00">Delayed::Backend::ActiveRecord::Job</text>
<polyline fill="none" stroke="black" points="2478,-517 2478,-644 "/>
<text text-anchor="start" x="2485" y="-630.5" font-family="Arial" font-size="10.00">attempts </text>
<text text-anchor="start" x="2527" y="-630.5" font-family="Arial Italic" font-size="10.00" fill="#999999">integer</text>
<text text-anchor="start" x="2485" y="-617.5" font-family="Arial" font-size="10.00">failed_at </text>
<text text-anchor="start" x="2525" y="-617.5" font-family="Arial Italic" font-size="10.00" fill="#999999">datetime (6,0)</text>
<text text-anchor="start" x="2485" y="-604.5" font-family="Arial" font-size="10.00">handler </text>
<text text-anchor="start" x="2520" y="-604.5" font-family="Arial Italic" font-size="10.00" fill="#999999">text</text>
<text text-anchor="start" x="2485" y="-591.5" font-family="Arial" font-size="10.00">last_error </text>
<text text-anchor="start" x="2529" y="-591.5" font-family="Arial Italic" font-size="10.00" fill="#999999">text</text>
<text text-anchor="start" x="2485" y="-578.5" font-family="Arial" font-size="10.00">locked_at </text>
<text text-anchor="start" x="2531" y="-578.5" font-family="Arial Italic" font-size="10.00" fill="#999999">datetime (6,0)</text>
<text text-anchor="start" x="2485" y="-565.5" font-family="Arial" font-size="10.00">locked_by </text>
<text text-anchor="start" x="2533" y="-565.5" font-family="Arial Italic" font-size="10.00" fill="#999999">string</text>
<text text-anchor="start" x="2485" y="-552.5" font-family="Arial" font-size="10.00">priority </text>
<text text-anchor="start" x="2518" y="-552.5" font-family="Arial Italic" font-size="10.00" fill="#999999">integer</text>
<text text-anchor="start" x="2485" y="-539.5" font-family="Arial" font-size="10.00">queue </text>
<text text-anchor="start" x="2515" y="-539.5" font-family="Arial Italic" font-size="10.00" fill="#999999">string</text>
<text text-anchor="start" x="2485" y="-526.5" font-family="Arial" font-size="10.00">run_at </text>
<text text-anchor="start" x="2516" y="-526.5" font-family="Arial Italic" font-size="10.00" fill="#999999">datetime (6,0)</text>
</g>
<!-- m_Deletion -->
<g id="node4" class="node">
<title>m_Deletion</title>
<path fill="none" stroke="black" d="M329,-216.5C329,-216.5 593,-216.5 593,-216.5 599,-216.5 605,-222.5 605,-228.5 605,-228.5 605,-253.5 605,-253.5 605,-259.5 599,-265.5 593,-265.5 593,-265.5 329,-265.5 329,-265.5 323,-265.5 317,-259.5 317,-253.5 317,-253.5 317,-228.5 317,-228.5 317,-222.5 323,-216.5 329,-216.5"/>
<text text-anchor="start" x="365" y="-238.2" font-family="Arial Bold" font-size="11.00">Deletion</text>
<polyline fill="none" stroke="black" points="461,-216.5 461,-265.5 "/>
<text text-anchor="start" x="468" y="-252" font-family="Arial" font-size="10.00">number </text>
<text text-anchor="start" x="504" y="-252" font-family="Arial Italic" font-size="10.00" fill="#999999">string ∗</text>
<text text-anchor="start" x="468" y="-239" font-family="Arial" font-size="10.00">platform </text>
<text text-anchor="start" x="507" y="-239" font-family="Arial Italic" font-size="10.00" fill="#999999">string</text>
<text text-anchor="start" x="468" y="-226" font-family="Arial" font-size="10.00">rubygem </text>
<text text-anchor="start" x="509" y="-226" font-family="Arial Italic" font-size="10.00" fill="#999999">string ∗</text>
</g>
<!-- m_Dependency -->
<g id="node5" class="node">
<title>m_Dependency</title>
<path fill="none" stroke="black" d="M2394,-0.5C2394,-0.5 2658,-0.5 2658,-0.5 2664,-0.5 2670,-6.5 2670,-12.5 2670,-12.5 2670,-37.5 2670,-37.5 2670,-43.5 2664,-49.5 2658,-49.5 2658,-49.5 2394,-49.5 2394,-49.5 2388,-49.5 2382,-43.5 2382,-37.5 2382,-37.5 2382,-12.5 2382,-12.5 2382,-6.5 2388,-0.5 2394,-0.5"/>
<text text-anchor="start" x="2419" y="-22.2" font-family="Arial Bold" font-size="11.00">Dependency</text>
<polyline fill="none" stroke="black" points="2526,-0.5 2526,-49.5 "/>
<text text-anchor="start" x="2533" y="-36" font-family="Arial" font-size="10.00">requirements </text>
<text text-anchor="start" x="2593" y="-36" font-family="Arial Italic" font-size="10.00" fill="#999999">string ∗</text>
<text text-anchor="start" x="2533" y="-23" font-family="Arial" font-size="10.00">scope </text>
<text text-anchor="start" x="2563" y="-23" font-family="Arial Italic" font-size="10.00" fill="#999999">string</text>
<text text-anchor="start" x="2533" y="-10" font-family="Arial" font-size="10.00">unresolved_name </text>
<text text-anchor="start" x="2613" y="-10" font-family="Arial Italic" font-size="10.00" fill="#999999">string</text>
</g>
<!-- m_GemDownload -->
<g id="node6" class="node">
<title>m_GemDownload</title>
<path fill="none" stroke="black" d="M2077,-7C2077,-7 2341,-7 2341,-7 2347,-7 2353,-13 2353,-19 2353,-19 2353,-31 2353,-31 2353,-37 2347,-43 2341,-43 2341,-43 2077,-43 2077,-43 2071,-43 2065,-37 2065,-31 2065,-31 2065,-19 2065,-19 2065,-13 2071,-7 2077,-7"/>
<text text-anchor="start" x="2096.5" y="-22.2" font-family="Arial Bold" font-size="11.00">GemDownload</text>
<polyline fill="none" stroke="black" points="2209,-7 2209,-43 "/>
<text text-anchor="start" x="2216" y="-23" font-family="Arial" font-size="10.00">count </text>
<text text-anchor="start" x="2244" y="-23" font-family="Arial Italic" font-size="10.00" fill="#999999">integer (8)</text>
</g>
<!-- m_GemTypoException -->
<g id="node7" class="node">
<title>m_GemTypoException</title>
<path fill="none" stroke="black" d="M2663,-562.5C2663,-562.5 2927,-562.5 2927,-562.5 2933,-562.5 2939,-568.5 2939,-574.5 2939,-574.5 2939,-586.5 2939,-586.5 2939,-592.5 2933,-598.5 2927,-598.5 2927,-598.5 2663,-598.5 2663,-598.5 2657,-598.5 2651,-592.5 2651,-586.5 2651,-586.5 2651,-574.5 2651,-574.5 2651,-568.5 2657,-562.5 2663,-562.5"/>
<text text-anchor="start" x="2669.5" y="-577.7" font-family="Arial Bold" font-size="11.00">GemTypoException</text>
<polyline fill="none" stroke="black" points="2795,-562.5 2795,-598.5 "/>
<text text-anchor="start" x="2802" y="-585.5" font-family="Arial" font-size="10.00">info </text>
<text text-anchor="start" x="2821" y="-585.5" font-family="Arial Italic" font-size="10.00" fill="#999999">text</text>
<text text-anchor="start" x="2802" y="-572.5" font-family="Arial" font-size="10.00">name </text>
<text text-anchor="start" x="2830" y="-572.5" font-family="Arial Italic" font-size="10.00" fill="#999999">string ∗ U</text>
</g>
<!-- m_Linkset -->
<g id="node8" class="node">
<title>m_Linkset</title>
<path fill="none" stroke="black" d="M2624,-197C2624,-197 2888,-197 2888,-197 2894,-197 2900,-203 2900,-209 2900,-209 2900,-273 2900,-273 2900,-279 2894,-285 2888,-285 2888,-285 2624,-285 2624,-285 2618,-285 2612,-279 2612,-273 2612,-273 2612,-209 2612,-209 2612,-203 2618,-197 2624,-197"/>
<text text-anchor="start" x="2662.5" y="-238.2" font-family="Arial Bold" font-size="11.00">Linkset</text>
<polyline fill="none" stroke="black" points="2756,-197 2756,-285 "/>
<text text-anchor="start" x="2763" y="-272" font-family="Arial" font-size="10.00">bugs </text>
<text text-anchor="start" x="2788" y="-272" font-family="Arial Italic" font-size="10.00" fill="#999999">string</text>
<text text-anchor="start" x="2763" y="-259" font-family="Arial" font-size="10.00">code </text>
<text text-anchor="start" x="2788" y="-259" font-family="Arial Italic" font-size="10.00" fill="#999999">string</text>
<text text-anchor="start" x="2763" y="-246" font-family="Arial" font-size="10.00">docs </text>
<text text-anchor="start" x="2788" y="-246" font-family="Arial Italic" font-size="10.00" fill="#999999">string</text>
<text text-anchor="start" x="2763" y="-233" font-family="Arial" font-size="10.00">home </text>
<text text-anchor="start" x="2791" y="-233" font-family="Arial Italic" font-size="10.00" fill="#999999">string</text>
<text text-anchor="start" x="2763" y="-220" font-family="Arial" font-size="10.00">mail </text>
<text text-anchor="start" x="2785" y="-220" font-family="Arial Italic" font-size="10.00" fill="#999999">string</text>
<text text-anchor="start" x="2763" y="-207" font-family="Arial" font-size="10.00">wiki </text>
<text text-anchor="start" x="2784" y="-207" font-family="Arial Italic" font-size="10.00" fill="#999999">string</text>
</g>
<!-- m_LogTicket -->
<g id="node9" class="node">
<title>m_LogTicket</title>
<path fill="none" stroke="black" d="M2980,-543C2980,-543 3244,-543 3244,-543 3250,-543 3256,-549 3256,-555 3256,-555 3256,-606 3256,-606 3256,-612 3250,-618 3244,-618 3244,-618 2980,-618 2980,-618 2974,-618 2968,-612 2968,-606 2968,-606 2968,-555 2968,-555 2968,-549 2974,-543 2980,-543"/>
<text text-anchor="start" x="3012" y="-577.7" font-family="Arial Bold" font-size="11.00">LogTicket</text>
<polyline fill="none" stroke="black" points="3112,-543 3112,-618 "/>
<text text-anchor="start" x="3119" y="-604.5" font-family="Arial" font-size="10.00">backend </text>
<text text-anchor="start" x="3159" y="-604.5" font-family="Arial Italic" font-size="10.00" fill="#999999">integer</text>
<text text-anchor="start" x="3119" y="-591.5" font-family="Arial" font-size="10.00">directory </text>
<text text-anchor="start" x="3160" y="-591.5" font-family="Arial Italic" font-size="10.00" fill="#999999">string</text>
<text text-anchor="start" x="3119" y="-578.5" font-family="Arial" font-size="10.00">key </text>
<text text-anchor="start" x="3138" y="-578.5" font-family="Arial Italic" font-size="10.00" fill="#999999">string</text>
<text text-anchor="start" x="3119" y="-565.5" font-family="Arial" font-size="10.00">processed_count </text>
<text text-anchor="start" x="3197" y="-565.5" font-family="Arial Italic" font-size="10.00" fill="#999999">integer</text>
<text text-anchor="start" x="3119" y="-552.5" font-family="Arial" font-size="10.00">status </text>
<text text-anchor="start" x="3150" y="-552.5" font-family="Arial Italic" font-size="10.00" fill="#999999">string</text>
</g>
<!-- m_Ownership&#45;&gt;m_ApiKeyRubygemScope -->
<g id="edge22" class="edge">
<title>m_Ownership&#45;&gt;m_ApiKeyRubygemScope</title>
<path fill="none" stroke="black" d="M1117.08,-196.95C1096.94,-153.41 1066.47,-87.54 1049.85,-51.61"/>
<polygon fill="black" stroke="black" points="1052.57,-49.99 1045.93,-43.15 1046.85,-52.64 1052.57,-49.99"/>
</g>
<!-- m_OwnershipCall -->
<g id="node11" class="node">
<title>m_OwnershipCall</title>
<path fill="none" stroke="black" d="M1399,-223C1399,-223 1663,-223 1663,-223 1669,-223 1675,-229 1675,-235 1675,-235 1675,-247 1675,-247 1675,-253 1669,-259 1663,-259 1663,-259 1399,-259 1399,-259 1393,-259 1387,-253 1387,-247 1387,-247 1387,-235 1387,-235 1387,-229 1393,-223 1399,-223"/>
<text text-anchor="start" x="1418.5" y="-238.2" font-family="Arial Bold" font-size="11.00">OwnershipCall</text>
<polyline fill="none" stroke="black" points="1531,-223 1531,-259 "/>
<text text-anchor="start" x="1538" y="-246" font-family="Arial" font-size="10.00">note </text>
<text text-anchor="start" x="1560" y="-246" font-family="Arial Italic" font-size="10.00" fill="#999999">text ∗</text>
<text text-anchor="start" x="1538" y="-233" font-family="Arial" font-size="10.00">status </text>
<text text-anchor="start" x="1569" y="-233" font-family="Arial Italic" font-size="10.00" fill="#999999">boolean ∗</text>
</g>
<!-- m_OwnershipRequest -->
<g id="node12" class="node">
<title>m_OwnershipRequest</title>
<path fill="none" stroke="black" d="M1305,-7C1305,-7 1569,-7 1569,-7 1575,-7 1581,-13 1581,-19 1581,-19 1581,-31 1581,-31 1581,-37 1575,-43 1569,-43 1569,-43 1305,-43 1305,-43 1299,-43 1293,-37 1293,-31 1293,-31 1293,-19 1293,-19 1293,-13 1299,-7 1305,-7"/>
<text text-anchor="start" x="1313" y="-22.2" font-family="Arial Bold" font-size="11.00">OwnershipRequest</text>
<polyline fill="none" stroke="black" points="1437,-7 1437,-43 "/>
<text text-anchor="start" x="1444" y="-30" font-family="Arial" font-size="10.00">note </text>
<text text-anchor="start" x="1466" y="-30" font-family="Arial Italic" font-size="10.00" fill="#999999">text ∗</text>
<text text-anchor="start" x="1444" y="-17" font-family="Arial" font-size="10.00">status </text>
<text text-anchor="start" x="1475" y="-17" font-family="Arial Italic" font-size="10.00" fill="#999999">integer (2) ∗</text>
</g>
<!-- m_OwnershipCall&#45;&gt;m_OwnershipRequest -->
<g id="edge21" class="edge">
<title>m_OwnershipCall&#45;&gt;m_OwnershipRequest</title>
<path fill="none" stroke="black" d="M1523.47,-222.85C1507,-185.36 1467.73,-95.95 1448.29,-51.7"/>
<polygon fill="black" stroke="black" points="1451.07,-50.21 1444.57,-43.23 1445.3,-52.74 1451.07,-50.21"/>
</g>
<!-- m_Rubygem -->
<g id="node13" class="node">
<title>m_Rubygem</title>
<path fill="none" stroke="black" d="M1961,-556C1961,-556 2225,-556 2225,-556 2231,-556 2237,-562 2237,-568 2237,-568 2237,-593 2237,-593 2237,-599 2231,-605 2225,-605 2225,-605 1961,-605 1961,-605 1955,-605 1949,-599 1949,-593 1949,-593 1949,-568 1949,-568 1949,-562 1955,-556 1961,-556"/>
<text text-anchor="start" x="1993.5" y="-577.7" font-family="Arial Bold" font-size="11.00">Rubygem</text>
<polyline fill="none" stroke="black" points="2093,-556 2093,-605 "/>
<text text-anchor="start" x="2100" y="-591.5" font-family="Arial" font-size="10.00">indexed </text>
<text text-anchor="start" x="2137" y="-591.5" font-family="Arial Italic" font-size="10.00" fill="#999999">boolean ∗</text>
<text text-anchor="start" x="2100" y="-578.5" font-family="Arial" font-size="10.00">name </text>
<text text-anchor="start" x="2128" y="-578.5" font-family="Arial Italic" font-size="10.00" fill="#999999">string ∗ U</text>
<text text-anchor="start" x="2100" y="-565.5" font-family="Arial" font-size="10.00">slug </text>
<text text-anchor="start" x="2122" y="-565.5" font-family="Arial Italic" font-size="10.00" fill="#999999">string</text>
</g>
<!-- m_Rubygem&#45;&gt;m_Dependency -->
<g id="edge23" class="edge">
<title>m_Rubygem&#45;&gt;m_Dependency</title>
<path fill="none" stroke="black" d="M2109.79,-555.79C2135.75,-521.32 2189.26,-458.61 2252,-432 2319.92,-403.2 2864.27,-449.56 2915,-396 3009.75,-295.97 3004.69,-190.59 2915,-86 2884.43,-50.35 2774.56,-35.69 2679.35,-29.75"/>
<polygon fill="black" stroke="black" points="2679.36,-26.6 2670.18,-29.2 2678.98,-32.88 2679.36,-26.6"/>
</g>
<!-- m_Rubygem&#45;&gt;m_GemDownload -->
<g id="edge18" class="edge">
<title>m_Rubygem&#45;&gt;m_GemDownload</title>
<path fill="none" stroke="black" d="M2209,-240C2182.63,-171.13 2197.15,-80.4 2205.01,-43.12"/>
</g>
<!-- m_Rubygem&#45;&gt;m_Linkset -->
<g id="edge17" class="edge">
<title>m_Rubygem&#45;&gt;m_Linkset</title>
<path fill="none" stroke="black" d="M2110.18,-555.9C2136.45,-521.89 2190.1,-460.07 2252,-432 2392.8,-368.14 2458,-461.59 2598,-396 2650.9,-371.22 2696.84,-321.31 2725.34,-285.01"/>
</g>
<!-- m_Rubygem&#45;&gt;m_Ownership -->
<g id="edge16" class="edge">
<title>m_Rubygem&#45;&gt;m_Ownership</title>
<path fill="none" stroke="black" d="M1948.84,-557.3C1799.9,-531.08 1562.92,-480.04 1372,-396 1309.2,-368.36 1244.46,-324.59 1198.87,-290.77"/>
<polygon fill="black" stroke="black" points="1200.54,-288.08 1191.44,-285.22 1196.77,-293.13 1200.54,-288.08"/>
</g>
<!-- m_Rubygem&#45;&gt;m_OwnershipCall -->
<g id="edge19" class="edge">
<title>m_Rubygem&#45;&gt;m_OwnershipCall</title>
<path fill="none" stroke="black" d="M2022.94,-555.95C1939.43,-526.05 1797.67,-469.4 1690,-396 1633.91,-357.76 1579.53,-298.97 1551.2,-266.2"/>
<polygon fill="black" stroke="black" points="1553.47,-264.01 1545.23,-259.23 1548.69,-268.11 1553.47,-264.01"/>
</g>
<!-- m_Rubygem&#45;&gt;m_OwnershipRequest -->
<g id="edge20" class="edge">
<title>m_Rubygem&#45;&gt;m_OwnershipRequest</title>
<path fill="none" stroke="black" d="M2112.6,-555.98C2156.14,-500.74 2253.64,-358.59 2209,-242"/>
<path fill="none" stroke="black" d="M2209,-240C2184.09,-174.96 2231.78,-132.58 2180,-86 2137.19,-47.49 1794.78,-33.52 1590.04,-28.59"/>
<polygon fill="black" stroke="black" points="1590.08,-25.44 1581.01,-28.38 1589.93,-31.74 1590.08,-25.44"/>
</g>
<!-- m_Subscription -->
<g id="node15" class="node">
<title>m_Subscription</title>
<path fill="none" stroke="black" d="M2033,-223C2033,-223 2153,-223 2153,-223 2159,-223 2165,-229 2165,-235 2165,-235 2165,-247 2165,-247 2165,-253 2159,-259 2153,-259 2153,-259 2033,-259 2033,-259 2027,-259 2021,-253 2021,-247 2021,-247 2021,-235 2021,-235 2021,-229 2027,-223 2033,-223"/>
<text text-anchor="start" x="2057" y="-238.2" font-family="Arial Bold" font-size="11.00">Subscription</text>
</g>
<!-- m_Rubygem&#45;&gt;m_Subscription -->
<g id="edge15" class="edge">
<title>m_Rubygem&#45;&gt;m_Subscription</title>
<path fill="none" stroke="black" d="M2093,-555.77C2093,-494.68 2093,-332.37 2093,-268.42"/>
<polygon fill="black" stroke="black" points="2096.15,-268.38 2093,-259.38 2089.85,-268.38 2096.15,-268.38"/>
</g>
<!-- m_Version -->
<g id="node18" class="node">
<title>m_Version</title>
<path fill="none" stroke="black" d="M2265,-86.5C2265,-86.5 2571,-86.5 2571,-86.5 2577,-86.5 2583,-92.5 2583,-98.5 2583,-98.5 2583,-383.5 2583,-383.5 2583,-389.5 2577,-395.5 2571,-395.5 2571,-395.5 2265,-395.5 2265,-395.5 2259,-395.5 2253,-389.5 2253,-383.5 2253,-383.5 2253,-98.5 2253,-98.5 2253,-92.5 2259,-86.5 2265,-86.5"/>
<text text-anchor="start" x="2303" y="-238.2" font-family="Arial Bold" font-size="11.00">Version</text>
<polyline fill="none" stroke="black" points="2397,-86.5 2397,-395.5 "/>
<text text-anchor="start" x="2404" y="-382" font-family="Arial" font-size="10.00">authors </text>
<text text-anchor="start" x="2440" y="-382" font-family="Arial Italic" font-size="10.00" fill="#999999">text</text>
<text text-anchor="start" x="2404" y="-369" font-family="Arial" font-size="10.00">built_at </text>
<text text-anchor="start" x="2439" y="-369" font-family="Arial Italic" font-size="10.00" fill="#999999">datetime (6,0)</text>
<text text-anchor="start" x="2404" y="-356" font-family="Arial" font-size="10.00">canonical_number </text>
<text text-anchor="start" x="2486" y="-356" font-family="Arial Italic" font-size="10.00" fill="#999999">string</text>
<text text-anchor="start" x="2404" y="-343" font-family="Arial" font-size="10.00">cert_chain </text>
<text text-anchor="start" x="2453" y="-343" font-family="Arial Italic" font-size="10.00" fill="#999999">text</text>
<text text-anchor="start" x="2404" y="-330" font-family="Arial" font-size="10.00">description </text>
<text text-anchor="start" x="2455" y="-330" font-family="Arial Italic" font-size="10.00" fill="#999999">text</text>
<text text-anchor="start" x="2404" y="-317" font-family="Arial" font-size="10.00">full_name </text>
<text text-anchor="start" x="2450" y="-317" font-family="Arial Italic" font-size="10.00" fill="#999999">string ∗ U</text>
<text text-anchor="start" x="2404" y="-304" font-family="Arial" font-size="10.00">indexed </text>
<text text-anchor="start" x="2441" y="-304" font-family="Arial Italic" font-size="10.00" fill="#999999">boolean</text>
<text text-anchor="start" x="2404" y="-291" font-family="Arial" font-size="10.00">info_checksum </text>
<text text-anchor="start" x="2474" y="-291" font-family="Arial Italic" font-size="10.00" fill="#999999">string</text>
<text text-anchor="start" x="2404" y="-278" font-family="Arial" font-size="10.00">latest </text>
<text text-anchor="start" x="2432" y="-278" font-family="Arial Italic" font-size="10.00" fill="#999999">boolean</text>
<text text-anchor="start" x="2404" y="-265" font-family="Arial" font-size="10.00">licenses </text>
<text text-anchor="start" x="2444" y="-265" font-family="Arial Italic" font-size="10.00" fill="#999999">string</text>
<text text-anchor="start" x="2404" y="-252" font-family="Arial" font-size="10.00">metadata </text>
<text text-anchor="start" x="2448" y="-252" font-family="Arial Italic" font-size="10.00" fill="#999999">hstore ∗</text>
<text text-anchor="start" x="2404" y="-239" font-family="Arial" font-size="10.00">number </text>
<text text-anchor="start" x="2440" y="-239" font-family="Arial Italic" font-size="10.00" fill="#999999">string</text>
<text text-anchor="start" x="2404" y="-226" font-family="Arial" font-size="10.00">platform </text>
<text text-anchor="start" x="2443" y="-226" font-family="Arial Italic" font-size="10.00" fill="#999999">string</text>
<text text-anchor="start" x="2404" y="-213" font-family="Arial" font-size="10.00">position </text>
<text text-anchor="start" x="2441" y="-213" font-family="Arial Italic" font-size="10.00" fill="#999999">integer</text>
<text text-anchor="start" x="2404" y="-200" font-family="Arial" font-size="10.00">prerelease </text>
<text text-anchor="start" x="2453" y="-200" font-family="Arial Italic" font-size="10.00" fill="#999999">boolean</text>
<text text-anchor="start" x="2404" y="-187" font-family="Arial" font-size="10.00">required_ruby_version </text>
<text text-anchor="start" x="2503" y="-187" font-family="Arial Italic" font-size="10.00" fill="#999999">string</text>
<text text-anchor="start" x="2404" y="-174" font-family="Arial" font-size="10.00">required_rubygems_version </text>
<text text-anchor="start" x="2527" y="-174" font-family="Arial Italic" font-size="10.00" fill="#999999">string (255)</text>
<text text-anchor="start" x="2404" y="-161" font-family="Arial" font-size="10.00">requirements </text>
<text text-anchor="start" x="2464" y="-161" font-family="Arial Italic" font-size="10.00" fill="#999999">text</text>
<text text-anchor="start" x="2404" y="-148" font-family="Arial" font-size="10.00">sha256 </text>
<text text-anchor="start" x="2439" y="-148" font-family="Arial Italic" font-size="10.00" fill="#999999">string</text>
<text text-anchor="start" x="2404" y="-135" font-family="Arial" font-size="10.00">size </text>
<text text-anchor="start" x="2426" y="-135" font-family="Arial Italic" font-size="10.00" fill="#999999">integer</text>
<text text-anchor="start" x="2404" y="-122" font-family="Arial" font-size="10.00">summary </text>
<text text-anchor="start" x="2448" y="-122" font-family="Arial Italic" font-size="10.00" fill="#999999">text</text>
<text text-anchor="start" x="2404" y="-109" font-family="Arial" font-size="10.00">yanked_at </text>
<text text-anchor="start" x="2453" y="-109" font-family="Arial Italic" font-size="10.00" fill="#999999">datetime (6,0)</text>
<text text-anchor="start" x="2404" y="-96" font-family="Arial" font-size="10.00">yanked_info_checksum </text>
<text text-anchor="start" x="2510" y="-96" font-family="Arial Italic" font-size="10.00" fill="#999999">string</text>
</g>
<!-- m_Rubygem&#45;&gt;m_Version -->
<g id="edge4" class="edge">
<title>m_Rubygem&#45;&gt;m_Version</title>
<path fill="none" stroke="black" d="M2115.85,-555.77C2147.15,-523.27 2206.04,-462.11 2263.58,-402.36"/>
<polygon fill="black" stroke="black" points="2265.89,-404.5 2269.87,-395.83 2261.36,-400.13 2265.89,-404.5"/>
</g>
<!-- m_WebHook -->
<g id="node19" class="node">
<title>m_WebHook</title>
<path fill="none" stroke="black" d="M1716,-223C1716,-223 1980,-223 1980,-223 1986,-223 1992,-229 1992,-235 1992,-235 1992,-247 1992,-247 1992,-253 1986,-259 1980,-259 1980,-259 1716,-259 1716,-259 1710,-259 1704,-253 1704,-247 1704,-247 1704,-235 1704,-235 1704,-229 1710,-223 1716,-223"/>
<text text-anchor="start" x="1748" y="-238.2" font-family="Arial Bold" font-size="11.00">WebHook</text>
<polyline fill="none" stroke="black" points="1848,-223 1848,-259 "/>
<text text-anchor="start" x="1855" y="-246" font-family="Arial" font-size="10.00">failure_count </text>
<text text-anchor="start" x="1914" y="-246" font-family="Arial Italic" font-size="10.00" fill="#999999">integer</text>
<text text-anchor="start" x="1855" y="-233" font-family="Arial" font-size="10.00">url </text>
<text text-anchor="start" x="1869" y="-233" font-family="Arial Italic" font-size="10.00" fill="#999999">string ∗</text>
</g>
<!-- m_Rubygem&#45;&gt;m_WebHook -->
<g id="edge3" class="edge">
<title>m_Rubygem&#45;&gt;m_WebHook</title>
<path fill="none" stroke="black" d="M2075.77,-555.77C2031.07,-494.18 1911.66,-329.7 1866.05,-266.87"/>
<polygon fill="black" stroke="black" points="1868.45,-264.81 1860.62,-259.38 1863.35,-268.51 1868.45,-264.81"/>
</g>
<!-- m_SendgridEvent -->
<g id="node14" class="node">
<title>m_SendgridEvent</title>
<path fill="none" stroke="black" d="M3297,-536.5C3297,-536.5 3561,-536.5 3561,-536.5 3567,-536.5 3573,-542.5 3573,-548.5 3573,-548.5 3573,-612.5 3573,-612.5 3573,-618.5 3567,-624.5 3561,-624.5 3561,-624.5 3297,-624.5 3297,-624.5 3291,-624.5 3285,-618.5 3285,-612.5 3285,-612.5 3285,-548.5 3285,-548.5 3285,-542.5 3291,-536.5 3297,-536.5"/>
<text text-anchor="start" x="3315.5" y="-577.7" font-family="Arial Bold" font-size="11.00">SendgridEvent</text>
<polyline fill="none" stroke="black" points="3429,-536.5 3429,-624.5 "/>
<text text-anchor="start" x="3436" y="-611.5" font-family="Arial" font-size="10.00">email </text>
<text text-anchor="start" x="3463" y="-611.5" font-family="Arial Italic" font-size="10.00" fill="#999999">string</text>
<text text-anchor="start" x="3436" y="-598.5" font-family="Arial" font-size="10.00">event_type </text>
<text text-anchor="start" x="3488" y="-598.5" font-family="Arial Italic" font-size="10.00" fill="#999999">string</text>
<text text-anchor="start" x="3436" y="-585.5" font-family="Arial" font-size="10.00">occurred_at </text>
<text text-anchor="start" x="3491" y="-585.5" font-family="Arial Italic" font-size="10.00" fill="#999999">datetime (6,0)</text>
<text text-anchor="start" x="3436" y="-572.5" font-family="Arial" font-size="10.00">payload </text>
<text text-anchor="start" x="3473" y="-572.5" font-family="Arial Italic" font-size="10.00" fill="#999999">jsonb ∗</text>
<text text-anchor="start" x="3436" y="-559.5" font-family="Arial" font-size="10.00">sendgrid_id </text>
<text text-anchor="start" x="3489" y="-559.5" font-family="Arial Italic" font-size="10.00" fill="#999999">string ∗</text>
<text text-anchor="start" x="3436" y="-546.5" font-family="Arial" font-size="10.00">status </text>
<text text-anchor="start" x="3467" y="-546.5" font-family="Arial Italic" font-size="10.00" fill="#999999">string ∗</text>
</g>
<!-- m_User -->
<g id="node16" class="node">
<title>m_User</title>
<path fill="none" stroke="black" d="M976,-432.5C976,-432.5 1298,-432.5 1298,-432.5 1304,-432.5 1310,-438.5 1310,-444.5 1310,-444.5 1310,-716.5 1310,-716.5 1310,-722.5 1304,-728.5 1298,-728.5 1298,-728.5 976,-728.5 976,-728.5 970,-728.5 964,-722.5 964,-716.5 964,-716.5 964,-444.5 964,-444.5 964,-438.5 970,-432.5 976,-432.5"/>
<text text-anchor="start" x="1021.5" y="-577.7" font-family="Arial Bold" font-size="11.00">User</text>
<polyline fill="none" stroke="black" points="1108,-432.5 1108,-728.5 "/>
<text text-anchor="start" x="1115" y="-715.5" font-family="Arial" font-size="10.00">api_key </text>
<text text-anchor="start" x="1152" y="-715.5" font-family="Arial Italic" font-size="10.00" fill="#999999">string</text>
<text text-anchor="start" x="1115" y="-702.5" font-family="Arial" font-size="10.00">blocked_email </text>
<text text-anchor="start" x="1181" y="-702.5" font-family="Arial Italic" font-size="10.00" fill="#999999">string</text>
<text text-anchor="start" x="1115" y="-689.5" font-family="Arial" font-size="10.00">confirmation_token </text>
<text text-anchor="start" x="1201" y="-689.5" font-family="Arial Italic" font-size="10.00" fill="#999999">string (128)</text>
<text text-anchor="start" x="1115" y="-676.5" font-family="Arial" font-size="10.00">email </text>
<text text-anchor="start" x="1142" y="-676.5" font-family="Arial Italic" font-size="10.00" fill="#999999">string ∗ U</text>
<text text-anchor="start" x="1115" y="-663.5" font-family="Arial" font-size="10.00">email_confirmed </text>
<text text-anchor="start" x="1190" y="-663.5" font-family="Arial Italic" font-size="10.00" fill="#999999">boolean ∗</text>
<text text-anchor="start" x="1115" y="-650.5" font-family="Arial" font-size="10.00">email_reset </text>
<text text-anchor="start" x="1169" y="-650.5" font-family="Arial Italic" font-size="10.00" fill="#999999">boolean</text>
<text text-anchor="start" x="1115" y="-637.5" font-family="Arial" font-size="10.00">encrypted_password </text>
<text text-anchor="start" x="1209" y="-637.5" font-family="Arial Italic" font-size="10.00" fill="#999999">string (128)</text>
<text text-anchor="start" x="1115" y="-624.5" font-family="Arial" font-size="10.00">full_name </text>
<text text-anchor="start" x="1161" y="-624.5" font-family="Arial Italic" font-size="10.00" fill="#999999">string</text>
<text text-anchor="start" x="1115" y="-611.5" font-family="Arial" font-size="10.00">handle </text>
<text text-anchor="start" x="1147" y="-611.5" font-family="Arial Italic" font-size="10.00" fill="#999999">string U</text>
<text text-anchor="start" x="1115" y="-598.5" font-family="Arial" font-size="10.00">hide_email </text>
<text text-anchor="start" x="1165" y="-598.5" font-family="Arial Italic" font-size="10.00" fill="#999999">boolean</text>
<text text-anchor="start" x="1115" y="-585.5" font-family="Arial" font-size="10.00">mail_fails </text>
<text text-anchor="start" x="1160" y="-585.5" font-family="Arial Italic" font-size="10.00" fill="#999999">integer</text>
<text text-anchor="start" x="1115" y="-572.5" font-family="Arial" font-size="10.00">mfa_level </text>
<text text-anchor="start" x="1161" y="-572.5" font-family="Arial Italic" font-size="10.00" fill="#999999">integer</text>
<text text-anchor="start" x="1115" y="-559.5" font-family="Arial" font-size="10.00">mfa_recovery_codes </text>
<text text-anchor="start" x="1209" y="-559.5" font-family="Arial Italic" font-size="10.00" fill="#999999">string</text>
<text text-anchor="start" x="1115" y="-546.5" font-family="Arial" font-size="10.00">mfa_seed </text>
<text text-anchor="start" x="1161" y="-546.5" font-family="Arial Italic" font-size="10.00" fill="#999999">string</text>
<text text-anchor="start" x="1115" y="-533.5" font-family="Arial" font-size="10.00">remember_token </text>
<text text-anchor="start" x="1191" y="-533.5" font-family="Arial Italic" font-size="10.00" fill="#999999">string (128)</text>
<text text-anchor="start" x="1115" y="-520.5" font-family="Arial" font-size="10.00">remember_token_expires_at </text>
<text text-anchor="start" x="1242" y="-520.5" font-family="Arial Italic" font-size="10.00" fill="#999999">datetime (6,0)</text>
<text text-anchor="start" x="1115" y="-507.5" font-family="Arial" font-size="10.00">salt </text>
<text text-anchor="start" x="1134" y="-507.5" font-family="Arial Italic" font-size="10.00" fill="#999999">string (128)</text>
<text text-anchor="start" x="1115" y="-494.5" font-family="Arial" font-size="10.00">token </text>
<text text-anchor="start" x="1143" y="-494.5" font-family="Arial Italic" font-size="10.00" fill="#999999">string (128)</text>
<text text-anchor="start" x="1115" y="-481.5" font-family="Arial" font-size="10.00">token_expires_at </text>
<text text-anchor="start" x="1193" y="-481.5" font-family="Arial Italic" font-size="10.00" fill="#999999">datetime (6,0)</text>
<text text-anchor="start" x="1115" y="-468.5" font-family="Arial" font-size="10.00">twitter_username </text>
<text text-anchor="start" x="1194" y="-468.5" font-family="Arial Italic" font-size="10.00" fill="#999999">string</text>
<text text-anchor="start" x="1115" y="-455.5" font-family="Arial" font-size="10.00">unconfirmed_email </text>
<text text-anchor="start" x="1200" y="-455.5" font-family="Arial Italic" font-size="10.00" fill="#999999">string</text>
<text text-anchor="start" x="1115" y="-442.5" font-family="Arial" font-size="10.00">webauthn_id </text>
<text text-anchor="start" x="1173" y="-442.5" font-family="Arial Italic" font-size="10.00" fill="#999999">string</text>
</g>
<!-- m_User&#45;&gt;m_ApiKey -->
<g id="edge12" class="edge">
<title>m_User&#45;&gt;m_ApiKey</title>
<path fill="none" stroke="black" d="M985.81,-432.45C952.7,-400.25 918.49,-366.97 888.11,-337.42"/>
<polygon fill="black" stroke="black" points="889.93,-334.8 881.28,-330.78 885.54,-339.31 889.93,-334.8"/>
</g>
<!-- m_User&#45;&gt;m_Deletion -->
<g id="edge11" class="edge">
<title>m_User&#45;&gt;m_Deletion</title>
<path fill="none" stroke="black" d="M963.91,-538.45C859.04,-508.79 725.43,-462.21 619,-396 564.65,-362.19 513.93,-306.9 485.26,-272.58"/>
<polygon fill="black" stroke="black" points="487.64,-270.52 479.48,-265.59 482.79,-274.53 487.64,-270.52"/>
</g>
<!-- m_User&#45;&gt;m_Ownership -->
<g id="edge8" class="edge">
<title>m_User&#45;&gt;m_Ownership</title>
<path fill="none" stroke="black" d="M1137,-432.45C1137,-383.16 1137,-331.36 1137,-294.24"/>
<polygon fill="black" stroke="black" points="1140.15,-294.13 1137,-285.13 1133.85,-294.13 1140.15,-294.13"/>
</g>
<!-- m_User&#45;&gt;m_OwnershipCall -->
<g id="edge13" class="edge">
<title>m_User&#45;&gt;m_OwnershipCall</title>
<path fill="none" stroke="black" d="M1310.17,-442.25C1328.83,-426.83 1347.41,-411.2 1365,-396 1416.7,-351.31 1474.74,-296.29 1506.66,-265.59"/>
<polygon fill="black" stroke="black" points="1509.15,-267.57 1513.44,-259.05 1504.78,-263.03 1509.15,-267.57"/>
</g>
<!-- m_User&#45;&gt;m_OwnershipRequest -->
<g id="edge14" class="edge">
<title>m_User&#45;&gt;m_OwnershipRequest</title>
<path fill="none" stroke="black" d="M1290.76,-432.44C1299.03,-420.64 1306.57,-408.46 1313,-396 1377.3,-271.36 1303.93,-208.63 1372,-86 1379.9,-71.77 1392.4,-59.03 1404.34,-49"/>
<polygon fill="black" stroke="black" points="1406.62,-51.21 1411.66,-43.11 1402.67,-46.3 1406.62,-51.21"/>
</g>
<!-- m_User&#45;&gt;m_Subscription -->
<g id="edge10" class="edge">
<title>m_User&#45;&gt;m_Subscription</title>
<path fill="none" stroke="black" d="M1310.18,-550.88C1547.63,-510.46 1951.34,-436.99 2007,-396 2050.69,-363.83 2075.1,-302.43 2085.99,-267.66"/>
<polygon fill="black" stroke="black" points="2089.01,-268.55 2088.59,-259.02 2082.98,-266.73 2089.01,-268.55"/>
</g>
<!-- m_User&#45;&gt;m_Version -->
<g id="edge7" class="edge">
<title>m_User&#45;&gt;m_Version</title>
<path fill="none" stroke="black" d="M1310.05,-544.32C1471.33,-512.3 1718.79,-465.1 1935,-432 2066,-411.95 2109.19,-448.21 2231,-396 2235.59,-394.03 2240.16,-391.92 2244.69,-389.67"/>
<polygon fill="black" stroke="black" points="2246.26,-392.4 2252.82,-385.49 2243.38,-386.8 2246.26,-392.4"/>
</g>
<!-- m_User&#45;&gt;m_WebHook -->
<g id="edge2" class="edge">
<title>m_User&#45;&gt;m_WebHook</title>
<path fill="none" stroke="black" d="M1310.14,-543.47C1423.74,-514.81 1572.47,-467.49 1690,-396 1748.11,-360.65 1801.63,-300.25 1828.96,-266.55"/>
<polygon fill="black" stroke="black" points="1831.53,-268.38 1834.7,-259.39 1826.62,-264.44 1831.53,-268.38"/>
</g>
<!-- m_WebauthnCredential -->
<g id="node20" class="node">
<title>m_WebauthnCredential</title>
<path fill="none" stroke="black" d="M12,-210C12,-210 276,-210 276,-210 282,-210 288,-216 288,-222 288,-222 288,-260 288,-260 288,-266 282,-272 276,-272 276,-272 12,-272 12,-272 6,-272 0,-266 0,-260 0,-260 0,-222 0,-222 0,-216 6,-210 12,-210"/>
<text text-anchor="start" x="16" y="-238.2" font-family="Arial Bold" font-size="11.00">WebauthnCredential</text>
<polyline fill="none" stroke="black" points="144,-210 144,-272 "/>
<text text-anchor="start" x="151" y="-259" font-family="Arial" font-size="10.00">external_id </text>
<text text-anchor="start" x="202" y="-259" font-family="Arial Italic" font-size="10.00" fill="#999999">string ∗ U</text>
<text text-anchor="start" x="151" y="-246" font-family="Arial" font-size="10.00">nickname </text>
<text text-anchor="start" x="197" y="-246" font-family="Arial Italic" font-size="10.00" fill="#999999">string ∗ U</text>
<text text-anchor="start" x="151" y="-233" font-family="Arial" font-size="10.00">public_key </text>
<text text-anchor="start" x="201" y="-233" font-family="Arial Italic" font-size="10.00" fill="#999999">string ∗</text>
<text text-anchor="start" x="151" y="-220" font-family="Arial" font-size="10.00">sign_count </text>
<text text-anchor="start" x="202" y="-220" font-family="Arial Italic" font-size="10.00" fill="#999999">integer (8) ∗</text>
</g>
<!-- m_User&#45;&gt;m_WebauthnCredential -->
<g id="edge1" class="edge">
<title>m_User&#45;&gt;m_WebauthnCredential</title>
<path fill="none" stroke="black" d="M963.87,-569.26C787.95,-552.67 512.18,-509.31 302,-396 248.64,-367.24 200.88,-315.19 172.18,-279.63"/>
<polygon fill="black" stroke="black" points="174.42,-277.39 166.35,-272.31 169.49,-281.31 174.42,-277.39"/>
</g>
<!-- m_User::WithPrivateFields -->
<g id="node17" class="node">
<title>m_User::WithPrivateFields</title>
<path fill="none" stroke="black" d="M3614,-432.5C3614,-432.5 3936,-432.5 3936,-432.5 3942,-432.5 3948,-438.5 3948,-444.5 3948,-444.5 3948,-716.5 3948,-716.5 3948,-722.5 3942,-728.5 3936,-728.5 3936,-728.5 3614,-728.5 3614,-728.5 3608,-728.5 3602,-722.5 3602,-716.5 3602,-716.5 3602,-444.5 3602,-444.5 3602,-438.5 3608,-432.5 3614,-432.5"/>
<text text-anchor="start" x="3609.5" y="-577.7" font-family="Arial Bold" font-size="11.00">User::WithPrivateFields</text>
<polyline fill="none" stroke="black" points="3746,-432.5 3746,-728.5 "/>
<text text-anchor="start" x="3753" y="-715.5" font-family="Arial" font-size="10.00">api_key </text>
<text text-anchor="start" x="3790" y="-715.5" font-family="Arial Italic" font-size="10.00" fill="#999999">string</text>
<text text-anchor="start" x="3753" y="-702.5" font-family="Arial" font-size="10.00">blocked_email </text>
<text text-anchor="start" x="3819" y="-702.5" font-family="Arial Italic" font-size="10.00" fill="#999999">string</text>
<text text-anchor="start" x="3753" y="-689.5" font-family="Arial" font-size="10.00">confirmation_token </text>
<text text-anchor="start" x="3839" y="-689.5" font-family="Arial Italic" font-size="10.00" fill="#999999">string (128)</text>
<text text-anchor="start" x="3753" y="-676.5" font-family="Arial" font-size="10.00">email </text>
<text text-anchor="start" x="3780" y="-676.5" font-family="Arial Italic" font-size="10.00" fill="#999999">string ∗ U</text>
<text text-anchor="start" x="3753" y="-663.5" font-family="Arial" font-size="10.00">email_confirmed </text>
<text text-anchor="start" x="3828" y="-663.5" font-family="Arial Italic" font-size="10.00" fill="#999999">boolean ∗</text>
<text text-anchor="start" x="3753" y="-650.5" font-family="Arial" font-size="10.00">email_reset </text>
<text text-anchor="start" x="3807" y="-650.5" font-family="Arial Italic" font-size="10.00" fill="#999999">boolean</text>
<text text-anchor="start" x="3753" y="-637.5" font-family="Arial" font-size="10.00">encrypted_password </text>
<text text-anchor="start" x="3847" y="-637.5" font-family="Arial Italic" font-size="10.00" fill="#999999">string (128)</text>
<text text-anchor="start" x="3753" y="-624.5" font-family="Arial" font-size="10.00">full_name </text>
<text text-anchor="start" x="3799" y="-624.5" font-family="Arial Italic" font-size="10.00" fill="#999999">string</text>
<text text-anchor="start" x="3753" y="-611.5" font-family="Arial" font-size="10.00">handle </text>
<text text-anchor="start" x="3785" y="-611.5" font-family="Arial Italic" font-size="10.00" fill="#999999">string U</text>
<text text-anchor="start" x="3753" y="-598.5" font-family="Arial" font-size="10.00">hide_email </text>
<text text-anchor="start" x="3803" y="-598.5" font-family="Arial Italic" font-size="10.00" fill="#999999">boolean</text>
<text text-anchor="start" x="3753" y="-585.5" font-family="Arial" font-size="10.00">mail_fails </text>
<text text-anchor="start" x="3798" y="-585.5" font-family="Arial Italic" font-size="10.00" fill="#999999">integer</text>
<text text-anchor="start" x="3753" y="-572.5" font-family="Arial" font-size="10.00">mfa_level </text>
<text text-anchor="start" x="3799" y="-572.5" font-family="Arial Italic" font-size="10.00" fill="#999999">integer</text>
<text text-anchor="start" x="3753" y="-559.5" font-family="Arial" font-size="10.00">mfa_recovery_codes </text>
<text text-anchor="start" x="3847" y="-559.5" font-family="Arial Italic" font-size="10.00" fill="#999999">string</text>
<text text-anchor="start" x="3753" y="-546.5" font-family="Arial" font-size="10.00">mfa_seed </text>
<text text-anchor="start" x="3799" y="-546.5" font-family="Arial Italic" font-size="10.00" fill="#999999">string</text>
<text text-anchor="start" x="3753" y="-533.5" font-family="Arial" font-size="10.00">remember_token </text>
<text text-anchor="start" x="3829" y="-533.5" font-family="Arial Italic" font-size="10.00" fill="#999999">string (128)</text>
<text text-anchor="start" x="3753" y="-520.5" font-family="Arial" font-size="10.00">remember_token_expires_at </text>
<text text-anchor="start" x="3880" y="-520.5" font-family="Arial Italic" font-size="10.00" fill="#999999">datetime (6,0)</text>
<text text-anchor="start" x="3753" y="-507.5" font-family="Arial" font-size="10.00">salt </text>
<text text-anchor="start" x="3772" y="-507.5" font-family="Arial Italic" font-size="10.00" fill="#999999">string (128)</text>
<text text-anchor="start" x="3753" y="-494.5" font-family="Arial" font-size="10.00">token </text>
<text text-anchor="start" x="3781" y="-494.5" font-family="Arial Italic" font-size="10.00" fill="#999999">string (128)</text>
<text text-anchor="start" x="3753" y="-481.5" font-family="Arial" font-size="10.00">token_expires_at </text>
<text text-anchor="start" x="3831" y="-481.5" font-family="Arial Italic" font-size="10.00" fill="#999999">datetime (6,0)</text>
<text text-anchor="start" x="3753" y="-468.5" font-family="Arial" font-size="10.00">twitter_username </text>
<text text-anchor="start" x="3832" y="-468.5" font-family="Arial Italic" font-size="10.00" fill="#999999">string</text>
<text text-anchor="start" x="3753" y="-455.5" font-family="Arial" font-size="10.00">unconfirmed_email </text>
<text text-anchor="start" x="3838" y="-455.5" font-family="Arial Italic" font-size="10.00" fill="#999999">string</text>
<text text-anchor="start" x="3753" y="-442.5" font-family="Arial" font-size="10.00">webauthn_id </text>
<text text-anchor="start" x="3811" y="-442.5" font-family="Arial Italic" font-size="10.00" fill="#999999">string</text>
</g>
<!-- m_Version&#45;&gt;m_Dependency -->
<g id="edge5" class="edge">
<title>m_Version&#45;&gt;m_Dependency</title>
<path fill="none" stroke="black" d="M2495.48,-86.47C2500.79,-75.96 2505.72,-66.19 2510,-57.71"/>
<polygon fill="black" stroke="black" points="2512.81,-59.12 2514.06,-49.67 2507.19,-56.28 2512.81,-59.12"/>
</g>
<!-- m_Version&#45;&gt;m_GemDownload -->
<g id="edge6" class="edge">
<title>m_Version&#45;&gt;m_GemDownload</title>
<path fill="none" stroke="black" d="M2268.05,-86.47C2251.37,-69.38 2236.61,-54.27 2226.01,-43.42"/>
</g>
</g>
</svg>
