<?xml version="1.0" encoding="UTF-8" standalone="no"?>
<!DOCTYPE svg PUBLIC "-//W3C//DTD SVG 1.1//EN"
 "http://www.w3.org/Graphics/SVG/1.1/DTD/svg11.dtd">
<!-- Generated by graphviz version 2.38.0 (20140413.2041)
 -->
<!-- Title: Gemcutter Pages: 1 -->
<svg width="955pt" height="685pt"
 viewBox="0.00 0.00 954.60 684.60" xmlns="http://www.w3.org/2000/svg" xmlns:xlink="http://www.w3.org/1999/xlink">
<g id="graph0" class="graph" transform="scale(1 1) rotate(0) translate(28.8 655.8)">
<title>Gemcutter</title>
<polygon fill="white" stroke="none" points="-28.8,28.8 -28.8,-655.8 925.8,-655.8 925.8,28.8 -28.8,28.8"/>
<text text-anchor="middle" x="448.5" y="-612.6" font-family="Arial BoldMT" font-size="13.00">RubyGems.org domain model</text>
<!-- m_Delayed::Backend::ActiveRecord::Job -->
<g id="node1" class="node"><title>m_Delayed::Backend::ActiveRecord::Job</title>
<path fill="none" stroke="black" d="M188,-425C188,-425 358,-425 358,-425 364,-425 370,-431 370,-437 370,-437 370,-559 370,-559 370,-565 364,-571 358,-571 358,-571 188,-571 188,-571 182,-571 176,-565 176,-559 176,-559 176,-437 176,-437 176,-431 182,-425 188,-425"/>
<text text-anchor="start" x="180.674" y="-557.7" font-family="Arial BoldMT" font-size="11.00">Delayed::Backend::ActiveRecord::Job</text>
<polyline fill="none" stroke="black" points="176,-552 370,-552 "/>
<text text-anchor="start" x="208" y="-538.5" font-family="ArialMT" font-size="10.00">attempts </text>
<text text-anchor="start" x="249.128" y="-538.5" font-family="Arail ItalicMT" font-size="10.00" fill="#999999">integer</text>
<text text-anchor="start" x="208" y="-525.5" font-family="ArialMT" font-size="10.00">failed_at </text>
<text text-anchor="start" x="248.586" y="-525.5" font-family="Arail ItalicMT" font-size="10.00" fill="#999999">datetime</text>
<text text-anchor="start" x="208" y="-512.5" font-family="ArialMT" font-size="10.00">handler </text>
<text text-anchor="start" x="244.138" y="-512.5" font-family="Arail ItalicMT" font-size="10.00" fill="#999999">text</text>
<text text-anchor="start" x="208" y="-499.5" font-family="ArialMT" font-size="10.00">last_error </text>
<text text-anchor="start" x="253.015" y="-499.5" font-family="Arail ItalicMT" font-size="10.00" fill="#999999">text</text>
<text text-anchor="start" x="208" y="-486.5" font-family="ArialMT" font-size="10.00">locked_at </text>
<text text-anchor="start" x="253.586" y="-486.5" font-family="Arail ItalicMT" font-size="10.00" fill="#999999">datetime</text>
<text text-anchor="start" x="208" y="-473.5" font-family="ArialMT" font-size="10.00">locked_by </text>
<text text-anchor="start" x="255.808" y="-473.5" font-family="Arail ItalicMT" font-size="10.00" fill="#999999">string (255)</text>
<text text-anchor="start" x="208" y="-460.5" font-family="ArialMT" font-size="10.00">priority </text>
<text text-anchor="start" x="240.783" y="-460.5" font-family="Arail ItalicMT" font-size="10.00" fill="#999999">integer</text>
<text text-anchor="start" x="208" y="-447.5" font-family="ArialMT" font-size="10.00">queue </text>
<text text-anchor="start" x="238.586" y="-447.5" font-family="Arail ItalicMT" font-size="10.00" fill="#999999">string (255)</text>
<text text-anchor="start" x="208" y="-434.5" font-family="ArialMT" font-size="10.00">run_at </text>
<text text-anchor="start" x="239.133" y="-434.5" font-family="Arail ItalicMT" font-size="10.00" fill="#999999">datetime</text>
</g>
<!-- m_Dependency -->
<g id="node2" class="node"><title>m_Dependency</title>
<path fill="none" stroke="black" d="M12,-0.5C12,-0.5 134,-0.5 134,-0.5 140,-0.5 146,-6.5 146,-12.5 146,-12.5 146,-56.5 146,-56.5 146,-62.5 140,-68.5 134,-68.5 134,-68.5 12,-68.5 12,-68.5 6,-68.5 0,-62.5 0,-56.5 0,-56.5 0,-12.5 0,-12.5 0,-6.5 6,-0.5 12,-0.5"/>
<text text-anchor="start" x="40.1162" y="-55.2" font-family="Arial BoldMT" font-size="11.00">Dependency</text>
<polyline fill="none" stroke="black" points="0,-49.5 146,-49.5 "/>
<text text-anchor="start" x="7" y="-36" font-family="ArialMT" font-size="10.00">requirements </text>
<text text-anchor="start" x="68.1377" y="-36" font-family="Arail ItalicMT" font-size="10.00" fill="#999999">string (255) ∗</text>
<text text-anchor="start" x="7" y="-23" font-family="ArialMT" font-size="10.00">scope </text>
<text text-anchor="start" x="36.4629" y="-23" font-family="Arail ItalicMT" font-size="10.00" fill="#999999">string (255)</text>
<text text-anchor="start" x="6.57422" y="-10" font-family="ArialMT" font-size="10.00">unresolved_name </text>
<text text-anchor="start" x="88.8496" y="-10" font-family="Arail ItalicMT" font-size="10.00" fill="#999999">string (255)</text>
</g>
<!-- m_Linkset -->
<g id="node3" class="node"><title>m_Linkset</title>
<path fill="none" stroke="black" d="M246,-183.5C246,-183.5 366,-183.5 366,-183.5 372,-183.5 378,-189.5 378,-195.5 378,-195.5 378,-278.5 378,-278.5 378,-284.5 372,-290.5 366,-290.5 366,-290.5 246,-290.5 246,-290.5 240,-290.5 234,-284.5 234,-278.5 234,-278.5 234,-195.5 234,-195.5 234,-189.5 240,-183.5 246,-183.5"/>
<text text-anchor="start" x="286.573" y="-277.2" font-family="Arial BoldMT" font-size="11.00">Linkset</text>
<polyline fill="none" stroke="black" points="234,-271.5 378,-271.5 "/>
<text text-anchor="start" x="241" y="-258.5" font-family="ArialMT" font-size="10.00">bugs </text>
<text text-anchor="start" x="265.463" y="-258.5" font-family="Arail ItalicMT" font-size="10.00" fill="#999999">string (255)</text>
<text text-anchor="start" x="241" y="-245.5" font-family="ArialMT" font-size="10.00">code </text>
<text text-anchor="start" x="265.463" y="-245.5" font-family="Arail ItalicMT" font-size="10.00" fill="#999999">string (255)</text>
<text text-anchor="start" x="241" y="-232.5" font-family="ArialMT" font-size="10.00">docs </text>
<text text-anchor="start" x="264.901" y="-232.5" font-family="Arail ItalicMT" font-size="10.00" fill="#999999">string (255)</text>
<text text-anchor="start" x="241" y="-219.5" font-family="ArialMT" font-size="10.00">home </text>
<text text-anchor="start" x="268.793" y="-219.5" font-family="Arail ItalicMT" font-size="10.00" fill="#999999">string (255)</text>
<text text-anchor="start" x="241" y="-206.5" font-family="ArialMT" font-size="10.00">mail </text>
<text text-anchor="start" x="262.113" y="-206.5" font-family="Arail ItalicMT" font-size="10.00" fill="#999999">string (255)</text>
<text text-anchor="start" x="241" y="-193.5" font-family="ArialMT" font-size="10.00">wiki </text>
<text text-anchor="start" x="260.443" y="-193.5" font-family="Arail ItalicMT" font-size="10.00" fill="#999999">string (255)</text>
</g>
<!-- m_Ownership -->
<g id="node4" class="node"><title>m_Ownership</title>
<path fill="none" stroke="black" d="M419,-216C419,-216 539,-216 539,-216 545,-216 551,-222 551,-228 551,-228 551,-246 551,-246 551,-252 545,-258 539,-258 539,-258 419,-258 419,-258 413,-258 407,-252 407,-246 407,-246 407,-228 407,-228 407,-222 413,-216 419,-216"/>
<text text-anchor="start" x="450.711" y="-244.7" font-family="Arial BoldMT" font-size="11.00">Ownership</text>
<polyline fill="none" stroke="black" points="407,-239 551,-239 "/>
<text text-anchor="start" x="414" y="-225.5" font-family="ArialMT" font-size="10.00">token </text>
<text text-anchor="start" x="441.241" y="-225.5" font-family="Arail ItalicMT" font-size="10.00" fill="#999999">string (255)</text>
</g>
<!-- m_Rubygem -->
<g id="node5" class="node"><title>m_Rubygem</title>
<path fill="none" stroke="black" d="M411,-464C411,-464 531,-464 531,-464 537,-464 543,-470 543,-476 543,-476 543,-520 543,-520 543,-526 537,-532 531,-532 531,-532 411,-532 411,-532 405,-532 399,-526 399,-520 399,-520 399,-476 399,-476 399,-470 405,-464 411,-464"/>
<text text-anchor="start" x="445.461" y="-518.7" font-family="Arial BoldMT" font-size="11.00">Rubygem</text>
<polyline fill="none" stroke="black" points="399,-513 543,-513 "/>
<text text-anchor="start" x="406" y="-499.5" font-family="ArialMT" font-size="10.00">downloads </text>
<text text-anchor="start" x="456.591" y="-499.5" font-family="Arail ItalicMT" font-size="10.00" fill="#999999">integer</text>
<text text-anchor="start" x="406" y="-486.5" font-family="ArialMT" font-size="10.00">name </text>
<text text-anchor="start" x="433.793" y="-486.5" font-family="Arail ItalicMT" font-size="10.00" fill="#999999">string (255) ∗ U</text>
<text text-anchor="start" x="406" y="-473.5" font-family="ArialMT" font-size="10.00">slug </text>
<text text-anchor="start" x="427.123" y="-473.5" font-family="Arail ItalicMT" font-size="10.00" fill="#999999">string (255)</text>
</g>
<!-- m_Rubygem&#45;&gt;m_Dependency -->
<g id="edge1" class="edge"><title>m_Rubygem&#45;&gt;m_Dependency</title>
<path fill="none" stroke="black" d="M448.891,-463.592C433.337,-443.028 410.598,-418.163 384,-405 316.103,-371.398 95.6609,-425.326 45,-369 -27.7532,-288.112 20.8979,-147.138 52.2803,-77.246"/>
<polygon fill="black" stroke="black" points="55.3202,-78.173 56.2014,-68.6785 49.5917,-75.5512 55.3202,-78.173"/>
</g>
<!-- m_Rubygem&#45;&gt;m_Linkset -->
<g id="edge3" class="edge"><title>m_Rubygem&#45;&gt;m_Linkset</title>
<path fill="none" stroke="black" d="M449.935,-463.934C422.047,-420.159 372.551,-342.465 339.504,-290.591"/>
</g>
<!-- m_Rubygem&#45;&gt;m_Ownership -->
<g id="edge4" class="edge"><title>m_Rubygem&#45;&gt;m_Ownership</title>
<path fill="none" stroke="black" d="M472.021,-463.934C473.597,-412.922 476.595,-315.853 478.096,-267.252"/>
<polygon fill="black" stroke="black" points="481.246,-267.3 478.376,-258.207 474.949,-267.105 481.246,-267.3"/>
</g>
<!-- m_Subscription -->
<g id="node6" class="node"><title>m_Subscription</title>
<path fill="none" stroke="black" d="M592,-219C592,-219 712,-219 712,-219 718,-219 724,-225 724,-231 724,-231 724,-243 724,-243 724,-249 718,-255 712,-255 712,-255 592,-255 592,-255 586,-255 580,-249 580,-243 580,-243 580,-231 580,-231 580,-225 586,-219 592,-219"/>
<text text-anchor="start" x="619.734" y="-233.2" font-family="Arial BoldMT" font-size="11.00">Subscription</text>
</g>
<!-- m_Rubygem&#45;&gt;m_Subscription -->
<g id="edge8" class="edge"><title>m_Rubygem&#45;&gt;m_Subscription</title>
<path fill="none" stroke="black" d="M495.977,-463.893C515.175,-438.23 542.183,-401.658 565,-369 590.507,-332.492 618.832,-289.32 636.028,-262.8"/>
<polygon fill="black" stroke="black" points="638.746,-264.398 640.991,-255.13 633.457,-260.975 638.746,-264.398"/>
</g>
<!-- m_User -->
<g id="node7" class="node"><title>m_User</title>
<path fill="none" stroke="black" d="M584.5,-405.5C584.5,-405.5 719.5,-405.5 719.5,-405.5 725.5,-405.5 731.5,-411.5 731.5,-417.5 731.5,-417.5 731.5,-578.5 731.5,-578.5 731.5,-584.5 725.5,-590.5 719.5,-590.5 719.5,-590.5 584.5,-590.5 584.5,-590.5 578.5,-590.5 572.5,-584.5 572.5,-578.5 572.5,-578.5 572.5,-417.5 572.5,-417.5 572.5,-411.5 578.5,-405.5 584.5,-405.5"/>
<text text-anchor="start" x="638.388" y="-577.2" font-family="Arial BoldMT" font-size="11.00">User</text>
<polyline fill="none" stroke="black" points="572.5,-571.5 731.5,-571.5 "/>
<text text-anchor="start" x="580" y="-558.5" font-family="ArialMT" font-size="10.00">api_key </text>
<text text-anchor="start" x="617.246" y="-558.5" font-family="Arail ItalicMT" font-size="10.00" fill="#999999">string (255)</text>
<text text-anchor="start" x="580" y="-545.5" font-family="ArialMT" font-size="10.00">confirmation_token </text>
<text text-anchor="start" x="667.271" y="-545.5" font-family="Arail ItalicMT" font-size="10.00" fill="#999999">string (128)</text>
<text text-anchor="start" x="580" y="-532.5" font-family="ArialMT" font-size="10.00">email </text>
<text text-anchor="start" x="606.675" y="-532.5" font-family="Arail ItalicMT" font-size="10.00" fill="#999999">string (255) ∗ U</text>
<text text-anchor="start" x="580" y="-519.5" font-family="ArialMT" font-size="10.00">email_confirmed </text>
<text text-anchor="start" x="656.143" y="-519.5" font-family="Arail ItalicMT" font-size="10.00" fill="#999999">boolean ∗</text>
<text text-anchor="start" x="580" y="-506.5" font-family="ArialMT" font-size="10.00">email_reset </text>
<text text-anchor="start" x="634.468" y="-506.5" font-family="Arail ItalicMT" font-size="10.00" fill="#999999">boolean</text>
<text text-anchor="start" x="579.685" y="-493.5" font-family="ArialMT" font-size="10.00">encrypted_password </text>
<text text-anchor="start" x="674.739" y="-493.5" font-family="Arail ItalicMT" font-size="10.00" fill="#999999">string (128)</text>
<text text-anchor="start" x="580" y="-480.5" font-family="ArialMT" font-size="10.00">handle </text>
<text text-anchor="start" x="612.808" y="-480.5" font-family="Arail ItalicMT" font-size="10.00" fill="#999999">string (255) U</text>
<text text-anchor="start" x="580" y="-467.5" font-family="ArialMT" font-size="10.00">hide_email </text>
<text text-anchor="start" x="631.143" y="-467.5" font-family="Arail ItalicMT" font-size="10.00" fill="#999999">boolean</text>
<text text-anchor="start" x="580" y="-454.5" font-family="ArialMT" font-size="10.00">remember_token </text>
<text text-anchor="start" x="658.369" y="-454.5" font-family="Arail ItalicMT" font-size="10.00" fill="#999999">string (128)</text>
<text text-anchor="start" x="580" y="-441.5" font-family="ArialMT" font-size="10.00">salt </text>
<text text-anchor="start" x="598.34" y="-441.5" font-family="Arail ItalicMT" font-size="10.00" fill="#999999">string (128)</text>
<text text-anchor="start" x="580" y="-428.5" font-family="ArialMT" font-size="10.00">token </text>
<text text-anchor="start" x="607.241" y="-428.5" font-family="Arail ItalicMT" font-size="10.00" fill="#999999">string (128)</text>
<text text-anchor="start" x="580" y="-415.5" font-family="ArialMT" font-size="10.00">token_expires_at </text>
<text text-anchor="start" x="658.94" y="-415.5" font-family="Arail ItalicMT" font-size="10.00" fill="#999999">datetime</text>
</g>
<!-- m_Rubygem&#45;&gt;m_User -->
<g id="edge6" class="edge"><title>m_Rubygem&#45;&gt;m_User</title>
<path fill="none" stroke="black" stroke-dasharray="1,5" d="M543.117,-473.193C549.843,-472.411 556.568,-472.059 563.293,-472.135"/>
<polygon fill="black" stroke="black" points="563.345,-475.29 572.465,-472.505 563.599,-468.995 563.345,-475.29"/>
</g>
<!-- m_Rubygem&#45;&gt;m_User -->
<g id="edge7" class="edge"><title>m_Rubygem&#45;&gt;m_User</title>
<path fill="none" stroke="black" stroke-dasharray="1,5" d="M543.117,-522.807C549.843,-523.589 556.568,-523.941 563.293,-523.865"/>
<polygon fill="black" stroke="black" points="563.599,-527.005 572.465,-523.495 563.345,-520.71 563.599,-527.005"/>
</g>
<!-- m_Version -->
<g id="node8" class="node"><title>m_Version</title>
<path fill="none" stroke="black" d="M71.5,-105.5C71.5,-105.5 192.5,-105.5 192.5,-105.5 198.5,-105.5 204.5,-111.5 204.5,-117.5 204.5,-117.5 204.5,-356.5 204.5,-356.5 204.5,-362.5 198.5,-368.5 192.5,-368.5 192.5,-368.5 71.5,-368.5 71.5,-368.5 65.5,-368.5 59.5,-362.5 59.5,-356.5 59.5,-356.5 59.5,-117.5 59.5,-117.5 59.5,-111.5 65.5,-105.5 71.5,-105.5"/>
<text text-anchor="start" x="111.652" y="-355.2" font-family="Arial BoldMT" font-size="11.00">Version</text>
<polyline fill="none" stroke="black" points="59.5,-349.5 204.5,-349.5 "/>
<text text-anchor="start" x="67" y="-336.5" font-family="ArialMT" font-size="10.00">authors </text>
<text text-anchor="start" x="103.133" y="-336.5" font-family="Arail ItalicMT" font-size="10.00" fill="#999999">text</text>
<text text-anchor="start" x="67" y="-323.5" font-family="ArialMT" font-size="10.00">built_at </text>
<text text-anchor="start" x="102.024" y="-323.5" font-family="Arail ItalicMT" font-size="10.00" fill="#999999">datetime ∗</text>
<text text-anchor="start" x="67" y="-310.5" font-family="ArialMT" font-size="10.00">description </text>
<text text-anchor="start" x="118.138" y="-310.5" font-family="Arail ItalicMT" font-size="10.00" fill="#999999">text</text>
<text text-anchor="start" x="67" y="-297.5" font-family="ArialMT" font-size="10.00">full_name </text>
<text text-anchor="start" x="113.138" y="-297.5" font-family="Arail ItalicMT" font-size="10.00" fill="#999999">string (255)</text>
<text text-anchor="start" x="67" y="-284.5" font-family="ArialMT" font-size="10.00">indexed </text>
<text text-anchor="start" x="104.808" y="-284.5" font-family="Arail ItalicMT" font-size="10.00" fill="#999999">boolean</text>
<text text-anchor="start" x="67" y="-271.5" font-family="ArialMT" font-size="10.00">latest </text>
<text text-anchor="start" x="93.6797" y="-271.5" font-family="Arail ItalicMT" font-size="10.00" fill="#999999">boolean</text>
<text text-anchor="start" x="67" y="-258.5" font-family="ArialMT" font-size="10.00">licenses </text>
<text text-anchor="start" x="105.906" y="-258.5" font-family="Arail ItalicMT" font-size="10.00" fill="#999999">string (255)</text>
<text text-anchor="start" x="67" y="-245.5" font-family="ArialMT" font-size="10.00">metadata </text>
<text text-anchor="start" x="111.473" y="-245.5" font-family="Arail ItalicMT" font-size="10.00" fill="#999999">hstore ∗</text>
<text text-anchor="start" x="67" y="-232.5" font-family="ArialMT" font-size="10.00">number </text>
<text text-anchor="start" x="103.685" y="-232.5" font-family="Arail ItalicMT" font-size="10.00" fill="#999999">string (255)</text>
<text text-anchor="start" x="67" y="-219.5" font-family="ArialMT" font-size="10.00">platform </text>
<text text-anchor="start" x="105.901" y="-219.5" font-family="Arail ItalicMT" font-size="10.00" fill="#999999">string (255)</text>
<text text-anchor="start" x="67" y="-206.5" font-family="ArialMT" font-size="10.00">position </text>
<text text-anchor="start" x="104.246" y="-206.5" font-family="Arail ItalicMT" font-size="10.00" fill="#999999">integer</text>
<text text-anchor="start" x="67" y="-193.5" font-family="ArialMT" font-size="10.00">prerelease </text>
<text text-anchor="start" x="117.029" y="-193.5" font-family="Arail ItalicMT" font-size="10.00" fill="#999999">boolean</text>
<text text-anchor="start" x="67" y="-180.5" font-family="ArialMT" font-size="10.00">requirements </text>
<text text-anchor="start" x="128.138" y="-180.5" font-family="Arail ItalicMT" font-size="10.00" fill="#999999">text</text>
<text text-anchor="start" x="67" y="-167.5" font-family="ArialMT" font-size="10.00">ruby_version </text>
<text text-anchor="start" x="127.029" y="-167.5" font-family="Arail ItalicMT" font-size="10.00" fill="#999999">string (255)</text>
<text text-anchor="start" x="66.9116" y="-154.5" font-family="ArialMT" font-size="10.00">rubyforge_project </text>
<text text-anchor="start" x="147.512" y="-154.5" font-family="Arail ItalicMT" font-size="10.00" fill="#999999">string (255)</text>
<text text-anchor="start" x="67" y="-141.5" font-family="ArialMT" font-size="10.00">sha256 </text>
<text text-anchor="start" x="102.586" y="-141.5" font-family="Arail ItalicMT" font-size="10.00" fill="#999999">string (255)</text>
<text text-anchor="start" x="67" y="-128.5" font-family="ArialMT" font-size="10.00">size </text>
<text text-anchor="start" x="87.5615" y="-128.5" font-family="Arail ItalicMT" font-size="10.00" fill="#999999">integer</text>
<text text-anchor="start" x="67" y="-115.5" font-family="ArialMT" font-size="10.00">summary </text>
<text text-anchor="start" x="110.892" y="-115.5" font-family="Arail ItalicMT" font-size="10.00" fill="#999999">text</text>
</g>
<!-- m_Rubygem&#45;&gt;m_Version -->
<g id="edge9" class="edge"><title>m_Rubygem&#45;&gt;m_Version</title>
<path fill="none" stroke="black" d="M447.679,-463.651C431.946,-443.647 409.458,-419.377 384,-405 318.643,-368.092 280.962,-411.362 219,-369 216.521,-367.305 214.094,-365.514 211.72,-363.638"/>
<polygon fill="black" stroke="black" points="213.666,-361.159 204.755,-357.767 209.606,-365.976 213.666,-361.159"/>
</g>
<!-- m_WebHook -->
<g id="node10" class="node"><title>m_WebHook</title>
<path fill="none" stroke="black" d="M765,-209.5C765,-209.5 885,-209.5 885,-209.5 891,-209.5 897,-215.5 897,-221.5 897,-221.5 897,-252.5 897,-252.5 897,-258.5 891,-264.5 885,-264.5 885,-264.5 765,-264.5 765,-264.5 759,-264.5 753,-258.5 753,-252.5 753,-252.5 753,-221.5 753,-221.5 753,-215.5 759,-209.5 765,-209.5"/>
<text text-anchor="start" x="798.948" y="-251.2" font-family="Arial BoldMT" font-size="11.00">WebHook</text>
<polyline fill="none" stroke="black" points="753,-245.5 897,-245.5 "/>
<text text-anchor="start" x="760" y="-232.5" font-family="ArialMT" font-size="10.00">failure_count </text>
<text text-anchor="start" x="820.039" y="-232.5" font-family="Arail ItalicMT" font-size="10.00" fill="#999999">integer</text>
<text text-anchor="start" x="760" y="-219.5" font-family="ArialMT" font-size="10.00">url </text>
<text text-anchor="start" x="773.892" y="-219.5" font-family="Arail ItalicMT" font-size="10.00" fill="#999999">string (255)</text>
</g>
<!-- m_Rubygem&#45;&gt;m_WebHook -->
<g id="edge10" class="edge"><title>m_Rubygem&#45;&gt;m_WebHook</title>
<path fill="none" stroke="black" d="M493.877,-463.939C509.589,-443.786 532.217,-419.247 558,-405 629.789,-365.33 670.988,-414.844 739,-369 773.495,-345.748 797.464,-303.538 811.175,-273.311"/>
<polygon fill="black" stroke="black" points="814.204,-274.247 814.935,-264.74 808.435,-271.716 814.204,-274.247"/>
</g>
<!-- m_User&#45;&gt;m_Ownership -->
<g id="edge5" class="edge"><title>m_User&#45;&gt;m_Ownership</title>
<path fill="none" stroke="black" d="M589.331,-405.178C581.117,-393.032 572.836,-380.73 565,-369 541.306,-333.532 514.378,-292.373 497.064,-265.797"/>
<polygon fill="black" stroke="black" points="499.564,-263.864 492.014,-258.04 494.284,-267.301 499.564,-263.864"/>
</g>
<!-- m_User&#45;&gt;m_Subscription -->
<g id="edge11" class="edge"><title>m_User&#45;&gt;m_Subscription</title>
<path fill="none" stroke="black" d="M652,-405.322C652,-355.472 652,-297.426 652,-264.467"/>
<polygon fill="black" stroke="black" points="655.15,-264.081 652,-255.081 648.85,-264.081 655.15,-264.081"/>
</g>
<!-- m_User&#45;&gt;m_WebHook -->
<g id="edge12" class="edge"><title>m_User&#45;&gt;m_WebHook</title>
<path fill="none" stroke="black" d="M714.669,-405.178C722.883,-393.032 731.164,-380.73 739,-369 760.776,-336.402 785.285,-298.998 802.55,-272.525"/>
<polygon fill="black" stroke="black" points="805.39,-273.938 807.665,-264.678 800.112,-270.497 805.39,-273.938"/>
</g>
<!-- m_Version&#45;&gt;m_Dependency -->
<g id="edge2" class="edge"><title>m_Version&#45;&gt;m_Dependency</title>
<path fill="none" stroke="black" d="M93.5525,-105.344C90.6218,-95.3843 87.8212,-85.8671 85.2824,-77.2394"/>
<polygon fill="black" stroke="black" points="88.2996,-76.3339 82.737,-68.5892 82.2558,-78.1124 88.2996,-76.3339"/>
</g>
<!-- m_VersionHistory -->
<g id="node9" class="node"><title>m_VersionHistory</title>
<path fill="none" stroke="black" d="M187,-7C187,-7 307,-7 307,-7 313,-7 319,-13 319,-19 319,-19 319,-50 319,-50 319,-56 313,-62 307,-62 307,-62 187,-62 187,-62 181,-62 175,-56 175,-50 175,-50 175,-19 175,-19 175,-13 181,-7 187,-7"/>
<text text-anchor="start" x="209.54" y="-48.7" font-family="Arial BoldMT" font-size="11.00">VersionHistory</text>
<polyline fill="none" stroke="black" points="175,-43 319,-43 "/>
<text text-anchor="start" x="182" y="-30" font-family="ArialMT" font-size="10.00">count </text>
<text text-anchor="start" x="209.241" y="-30" font-family="Arail ItalicMT" font-size="10.00" fill="#999999">integer</text>
<text text-anchor="start" x="182" y="-17" font-family="ArialMT" font-size="10.00">day </text>
<text text-anchor="start" x="200.901" y="-17" font-family="Arail ItalicMT" font-size="10.00" fill="#999999">date</text>
</g>
<!-- m_Version&#45;&gt;m_VersionHistory -->
<g id="edge13" class="edge"><title>m_Version&#45;&gt;m_VersionHistory</title>
<path fill="none" stroke="black" d="M204.505,-109.589C212.734,-95.2422 220.522,-81.6639 227.128,-70.1456"/>
<polygon fill="black" stroke="black" points="229.974,-71.5153 231.72,-62.141 224.509,-68.3808 229.974,-71.5153"/>
</g>
</g>
</svg>
