<?xml version="1.0" encoding="UTF-8" standalone="no"?>
<!DOCTYPE svg PUBLIC "-//W3C//DTD SVG 1.1//EN"
 "http://www.w3.org/Graphics/SVG/1.1/DTD/svg11.dtd">
<!-- Generated by graphviz version 2.50.0 (0)
 -->
<!-- Title: Gemcutter Pages: 1 -->
<svg width="3617pt" height="798pt"
 viewBox="0.00 0.00 3616.60 797.60" xmlns="http://www.w3.org/2000/svg" xmlns:xlink="http://www.w3.org/1999/xlink">
<g id="graph0" class="graph" transform="scale(1 1) rotate(0) translate(28.8 768.8)">
<title>Gemcutter</title>
<polygon fill="white" stroke="transparent" points="-28.8,28.8 -28.8,-768.8 3587.8,-768.8 3587.8,28.8 -28.8,28.8"/>
<text text-anchor="middle" x="1779.5" y="-725.6" font-family="Arial Bold" font-size="13.00">RubyGems.org domain model</text>
<!-- m_ApiKey -->
<g id="node1" class="node">
<title>m_ApiKey</title>
<path fill="none" stroke="black" d="M12,-151.5C12,-151.5 300,-151.5 300,-151.5 306,-151.5 312,-157.5 312,-163.5 312,-163.5 312,-318.5 312,-318.5 312,-324.5 306,-330.5 300,-330.5 300,-330.5 12,-330.5 12,-330.5 6,-330.5 0,-324.5 0,-318.5 0,-318.5 0,-163.5 0,-163.5 0,-157.5 6,-151.5 12,-151.5"/>
<text text-anchor="start" x="50.5" y="-238.2" font-family="Arial Bold" font-size="11.00">ApiKey</text>
<polyline fill="none" stroke="black" points="144,-151.5 144,-330.5 "/>
<text text-anchor="start" x="151" y="-317" font-family="Arial" font-size="10.00">access_webhooks </text>
<text text-anchor="start" x="236" y="-317" font-family="Arial Italic" font-size="10.00" fill="#999999">boolean ∗</text>
<text text-anchor="start" x="151" y="-304" font-family="Arial" font-size="10.00">add_owner </text>
<text text-anchor="start" x="202" y="-304" font-family="Arial Italic" font-size="10.00" fill="#999999">boolean ∗</text>
<text text-anchor="start" x="151" y="-291" font-family="Arial" font-size="10.00">hashed_key </text>
<text text-anchor="start" x="207" y="-291" font-family="Arial Italic" font-size="10.00" fill="#999999">string ∗</text>
<text text-anchor="start" x="151" y="-278" font-family="Arial" font-size="10.00">index_rubygems </text>
<text text-anchor="start" x="226" y="-278" font-family="Arial Italic" font-size="10.00" fill="#999999">boolean ∗</text>
<text text-anchor="start" x="151" y="-265" font-family="Arial" font-size="10.00">last_accessed_at </text>
<text text-anchor="start" x="231" y="-265" font-family="Arial Italic" font-size="10.00" fill="#999999">datetime (6,0)</text>
<text text-anchor="start" x="151" y="-252" font-family="Arial" font-size="10.00">mfa </text>
<text text-anchor="start" x="171" y="-252" font-family="Arial Italic" font-size="10.00" fill="#999999">boolean ∗</text>
<text text-anchor="start" x="151" y="-239" font-family="Arial" font-size="10.00">name </text>
<text text-anchor="start" x="179" y="-239" font-family="Arial Italic" font-size="10.00" fill="#999999">string ∗</text>
<text text-anchor="start" x="151" y="-226" font-family="Arial" font-size="10.00">push_rubygem </text>
<text text-anchor="start" x="218" y="-226" font-family="Arial Italic" font-size="10.00" fill="#999999">boolean ∗</text>
<text text-anchor="start" x="151" y="-213" font-family="Arial" font-size="10.00">remove_owner </text>
<text text-anchor="start" x="218" y="-213" font-family="Arial Italic" font-size="10.00" fill="#999999">boolean ∗</text>
<text text-anchor="start" x="151" y="-200" font-family="Arial" font-size="10.00">show_dashboard </text>
<text text-anchor="start" x="228" y="-200" font-family="Arial Italic" font-size="10.00" fill="#999999">boolean ∗</text>
<text text-anchor="start" x="151" y="-187" font-family="Arial" font-size="10.00">soft_deleted_at </text>
<text text-anchor="start" x="221" y="-187" font-family="Arial Italic" font-size="10.00" fill="#999999">datetime (6,0)</text>
<text text-anchor="start" x="151" y="-174" font-family="Arial" font-size="10.00">soft_deleted_rubygem_name </text>
<text text-anchor="start" x="280" y="-174" font-family="Arial Italic" font-size="10.00" fill="#999999">string</text>
<text text-anchor="start" x="151" y="-161" font-family="Arial" font-size="10.00">yank_rubygem </text>
<text text-anchor="start" x="218" y="-161" font-family="Arial Italic" font-size="10.00" fill="#999999">boolean ∗</text>
</g>
<!-- m_ApiKeyRubygemScope -->
<g id="node2" class="node">
<title>m_ApiKeyRubygemScope</title>
<path fill="none" stroke="black" d="M733,-7C733,-7 853,-7 853,-7 859,-7 865,-13 865,-19 865,-19 865,-31 865,-31 865,-37 859,-43 853,-43 853,-43 733,-43 733,-43 727,-43 721,-37 721,-31 721,-31 721,-19 721,-19 721,-13 727,-7 733,-7"/>
<text text-anchor="start" x="730" y="-22.2" font-family="Arial Bold" font-size="11.00">ApiKeyRubygemScope</text>
</g>
<!-- m_ApiKey&#45;&gt;m_ApiKeyRubygemScope -->
<g id="edge23" class="edge">
<title>m_ApiKey&#45;&gt;m_ApiKeyRubygemScope</title>
<path fill="none" stroke="black" d="M233.66,-151.46C260.39,-126.33 292.18,-101.59 326,-86 394.58,-54.39 607.4,-37.16 720.55,-30.01"/>
</g>
<!-- m_Ownership -->
<g id="node10" class="node">
<title>m_Ownership</title>
<path fill="none" stroke="black" d="M1219.5,-197C1219.5,-197 1518.5,-197 1518.5,-197 1524.5,-197 1530.5,-203 1530.5,-209 1530.5,-209 1530.5,-273 1530.5,-273 1530.5,-279 1524.5,-285 1518.5,-285 1518.5,-285 1219.5,-285 1219.5,-285 1213.5,-285 1207.5,-279 1207.5,-273 1207.5,-273 1207.5,-209 1207.5,-209 1207.5,-203 1213.5,-197 1219.5,-197"/>
<text text-anchor="start" x="1249" y="-238.2" font-family="Arial Bold" font-size="11.00">Ownership</text>
<polyline fill="none" stroke="black" points="1351.5,-197 1351.5,-285 "/>
<text text-anchor="start" x="1359" y="-272" font-family="Arial" font-size="10.00">confirmed_at </text>
<text text-anchor="start" x="1419" y="-272" font-family="Arial Italic" font-size="10.00" fill="#999999">datetime (6,0)</text>
<text text-anchor="start" x="1359" y="-259" font-family="Arial" font-size="10.00">owner_notifier </text>
<text text-anchor="start" x="1423" y="-259" font-family="Arial Italic" font-size="10.00" fill="#999999">boolean ∗</text>
<text text-anchor="start" x="1359" y="-246" font-family="Arial" font-size="10.00">ownership_request_notifier </text>
<text text-anchor="start" x="1479" y="-246" font-family="Arial Italic" font-size="10.00" fill="#999999">boolean ∗</text>
<text text-anchor="start" x="1359" y="-233" font-family="Arial" font-size="10.00">push_notifier </text>
<text text-anchor="start" x="1418" y="-233" font-family="Arial Italic" font-size="10.00" fill="#999999">boolean ∗</text>
<text text-anchor="start" x="1359" y="-220" font-family="Arial" font-size="10.00">token </text>
<text text-anchor="start" x="1387" y="-220" font-family="Arial Italic" font-size="10.00" fill="#999999">string</text>
<text text-anchor="start" x="1359" y="-207" font-family="Arial" font-size="10.00">token_expires_at </text>
<text text-anchor="start" x="1437" y="-207" font-family="Arial Italic" font-size="10.00" fill="#999999">datetime (6,0)</text>
</g>
<!-- m_ApiKey&#45;&gt;m_Ownership -->
<g id="edge24" class="edge">
<title>m_ApiKey&#45;&gt;m_Ownership</title>
<path fill="none" stroke="black" stroke-dasharray="1,5" d="M225.91,-330.58C257.04,-363.35 296.61,-396.64 340.5,-414 383.79,-431.12 1135.07,-430.78 1178.5,-414 1244.97,-388.32 1302.56,-327.48 1336.54,-285.27"/>
</g>
<!-- m_Delayed::Backend::ActiveRecord::Job -->
<g id="node3" class="node">
<title>m_Delayed::Backend::ActiveRecord::Job</title>
<path fill="none" stroke="black" d="M1889,-504C1889,-504 2221,-504 2221,-504 2227,-504 2233,-510 2233,-516 2233,-516 2233,-619 2233,-619 2233,-625 2227,-631 2221,-631 2221,-631 1889,-631 1889,-631 1883,-631 1877,-625 1877,-619 1877,-619 1877,-516 1877,-516 1877,-510 1883,-504 1889,-504"/>
<text text-anchor="start" x="1882" y="-564.7" font-family="Arial Bold" font-size="11.00">Delayed::Backend::ActiveRecord::Job</text>
<polyline fill="none" stroke="black" points="2089,-504 2089,-631 "/>
<text text-anchor="start" x="2096" y="-617.5" font-family="Arial" font-size="10.00">attempts </text>
<text text-anchor="start" x="2138" y="-617.5" font-family="Arial Italic" font-size="10.00" fill="#999999">integer</text>
<text text-anchor="start" x="2096" y="-604.5" font-family="Arial" font-size="10.00">failed_at </text>
<text text-anchor="start" x="2136" y="-604.5" font-family="Arial Italic" font-size="10.00" fill="#999999">datetime (6,0)</text>
<text text-anchor="start" x="2096" y="-591.5" font-family="Arial" font-size="10.00">handler </text>
<text text-anchor="start" x="2131" y="-591.5" font-family="Arial Italic" font-size="10.00" fill="#999999">text</text>
<text text-anchor="start" x="2096" y="-578.5" font-family="Arial" font-size="10.00">last_error </text>
<text text-anchor="start" x="2140" y="-578.5" font-family="Arial Italic" font-size="10.00" fill="#999999">text</text>
<text text-anchor="start" x="2096" y="-565.5" font-family="Arial" font-size="10.00">locked_at </text>
<text text-anchor="start" x="2142" y="-565.5" font-family="Arial Italic" font-size="10.00" fill="#999999">datetime (6,0)</text>
<text text-anchor="start" x="2096" y="-552.5" font-family="Arial" font-size="10.00">locked_by </text>
<text text-anchor="start" x="2144" y="-552.5" font-family="Arial Italic" font-size="10.00" fill="#999999">string</text>
<text text-anchor="start" x="2096" y="-539.5" font-family="Arial" font-size="10.00">priority </text>
<text text-anchor="start" x="2129" y="-539.5" font-family="Arial Italic" font-size="10.00" fill="#999999">integer</text>
<text text-anchor="start" x="2096" y="-526.5" font-family="Arial" font-size="10.00">queue </text>
<text text-anchor="start" x="2126" y="-526.5" font-family="Arial Italic" font-size="10.00" fill="#999999">string</text>
<text text-anchor="start" x="2096" y="-513.5" font-family="Arial" font-size="10.00">run_at </text>
<text text-anchor="start" x="2127" y="-513.5" font-family="Arial Italic" font-size="10.00" fill="#999999">datetime (6,0)</text>
</g>
<!-- m_Deletion -->
<g id="node4" class="node">
<title>m_Deletion</title>
<path fill="none" stroke="black" d="M353,-216.5C353,-216.5 617,-216.5 617,-216.5 623,-216.5 629,-222.5 629,-228.5 629,-228.5 629,-253.5 629,-253.5 629,-259.5 623,-265.5 617,-265.5 617,-265.5 353,-265.5 353,-265.5 347,-265.5 341,-259.5 341,-253.5 341,-253.5 341,-228.5 341,-228.5 341,-222.5 347,-216.5 353,-216.5"/>
<text text-anchor="start" x="389" y="-238.2" font-family="Arial Bold" font-size="11.00">Deletion</text>
<polyline fill="none" stroke="black" points="485,-216.5 485,-265.5 "/>
<text text-anchor="start" x="492" y="-252" font-family="Arial" font-size="10.00">number </text>
<text text-anchor="start" x="528" y="-252" font-family="Arial Italic" font-size="10.00" fill="#999999">string ∗</text>
<text text-anchor="start" x="492" y="-239" font-family="Arial" font-size="10.00">platform </text>
<text text-anchor="start" x="531" y="-239" font-family="Arial Italic" font-size="10.00" fill="#999999">string</text>
<text text-anchor="start" x="492" y="-226" font-family="Arial" font-size="10.00">rubygem </text>
<text text-anchor="start" x="533" y="-226" font-family="Arial Italic" font-size="10.00" fill="#999999">string ∗</text>
</g>
<!-- m_Dependency -->
<g id="node5" class="node">
<title>m_Dependency</title>
<path fill="none" stroke="black" d="M1861,-0.5C1861,-0.5 2125,-0.5 2125,-0.5 2131,-0.5 2137,-6.5 2137,-12.5 2137,-12.5 2137,-37.5 2137,-37.5 2137,-43.5 2131,-49.5 2125,-49.5 2125,-49.5 1861,-49.5 1861,-49.5 1855,-49.5 1849,-43.5 1849,-37.5 1849,-37.5 1849,-12.5 1849,-12.5 1849,-6.5 1855,-0.5 1861,-0.5"/>
<text text-anchor="start" x="1886" y="-22.2" font-family="Arial Bold" font-size="11.00">Dependency</text>
<polyline fill="none" stroke="black" points="1993,-0.5 1993,-49.5 "/>
<text text-anchor="start" x="2000" y="-36" font-family="Arial" font-size="10.00">requirements </text>
<text text-anchor="start" x="2060" y="-36" font-family="Arial Italic" font-size="10.00" fill="#999999">string ∗</text>
<text text-anchor="start" x="2000" y="-23" font-family="Arial" font-size="10.00">scope </text>
<text text-anchor="start" x="2030" y="-23" font-family="Arial Italic" font-size="10.00" fill="#999999">string</text>
<text text-anchor="start" x="2000" y="-10" font-family="Arial" font-size="10.00">unresolved_name </text>
<text text-anchor="start" x="2080" y="-10" font-family="Arial Italic" font-size="10.00" fill="#999999">string</text>
</g>
<!-- m_GemDownload -->
<g id="node6" class="node">
<title>m_GemDownload</title>
<path fill="none" stroke="black" d="M2178,-7C2178,-7 2442,-7 2442,-7 2448,-7 2454,-13 2454,-19 2454,-19 2454,-31 2454,-31 2454,-37 2448,-43 2442,-43 2442,-43 2178,-43 2178,-43 2172,-43 2166,-37 2166,-31 2166,-31 2166,-19 2166,-19 2166,-13 2172,-7 2178,-7"/>
<text text-anchor="start" x="2197.5" y="-22.2" font-family="Arial Bold" font-size="11.00">GemDownload</text>
<polyline fill="none" stroke="black" points="2310,-7 2310,-43 "/>
<text text-anchor="start" x="2317" y="-23" font-family="Arial" font-size="10.00">count </text>
<text text-anchor="start" x="2345" y="-23" font-family="Arial Italic" font-size="10.00" fill="#999999">integer (8)</text>
</g>
<!-- m_GemTypoException -->
<g id="node7" class="node">
<title>m_GemTypoException</title>
<path fill="none" stroke="black" d="M2274,-549.5C2274,-549.5 2538,-549.5 2538,-549.5 2544,-549.5 2550,-555.5 2550,-561.5 2550,-561.5 2550,-573.5 2550,-573.5 2550,-579.5 2544,-585.5 2538,-585.5 2538,-585.5 2274,-585.5 2274,-585.5 2268,-585.5 2262,-579.5 2262,-573.5 2262,-573.5 2262,-561.5 2262,-561.5 2262,-555.5 2268,-549.5 2274,-549.5"/>
<text text-anchor="start" x="2280.5" y="-564.7" font-family="Arial Bold" font-size="11.00">GemTypoException</text>
<polyline fill="none" stroke="black" points="2406,-549.5 2406,-585.5 "/>
<text text-anchor="start" x="2413" y="-572.5" font-family="Arial" font-size="10.00">info </text>
<text text-anchor="start" x="2432" y="-572.5" font-family="Arial Italic" font-size="10.00" fill="#999999">text</text>
<text text-anchor="start" x="2413" y="-559.5" font-family="Arial" font-size="10.00">name </text>
<text text-anchor="start" x="2441" y="-559.5" font-family="Arial Italic" font-size="10.00" fill="#999999">string ∗ U</text>
</g>
<!-- m_Linkset -->
<g id="node8" class="node">
<title>m_Linkset</title>
<path fill="none" stroke="black" d="M2366,-197C2366,-197 2630,-197 2630,-197 2636,-197 2642,-203 2642,-209 2642,-209 2642,-273 2642,-273 2642,-279 2636,-285 2630,-285 2630,-285 2366,-285 2366,-285 2360,-285 2354,-279 2354,-273 2354,-273 2354,-209 2354,-209 2354,-203 2360,-197 2366,-197"/>
<text text-anchor="start" x="2404.5" y="-238.2" font-family="Arial Bold" font-size="11.00">Linkset</text>
<polyline fill="none" stroke="black" points="2498,-197 2498,-285 "/>
<text text-anchor="start" x="2505" y="-272" font-family="Arial" font-size="10.00">bugs </text>
<text text-anchor="start" x="2530" y="-272" font-family="Arial Italic" font-size="10.00" fill="#999999">string</text>
<text text-anchor="start" x="2505" y="-259" font-family="Arial" font-size="10.00">code </text>
<text text-anchor="start" x="2530" y="-259" font-family="Arial Italic" font-size="10.00" fill="#999999">string</text>
<text text-anchor="start" x="2505" y="-246" font-family="Arial" font-size="10.00">docs </text>
<text text-anchor="start" x="2530" y="-246" font-family="Arial Italic" font-size="10.00" fill="#999999">string</text>
<text text-anchor="start" x="2505" y="-233" font-family="Arial" font-size="10.00">home </text>
<text text-anchor="start" x="2533" y="-233" font-family="Arial Italic" font-size="10.00" fill="#999999">string</text>
<text text-anchor="start" x="2505" y="-220" font-family="Arial" font-size="10.00">mail </text>
<text text-anchor="start" x="2527" y="-220" font-family="Arial Italic" font-size="10.00" fill="#999999">string</text>
<text text-anchor="start" x="2505" y="-207" font-family="Arial" font-size="10.00">wiki </text>
<text text-anchor="start" x="2526" y="-207" font-family="Arial Italic" font-size="10.00" fill="#999999">string</text>
</g>
<!-- m_LogTicket -->
<g id="node9" class="node">
<title>m_LogTicket</title>
<path fill="none" stroke="black" d="M2591,-530C2591,-530 2855,-530 2855,-530 2861,-530 2867,-536 2867,-542 2867,-542 2867,-593 2867,-593 2867,-599 2861,-605 2855,-605 2855,-605 2591,-605 2591,-605 2585,-605 2579,-599 2579,-593 2579,-593 2579,-542 2579,-542 2579,-536 2585,-530 2591,-530"/>
<text text-anchor="start" x="2623" y="-564.7" font-family="Arial Bold" font-size="11.00">LogTicket</text>
<polyline fill="none" stroke="black" points="2723,-530 2723,-605 "/>
<text text-anchor="start" x="2730" y="-591.5" font-family="Arial" font-size="10.00">backend </text>
<text text-anchor="start" x="2770" y="-591.5" font-family="Arial Italic" font-size="10.00" fill="#999999">integer</text>
<text text-anchor="start" x="2730" y="-578.5" font-family="Arial" font-size="10.00">directory </text>
<text text-anchor="start" x="2771" y="-578.5" font-family="Arial Italic" font-size="10.00" fill="#999999">string</text>
<text text-anchor="start" x="2730" y="-565.5" font-family="Arial" font-size="10.00">key </text>
<text text-anchor="start" x="2749" y="-565.5" font-family="Arial Italic" font-size="10.00" fill="#999999">string</text>
<text text-anchor="start" x="2730" y="-552.5" font-family="Arial" font-size="10.00">processed_count </text>
<text text-anchor="start" x="2808" y="-552.5" font-family="Arial Italic" font-size="10.00" fill="#999999">integer</text>
<text text-anchor="start" x="2730" y="-539.5" font-family="Arial" font-size="10.00">status </text>
<text text-anchor="start" x="2761" y="-539.5" font-family="Arial Italic" font-size="10.00" fill="#999999">string</text>
</g>
<!-- m_Ownership&#45;&gt;m_ApiKeyRubygemScope -->
<g id="edge21" class="edge">
<title>m_Ownership&#45;&gt;m_ApiKeyRubygemScope</title>
<path fill="none" stroke="black" d="M1332.86,-196.89C1300.2,-161.04 1248.81,-111.86 1193,-86 1164.69,-72.88 982.84,-49.05 874.33,-35.71"/>
<polygon fill="black" stroke="black" points="874.67,-32.58 865.36,-34.61 873.91,-38.83 874.67,-32.58"/>
</g>
<!-- m_OwnershipCall -->
<g id="node11" class="node">
<title>m_OwnershipCall</title>
<path fill="none" stroke="black" d="M1572,-223C1572,-223 1836,-223 1836,-223 1842,-223 1848,-229 1848,-235 1848,-235 1848,-247 1848,-247 1848,-253 1842,-259 1836,-259 1836,-259 1572,-259 1572,-259 1566,-259 1560,-253 1560,-247 1560,-247 1560,-235 1560,-235 1560,-229 1566,-223 1572,-223"/>
<text text-anchor="start" x="1591.5" y="-238.2" font-family="Arial Bold" font-size="11.00">OwnershipCall</text>
<polyline fill="none" stroke="black" points="1704,-223 1704,-259 "/>
<text text-anchor="start" x="1711" y="-246" font-family="Arial" font-size="10.00">note </text>
<text text-anchor="start" x="1733" y="-246" font-family="Arial Italic" font-size="10.00" fill="#999999">text ∗</text>
<text text-anchor="start" x="1711" y="-233" font-family="Arial" font-size="10.00">status </text>
<text text-anchor="start" x="1742" y="-233" font-family="Arial Italic" font-size="10.00" fill="#999999">boolean ∗</text>
</g>
<!-- m_OwnershipRequest -->
<g id="node12" class="node">
<title>m_OwnershipRequest</title>
<path fill="none" stroke="black" d="M1042,-7C1042,-7 1306,-7 1306,-7 1312,-7 1318,-13 1318,-19 1318,-19 1318,-31 1318,-31 1318,-37 1312,-43 1306,-43 1306,-43 1042,-43 1042,-43 1036,-43 1030,-37 1030,-31 1030,-31 1030,-19 1030,-19 1030,-13 1036,-7 1042,-7"/>
<text text-anchor="start" x="1050" y="-22.2" font-family="Arial Bold" font-size="11.00">OwnershipRequest</text>
<polyline fill="none" stroke="black" points="1174,-7 1174,-43 "/>
<text text-anchor="start" x="1181" y="-30" font-family="Arial" font-size="10.00">note </text>
<text text-anchor="start" x="1203" y="-30" font-family="Arial Italic" font-size="10.00" fill="#999999">text ∗</text>
<text text-anchor="start" x="1181" y="-17" font-family="Arial" font-size="10.00">status </text>
<text text-anchor="start" x="1212" y="-17" font-family="Arial Italic" font-size="10.00" fill="#999999">integer (2) ∗</text>
</g>
<!-- m_OwnershipCall&#45;&gt;m_OwnershipRequest -->
<g id="edge20" class="edge">
<title>m_OwnershipCall&#45;&gt;m_OwnershipRequest</title>
<path fill="none" stroke="black" d="M1692.08,-222.91C1668.3,-190.26 1611.47,-119.34 1545,-86 1507.09,-66.98 1411.99,-51.81 1327.58,-41.48"/>
<polygon fill="black" stroke="black" points="1327.71,-38.32 1318.4,-40.37 1326.95,-44.57 1327.71,-38.32"/>
</g>
<!-- m_Rubygem -->
<g id="node13" class="node">
<title>m_Rubygem</title>
<path fill="none" stroke="black" d="M1572,-543C1572,-543 1836,-543 1836,-543 1842,-543 1848,-549 1848,-555 1848,-555 1848,-580 1848,-580 1848,-586 1842,-592 1836,-592 1836,-592 1572,-592 1572,-592 1566,-592 1560,-586 1560,-580 1560,-580 1560,-555 1560,-555 1560,-549 1566,-543 1572,-543"/>
<text text-anchor="start" x="1604.5" y="-564.7" font-family="Arial Bold" font-size="11.00">Rubygem</text>
<polyline fill="none" stroke="black" points="1704,-543 1704,-592 "/>
<text text-anchor="start" x="1711" y="-578.5" font-family="Arial" font-size="10.00">indexed </text>
<text text-anchor="start" x="1748" y="-578.5" font-family="Arial Italic" font-size="10.00" fill="#999999">boolean ∗</text>
<text text-anchor="start" x="1711" y="-565.5" font-family="Arial" font-size="10.00">name </text>
<text text-anchor="start" x="1739" y="-565.5" font-family="Arial Italic" font-size="10.00" fill="#999999">string ∗ U</text>
<text text-anchor="start" x="1711" y="-552.5" font-family="Arial" font-size="10.00">slug </text>
<text text-anchor="start" x="1733" y="-552.5" font-family="Arial Italic" font-size="10.00" fill="#999999">string</text>
</g>
<!-- m_Rubygem&#45;&gt;m_Dependency -->
<g id="edge22" class="edge">
<title>m_Rubygem&#45;&gt;m_Dependency</title>
<path fill="none" stroke="black" d="M1723.2,-543C1750.52,-511.46 1803.91,-456.57 1863,-432 1949.09,-396.21 2211.86,-458.54 2281,-396 2332.65,-349.28 2294.68,-309.94 2310,-242"/>
<path fill="none" stroke="black" d="M2310,-240C2325.32,-172.06 2329.77,-135.72 2281,-86 2270.54,-75.34 2209.49,-61.89 2146.27,-50.43"/>
<polygon fill="black" stroke="black" points="2146.75,-47.31 2137.34,-48.82 2145.64,-53.51 2146.75,-47.31"/>
</g>
<!-- m_Rubygem&#45;&gt;m_GemDownload -->
<g id="edge17" class="edge">
<title>m_Rubygem&#45;&gt;m_GemDownload</title>
<path fill="none" stroke="black" d="M2310,-240C2326.14,-168.42 2317.38,-79.92 2312.53,-43.2"/>
</g>
<!-- m_Rubygem&#45;&gt;m_Linkset -->
<g id="edge16" class="edge">
<title>m_Rubygem&#45;&gt;m_Linkset</title>
<path fill="none" stroke="black" d="M1723.17,-542.92C1750.45,-511.29 1803.79,-456.29 1863,-432 2056.41,-352.64 2140.46,-479.77 2332,-396 2387.11,-371.9 2435.64,-321.6 2465.77,-285.02"/>
</g>
<!-- m_Rubygem&#45;&gt;m_Ownership -->
<g id="edge15" class="edge">
<title>m_Rubygem&#45;&gt;m_Ownership</title>
<path fill="none" stroke="black" d="M1679.64,-542.9C1625.38,-490.34 1493.61,-362.7 1420.32,-291.71"/>
<polygon fill="black" stroke="black" points="1422.07,-289.02 1413.41,-285.02 1417.69,-293.54 1422.07,-289.02"/>
</g>
<!-- m_Rubygem&#45;&gt;m_OwnershipCall -->
<g id="edge18" class="edge">
<title>m_Rubygem&#45;&gt;m_OwnershipCall</title>
<path fill="none" stroke="black" d="M1704,-542.9C1704,-483.93 1704,-330.42 1704,-268.48"/>
<polygon fill="black" stroke="black" points="1707.15,-268.36 1704,-259.36 1700.85,-268.36 1707.15,-268.36"/>
</g>
<!-- m_Rubygem&#45;&gt;m_OwnershipRequest -->
<g id="edge19" class="edge">
<title>m_Rubygem&#45;&gt;m_OwnershipRequest</title>
<path fill="none" stroke="black" d="M1737.92,-542.86C1776.67,-513.56 1837.93,-459.64 1863,-396 1913.5,-267.81 1956.1,-187.56 1863,-86 1827.53,-47.31 1519.1,-33.48 1327.12,-28.6"/>
<polygon fill="black" stroke="black" points="1327.14,-25.45 1318.06,-28.38 1326.98,-31.75 1327.14,-25.45"/>
</g>
<!-- m_Subscription -->
<g id="node15" class="node">
<title>m_Subscription</title>
<path fill="none" stroke="black" d="M729,-223C729,-223 849,-223 849,-223 855,-223 861,-229 861,-235 861,-235 861,-247 861,-247 861,-253 855,-259 849,-259 849,-259 729,-259 729,-259 723,-259 717,-253 717,-247 717,-247 717,-235 717,-235 717,-229 723,-223 729,-223"/>
<text text-anchor="start" x="753" y="-238.2" font-family="Arial Bold" font-size="11.00">Subscription</text>
</g>
<!-- m_Rubygem&#45;&gt;m_Subscription -->
<g id="edge14" class="edge">
<title>m_Rubygem&#45;&gt;m_Subscription</title>
<path fill="none" stroke="black" d="M1606.82,-542.98C1487.78,-514.6 1279.77,-466.43 1100,-432 1000.97,-413.03 958.77,-453.59 876,-396 831.34,-364.92 806.83,-303.1 795.97,-267.98"/>
<polygon fill="black" stroke="black" points="798.95,-266.97 793.38,-259.24 792.91,-268.76 798.95,-266.97"/>
</g>
<!-- m_Version -->
<g id="node18" class="node">
<title>m_Version</title>
<path fill="none" stroke="black" d="M1948,-86.5C1948,-86.5 2254,-86.5 2254,-86.5 2260,-86.5 2266,-92.5 2266,-98.5 2266,-98.5 2266,-383.5 2266,-383.5 2266,-389.5 2260,-395.5 2254,-395.5 2254,-395.5 1948,-395.5 1948,-395.5 1942,-395.5 1936,-389.5 1936,-383.5 1936,-383.5 1936,-98.5 1936,-98.5 1936,-92.5 1942,-86.5 1948,-86.5"/>
<text text-anchor="start" x="1986" y="-238.2" font-family="Arial Bold" font-size="11.00">Version</text>
<polyline fill="none" stroke="black" points="2080,-86.5 2080,-395.5 "/>
<text text-anchor="start" x="2087" y="-382" font-family="Arial" font-size="10.00">authors </text>
<text text-anchor="start" x="2123" y="-382" font-family="Arial Italic" font-size="10.00" fill="#999999">text</text>
<text text-anchor="start" x="2087" y="-369" font-family="Arial" font-size="10.00">built_at </text>
<text text-anchor="start" x="2122" y="-369" font-family="Arial Italic" font-size="10.00" fill="#999999">datetime (6,0)</text>
<text text-anchor="start" x="2087" y="-356" font-family="Arial" font-size="10.00">canonical_number </text>
<text text-anchor="start" x="2169" y="-356" font-family="Arial Italic" font-size="10.00" fill="#999999">string</text>
<text text-anchor="start" x="2087" y="-343" font-family="Arial" font-size="10.00">cert_chain </text>
<text text-anchor="start" x="2136" y="-343" font-family="Arial Italic" font-size="10.00" fill="#999999">text</text>
<text text-anchor="start" x="2087" y="-330" font-family="Arial" font-size="10.00">description </text>
<text text-anchor="start" x="2138" y="-330" font-family="Arial Italic" font-size="10.00" fill="#999999">text</text>
<text text-anchor="start" x="2087" y="-317" font-family="Arial" font-size="10.00">full_name </text>
<text text-anchor="start" x="2133" y="-317" font-family="Arial Italic" font-size="10.00" fill="#999999">string ∗ U</text>
<text text-anchor="start" x="2087" y="-304" font-family="Arial" font-size="10.00">indexed </text>
<text text-anchor="start" x="2124" y="-304" font-family="Arial Italic" font-size="10.00" fill="#999999">boolean</text>
<text text-anchor="start" x="2087" y="-291" font-family="Arial" font-size="10.00">info_checksum </text>
<text text-anchor="start" x="2157" y="-291" font-family="Arial Italic" font-size="10.00" fill="#999999">string</text>
<text text-anchor="start" x="2087" y="-278" font-family="Arial" font-size="10.00">latest </text>
<text text-anchor="start" x="2115" y="-278" font-family="Arial Italic" font-size="10.00" fill="#999999">boolean</text>
<text text-anchor="start" x="2087" y="-265" font-family="Arial" font-size="10.00">licenses </text>
<text text-anchor="start" x="2127" y="-265" font-family="Arial Italic" font-size="10.00" fill="#999999">string</text>
<text text-anchor="start" x="2087" y="-252" font-family="Arial" font-size="10.00">metadata </text>
<text text-anchor="start" x="2131" y="-252" font-family="Arial Italic" font-size="10.00" fill="#999999">hstore ∗</text>
<text text-anchor="start" x="2087" y="-239" font-family="Arial" font-size="10.00">number </text>
<text text-anchor="start" x="2123" y="-239" font-family="Arial Italic" font-size="10.00" fill="#999999">string</text>
<text text-anchor="start" x="2087" y="-226" font-family="Arial" font-size="10.00">platform </text>
<text text-anchor="start" x="2126" y="-226" font-family="Arial Italic" font-size="10.00" fill="#999999">string</text>
<text text-anchor="start" x="2087" y="-213" font-family="Arial" font-size="10.00">position </text>
<text text-anchor="start" x="2124" y="-213" font-family="Arial Italic" font-size="10.00" fill="#999999">integer</text>
<text text-anchor="start" x="2087" y="-200" font-family="Arial" font-size="10.00">prerelease </text>
<text text-anchor="start" x="2136" y="-200" font-family="Arial Italic" font-size="10.00" fill="#999999">boolean</text>
<text text-anchor="start" x="2087" y="-187" font-family="Arial" font-size="10.00">required_ruby_version </text>
<text text-anchor="start" x="2186" y="-187" font-family="Arial Italic" font-size="10.00" fill="#999999">string</text>
<text text-anchor="start" x="2087" y="-174" font-family="Arial" font-size="10.00">required_rubygems_version </text>
<text text-anchor="start" x="2210" y="-174" font-family="Arial Italic" font-size="10.00" fill="#999999">string (255)</text>
<text text-anchor="start" x="2087" y="-161" font-family="Arial" font-size="10.00">requirements </text>
<text text-anchor="start" x="2147" y="-161" font-family="Arial Italic" font-size="10.00" fill="#999999">text</text>
<text text-anchor="start" x="2087" y="-148" font-family="Arial" font-size="10.00">sha256 </text>
<text text-anchor="start" x="2122" y="-148" font-family="Arial Italic" font-size="10.00" fill="#999999">string</text>
<text text-anchor="start" x="2087" y="-135" font-family="Arial" font-size="10.00">size </text>
<text text-anchor="start" x="2109" y="-135" font-family="Arial Italic" font-size="10.00" fill="#999999">integer</text>
<text text-anchor="start" x="2087" y="-122" font-family="Arial" font-size="10.00">summary </text>
<text text-anchor="start" x="2131" y="-122" font-family="Arial Italic" font-size="10.00" fill="#999999">text</text>
<text text-anchor="start" x="2087" y="-109" font-family="Arial" font-size="10.00">yanked_at </text>
<text text-anchor="start" x="2136" y="-109" font-family="Arial Italic" font-size="10.00" fill="#999999">datetime (6,0)</text>
<text text-anchor="start" x="2087" y="-96" font-family="Arial" font-size="10.00">yanked_info_checksum </text>
<text text-anchor="start" x="2193" y="-96" font-family="Arial Italic" font-size="10.00" fill="#999999">string</text>
</g>
<!-- m_Rubygem&#45;&gt;m_Version -->
<g id="edge3" class="edge">
<title>m_Rubygem&#45;&gt;m_Version</title>
<path fill="none" stroke="black" d="M1730.42,-542.92C1761.49,-515.47 1814.95,-469.16 1863,-432 1884.95,-415.02 1891.94,-412.83 1914,-396 1918.83,-392.31 1923.71,-388.55 1928.62,-384.74"/>
<polygon fill="black" stroke="black" points="1930.67,-387.14 1935.83,-379.12 1926.8,-382.17 1930.67,-387.14"/>
</g>
<!-- m_WebHook -->
<g id="node19" class="node">
<title>m_WebHook</title>
<path fill="none" stroke="black" d="M902,-223C902,-223 1166,-223 1166,-223 1172,-223 1178,-229 1178,-235 1178,-235 1178,-247 1178,-247 1178,-253 1172,-259 1166,-259 1166,-259 902,-259 902,-259 896,-259 890,-253 890,-247 890,-247 890,-235 890,-235 890,-229 896,-223 902,-223"/>
<text text-anchor="start" x="934" y="-238.2" font-family="Arial Bold" font-size="11.00">WebHook</text>
<polyline fill="none" stroke="black" points="1034,-223 1034,-259 "/>
<text text-anchor="start" x="1041" y="-246" font-family="Arial" font-size="10.00">failure_count </text>
<text text-anchor="start" x="1100" y="-246" font-family="Arial Italic" font-size="10.00" fill="#999999">integer</text>
<text text-anchor="start" x="1041" y="-233" font-family="Arial" font-size="10.00">url </text>
<text text-anchor="start" x="1055" y="-233" font-family="Arial Italic" font-size="10.00" fill="#999999">string ∗</text>
</g>
<!-- m_Rubygem&#45;&gt;m_WebHook -->
<g id="edge2" class="edge">
<title>m_Rubygem&#45;&gt;m_WebHook</title>
<path fill="none" stroke="black" d="M1586,-542.96C1478.1,-517.87 1316.9,-471.24 1193,-396 1134.67,-360.58 1080.76,-300.2 1053.2,-266.53"/>
<polygon fill="black" stroke="black" points="1055.52,-264.39 1047.41,-259.37 1050.62,-268.35 1055.52,-264.39"/>
</g>
<!-- m_SendgridEvent -->
<g id="node14" class="node">
<title>m_SendgridEvent</title>
<path fill="none" stroke="black" d="M2908,-523.5C2908,-523.5 3172,-523.5 3172,-523.5 3178,-523.5 3184,-529.5 3184,-535.5 3184,-535.5 3184,-599.5 3184,-599.5 3184,-605.5 3178,-611.5 3172,-611.5 3172,-611.5 2908,-611.5 2908,-611.5 2902,-611.5 2896,-605.5 2896,-599.5 2896,-599.5 2896,-535.5 2896,-535.5 2896,-529.5 2902,-523.5 2908,-523.5"/>
<text text-anchor="start" x="2926.5" y="-564.7" font-family="Arial Bold" font-size="11.00">SendgridEvent</text>
<polyline fill="none" stroke="black" points="3040,-523.5 3040,-611.5 "/>
<text text-anchor="start" x="3047" y="-598.5" font-family="Arial" font-size="10.00">email </text>
<text text-anchor="start" x="3074" y="-598.5" font-family="Arial Italic" font-size="10.00" fill="#999999">string</text>
<text text-anchor="start" x="3047" y="-585.5" font-family="Arial" font-size="10.00">event_type </text>
<text text-anchor="start" x="3099" y="-585.5" font-family="Arial Italic" font-size="10.00" fill="#999999">string</text>
<text text-anchor="start" x="3047" y="-572.5" font-family="Arial" font-size="10.00">occurred_at </text>
<text text-anchor="start" x="3102" y="-572.5" font-family="Arial Italic" font-size="10.00" fill="#999999">datetime (6,0)</text>
<text text-anchor="start" x="3047" y="-559.5" font-family="Arial" font-size="10.00">payload </text>
<text text-anchor="start" x="3084" y="-559.5" font-family="Arial Italic" font-size="10.00" fill="#999999">jsonb ∗</text>
<text text-anchor="start" x="3047" y="-546.5" font-family="Arial" font-size="10.00">sendgrid_id </text>
<text text-anchor="start" x="3100" y="-546.5" font-family="Arial Italic" font-size="10.00" fill="#999999">string ∗</text>
<text text-anchor="start" x="3047" y="-533.5" font-family="Arial" font-size="10.00">status </text>
<text text-anchor="start" x="3078" y="-533.5" font-family="Arial Italic" font-size="10.00" fill="#999999">string ∗</text>
</g>
<!-- m_User -->
<g id="node16" class="node">
<title>m_User</title>
<path fill="none" stroke="black" d="M751,-432.5C751,-432.5 1073,-432.5 1073,-432.5 1079,-432.5 1085,-438.5 1085,-444.5 1085,-444.5 1085,-690.5 1085,-690.5 1085,-696.5 1079,-702.5 1073,-702.5 1073,-702.5 751,-702.5 751,-702.5 745,-702.5 739,-696.5 739,-690.5 739,-690.5 739,-444.5 739,-444.5 739,-438.5 745,-432.5 751,-432.5"/>
<text text-anchor="start" x="796.5" y="-564.7" font-family="Arial Bold" font-size="11.00">User</text>
<polyline fill="none" stroke="black" points="883,-432.5 883,-702.5 "/>
<text text-anchor="start" x="890" y="-689.5" font-family="Arial" font-size="10.00">api_key </text>
<text text-anchor="start" x="927" y="-689.5" font-family="Arial Italic" font-size="10.00" fill="#999999">string</text>
<text text-anchor="start" x="890" y="-676.5" font-family="Arial" font-size="10.00">blocked_email </text>
<text text-anchor="start" x="956" y="-676.5" font-family="Arial Italic" font-size="10.00" fill="#999999">string</text>
<text text-anchor="start" x="890" y="-663.5" font-family="Arial" font-size="10.00">confirmation_token </text>
<text text-anchor="start" x="976" y="-663.5" font-family="Arial Italic" font-size="10.00" fill="#999999">string (128)</text>
<text text-anchor="start" x="890" y="-650.5" font-family="Arial" font-size="10.00">email </text>
<text text-anchor="start" x="917" y="-650.5" font-family="Arial Italic" font-size="10.00" fill="#999999">string ∗ U</text>
<text text-anchor="start" x="890" y="-637.5" font-family="Arial" font-size="10.00">email_confirmed </text>
<text text-anchor="start" x="965" y="-637.5" font-family="Arial Italic" font-size="10.00" fill="#999999">boolean ∗</text>
<text text-anchor="start" x="890" y="-624.5" font-family="Arial" font-size="10.00">email_reset </text>
<text text-anchor="start" x="944" y="-624.5" font-family="Arial Italic" font-size="10.00" fill="#999999">boolean</text>
<text text-anchor="start" x="890" y="-611.5" font-family="Arial" font-size="10.00">encrypted_password </text>
<text text-anchor="start" x="984" y="-611.5" font-family="Arial Italic" font-size="10.00" fill="#999999">string (128)</text>
<text text-anchor="start" x="890" y="-598.5" font-family="Arial" font-size="10.00">handle </text>
<text text-anchor="start" x="922" y="-598.5" font-family="Arial Italic" font-size="10.00" fill="#999999">string U</text>
<text text-anchor="start" x="890" y="-585.5" font-family="Arial" font-size="10.00">hide_email </text>
<text text-anchor="start" x="940" y="-585.5" font-family="Arial Italic" font-size="10.00" fill="#999999">boolean</text>
<text text-anchor="start" x="890" y="-572.5" font-family="Arial" font-size="10.00">mail_fails </text>
<text text-anchor="start" x="935" y="-572.5" font-family="Arial Italic" font-size="10.00" fill="#999999">integer</text>
<text text-anchor="start" x="890" y="-559.5" font-family="Arial" font-size="10.00">mfa_level </text>
<text text-anchor="start" x="936" y="-559.5" font-family="Arial Italic" font-size="10.00" fill="#999999">integer</text>
<text text-anchor="start" x="890" y="-546.5" font-family="Arial" font-size="10.00">mfa_recovery_codes </text>
<text text-anchor="start" x="984" y="-546.5" font-family="Arial Italic" font-size="10.00" fill="#999999">string</text>
<text text-anchor="start" x="890" y="-533.5" font-family="Arial" font-size="10.00">mfa_seed </text>
<text text-anchor="start" x="936" y="-533.5" font-family="Arial Italic" font-size="10.00" fill="#999999">string</text>
<text text-anchor="start" x="890" y="-520.5" font-family="Arial" font-size="10.00">remember_token </text>
<text text-anchor="start" x="966" y="-520.5" font-family="Arial Italic" font-size="10.00" fill="#999999">string (128)</text>
<text text-anchor="start" x="890" y="-507.5" font-family="Arial" font-size="10.00">remember_token_expires_at </text>
<text text-anchor="start" x="1017" y="-507.5" font-family="Arial Italic" font-size="10.00" fill="#999999">datetime (6,0)</text>
<text text-anchor="start" x="890" y="-494.5" font-family="Arial" font-size="10.00">salt </text>
<text text-anchor="start" x="909" y="-494.5" font-family="Arial Italic" font-size="10.00" fill="#999999">string (128)</text>
<text text-anchor="start" x="890" y="-481.5" font-family="Arial" font-size="10.00">token </text>
<text text-anchor="start" x="918" y="-481.5" font-family="Arial Italic" font-size="10.00" fill="#999999">string (128)</text>
<text text-anchor="start" x="890" y="-468.5" font-family="Arial" font-size="10.00">token_expires_at </text>
<text text-anchor="start" x="968" y="-468.5" font-family="Arial Italic" font-size="10.00" fill="#999999">datetime (6,0)</text>
<text text-anchor="start" x="890" y="-455.5" font-family="Arial" font-size="10.00">twitter_username </text>
<text text-anchor="start" x="969" y="-455.5" font-family="Arial Italic" font-size="10.00" fill="#999999">string</text>
<text text-anchor="start" x="890" y="-442.5" font-family="Arial" font-size="10.00">unconfirmed_email </text>
<text text-anchor="start" x="975" y="-442.5" font-family="Arial Italic" font-size="10.00" fill="#999999">string</text>
</g>
<!-- m_User&#45;&gt;m_ApiKey -->
<g id="edge11" class="edge">
<title>m_User&#45;&gt;m_ApiKey</title>
<path fill="none" stroke="black" d="M738.87,-537.57C617.73,-512.33 455.14,-468.17 326,-396 297.56,-380.11 269.94,-358.65 245.51,-336.8"/>
<polygon fill="black" stroke="black" points="247.49,-334.34 238.71,-330.63 243.26,-339.01 247.49,-334.34"/>
</g>
<!-- m_User&#45;&gt;m_Deletion -->
<g id="edge10" class="edge">
<title>m_User&#45;&gt;m_Deletion</title>
<path fill="none" stroke="black" d="M738.88,-459.33C708.96,-439.15 678.61,-417.58 651,-396 600.25,-356.34 546.46,-304.37 514.32,-272.08"/>
<polygon fill="black" stroke="black" points="516.37,-269.68 507.79,-265.51 511.89,-274.11 516.37,-269.68"/>
</g>
<!-- m_User&#45;&gt;m_Ownership -->
<g id="edge7" class="edge">
<title>m_User&#45;&gt;m_Ownership</title>
<path fill="none" stroke="black" d="M1085.22,-467.87C1121.59,-445.39 1159.16,-420.78 1193,-396 1237.07,-363.73 1283.42,-322.84 1317.49,-291.31"/>
<polygon fill="black" stroke="black" points="1319.69,-293.57 1324.14,-285.14 1315.4,-288.96 1319.69,-293.57"/>
</g>
<!-- m_User&#45;&gt;m_OwnershipCall -->
<g id="edge12" class="edge">
<title>m_User&#45;&gt;m_OwnershipCall</title>
<path fill="none" stroke="black" d="M1085.21,-544.02C1217.78,-521.27 1401.6,-477.39 1545,-396 1604.66,-362.14 1658.42,-300.63 1685.51,-266.49"/>
<polygon fill="black" stroke="black" points="1688.12,-268.26 1691.19,-259.23 1683.16,-264.38 1688.12,-268.26"/>
</g>
<!-- m_User&#45;&gt;m_OwnershipRequest -->
<g id="edge13" class="edge">
<title>m_User&#45;&gt;m_OwnershipRequest</title>
<path fill="none" stroke="black" d="M738.99,-449.28C724.63,-433.04 712.14,-415.25 703,-396 643.91,-271.54 611.94,-189.4 703,-86 713.66,-73.9 887.37,-54.16 1020.76,-40.65"/>
<polygon fill="black" stroke="black" points="1021.25,-43.77 1029.88,-39.73 1020.61,-37.5 1021.25,-43.77"/>
</g>
<!-- m_User&#45;&gt;m_Subscription -->
<g id="edge9" class="edge">
<title>m_User&#45;&gt;m_Subscription</title>
<path fill="none" stroke="black" d="M861.08,-432.17C837.79,-370.71 812.4,-303.74 798.85,-267.97"/>
<polygon fill="black" stroke="black" points="801.64,-266.46 795.5,-259.16 795.75,-268.69 801.64,-266.46"/>
</g>
<!-- m_User&#45;&gt;m_Version -->
<g id="edge6" class="edge">
<title>m_User&#45;&gt;m_Version</title>
<path fill="none" stroke="black" d="M1085.06,-525.1C1212.04,-495.86 1388.99,-457.51 1546,-432 1685.96,-409.26 1729.5,-443.78 1863,-396 1884.78,-388.21 1906.58,-378.08 1927.66,-366.75"/>
<polygon fill="black" stroke="black" points="1929.32,-369.43 1935.71,-362.35 1926.3,-363.91 1929.32,-369.43"/>
</g>
<!-- m_User&#45;&gt;m_WebHook -->
<g id="edge1" class="edge">
<title>m_User&#45;&gt;m_WebHook</title>
<path fill="none" stroke="black" d="M962.5,-432.17C985.61,-370.71 1010.79,-303.74 1024.23,-267.97"/>
<polygon fill="black" stroke="black" points="1027.33,-268.69 1027.55,-259.16 1021.43,-266.48 1027.33,-268.69"/>
</g>
<!-- m_User::WithPrivateFields -->
<g id="node17" class="node">
<title>m_User::WithPrivateFields</title>
<path fill="none" stroke="black" d="M3225,-432.5C3225,-432.5 3547,-432.5 3547,-432.5 3553,-432.5 3559,-438.5 3559,-444.5 3559,-444.5 3559,-690.5 3559,-690.5 3559,-696.5 3553,-702.5 3547,-702.5 3547,-702.5 3225,-702.5 3225,-702.5 3219,-702.5 3213,-696.5 3213,-690.5 3213,-690.5 3213,-444.5 3213,-444.5 3213,-438.5 3219,-432.5 3225,-432.5"/>
<text text-anchor="start" x="3220.5" y="-564.7" font-family="Arial Bold" font-size="11.00">User::WithPrivateFields</text>
<polyline fill="none" stroke="black" points="3357,-432.5 3357,-702.5 "/>
<text text-anchor="start" x="3364" y="-689.5" font-family="Arial" font-size="10.00">api_key </text>
<text text-anchor="start" x="3401" y="-689.5" font-family="Arial Italic" font-size="10.00" fill="#999999">string</text>
<text text-anchor="start" x="3364" y="-676.5" font-family="Arial" font-size="10.00">blocked_email </text>
<text text-anchor="start" x="3430" y="-676.5" font-family="Arial Italic" font-size="10.00" fill="#999999">string</text>
<text text-anchor="start" x="3364" y="-663.5" font-family="Arial" font-size="10.00">confirmation_token </text>
<text text-anchor="start" x="3450" y="-663.5" font-family="Arial Italic" font-size="10.00" fill="#999999">string (128)</text>
<text text-anchor="start" x="3364" y="-650.5" font-family="Arial" font-size="10.00">email </text>
<text text-anchor="start" x="3391" y="-650.5" font-family="Arial Italic" font-size="10.00" fill="#999999">string ∗ U</text>
<text text-anchor="start" x="3364" y="-637.5" font-family="Arial" font-size="10.00">email_confirmed </text>
<text text-anchor="start" x="3439" y="-637.5" font-family="Arial Italic" font-size="10.00" fill="#999999">boolean ∗</text>
<text text-anchor="start" x="3364" y="-624.5" font-family="Arial" font-size="10.00">email_reset </text>
<text text-anchor="start" x="3418" y="-624.5" font-family="Arial Italic" font-size="10.00" fill="#999999">boolean</text>
<text text-anchor="start" x="3364" y="-611.5" font-family="Arial" font-size="10.00">encrypted_password </text>
<text text-anchor="start" x="3458" y="-611.5" font-family="Arial Italic" font-size="10.00" fill="#999999">string (128)</text>
<text text-anchor="start" x="3364" y="-598.5" font-family="Arial" font-size="10.00">handle </text>
<text text-anchor="start" x="3396" y="-598.5" font-family="Arial Italic" font-size="10.00" fill="#999999">string U</text>
<text text-anchor="start" x="3364" y="-585.5" font-family="Arial" font-size="10.00">hide_email </text>
<text text-anchor="start" x="3414" y="-585.5" font-family="Arial Italic" font-size="10.00" fill="#999999">boolean</text>
<text text-anchor="start" x="3364" y="-572.5" font-family="Arial" font-size="10.00">mail_fails </text>
<text text-anchor="start" x="3409" y="-572.5" font-family="Arial Italic" font-size="10.00" fill="#999999">integer</text>
<text text-anchor="start" x="3364" y="-559.5" font-family="Arial" font-size="10.00">mfa_level </text>
<text text-anchor="start" x="3410" y="-559.5" font-family="Arial Italic" font-size="10.00" fill="#999999">integer</text>
<text text-anchor="start" x="3364" y="-546.5" font-family="Arial" font-size="10.00">mfa_recovery_codes </text>
<text text-anchor="start" x="3458" y="-546.5" font-family="Arial Italic" font-size="10.00" fill="#999999">string</text>
<text text-anchor="start" x="3364" y="-533.5" font-family="Arial" font-size="10.00">mfa_seed </text>
<text text-anchor="start" x="3410" y="-533.5" font-family="Arial Italic" font-size="10.00" fill="#999999">string</text>
<text text-anchor="start" x="3364" y="-520.5" font-family="Arial" font-size="10.00">remember_token </text>
<text text-anchor="start" x="3440" y="-520.5" font-family="Arial Italic" font-size="10.00" fill="#999999">string (128)</text>
<text text-anchor="start" x="3364" y="-507.5" font-family="Arial" font-size="10.00">remember_token_expires_at </text>
<text text-anchor="start" x="3491" y="-507.5" font-family="Arial Italic" font-size="10.00" fill="#999999">datetime (6,0)</text>
<text text-anchor="start" x="3364" y="-494.5" font-family="Arial" font-size="10.00">salt </text>
<text text-anchor="start" x="3383" y="-494.5" font-family="Arial Italic" font-size="10.00" fill="#999999">string (128)</text>
<text text-anchor="start" x="3364" y="-481.5" font-family="Arial" font-size="10.00">token </text>
<text text-anchor="start" x="3392" y="-481.5" font-family="Arial Italic" font-size="10.00" fill="#999999">string (128)</text>
<text text-anchor="start" x="3364" y="-468.5" font-family="Arial" font-size="10.00">token_expires_at </text>
<text text-anchor="start" x="3442" y="-468.5" font-family="Arial Italic" font-size="10.00" fill="#999999">datetime (6,0)</text>
<text text-anchor="start" x="3364" y="-455.5" font-family="Arial" font-size="10.00">twitter_username </text>
<text text-anchor="start" x="3443" y="-455.5" font-family="Arial Italic" font-size="10.00" fill="#999999">string</text>
<text text-anchor="start" x="3364" y="-442.5" font-family="Arial" font-size="10.00">unconfirmed_email </text>
<text text-anchor="start" x="3449" y="-442.5" font-family="Arial Italic" font-size="10.00" fill="#999999">string</text>
</g>
<!-- m_Version&#45;&gt;m_Dependency -->
<g id="edge4" class="edge">
<title>m_Version&#45;&gt;m_Dependency</title>
<path fill="none" stroke="black" d="M2023.52,-86.47C2018.21,-75.96 2013.28,-66.19 2009,-57.71"/>
<polygon fill="black" stroke="black" points="2011.81,-56.28 2004.94,-49.67 2006.19,-59.12 2011.81,-56.28"/>
</g>
<!-- m_Version&#45;&gt;m_GemDownload -->
<g id="edge5" class="edge">
<title>m_Version&#45;&gt;m_GemDownload</title>
<path fill="none" stroke="black" d="M2250.95,-86.47C2267.63,-69.38 2282.39,-54.27 2292.99,-43.42"/>
</g>
</g>
</svg>
