<svg width="4526" height="1091" viewBox="0 0 4526 1091" fill="none" xmlns="http://www.w3.org/2000/svg">
<g clip-path="url(#clip0_1766_2)">
<path d="M341.406 646.312C257.552 646.312 188.021 618.448 132.812 562.719C77.604 506.99 50 437.849 50 355.297C50 272.484 77.604 203.214 132.812 147.484C188.021 91.755 257.552 63.891 341.406 63.891C391.667 63.891 438.021 75.479 480.469 98.656C523.177 121.833 556.771 153.474 581.25 193.578L471.094 257.25C458.854 235.375 441.146 218.448 417.969 206.469C395.052 194.49 369.531 188.5 341.406 188.5C291.927 188.5 252.344 203.734 222.656 234.203C192.969 264.672 178.125 305.036 178.125 355.297C178.125 405.297 192.839 445.531 222.266 476C251.953 506.208 291.667 521.312 341.406 521.312C369.792 521.312 395.573 515.193 418.75 502.953C441.927 490.714 459.375 473.917 471.094 452.562L581.25 516.625C557.292 556.729 523.958 588.37 481.25 611.547C438.802 634.724 392.188 646.312 341.406 646.312ZM637.312 634.984V51H757.234V634.984H637.312ZM963.297 502.953C981.005 520.661 1002.88 529.516 1028.92 529.516C1055.22 529.516 1077.1 520.661 1094.55 502.953C1112.26 485.245 1121.11 462.589 1121.11 434.984C1121.11 407.38 1112.26 384.724 1094.55 367.016C1077.1 349.307 1055.22 340.453 1028.92 340.453C1002.88 340.453 981.005 349.307 963.297 367.016C945.849 384.724 937.125 407.38 937.125 434.984C937.125 462.589 945.849 485.245 963.297 502.953ZM1179.31 584.984C1138.17 625.87 1088.04 646.312 1028.92 646.312C969.807 646.312 919.677 625.87 878.531 584.984C837.385 544.099 816.812 494.099 816.812 434.984C816.812 375.87 837.385 325.87 878.531 284.984C919.677 244.099 969.807 223.656 1028.92 223.656C1088.04 223.656 1138.17 244.099 1179.31 284.984C1220.46 325.87 1241.03 375.87 1241.03 434.984C1241.03 494.099 1220.46 544.099 1179.31 584.984ZM1559.2 234.984H1679.12V634.984H1559.2V597.484C1535.24 630.036 1497.09 646.312 1444.75 646.312C1402.04 646.312 1366.36 631.599 1337.72 602.172C1309.33 572.745 1295.14 532.25 1295.14 480.688V234.984H1415.45V463.109C1415.45 486.547 1421.96 504.516 1434.98 517.016C1448.01 529.516 1465.32 535.766 1486.94 535.766C1508.55 535.766 1526 528.865 1539.28 515.062C1552.56 501.26 1559.2 480.688 1559.2 453.344V234.984ZM1954.33 532.641C1982.45 532.641 2005.37 523.786 2023.08 506.078C2040.79 488.37 2049.64 464.672 2049.64 434.984C2049.64 405.297 2040.79 381.599 2023.08 363.891C2005.37 346.182 1982.45 337.328 1954.33 337.328C1926.2 337.328 1903.29 346.182 1885.58 363.891C1867.87 381.599 1859.02 405.297 1859.02 434.984C1859.02 464.672 1867.87 488.37 1885.58 506.078C1903.03 523.786 1925.94 532.641 1954.33 532.641ZM2049.64 74.828H2169.56V634.984H2049.64V597.484C2021.52 630.036 1981.41 646.312 1929.33 646.312C1877.24 646.312 1832.58 625.87 1795.34 584.984C1758.1 544.099 1739.35 494.099 1739.09 434.984C1738.83 375.87 1757.45 325.87 1794.95 284.984C1832.45 244.099 1877.24 223.656 1929.33 223.656C1981.41 223.656 2021.52 239.932 2049.64 272.484V74.828ZM2411.95 427.172H2543.2L2477.58 221.312L2411.95 427.172ZM2609.61 634.984L2581.88 547.094H2373.67L2345.55 634.984H2205.7L2395.94 74.828H2559.22L2749.84 634.984H2609.61ZM3349.27 74.828V601.984C3349.27 601.984 3322.17 592.984 3285.4 592.984C3248.62 592.984 3221.53 601.984 3221.53 601.984V309.203L3076.61 547.094H3062.16L2917.62 309.203V634.984H2789.5V74.828H2917.62L3069.58 323.656L3221.53 74.828H3349.27ZM3704.94 521.312C3716.66 521.312 3729.68 520.01 3744 517.406L3663.14 431.859L3755.33 350.219L3844.78 445.531C3860.15 417.927 3867.96 387.719 3868.22 354.906C3868.22 305.948 3852.59 265.974 3821.34 234.984C3790.09 203.995 3751.29 188.5 3704.94 188.5C3658.58 188.5 3619.78 203.995 3588.53 234.984C3557.28 265.974 3541.66 305.948 3541.66 354.906C3541.66 403.865 3557.28 443.839 3588.53 474.828C3619.78 505.818 3658.58 521.312 3704.94 521.312ZM3995.95 354.906C3995.95 424.177 3974.73 485.245 3932.28 538.109L3988.14 597.484L3895.95 679.125L3836.19 615.844C3794.52 636.156 3750.77 646.312 3704.94 646.312C3623.95 646.312 3555.2 618.318 3498.69 562.328C3442.18 506.599 3413.92 437.589 3413.92 355.297C3413.92 273.005 3442.05 203.865 3498.3 147.875C3555.07 91.885 3623.95 63.891 3704.94 63.891C3785.93 63.891 3854.68 91.885 3911.19 147.875C3967.7 203.865 3995.95 272.875 3995.95 354.906ZM4276.23 338.891C4296.03 338.891 4312.3 331.99 4325.06 318.188C4337.82 304.385 4344.2 287.328 4344.2 267.016C4344.2 246.703 4337.82 229.646 4325.06 215.844C4312.3 202.042 4296.03 195.141 4276.23 195.141H4192.25V338.891H4276.23ZM4276.23 74.828C4331.18 74.828 4377.54 93.578 4415.3 131.078C4453.06 168.578 4471.94 213.891 4471.94 267.016C4471.94 320.401 4453.06 365.714 4415.3 402.953C4377.54 440.193 4331.18 458.812 4276.23 458.812H4192.25V634.984H4176.17C4176.17 634.984 4184.67 539.484 4139.17 523.984C4093.67 508.484 4064.12 557.984 4064.12 557.984V74.828H4276.23ZM2806.7 885.535C2811.64 890.405 2817.91 892.84 2825.5 892.84C2833.09 892.84 2839.36 890.405 2844.3 885.535C2849.24 880.665 2851.71 874.148 2851.71 865.984C2851.71 857.82 2849.2 851.303 2844.19 846.434C2839.32 841.564 2833.09 839.129 2825.5 839.129C2817.91 839.129 2811.61 841.564 2806.59 846.434C2801.58 851.303 2799.15 857.82 2799.29 865.984C2799.29 874.148 2801.76 880.665 2806.7 885.535ZM2799.29 821.297C2807.02 812.345 2818.05 807.869 2832.38 807.869C2846.7 807.869 2858.98 813.491 2869.22 824.734C2879.46 835.978 2884.58 849.728 2884.58 865.984C2884.58 882.241 2879.46 895.991 2869.22 907.234C2858.98 918.478 2846.7 924.1 2832.38 924.1C2818.05 924.1 2807.02 919.624 2799.29 910.672V920.984H2766.31V766.941H2799.29V821.297ZM2900.86 934.197C2908.45 934.197 2914.29 932.837 2918.37 930.115C2922.52 927.394 2925.85 922.667 2928.36 915.936L2884.53 810.984H2920.84L2945.22 878.338L2965.96 810.984H3001.08L2963.49 917.654C2957.33 934.985 2949.23 947.374 2939.21 954.822C2929.18 962.342 2916.4 965.743 2900.86 965.027V934.197Z" fill="#141414"/>
<path d="M4244.55 806.71C4247.71 810.289 4249.29 815.035 4249.29 820.929C4249.29 832.418 4244.17 842.53 4233.94 851.231C4223.7 859.932 4209.7 866.468 4191.93 870.819V869.877C4191.93 850.912 4195.77 834.752 4203.45 821.4C4211.13 808.028 4220.54 801.342 4231.68 801.342C4237.1 801.342 4241.39 803.132 4244.55 806.71ZM4121.67 589.618C4123.63 596.172 4124.61 605.363 4124.61 617.209C4124.61 663.369 4107.75 724.502 4074.02 800.608C4075.83 763.506 4078.76 727.93 4082.83 693.936C4086.9 659.941 4091.79 632.426 4097.51 611.371C4103.23 590.315 4108.95 579.787 4114.67 579.787C4117.38 579.787 4119.72 583.064 4121.67 589.618ZM3961.99 894.36C3961.99 872.872 3967.5 853.303 3978.51 835.713C3989.54 818.104 4003.35 806.653 4019.99 801.342C4019.49 813.49 4019.18 825.646 4019.07 837.804C4019.07 858.69 4020.57 877.542 4023.6 894.36C4014.85 907.45 4007.61 916.414 4001.85 921.254C3996.11 926.075 3990.37 928.487 3984.65 928.487C3969.53 928.487 3961.99 917.111 3961.99 894.36ZM3767.01 912.591C3760.56 903.551 3757.34 890.48 3757.34 873.342C3757.34 851.514 3761.31 834.621 3769.27 822.624C3777.23 810.627 3787.22 804.619 3799.23 804.619H3801.49C3800.59 809.553 3800.14 814.558 3800.14 819.573C3800.14 831.438 3802.62 842.644 3807.57 853.228C3812.3 863.549 3819.69 872.422 3828.99 878.935C3826.58 894.209 3821.83 905.905 3814.78 914.003C3807.72 922.101 3799.38 926.151 3789.78 926.151C3781.07 926.151 3773.49 921.631 3767.01 912.591ZM3905.53 899.031C3905.53 921.8 3911.46 940.257 3923.35 954.439C3935.24 968.62 3950.39 975.701 3968.76 975.701C3981.41 975.701 3992.48 972.896 4001.96 967.283C4011.45 961.671 4022.51 950.615 4035.16 934.098C4047.2 961.84 4064.69 975.701 4087.57 975.701C4102.03 975.701 4116.63 970.164 4131.38 959.109C4139.55 952.988 4147.34 946.17 4154.76 938.675C4157.38 942.347 4160.27 945.832 4163.45 949.052C4180.94 966.812 4205.48 975.701 4237.1 975.701C4260.06 975.765 4282.62 969.629 4302.38 957.941C4307.16 955.154 4311.7 952.292 4315.99 949.391C4320.26 948.261 4324.38 945.682 4328.35 941.576C4330.91 938.996 4333.44 936.377 4335.92 933.721C4341.06 929.013 4345.61 924.136 4349.58 919.145C4351 917.45 4352.22 915.605 4353.29 913.571C4355.02 911.398 4356.72 909.201 4358.39 906.978C4367.58 894.831 4376.83 879.576 4386.17 861.176C4390.39 866.166 4394.9 872.005 4399.72 878.71C4404.54 885.415 4408.53 892.345 4411.69 899.502C4414.85 906.678 4416.58 914.305 4416.9 922.422C4412.9 921.935 4408.9 921.389 4404.91 920.784C4400.35 920.063 4395.75 919.673 4391.14 919.616C4380 919.616 4371.56 922.573 4365.84 928.487C4363.08 931.242 4360.9 934.523 4359.43 938.135C4357.95 941.748 4357.22 945.621 4357.26 949.524C4357.26 958.884 4361.4 967.283 4369.68 974.76C4377.96 982.236 4389.93 985.984 4405.59 985.984C4419.14 985.984 4431.19 982.406 4441.73 975.249C4452.25 968.113 4460.74 958.365 4466.36 946.961C4472.23 935.285 4475.17 922.874 4475.17 909.804C4475.27 899.286 4472.7 888.914 4467.72 879.651C4462.75 870.461 4455.45 859.311 4445.81 846.222C4440.41 839.578 4435.5 832.547 4431.13 825.185C4427.97 819.573 4426.39 814.45 4426.39 809.761C4426.39 801.983 4429.1 792.472 4434.52 781.248C4436.63 777.199 4438.28 773.149 4439.49 769.1C4440.69 765.051 4441.29 762.094 4441.29 760.211C4441.29 756.783 4439.64 754.297 4436.32 752.733C4433.01 751.189 4427.14 750.399 4418.71 750.399C4400.64 750.399 4388.73 757.254 4383.01 770.964C4375.89 788.03 4368.59 805.019 4361.1 821.927C4356.25 832.99 4350.74 843.756 4344.62 854.169C4338.14 864.716 4329.26 877.43 4317.99 892.383C4309.03 900.832 4299.08 908.168 4288.36 914.229C4271.05 924.042 4255.62 928.957 4242.07 928.957C4220.99 928.957 4206.68 921.801 4199.16 907.45C4234.69 898.41 4259.91 886.187 4274.81 870.762C4282.04 863.491 4287.74 854.846 4291.58 845.338C4295.42 835.828 4297.32 825.647 4297.17 815.392C4297.17 796.992 4291.9 782.434 4281.36 771.661C4270.82 760.926 4256.82 755.539 4239.35 755.539C4219.78 755.539 4202.24 761.001 4186.73 771.906C4171.21 782.81 4159.09 797.52 4150.36 816.071C4141.57 834.869 4137.09 855.397 4137.26 876.149C4137.26 883.098 4137.71 889.708 4138.57 895.998C4133.34 901.994 4127.77 907.691 4121.9 913.062C4113.47 920.538 4105.19 924.286 4097.06 924.286C4090.73 924.286 4085.54 920.388 4081.47 912.61C4077.41 904.813 4074.78 891.893 4073.57 873.813C4101.27 824.564 4123.41 776.576 4139.97 729.832C4156.53 683.088 4164.81 642.257 4164.81 607.377C4164.81 582.743 4160.52 564.362 4151.94 552.196C4143.35 540.067 4132.59 533.984 4119.64 533.984C4093.44 533.984 4072.29 555.417 4056.16 598.263C4040.05 641.109 4029.14 692.75 4023.41 753.205C4001.49 755.555 3980.63 763.881 3963.12 777.274C3945.18 790.834 3931.12 808.292 3920.87 829.63C3920.16 831.095 3919.49 832.57 3918.83 834.056C3906.45 837.102 3893.83 839.137 3881.12 840.139C3878.71 816.145 3870.5 795.975 3856.5 779.609C3842.5 763.261 3824.04 755.069 3801.17 755.069C3782.48 755.069 3765.47 760.304 3750.11 770.738C3734.75 781.172 3722.71 795.674 3713.98 814.206C3705.23 832.738 3700.86 853.85 3700.86 877.542C3700.86 883.437 3701.24 889.2 3701.99 894.812C3694.48 902.211 3686.14 908.725 3677.15 914.229C3662.84 922.799 3649.52 927.092 3637.17 927.092C3606.76 927.092 3591.53 909.012 3591.53 872.852C3591.53 859.782 3593.36 847.786 3596.97 836.881C3600.59 825.958 3605.41 817.313 3611.43 810.929C3617.45 804.544 3623.92 801.342 3630.85 801.342C3634.46 801.342 3637.25 802.435 3639.21 804.619C3641.16 806.804 3642.14 809.912 3642.14 813.98C3642.14 818.029 3641.39 822.379 3639.88 827.069C3639.58 828.312 3639.13 830.326 3638.53 833.133C3637.97 835.586 3637.66 838.093 3637.63 840.61C3637.63 845.601 3639.36 849.499 3642.82 852.287C3646.28 855.112 3650.87 856.505 3656.6 856.505C3665.63 856.505 3672.93 851.986 3678.5 842.946C3684.07 833.906 3686.86 822.85 3686.86 809.761C3686.86 793.866 3682.27 780.87 3673.08 770.738C3663.9 760.606 3651.02 755.539 3634.46 755.539C3617.6 755.539 3601.49 760.681 3586.12 770.983C3570.76 781.247 3558.26 795.9 3548.63 814.903C3538.99 833.924 3534.17 856.034 3534.17 881.289C3534.17 909.634 3542.38 932.461 3558.79 949.768C3575.2 967.057 3598.18 975.701 3627.67 975.701C3646.06 975.701 3665.91 968.036 3684.83 960.974C3696.42 956.642 3707.6 948.695 3717.74 939.033C3723.65 948.167 3731.05 955.87 3739.95 962.142C3752.75 971.182 3768.18 975.701 3786.25 975.701C3807.63 975.701 3826.75 967.829 3843.63 952.103C3860.49 936.358 3871.78 915.397 3877.5 889.219C3887.05 888.829 3896.56 887.823 3905.98 886.206C3905.66 890.48 3905.51 894.763 3905.51 899.049L3905.53 899.031Z" fill="#141414"/>
<path fill-rule="evenodd" clip-rule="evenodd" d="M3289.58 1041.98C3409.08 1041.98 3505.95 945.112 3505.95 825.614C3505.95 706.116 3409.08 609.243 3289.58 609.243C3170.08 609.243 3073.21 706.116 3073.21 825.614C3073.21 945.112 3170.08 1041.98 3289.58 1041.98ZM3277.57 889.977C3281.34 882.946 3283.22 875.272 3283.22 866.955C3283.22 862.153 3282.58 857.48 3281.29 852.936C3280.03 848.422 3278.17 844.097 3275.76 840.074C3273.34 836.02 3270.41 832.302 3267.02 829.013C3263.59 825.666 3259.74 822.771 3255.57 820.396C3258.24 817.983 3260.62 815.263 3262.65 812.293C3264.78 809.317 3266.59 806.127 3268.05 802.775C3269.49 799.414 3270.61 795.926 3271.39 792.357C3272.25 788.756 3272.68 785.197 3272.68 781.682C3272.68 774.479 3271.05 767.748 3267.79 761.489C3264.62 755.144 3260.2 749.613 3254.54 744.898C3248.97 740.096 3242.45 736.323 3234.99 733.579C3227.53 730.835 3219.56 729.463 3211.07 729.463C3202.67 729.463 3194.74 730.835 3187.28 733.579C3179.82 736.323 3173.3 740.096 3167.73 744.898C3162.15 749.613 3157.74 755.144 3154.48 761.489C3151.31 767.748 3149.72 774.479 3149.72 781.682C3149.72 785.197 3150.11 788.756 3150.88 792.357C3151.65 795.888 3152.77 799.335 3154.22 802.647C3155.75 805.965 3157.56 809.148 3159.62 812.164C3161.77 815.165 3164.17 817.823 3166.83 820.138C3162.59 822.505 3158.69 825.448 3155.25 828.884C3151.85 832.191 3148.87 835.906 3146.38 839.945C3143.97 843.975 3142.13 848.306 3140.85 852.936C3139.56 857.497 3138.91 862.215 3138.92 866.955C3138.92 875.272 3140.8 882.946 3144.58 889.977C3148.35 897.008 3153.49 903.096 3160.01 908.241C3166.61 913.3 3174.29 917.244 3183.03 920.074C3191.78 922.989 3201.12 924.447 3211.07 924.447C3221.02 924.447 3230.36 922.989 3239.11 920.074C3247.85 917.244 3255.49 913.3 3262 908.241C3268.6 903.096 3273.79 897.008 3277.57 889.977ZM3234.48 777.309C3235.85 779.881 3236.54 782.668 3236.54 785.669C3236.54 788.67 3235.85 791.457 3234.48 794.029C3233.19 796.602 3231.39 798.831 3229.08 800.717C3226.85 802.604 3224.19 804.104 3221.1 805.219C3218.02 806.334 3214.76 806.891 3211.33 806.891C3207.81 806.891 3204.51 806.334 3201.42 805.219C3198.34 804.104 3195.64 802.604 3193.32 800.717C3191.11 798.854 3189.28 796.583 3187.92 794.029C3186.63 791.457 3185.99 788.67 3185.99 785.669C3185.99 782.668 3186.63 779.881 3187.92 777.309C3189.27 774.677 3191.1 772.321 3193.32 770.364C3195.64 768.392 3198.34 766.848 3201.42 765.733C3204.51 764.619 3207.81 764.061 3211.33 764.061C3214.76 764.061 3218.02 764.619 3221.1 765.733C3224.19 766.848 3226.85 768.392 3229.08 770.364C3231.39 772.336 3233.19 774.651 3234.48 777.309ZM3243.74 854.479C3245.63 857.995 3246.57 861.81 3246.57 865.926C3246.57 870.042 3245.63 873.815 3243.74 877.244C3241.94 880.674 3239.41 883.632 3236.15 886.119C3232.98 888.605 3229.21 890.578 3224.83 892.035C3220.54 893.407 3215.96 894.093 3211.07 894.093C3206.18 894.093 3201.6 893.407 3197.31 892.035C3193.02 890.578 3189.25 888.605 3185.99 886.119C3182.82 883.632 3180.29 880.674 3178.4 877.244C3176.6 873.815 3175.7 870.042 3175.7 865.926C3175.7 861.81 3176.6 857.995 3178.4 854.479C3180.29 850.878 3182.82 847.748 3185.99 845.09C3189.25 842.432 3193.02 840.331 3197.31 838.788C3201.6 837.244 3206.18 836.473 3211.07 836.473C3215.96 836.473 3220.54 837.244 3224.83 838.788C3229.21 840.331 3232.98 842.432 3236.15 845.09C3239.41 847.748 3241.94 850.878 3243.74 854.479ZM3423.94 882.775H3442.33V845.99H3423.94V753.772H3387.02V845.99H3336.22L3352.3 735.251H3315.38L3294.8 882.775H3387.02V919.688H3423.94V882.775Z" fill="#141414"/>
</g>
<defs>
<clipPath id="clip0_1766_2">
<rect width="4526" height="1091" fill="white"/>
</clipPath>
</defs>
</svg>
